<?xml version="1.0" encoding="UTF-8" standalone="no"?>
<svg
   width="500"
   height="500"
   viewBox="0 0 500 500"
   version="1.1"
   id="svg12"
   sodipodi:docname="AccountVerification.svg"
   inkscape:version="1.2.1 (9c6d41e410, 2022-07-14)"
   xmlns:inkscape="http://www.inkscape.org/namespaces/inkscape"
   xmlns:sodipodi="http://sodipodi.sourceforge.net/DTD/sodipodi-0.dtd"
   xmlns="http://www.w3.org/2000/svg"
   xmlns:svg="http://www.w3.org/2000/svg">
  <defs
     id="defs16" />
  <sodipodi:namedview
     id="namedview14"
     pagecolor="#ffffff"
     bordercolor="#000000"
     borderopacity="0.25"
     inkscape:showpageshadow="2"
     inkscape:pageopacity="0.0"
     inkscape:pagecheckerboard="0"
     inkscape:deskcolor="#d1d1d1"
     showgrid="false"
     inkscape:zoom="1.1124969"
     inkscape:cx="223.37141"
     inkscape:cy="293.9334"
     inkscape:window-width="1920"
     inkscape:window-height="1017"
     inkscape:window-x="-8"
     inkscape:window-y="-8"
     inkscape:window-maximized="1"
     inkscape:current-layer="svg12" />
  <g
     id="g2049"
     transform="matrix(1.07328,0,0,1.07328,-24.317527,0.225481)">
    <path
       d="m 369.49506,343.65805 a 44.798514,44.798514 0 1 1 -44.79849,-44.79848 44.600455,44.600455 0 0 1 44.79849,44.79848 z"
       fill="#f2f2f2"
       id="path1930"
       style="stroke-width:0.822982" />
    <path
       d="m 343.01817,332.93913 v 0 l -0.22166,0.39957 c 1.97296,-4.8624 0.17889,-10.85402 -3.34072,-14.52042 -3.51948,-3.66637 -8.41238,-5.34257 -13.23024,-6.00755 a 21.488463,21.488463 0 0 0 -10.68972,0.8307 c -4.9247,1.89715 -8.68732,6.28892 -11.82877,10.85757 -1.43692,2.08967 -2.84977,4.47198 -2.70664,7.08379 0.13291,2.42379 1.57162,4.48063 2.74981,6.537 1.17833,2.05639 2.16224,4.60768 1.31661,6.85207 -0.50389,1.33747 -1.5689,2.30075 -2.43301,3.39486 -0.86412,1.09411 -1.57499,2.57293 -1.15757,3.94571 a 3.2191986,3.2191986 0 0 0 2.39836,2.08434 8.4803458,8.4803458 0 0 0 3.18637,-0.0754 l 27.46184,-4.14909 a 11.703832,11.703832 0 0 0 8.49534,-17.23308 z"
       fill="#2f2e41"
       id="path1932"
       style="stroke-width:0.822982" />
    <circle
       cx="322.59158"
       cy="336.5542"
       r="13.426612"
       fill="#ffb9b9"
       id="circle1934"
       style="stroke-width:0.822982" />
    <path
       d="m 358.33491,373.23675 a 44.782852,44.782852 0 0 1 -62.67603,4.52962 l 3.8425,-10.72179 a 11.530076,11.530076 0 0 1 9.79375,-6.72531 l 2.44448,-0.15016 5.82887,-5.02719 c 0,0 15.70554,-0.56081 15.47253,-0.82933 l 9.51337,5.72224 -0.008,-0.0395 3.7398,0.22905 a 11.525031,11.525031 0 0 1 9.79375,6.72528 z"
       fill="#327e62"
       id="path1936"
       style="stroke-width:0.822982" />
    <path
       d="m 335.327,324.09265 c -0.34658,-1.83351 -2.2166,-2.67211 -3.81884,-3.07847 a 36.78627,36.78627 0 0 0 -14.23103,-0.78147 c -3.46214,0.49373 -7.00646,1.58243 -9.51854,4.28479 a 12.801549,12.801549 0 0 0 -3.23696,8.24446 9.8179785,9.8179785 0 0 0 1.17508,5.23764 4.8541335,4.8541335 0 0 0 4.03554,2.60096 l 0.16101,0.56023 a 24.441379,24.441379 0 0 0 16.94672,-11.35124 14.542632,14.542632 0 0 1 -4.24867,6.86362 26.472464,26.472464 0 0 0 11.42755,-8.80709 c 0.79747,-1.0585 1.57174,-2.37849 1.30808,-3.77343 z"
       fill="#2f2e41"
       id="path1938"
       style="stroke-width:0.822982" />
  </g>
  <g
     id="g2035"
     transform="matrix(1.07328,0,0,1.07328,-32.170967,21.833237)">
    <path
       d="m 437.85266,190.91624 a 44.798514,44.798514 0 1 1 -44.71902,-44.87788 44.682696,44.682696 0 0 1 44.71902,44.87788 z"
       fill="#f2f2f2"
       id="path1954"
       style="stroke-width:0.822982" />
    <path
       d="m 372.29052,176.26388 c 1.8524,-5.90354 6.06481,-11.31805 11.89048,-13.31377 5.82603,-1.99573 14.3568,1.04443 18.73666,5.40946 8.01162,7.98456 9.96675,35.41434 4.46244,44.08246 -1.09483,-0.058 -4.87266,-0.10089 -5.98073,-0.14224 l -1.56754,-5.22449 v 5.17299 q -2.648,-0.0818 -5.33748,-0.11301 a 23.22906,23.22906 0 0 1 -22.93402,-22.65599 c -0.14348,-5.7496 1.9e-4,-10.88899 0.73019,-13.21543 z"
       fill="#2f2e41"
       id="path1956"
       style="stroke-width:0.822982" />
    <circle
       cx="392.38983"
       cy="183.06232"
       r="12.767263"
       fill="#9e616a"
       id="circle1958"
       style="stroke-width:0.822982" />
    <path
       d="m 381.37125,171.8496 14.70027,-7.3608 v 0 a 18.476754,18.476754 0 0 1 10.82183,15.30827 l 0.36639,4.38897 -6.15575,-1.56696 -0.67441,-5.61214 -1.04534,5.17437 -2.84084,-0.72281 0.027,-8.71282 -2.84259,8.70658 -10.14624,-2.33107 z"
       fill="#2f2e41"
       id="path1960"
       style="stroke-width:0.822982" />
    <path
       d="m 426.29768,220.48262 a 44.782844,44.782844 0 0 1 -62.67604,4.52962 l 3.84245,-10.7218 a 11.530043,11.530043 0 0 1 9.79376,-6.72529 l 2.44449,-0.15016 5.82886,-5.02717 c 0,0 15.70556,-0.56079 15.47254,-0.82934 l 9.51338,5.72224 -0.008,-0.0395 3.73979,0.22905 a 11.525031,11.525031 0 0 1 9.79376,6.7253 z"
       fill="#327e62"
       id="path1962"
       style="stroke-width:0.822982" />
  </g>
  <g
     id="g2028"
     transform="matrix(1.07328,0,0,1.07328,-20.170967,20.83221)">
    <circle
       cx="121.57529"
       cy="191.60561"
       r="44.798515"
       fill="#f2f2f2"
       id="circle1964"
       style="stroke-width:0.822982" />
    <circle
       cx="120.33884"
       cy="182.8549"
       r="14.300166"
       fill="#ffb6b6"
       id="circle1966"
       style="stroke-width:0.822982" />
    <path
       d="m 155.184,221.57916 a 44.782827,44.782827 0 0 1 -62.676041,4.52964 l 3.84246,-10.72181 a 11.530051,11.530051 0 0 1 9.793741,-6.7253 l 2.44449,-0.15016 5.82887,-5.02717 c 0,0 15.70554,-0.56081 15.47253,-0.82934 l 9.51337,5.7222 -0.008,-0.0395 3.73978,0.22907 a 11.525031,11.525031 0 0 1 9.79376,6.72528 z"
       fill="#327e62"
       id="path1968"
       style="stroke-width:0.822982" />
    <path
       d="m 135.42073,173.98627 a 18.437046,18.437046 0 0 0 -7.72114,-10.50508 c -3.00223,-1.92026 -6.74859,-2.9006 -10.14984,-1.88508 -3.40125,1.01549 -6.21721,4.35341 -5.99458,7.95987 a 3.4893175,3.4893175 0 0 0 -3.52217,1.08768 8.0745418,8.0745418 0 0 0 -1.72803,3.49871 22.243253,22.243253 0 0 0 0.2086,12.31717 l -0.0676,0.57472 c 1.65936,-0.27451 2.91801,-1.69827 3.70071,-3.2152 0.78269,-1.51691 1.23308,-3.19982 2.08137,-4.67964 0.84827,-1.47984 2.25697,-2.79987 3.93743,-2.84606 l -0.14814,2.56873 q 2.16868,-1.11735 4.33735,-2.23467 -0.51587,1.23397 -1.03172,2.46793 1.89396,-0.79161 3.78791,-1.58319 -0.21174,1.18657 -0.42342,2.37312 a 5.6357765,5.6357765 0 0 1 7.75907,-2.50872 7.4891305,7.4891305 0 0 1 3.06164,4.30691 22.688921,22.688921 0 0 1 0.73318,5.37532 18.797619,18.797619 0 0 0 1.17925,-13.07252 z"
       fill="#2f2e41"
       id="path1970"
       style="stroke-width:0.822982" />
  </g>
  <g
     id="g2022"
     transform="matrix(1.07328,0,0,1.07328,-37.672599,-0.991339)">
    <circle
       cx="260.71634"
       cy="109.87302"
       r="44.798515"
       fill="#f2f2f2"
       id="circle1940"
       style="stroke-width:0.822982" />
    <circle
       cx="248.41454"
       cy="86.738441"
       r="6.3247924"
       fill="#2f2e41"
       id="circle1942"
       style="stroke-width:0.822982" />
    <circle
       cx="258.53415"
       cy="101.07458"
       r="16.022814"
       fill="#2f2e41"
       id="circle1944"
       style="stroke-width:0.822982" />
    <circle
       cx="259.86002"
       cy="104.07315"
       r="13.020347"
       fill="#9e616a"
       id="circle1946"
       style="stroke-width:0.822982" />
    <path
       d="M 268.70216,90.800651 A 14.914398,14.914398 0 0 0 246.027,103.81697 c 6.63454,1.66571 13.60454,2.94047 20.6798,0.39844 l 1.67087,-4.08934 0.98506,4.09235 c 2.15465,0.88068 4.31489,1.62585 6.47511,-0.008 a 15.228447,15.228447 0 0 0 -7.13568,-13.409269 z"
       fill="#2f2e41"
       id="path1948"
       style="stroke-width:0.822982" />
    <path
       d="m 242.52569,69.568948 a 12.937267,12.937267 0 0 0 -13.50285,2.08011 14.632395,14.632395 0 0 0 -4.66993,13.021963 c 0.71719,4.85567 3.66912,9.037048 6.39012,13.122138 2.72101,4.085091 5.37935,8.561421 5.3763,13.469731 a 13.352362,13.352362 0 0 1 -13.32584,13.34412 c 4.14918,1.78624 8.47983,3.6075 12.99221,3.39575 4.51238,-0.21175 9.24203,-3.1126 9.9781,-7.56958 0.53038,-3.21142 -1.04519,-6.34297 -2.35929,-9.32084 a 65.931837,65.931837 0 0 1 -4.60783,-15.168171 c -0.43885,-2.4928 -0.72461,-5.113468 0.088,-7.510598 a 8.8193893,8.8193893 0 0 1 8.76137,-5.787573 l 1.49097,-1.34137 a 11.60742,11.60742 0 0 0 -6.61141,-11.73568 z"
       fill="#2f2e41"
       id="path1950"
       style="stroke-width:0.822982" />
    <path
       d="m 294.42379,139.84663 a 44.782827,44.782827 0 0 1 -62.67603,4.52962 l 3.84245,-10.7218 a 11.53006,11.53006 0 0 1 9.79375,-6.72527 l 2.44449,-0.15016 5.82886,-5.02719 c 0,0 15.70556,-0.56079 15.47256,-0.82932 l 9.51337,5.72219 -0.008,-0.0395 3.73978,0.22905 a 11.525031,11.525031 0 0 1 9.79377,6.72529 z"
       fill="#327e62"
       id="path1952"
       style="stroke-width:0.822982" />
  </g>
  <g
     id="g2042"
     transform="matrix(1.07328,0,0,1.07328,-32.317527,-5.314414)">
    <circle
       cx="180.27773"
       cy="348.81973"
       r="44.798515"
       fill="#f2f2f2"
       id="circle1972"
       style="stroke-width:0.822982" />
    <circle
       id="a04f79c1-b358-4543-9edb-632b127caa90"
       data-name="ab6171fa-7d69-4734-b81c-8dff60f9761b"
       cx="179.29153"
       cy="339.87576"
       r="13.590772"
       fill="#9e616a"
       style="stroke-width:0.822982" />
    <path
       d="m 213.30983,378.39813 a 44.782852,44.782852 0 0 1 -62.67604,4.52962 l 3.84249,-10.72181 a 11.53006,11.53006 0 0 1 9.79374,-6.72528 l 2.44449,-0.15016 5.82887,-5.02718 c 0,0 15.70554,-0.56079 15.47255,-0.82934 l 9.51339,5.72224 -0.008,-0.0395 3.73978,0.22905 a 11.525031,11.525031 0 0 1 9.79375,6.72528 z"
       fill="#327e62"
       id="path1975"
       style="stroke-width:0.822982" />
    <path
       d="m 166.94277,346.15907 c -0.0267,-0.0743 -0.0512,-0.14938 -0.0774,-0.22401 -0.0524,0.0462 -0.10244,0.0937 -0.15924,0.13679 z"
       fill="#2f2e41"
       id="path1977"
       style="stroke-width:0.822982" />
    <path
       d="m 195.57181,335.04075 a 9.7708875,9.7708875 0 0 0 -3.64856,-7.13159 8.5715567,8.5715567 0 0 1 -2.23271,-2.01835 13.807981,13.807981 0 0 1 -0.75846,-1.89146 c -1.04331,-2.48332 -4.01671,-3.80312 -6.68394,-3.4271 a 10.042126,10.042126 0 0 0 -6.5302,4.36976 4.4447085,4.4447085 0 0 0 -6.21568,5.15192 c -1.38122,-1.11267 -3.61544,-0.22263 -4.47763,1.32734 -0.8622,1.54999 -0.72534,3.4466 -0.46901,5.20162 a 49.151073,49.151073 0 0 0 2.30969,9.31213 c 1.34486,-1.18427 1.26222,-3.34104 1.09785,-5.16421 -0.17079,-1.89407 -0.0684,-4.20659 1.5878,-5.14122 1.6002,-0.90299 3.54239,0.0883 5.30677,0.60115 a 10.02932,10.02932 0 0 0 8.29632,-1.30497 26.133074,26.133074 0 0 1 2.72812,-1.9006 3.2199146,3.2199146 0 0 1 3.17408,-0.0564 4.4342977,4.4342977 0 0 1 1.47161,2.5862 q 1.01903,3.45562 2.03805,6.91123 a 9.7707804,9.7707804 0 0 0 3.0059,-7.42537 z"
       fill="#2f2e41"
       id="path1979"
       style="stroke-width:0.822982" />
  </g>
  <path
     d="m 248.45395,492.16177 a 85.930832,85.930832 0 0 1 -21.3023,-2.75561 l -1.37132,-0.37945 -1.27208,-0.63734 C 178.5174,465.3305 139.71744,434.87284 109.1859,397.86219 A 342.70204,342.70204 0 0 1 50.958359,294.46784 397.95364,397.95364 0 0 1 28.45454,154.27992 c 0.01706,-1.00127 0.03707,-1.77432 0.03707,-2.30699 0,-23.18757 12.870805,-43.53288 32.78991,-51.83256 15.245054,-6.352171 153.66315,-63.205967 163.66418,-67.31384 18.83471,-9.437356 38.92798,-1.560388 42.14344,-0.182711 7.21246,2.948831 135.17148,55.285644 162.82339,68.452801 28.49803,13.57038 36.10156,37.94925 36.10156,50.21459 0,55.52936 -9.61715,107.42597 -28.58431,154.24833 a 357.16176,357.16176 0 0 1 -64.18523,103.44089 c -52.39622,58.96427 -104.8064,79.86744 -105.31218,80.05171 a 57.268514,57.268514 0 0 1 -19.4772,3.10984 z M 236.12881,461.6318 c 4.54386,1.01873 15.00516,2.54682 21.82361,0.0595 8.66205,-3.15897 52.52845,-25.90627 93.52033,-72.03638 56.63662,-63.736 85.37411,-143.85748 85.41617,-238.13896 -0.10146,-1.91009 -1.45763,-15.53356 -19.49888,-24.12417 C 390.27435,114.47931 257.27186,60.094766 255.93151,59.546631 l -0.36749,-0.155907 c -2.78727,-1.167947 -11.65777,-3.6282 -17.77233,-0.424068 l -1.2243,0.570778 C 235.0849,60.146362 88.152515,120.49456 72.482095,127.02384 c -10.961952,4.56742 -14.867647,15.88262 -14.867647,24.94894 0,0.66259 -0.01706,1.62634 -0.0412,2.87195 -1.252377,64.51095 13.675848,223.25237 178.555762,306.78684 z"
     fill="#3f3d56"
     id="path2059-2"
     style="stroke-width:1.14286" />
  <g
     id="g2466"
     transform="translate(2,-4)">
    <path
       d="m 242.45477,322.83424 a 20.834684,20.834684 0 0 1 -5.16493,-0.66812 l -0.33249,-0.092 -0.30843,-0.15453 c -11.15088,-5.59083 -20.55827,-12.97555 -27.96091,-21.94911 a 83.091117,83.091117 0 0 1 -14.11778,-25.06886 96.487353,96.487353 0 0 1 -5.45625,-33.98979 c 0.004,-0.24277 0.009,-0.4302 0.009,-0.55935 0,-5.62203 3.12064,-10.55493 7.9502,-12.56726 3.6963,-1.54014 37.25698,-15.32484 39.68182,-16.32083 4.56664,-2.28817 9.43843,-0.37833 10.21805,-0.0443 1.74872,0.71497 32.77351,13.40449 39.47796,16.59698 6.9096,3.29026 8.75314,9.20113 8.75314,12.17497 0,13.46358 -2.33176,26.04636 -6.93052,37.39886 a 86.597001,86.597001 0 0 1 -15.56227,25.08015 c -12.70393,14.29641 -25.41123,19.36457 -25.53386,19.40924 a 13.885254,13.885254 0 0 1 -4.72242,0.754 z m -2.98834,-7.40226 c 1.1017,0.247 3.63813,0.6175 5.29133,0.0144 2.10019,-0.76592 12.73598,-6.2812 22.67482,-17.46585 13.73205,-15.45335 20.69971,-34.87951 20.7099,-57.73888 -0.0246,-0.46312 -0.35341,-3.76625 -4.72767,-5.84912 -6.57444,-3.13072 -38.82206,-16.31673 -39.14704,-16.44963 l -0.0891,-0.0378 c -0.6758,-0.28318 -2.82653,-0.87969 -4.30906,-0.10282 l -0.29684,0.13839 c -0.35944,0.14764 -35.98449,14.77959 -39.78392,16.36267 -2.65782,1.10741 -3.60479,3.85088 -3.60479,6.04909 0,0.16065 -0.004,0.39432 -0.01,0.69633 -0.30365,15.64125 3.31583,54.1295 43.29241,74.38316 z"
       fill="#3f3d56"
       id="path2059"
       style="stroke-width:0.277095" />
    <path
       d="m 238.23136,214.67473 c 0,0 -35.94884,14.76471 -39.8005,16.36956 -3.85167,1.60487 -5.7775,5.45653 -5.7775,9.3082 0,3.85167 -2.88874,54.11069 45.578,78.41082 0,0 4.39883,1.21712 7.73618,0 3.33736,-1.21711 45.70563,-21.75932 45.70563,-78.57132 0,0 0,-5.77749 -6.74041,-8.98721 -6.74041,-3.20972 -39.32916,-16.53005 -39.32916,-16.53005 0,0 -4.00203,-1.76534 -7.37224,0 z"
       fill="#327e62"
       id="path2061"
       style="stroke-width:0.277095" />
    <path
       d="m 242.08302,226.22972 v 78.76446 c 0,0 -36.26981,-17.45884 -35.94884,-63.35781 z"
       opacity="0.1"
       id="path2063"
       style="stroke-width:0.277095" />
    <polygon
       points="192.931,261.581 151.235,207.969 175.483,189.11 195.226,214.494 261.921,144.088 284.224,165.219 "
       fill="#ffffff"
       id="polygon2065"
       transform="matrix(0.27709547,0,0,0.27709547,189.09572,210.35589)" />
  </g>
</svg>
