<?xml version="1.0" encoding="UTF-8" standalone="no"?>
<svg
   data-name="Layer 1"
   width="800"
   height="800"
   viewBox="0 0 800.00001 800"
   version="1.1"
   id="svg6753"
   sodipodi:docname="AddressMobile.svg"
   inkscape:version="1.2.1 (9c6d41e410, 2022-07-14)"
   xmlns:inkscape="http://www.inkscape.org/namespaces/inkscape"
   xmlns:sodipodi="http://sodipodi.sourceforge.net/DTD/sodipodi-0.dtd"
   xmlns="http://www.w3.org/2000/svg"
   xmlns:svg="http://www.w3.org/2000/svg">
  <defs
     id="defs6757" />
  <sodipodi:namedview
     id="namedview6755"
     pagecolor="#ffffff"
     bordercolor="#000000"
     borderopacity="0.25"
     inkscape:showpageshadow="2"
     inkscape:pageopacity="0.0"
     inkscape:pagecheckerboard="0"
     inkscape:deskcolor="#d1d1d1"
     showgrid="false"
     inkscape:zoom="0.49573075"
     inkscape:cx="-154.31764"
     inkscape:cy="163.39515"
     inkscape:window-width="1920"
     inkscape:window-height="1017"
     inkscape:window-x="-8"
     inkscape:window-y="-8"
     inkscape:window-maximized="1"
     inkscape:current-layer="svg6753" />
  <g
     id="g4311"
     transform="translate(-17.99119,-1.1977115)">
    <path
       d="m 582.41722,228.16531 h -3.62369 V 128.8948 A 57.455038,57.455038 0 0 0 521.33858,71.439683 H 311.02037 a 57.455075,57.455075 0 0 0 -57.45523,57.454897 v 544.60605 a 57.455056,57.455056 0 0 0 57.45498,57.45511 h 210.31813 a 57.455084,57.455084 0 0 0 57.45529,-57.45489 v 0 -374.67309 h 3.6237 z"
       fill="#3f3d56"
       id="path4084"
       style="stroke-width:0.926146" />
    <path
       d="m 566.56546,129.29843 v 543.80494 a 42.870022,42.870022 0 0 1 -42.83169,42.90832 H 312.32924 A 42.878126,42.878126 0 0 1 269.42091,673.16384 V 129.29843 a 42.878098,42.878098 0 0 1 42.84786,-42.908327 h 25.69619 a 20.382613,20.382613 0 0 0 18.87485,28.080727 H 477.33135 A 20.382613,20.382613 0 0 0 496.2062,86.390103 h 27.45096 a 42.869902,42.869902 0 0 1 42.90833,42.831367 v 0.077 z"
       fill="#ffffff"
       id="path4086"
       style="stroke-width:0.926146" />
    <path
       d="M 566.56535,209.75273 V 191.22982 H 538.53092 V 89.038913 a 42.774759,42.774759 0 0 0 -14.87396,-2.64887 h -3.64895 V 191.22982 h -97.2453 V 114.47087 H 404.2398 v 76.75895 H 322.73899 V 86.390133 h -10.40966 a 42.500212,42.500212 0 0 0 -8.11327,0.7687 V 191.22982 h -34.7951 v 18.52291 h 34.79513 v 42.84402 l -34.79469,20.08789 v 21.39397 l 34.79468,-20.08785 v 127.47413 h -34.79513 v 18.52291 h 34.79513 v 184.30298 h -34.79513 v 18.52292 h 34.79513 v 92.42927 a 42.510909,42.510909 0 0 0 8.11327,0.7687 h 10.40964 v -93.19804 h 81.50082 v 93.19804 h 18.52291 v -93.19804 h 97.2453 v 93.19804 h 3.64895 a 42.773592,42.773592 0 0 0 14.87396,-2.64878 v -90.54917 h 28.03443 v -18.52291 h -28.03443 v -80.57467 h 27.78437 v -18.52291 h -27.78437 v -85.2054 h 28.03443 V 401.46492 H 538.53093 V 288.47515 h 28.03443 v -18.52291 h -28.03443 v -60.19947 z m -188.13645,0 -4.5e-4,2.8e-4 -55.68903,32.15578 -4.5e-4,2.2e-4 v -32.15628 z m -55.68993,53.541 4.5e-4,-2.2e-4 81.50036,-47.05724 v 185.22859 h -81.50081 z m 0,340.99705 V 419.9878 h 81.50081 v 184.30298 z m 197.26902,0 H 422.7627 v -80.57467 h 97.24529 z m 0,-99.09758 H 422.7627 v -85.2054 h 97.24529 z m 0,-103.72831 H 422.7627 V 288.47512 h 97.24529 z m 0,-131.51268 H 422.7627 v -60.19947 h 97.24529 z"
       fill="#e5e5e5"
       id="path4088"
       style="stroke-width:0.926146" />
    <path
       d="m 582.05986,270.29483 c 0,58.82203 -106.50675,189.85985 -106.50675,189.85985 0,0 -106.50675,-131.03782 -106.50675,-189.85985 a 106.50675,106.50675 0 0 1 213.0135,0 z"
       fill="#327e62"
       id="path4090"
       style="stroke-width:0.926146" />
    <path
       d="m 538.53225,265.6641 a 62.977903,62.977903 0 1 1 -62.9779,-62.9779 v 0 a 62.948961,62.948961 0 0 1 62.9779,62.92007 z"
       fill="#ffffff"
       id="path4092"
       style="stroke-width:0.926146" />
    <circle
       cx="475.33521"
       cy="267.06238"
       r="23.462362"
       fill="#327e62"
       id="circle4094"
       style="stroke-width:0.926146" />
    <path
       d="m 509.38626,320.64933 a 63.045003,63.045003 0 0 1 -67.6733,-0.009 35.192608,35.192608 0 0 1 67.6733,0.009 z"
       fill="#327e62"
       id="path4096"
       style="stroke-width:0.926146" />
    <circle
       cx="475.55313"
       cy="508.31421"
       r="28.710514"
       fill="#327e62"
       id="circle4098"
       style="stroke-width:0.926146" />
  </g>
</svg>
