<?xml version="1.0" encoding="UTF-8" standalone="no"?>
<svg
   data-name="Layer 1"
   width="1200.953"
   height="537"
   viewBox="0 0 1200.953 537"
   version="1.1"
   id="svg78"
   sodipodi:docname="Address.svg"
   inkscape:version="1.2.1 (9c6d41e410, 2022-07-14)"
   xmlns:inkscape="http://www.inkscape.org/namespaces/inkscape"
   xmlns:sodipodi="http://sodipodi.sourceforge.net/DTD/sodipodi-0.dtd"
   xmlns="http://www.w3.org/2000/svg"
   xmlns:svg="http://www.w3.org/2000/svg">
  <defs
     id="defs82" />
  <sodipodi:namedview
     id="namedview80"
     pagecolor="#ffffff"
     bordercolor="#000000"
     borderopacity="0.25"
     inkscape:showpageshadow="2"
     inkscape:pageopacity="0.0"
     inkscape:pagecheckerboard="0"
     inkscape:deskcolor="#d1d1d1"
     showgrid="false"
     inkscape:zoom="0.37720428"
     inkscape:cx="847.02115"
     inkscape:cy="466.59068"
     inkscape:window-width="1920"
     inkscape:window-height="1017"
     inkscape:window-x="-8"
     inkscape:window-y="-8"
     inkscape:window-maximized="1"
     inkscape:current-layer="svg78" />
  <path
     d="m 671.02306,417.24452 -1.14031,-15.86014 a 51.304878,51.304878 0 0 0 -24.08686,-5.40148 c 11.74583,9.07903 10.80488,27.22503 18.93949,39.64361 a 30.859956,30.859956 0 0 0 23.01122,13.63703 l 9.77528,5.62386 a 51.711572,51.711572 0 0 0 -12.04039,-41.59041 49.950221,49.950221 0 0 0 -9.40961,-8.27563 c -2.13673,6.13461 -5.04882,12.22316 -5.04882,12.22316 z"
     fill="#f2f2f2"
     id="path3356"
     style="stroke-width:0.574881" />
  <path
     id="a8455189-ed55-4a18-ae95-69e4c9a5ea4d-360"
     data-name="f02c4e45-f306-4b42-b3ad-5ddd3016d7d2"
     d="m 612.79581,456.99932 h 223.7905 a 0.71689704,0.71689704 0 0 0 0,-1.43379 h -223.7905 a 0.71689704,0.71689704 0 0 0 0,1.43379 z"
     fill="#cccccc"
     style="stroke-width:0.574881" />
  <path
     d="m 470.31087,285.84859 v 0.30697 h 0.21385 a 3.0524381,3.0524381 0 0 1 -0.21385,-0.30697 z m 1.64589,-130.11723 a 110.95128,110.95128 0 0 0 -22.99578,67.75984 q 0.005,5.59785 0.54848,11.03763 c 0.0558,0.62301 0.12077,1.24601 0.20477,1.85971 a 110.69098,110.69098 0 0 0 18.86712,50.22252 c 0.39955,0.58579 0.80866,1.16238 1.21818,1.73886 a 111.43704,111.43704 0 0 0 15.12399,17.16079 c 45.21603,41.75218 115.71774,38.94413 157.46995,-6.27193 0.64149,-0.67872 1.25543,-1.36686 1.8597,-2.05501 a 111.33465,111.33465 0 0 0 4.8818,-141.45241 c -0.47447,-0.623 -0.95765,-1.24601 -1.45968,-1.85983 q -1.65069,-2.07827 -3.42212,-4.07279 c -0.60439,-0.68815 -1.21821,-1.37629 -1.8597,-2.05501 a 111.24734,111.24734 0 0 0 -81.84762,-35.83734 c -1.06929,0 -2.12948,0.0191 -3.18962,0.0465 q -1.06025,0.0274 -2.11993,0.0835 a 111.3826,111.3826 0 0 0 -81.81986,41.83498 c -0.50216,0.61382 -0.98526,1.23683 -1.45973,1.85983 z m -1.43204,130.4242 a 3.0623951,3.0623951 0 0 1 -0.21391,-0.30697 v 0.30697 z"
     fill="#ffffff"
     id="path3359"
     style="stroke-width:0.574881" />
  <path
     d="m 469.52992,284.70495 0.31601,-0.64162 23.67462,-47.67467 v -0.0119 l 0.92079,-1.85052 v -0.0119 l 39.11013,-78.78817 v -0.0119 l 0.92079,-1.85052 0.01,-0.0119 19.80657,-39.91944 0.9485,-1.90624 q 1.06026,-0.0561 2.11994,-0.0835 l -0.93896,1.89693 -19.86199,40.0125 v 0.0119 l -0.92078,1.85052 v 0.0119 l -40.13353,80.8433 -0.01,0.0119 -23.67461,47.71177 -0.92988,1.85983 -0.14893,0.30673 -0.93894,1.88774 c -0.40955,-0.57659 -0.81864,-1.15307 -1.21818,-1.73885 z"
     fill="#3f3d56"
     id="path3361"
     style="stroke-width:0.574881" />
  <path
     d="m 495.10146,234.52883 v 1.85971 h -45.38722 c -0.084,-0.6137 -0.14892,-1.2367 -0.20477,-1.85971 z"
     fill="#3f3d56"
     id="path3363"
     style="stroke-width:0.574881" />
  <path
     d="m 565.63557,249.03595 v -1.85971 h 45.38725 c 0.084,0.6137 0.14889,1.2367 0.20477,1.85971 z"
     fill="#3f3d56"
     id="path3365"
     style="stroke-width:0.574881" />
  <path
     d="m 603.5984,242.55655 h 1.85974 v 45.38726 c -0.61375,0.0835 -1.23675,0.14889 -1.85974,0.20472 z"
     fill="#3f3d56"
     id="path3367"
     style="stroke-width:0.574881" />
  <path
     d="m 649.13509,155.73136 c -0.47459,-0.62312 -0.95765,-1.24613 -1.4598,-1.85983 h -3.42212 v -4.07291 c -0.60427,-0.68803 -1.21809,-1.37617 -1.8597,-2.05501 v 6.12792 H 473.41651 c -0.50218,0.6137 -0.98527,1.23671 -1.45974,1.85983 h 170.4367 v 143.5073 c 0.64161,-0.67872 1.25543,-1.36686 1.8597,-2.05489 V 155.73136 Z"
     fill="#3f3d56"
     id="path3369"
     style="stroke-width:0.574881" />
  <rect
     x="470.30862"
     y="284.29465"
     width="173.0144"
     height="1.8597481"
     fill="#3f3d56"
     id="rect3371"
     style="stroke-width:0.574881" />
  <path
     d="m 470.31087,285.84859 v 0.30697 h 0.21385 a 3.0524381,3.0524381 0 0 1 -0.21385,-0.30697 z m 1.64589,-130.11723 a 110.95128,110.95128 0 0 0 -22.99578,67.75984 q 0.005,5.59785 0.54848,11.03763 c 0.0558,0.62301 0.12077,1.24601 0.20477,1.85971 a 110.69098,110.69098 0 0 0 18.86712,50.22252 c 0.39955,0.58579 0.80866,1.16238 1.21818,1.73886 a 111.43704,111.43704 0 0 0 15.12399,17.16079 c 45.21603,41.75218 115.71774,38.94413 157.46995,-6.27193 0.64149,-0.67872 1.25543,-1.36686 1.8597,-2.05501 a 111.33465,111.33465 0 0 0 4.8818,-141.45241 c -0.47447,-0.623 -0.95765,-1.24601 -1.45968,-1.85983 q -1.65069,-2.07827 -3.42212,-4.07279 c -0.60439,-0.68815 -1.21821,-1.37629 -1.8597,-2.05501 a 111.24734,111.24734 0 0 0 -81.84762,-35.83734 c -1.06929,0 -2.12948,0.0191 -3.18962,0.0465 q -1.06025,0.0274 -2.11993,0.0835 a 111.3826,111.3826 0 0 0 -81.81986,41.83498 c -0.50216,0.61382 -0.98526,1.23683 -1.45973,1.85983 z m -20.3737,80.65718 c -0.0835,-0.6137 -0.14847,-1.2367 -0.21386,-1.85971 a 109.74339,109.74339 0 0 1 22.93084,-78.79759 c 0.49264,-0.623 0.98573,-1.24601 1.497,-1.85971 a 109.58476,109.58476 0 0 1 78.49082,-39.92886 c 0.70647,-0.037 1.4134,-0.074 2.12936,-0.0931 q 2.05003,-0.0835 4.12863,-0.0835 a 109.41382,109.41382 0 0 1 81.8475,36.72997 c 0.64161,0.70676 1.2645,1.41339 1.8597,2.13876 0.36281,0.40909 0.70652,0.81831 1.04165,1.2367 0.51121,0.6137 1.00382,1.23671 1.49702,1.85971 a 109.50396,109.50396 0 0 1 -2.53855,138.61647 c -0.59532,0.72525 -1.21821,1.43201 -1.8597,2.13864 a 109.59713,109.59713 0 0 1 -19.02259,16.9235 c -49.58965,34.70693 -117.9255,22.64209 -152.63237,-26.94753 -0.0744,-0.1026 -0.14893,-0.20449 -0.21385,-0.30673 a 3.0524381,3.0524381 0 0 1 -0.21386,-0.30697 q -0.40439,-0.57182 -0.78094,-1.14364 A 108.74872,108.74872 0 0 1 451.583,236.38866 Z m 18.94165,49.76702 a 3.0623951,3.0623951 0 0 1 -0.21391,-0.30697 v 0.30697 z"
     fill="#cccccc"
     id="path3373"
     style="stroke-width:0.574881" />
  <path
     d="M 689.05906,343.34149 H 577.73321 a 5.1399831,5.1399831 0 0 1 -5.13422,-5.13424 v -54.24414 a 5.1399831,5.1399831 0 0 1 5.13422,-5.13424 h 111.32585 a 5.1400176,5.1400176 0 0 1 5.13424,5.13424 v 54.24414 a 5.1400176,5.1400176 0 0 1 -5.13424,5.13424 z"
     fill="#cacaca"
     id="path3375"
     style="stroke-width:0.574881" />
  <path
     d="m 640.02218,338.97676 c -24.38117,0 -49.80393,-0.233 -59.28947,-0.38404 a 4.7830161,4.7830161 0 0 1 -4.68443,-4.76357 v -49.86198 a 1.6905489,1.6905489 0 0 1 1.68452,-1.68863 h 111.3228 a 1.6904283,1.6904283 0 0 1 1.68839,1.6841 v 33.83052 a 21.106208,21.106208 0 0 1 -20.75076,21.02361 c -8.84054,0.11453 -19.30886,0.15999 -29.97105,0.15999 z"
     fill="#e4e4e4"
     id="path3377"
     style="stroke-width:0.574881" />
  <path
     d="m 677.56568,313.44955 h -90.58085 a 2.8529714,2.8529714 0 0 1 -2.68188,-1.89121 l -10.25203,-28.76261 a 2.8472455,2.8472455 0 0 1 2.6779,-3.80317 l 113.22741,-0.15796 v 0 a 2.847188,2.847188 0 0 1 2.61681,3.96864 l -0.15522,-0.0668 0.15522,0.0668 -12.39448,28.92081 a 2.8437617,2.8437617 0 0 1 -2.61693,1.7255 z"
     fill="#cacaca"
     id="path3379"
     style="stroke-width:0.574881" />
  <path
     d="m 613.2391,333.38415 h -31.23482 a 2.9018305,2.9018305 0 0 1 0,-5.80366 h 31.23482 a 2.9018305,2.9018305 0 0 1 0,5.80366 z"
     fill="#cacaca"
     id="path3381"
     style="stroke-width:0.574881" />
  <circle
     cx="633.22717"
     cy="313.44952"
     r="7.0929999"
     fill="#3f3d56"
     id="circle3383"
     style="stroke-width:0.574881" />
  <path
     d="M 408.41375,62.046674 A 80.373469,80.373469 0 0 1 520.40496,81.48247 c 25.55849,36.29248 51.20448,131.46059 33.101,186.59223 C 499.50767,211.03754 416.55016,205.11064 388.97804,174.03795 359.51631,140.83568 372.12122,87.605269 408.41375,62.046674 Z"
     fill="#327e62"
     id="path3385"
     style="stroke-width:0.574881" />
  <circle
     id="faf5c3b1-f7bb-4793-8f76-a694569c182e"
     data-name="b262ea8c-1946-46c9-a449-3a1996c39394"
     cx="455.78485"
     cy="118.01646"
     r="26.212427"
     fill="#ffffff"
     style="stroke-width:0.574881" />
  <circle
     id="e618366e-6f5c-4381-83a5-490aecbf791d"
     data-name="bcc29a3a-8123-4529-80aa-6f70df2823cf"
     cx="575.66455"
     cy="279.45288"
     r="17.168579"
     fill="#327e62"
     style="stroke-width:0.574881" />
  <path
     d="m 427.7406,111.96819 a 26.211927,26.211927 0 1 0 45.27184,26.43333 26.208588,26.208588 0 0 1 -39.90649,-32.93455 26.211871,26.211871 0 0 0 -5.36535,6.50122 z"
     fill="#231f20"
     opacity="0.2"
     style="isolation:isolate;stroke-width:0.574881"
     id="path3389" />
  <path
     d="m 388.92876,174.16155 c 27.57207,31.07269 110.52963,36.99959 164.52787,94.03675 a 111.17895,111.17895 0 0 0 3.88125,-15.95797 C 503.3665,200.38836 425.02725,193.83547 398.38757,163.81372 374.54465,136.94351 378.25618,96.958329 399.77419,69.136307 370.26258,96.492569 361.92987,143.73488 388.92876,174.16155 Z"
     fill="#231f20"
     opacity="0.2"
     style="isolation:isolate;stroke-width:0.574881"
     id="path3391" />
  <path
     d="m 731.64601,283.94677 -11.13153,-3.39074 c -4.84552,5.84255 -8.86332,22.76641 -8.86332,22.76641 l -15.23511,24.75674 a 5.1374594,5.1374594 0 1 0 7.32538,5.03725 l 23.05774,-27.99262 z"
     fill="#ffb6b6"
     id="path3393"
     style="stroke-width:0.574881" />
  <path
     d="m 731.4327,286.64853 2.05739,-16.85096 -4.61133,-7.70095 a 9.4471523,9.4471523 0 0 0 -8.88313,-4.5308 v 0 a 9.4248699,9.4248699 0 0 0 -8.5653,9.60312 c 0.17299,7.24271 1.31401,16.40119 5.76667,18.90418 l 0.0453,0.0251 z"
     fill="#327e62"
     id="path3395"
     style="stroke-width:0.574881" />
  <polygon
     points="640.203,644.55 657.341,636.278 678.959,681.066 667.348,686.67 "
     fill="#ffb6b6"
     id="polygon3397"
     transform="matrix(0.57488174,0,0,0.57488174,372.55824,47.380051)" />
  <path
     d="m 766.4763,445.76233 -20.52718,9.90866 -0.12527,-0.2596 a 8.8723855,8.8723855 0 0 1 4.13257,-11.84652 l 5.9e-4,-2.4e-4 2.37618,-4.65464 8.36916,-0.53234 1.79183,-0.86495 z"
     fill="#2f2e41"
     id="path3399"
     style="stroke-width:0.574881" />
  <polygon
     points="573.5,647.033 592.53,647.034 592.527,696.767 579.634,696.766 "
     fill="#ffb6b6"
     id="polygon3401"
     transform="matrix(0.57488174,0,0,0.57488174,372.55824,47.380051)" />
  <path
     d="m 713.45253,455.67099 -22.7936,-6e-4 v -0.28823 a 8.8723855,8.8723855 0 0 1 8.87179,-8.8718 h 6e-4 l 4.16358,-3.15869 7.76824,3.15917 h 1.98975 z"
     fill="#2f2e41"
     id="path3403"
     style="stroke-width:0.574881" />
  <path
     d="m 705.84536,315.34039 -8.49384,58.57308 2.31151,7.70703 -3.03318,5.45851 4.45445,41.08349 -1.80817,3.98069 5.05192,3.11562 h 10.27994 l 0.54557,-43.39774 2.53927,-6.37166 v -3.51159 l 5.16932,-26.46304 1.19232,41.19587 1.65033,3.18327 c 6.14749,13.94758 14.42849,18.51429 20.28285,28.93966 l 10.28042,-5.56851 -0.21558,-4.15285 c 2.06515,-1.04558 -3.10083,-4.10166 -3.59725,-6.36271 l -0.89908,-4.04822 -5.99693,-12.42204 -0.2287,-4.37463 1.64114,-29.75356 -0.77225,-40.06701 -13.48456,-10.31144 z"
     fill="#2f2e41"
     id="path3405"
     style="stroke-width:0.574881" />
  <circle
     cx="719.19141"
     cy="230.93951"
     r="13.355923"
     fill="#ffb6b6"
     id="circle3407"
     style="stroke-width:0.574881" />
  <path
     d="m 699.45723,340.60836 -0.19494,-0.068 2.58519,-8.4015 a 6.8431508,6.8431508 0 0 1 1.2342,-6.38049 c -0.41816,-0.72358 -2.14174,-4.14104 0.66512,-7.04466 -0.16774,-0.8467 -1.01194,-5.85758 1.9338,-8.30701 0,0 5.71573,-43.32055 8.92142,-54.76287 0.0931,-0.83727 -0.65772,-7.67231 3.65416,-7.94015 2.27417,-0.14114 5.68698,-0.35719 10.80845,-0.68755 0.66155,-0.0477 1.0494,1.0698 1.63662,2.88823 0.39764,1.23026 -1.64831,2.91149 -1.1532,2.88358 h 0.0346 l 0.0334,0.0119 a 21.532195,21.532195 0 0 1 15.92206,22.005 l -1.52244,25.88453 c 0.23049,1.04093 5.07996,30.55838 3.81223,33.72733 -0.71904,1.79719 0.50705,2.91686 1.40218,3.73445 0.46111,0.42114 0.79433,0.72525 0.74792,1.0581 a 0.55500808,0.55500808 0 0 1 -0.34539,0.40766 c -0.81019,0.4048 -0.36244,3.18196 0.10976,4.83742 l 0.0489,0.16905 -0.15653,0.0799 c -0.18062,0.0931 -14.67378,-6.55444 -32.28112,-6.55492 -6.63664,0 -10.47274,5.05443 -17.8969,2.4647 z"
     fill="#327e62"
     id="path3409"
     style="stroke-width:0.574881" />
  <path
     d="m 729.77581,239.15114 a 1.1124307,1.1124307 0 0 1 -0.56729,-0.70628 l -0.19029,-0.77535 0.58518,0.60988 a 2.3118065,2.3118065 0 0 0 -0.67681,-3.95111 4.8507773,4.8507773 0 0 0 -0.78991,-0.19196 5.4679589,5.4679589 0 0 1 -0.82737,-0.19959 3.7724085,3.7724085 0 0 1 -2.26415,-3.18207 9.9965725,9.9965725 0 0 1 0.39633,-3.58902 48.875295,48.875295 0 0 1 -17.73107,-0.53317 8.2300817,8.2300817 0 0 1 -2.54475,-1.00084 9.8578996,9.8578996 0 0 1 -3.48212,-3.50348 1.0522175,1.0522175 0 0 1 0.14257,-1.23969 1.1447333,1.1447333 0 0 1 0.83226,-0.36638 l -0.21355,-0.57755 a 1.0882511,1.0882511 0 0 1 1.22036,-1.44668 l 0.75591,0.14138 -0.0728,-0.50215 a 1.0877452,1.0877452 0 0 1 1.45968,-1.17419 1.1988641,1.1988641 0 0 0 1.59629,-0.88058 l 0.25996,-1.26248 0.0263,-0.0668 c 1.27894,-2.13041 3.73588,-3.67921 6.74079,-4.24913 2.6798,-0.50787 5.4158,-0.25137 8.06243,0 a 7.381539,7.381539 0 0 1 3.22324,0.81425 2.8168285,2.8168285 0 0 1 1.4054,2.60035 c 2.60571,-0.80124 5.40196,0.79504 6.78421,2.80651 1.64377,2.39204 1.90946,5.39301 1.9573,7.74007 0.11334,5.54811 -1.02959,10.08739 -3.39682,13.49196 a 3.1788028,3.1788028 0 0 1 -1.46577,1.3028 1.5038906,1.5038906 0 0 1 -0.48508,0.0787 1.5588838,1.5588838 0 0 1 -0.74064,-0.18349 z"
     fill="#2f2e41"
     id="path3411"
     style="stroke-width:0.574881" />
  <path
     d="m 730.256,291.73815 -9.80332,-6.26942 c -6.24257,4.31785 -14.67903,19.52921 -14.67903,19.52921 l -21.35181,19.72594 a 5.1374652,5.1374652 0 1 0 5.69389,6.82741 l 29.75738,-20.73025 z"
     fill="#ffb6b6"
     id="path3413"
     style="stroke-width:0.574881" />
  <path
     d="m 729.32138,294.28206 6.52914,-15.67032 -2.36162,-8.65979 a 9.4471638,9.4471638 0 0 0 -7.33051,-6.76024 v 0 a 9.4248813,9.4248813 0 0 0 -10.83947,6.93502 c -1.78825,7.02043 -3.16155,16.14706 0.45037,19.75899 l 0.037,0.037 z"
     fill="#327e62"
     id="path3415"
     style="stroke-width:0.574881" />
</svg>
