<?xml version="1.0" encoding="UTF-8" standalone="no"?>
<svg
   data-name="Layer 1"
   width="1200.953"
   height="537"
   viewBox="0 0 1200.953 537"
   version="1.1"
   id="svg78"
   sodipodi:docname="Cancellation.svg"
   inkscape:version="1.2.1 (9c6d41e410, 2022-07-14)"
   xmlns:inkscape="http://www.inkscape.org/namespaces/inkscape"
   xmlns:sodipodi="http://sodipodi.sourceforge.net/DTD/sodipodi-0.dtd"
   xmlns="http://www.w3.org/2000/svg"
   xmlns:svg="http://www.w3.org/2000/svg">
  <defs
     id="defs82" />
  <sodipodi:namedview
     id="namedview80"
     pagecolor="#ffffff"
     bordercolor="#000000"
     borderopacity="0.25"
     inkscape:showpageshadow="2"
     inkscape:pageopacity="0.0"
     inkscape:pagecheckerboard="0"
     inkscape:deskcolor="#d1d1d1"
     showgrid="false"
     inkscape:zoom="0.75440855"
     inkscape:cx="504.36862"
     inkscape:cy="168.3438"
     inkscape:window-width="1920"
     inkscape:window-height="1017"
     inkscape:window-x="-8"
     inkscape:window-y="-8"
     inkscape:window-maximized="1"
     inkscape:current-layer="svg78" />
  <g
     id="g10208"
     transform="translate(-30.632173,8.613012)">
    <path
       d="m 796.37992,471.64856 0.0123,-0.5638 a 65.139195,65.139195 0 0 1 24.35757,-49.05388 63.201058,63.201058 0 0 1 13.57829,-8.1823 l 0.46269,-0.20605 0.0789,0.5 c 0.93955,5.96981 2.42741,12.06295 3.12059,14.76728 l 4.64641,-18.13066 0.51626,-0.14913 a 12.353815,12.353815 0 0 1 13.18741,4.21335 12.565446,12.565446 0 0 1 1.30372,14.01958 c -1.08304,2.01783 -2.14761,4.12321 -3.1775,6.15915 -3.53798,6.99636 -7.19637,14.23095 -12.52741,19.85159 a 39.3732,39.3732 0 0 1 -31.75653,11.84652 z"
       fill="#f2f2f2"
       id="path9548"
       style="stroke-width:0.808895" />
    <path
       d="M 655.11681,306.08363 H 535.1727 A 16.28946,16.28946 0 0 1 518.90167,289.81265 V 121.07788 a 74.382736,74.382736 0 0 1 74.29852,-74.298804 h 61.91689 a 16.289161,16.289161 0 0 1 16.27076,16.270758 V 289.81265 a 16.289282,16.289282 0 0 1 -16.27103,16.27098 z"
       fill="#f2f2f2"
       id="path9550"
       style="stroke-width:0.808895" />
    <path
       d="m 539.3668,193.41871 a 6.8608035,6.8608035 0 0 0 -6.85295,6.85295 v 38.51382 a 6.8610462,6.8610462 0 0 0 6.85295,6.85321 h 116.5633 a 6.8610462,6.8610462 0 0 0 6.85296,-6.85321 v -38.51383 a 6.8608035,6.8608035 0 0 0 -6.85296,-6.85296 z"
       fill="#ffffff"
       id="path9552"
       style="stroke-width:0.808895" />
    <path
       d="M 656.21057,168.43173 H 539.64756 a 7.4226862,7.4226862 0 0 1 -7.41445,-7.41444 45.980617,45.980617 0 0 1 45.92857,-45.92854 h 78.0492 a 7.4226781,7.4226781 0 0 1 7.41444,7.41445 v 38.51381 a 7.4231553,7.4231553 0 0 1 -7.41475,7.41472 z"
       fill="#ffffff"
       id="path9554"
       style="stroke-width:0.808895" />
    <path
       d="M 706.39594,239.72992 H 572.21307 a 2.9782215,2.9782215 0 0 1 -2.97482,-2.97481 v -35.35533 a 2.9781244,2.9781244 0 0 1 2.97482,-2.97471 h 134.18287 a 2.9781244,2.9781244 0 0 1 2.97481,2.97471 v 35.35533 a 2.9782215,2.9782215 0 0 1 -2.97481,2.97481 z"
       fill="#ffffff"
       id="path9556"
       style="stroke-width:0.808895" />
    <path
       d="m 706.39607,240.29146 h -134.183 a 3.5402659,3.5402659 0 0 1 -3.53627,-3.53627 v -35.35535 a 3.540274,3.540274 0 0 1 3.53627,-3.53628 h 134.183 a 3.5402821,3.5402821 0 0 1 3.53627,3.53628 v 35.35535 a 3.540274,3.540274 0 0 1 -3.53627,3.53627 z m -134.183,-41.30489 a 2.4161689,2.4161689 0 0 0 -2.41326,2.41327 v 35.35535 a 2.4161689,2.4161689 0 0 0 2.41326,2.41327 h 134.183 a 2.4161689,2.4161689 0 0 0 2.41326,-2.41327 v -35.35535 a 2.4161689,2.4161689 0 0 0 -2.41326,-2.41327 z"
       fill="#cccccc"
       id="path9558"
       style="stroke-width:0.808895" />
    <circle
       cx="583.62311"
       cy="210.35603"
       r="4.8272743"
       fill="#e6e6e6"
       id="circle9560"
       style="stroke-width:0.808895" />
    <path
       d="M 698.37513,222.52046 H 580.23326 a 1.4374709,1.4374709 0 1 1 0,-2.87493 h 118.14185 a 1.4374709,1.4374709 0 1 1 0,2.87493 z"
       fill="#e6e6e6"
       id="path9562"
       style="stroke-width:0.808895" />
    <path
       d="M 686.63629,228.2006 H 580.23326 a 1.4375359,1.4375359 0 1 1 0,-2.87507 h 106.40303 a 1.4375359,1.4375359 0 0 1 0,2.87507 z"
       fill="#e6e6e6"
       id="path9564"
       style="stroke-width:0.808895" />
    <path
       d="m 566.99475,470.32506 -32.84261,-13.09059 a 2.9781325,2.9781325 0 0 1 -1.66184,-3.86482 l 49.68245,-124.6463 a 2.9781325,2.9781325 0 0 1 3.86474,-1.662 l 32.84258,13.09064 a 2.9782295,2.9782295 0 0 1 1.66195,3.86485 L 570.8596,468.66312 a 2.9782215,2.9782215 0 0 1 -3.86485,1.66194 z"
       fill="#ffffff"
       id="path9566"
       style="stroke-width:0.808895" />
    <path
       d="M 566.78689,470.84677 533.9443,457.75612 a 3.5402659,3.5402659 0 0 1 -1.97561,-4.59428 l 49.68248,-124.6464 a 3.540274,3.540274 0 0 1 4.59428,-1.9756 l 32.84259,13.09063 a 3.540274,3.540274 0 0 1 1.97561,4.5943 l -49.68248,124.64638 a 3.540274,3.540274 0 0 1 -4.59428,1.97562 z m -33.77501,-17.2691 a 2.4161689,2.4161689 0 0 0 1.34822,3.13528 l 32.84259,13.09064 a 2.4161689,2.4161689 0 0 0 3.13527,-1.34821 l 49.6825,-124.64643 a 2.4161689,2.4161689 0 0 0 -1.34822,-3.13527 l -32.84259,-13.09064 a 2.4161689,2.4161689 0 0 0 -3.13528,1.34822 z"
       fill="#cccccc"
       id="path9568"
       style="stroke-width:0.808895" />
    <circle
       cx="589.03113"
       cy="343.73993"
       r="4.8272743"
       fill="#e6e6e6"
       id="circle9570"
       style="stroke-width:0.808895" />
    <path
       d="m 555.97537,455.64352 a 1.4390886,1.4390886 0 0 1 -0.80298,-1.86758 L 598.9155,344.03062 a 1.4374691,1.4374691 0 1 1 2.67059,1.0645 L 557.843,454.84041 a 1.4392019,1.4392019 0 0 1 -1.86763,0.80311 z"
       fill="#e6e6e6"
       id="path9572"
       style="stroke-width:0.808895" />
    <path
       d="m 565.59824,446.8421 a 1.4392019,1.4392019 0 0 1 -0.80312,-1.86764 l 39.3967,-98.84077 a 1.4375355,1.4375355 0 1 1 2.67073,1.06451 l -39.39669,98.84078 a 1.4391938,1.4391938 0 0 1 -1.86762,0.80312 z"
       fill="#e6e6e6"
       id="path9574"
       style="stroke-width:0.808895" />
    <circle
       cx="647.83026"
       cy="67.429337"
       r="12.706817"
       fill="#ffffff"
       id="circle9576"
       style="stroke-width:0.808895" />
    <path
       d="m 654.08672,66.926911 h -5.71581 v -5.715773 a 0.54072194,0.54072194 0 1 0 -1.08144,0 v 5.715773 h -5.71577 a 0.54072194,0.54072194 0 1 0 0,1.081443 h 5.71577 v 5.715904 a 0.54072194,0.54072194 0 1 0 1.08144,0 v -5.715904 h 5.71581 a 0.54072194,0.54072194 0 0 0 0,-1.081443 z"
       fill="#e6e6e6"
       id="path9578"
       style="stroke-width:0.808895" />
    <path
       d="m 804.41484,77.899228 h -42.87143 a 10.515633,10.515633 0 0 1 0,-21.031253 h 42.87143 a 10.515633,10.515633 0 0 1 0,21.031253 z"
       fill="#327e62"
       id="path9580"
       style="stroke-width:0.808895" />
    <rect
       x="-55.161385"
       y="658.77319"
       width="1.6179595"
       height="82.854797"
       transform="rotate(-89.17239)"
       fill="#3f3d56"
       id="rect9582"
       style="stroke-width:0.808895" />
    <path
       d="m 654.45361,68.250554 a 4.0516249,4.0516249 0 1 1 1.76906,-0.411159 4.0484379,4.0484379 0 0 1 -1.76906,0.411159 z m -0.006,-6.474705 a 2.428545,2.428545 0 1 0 2.18299,1.364597 v -3.65e-4 a 2.4326866,2.4326866 0 0 0 -2.18299,-1.364221 z"
       fill="#3f3d56"
       id="path9584"
       style="stroke-width:0.808895" />
    <path
       d="m 406.25572,91.650443 a 10.527297,10.527297 0 0 1 10.51564,-10.515636 h 42.87143 a 10.515636,10.515636 0 0 1 0,21.031273 H 416.77136 A 10.527297,10.527297 0 0 1 406.25572,91.650443 Z"
       fill="#327e62"
       id="path9586"
       style="stroke-width:0.808895" />
    <rect
       x="479.08133"
       y="95.446777"
       width="82.855156"
       height="1.6179665"
       transform="rotate(-0.82737628)"
       fill="#3f3d56"
       id="rect9588"
       style="stroke-width:0.808895" />
    <path
       d="m 564.96351,92.106245 a 4.0178779,4.0178779 0 1 1 1.76905,0.411159 4.0188485,4.0188485 0 0 1 -1.76905,-0.411159 z m 0.9823,-5.930066 a 2.4102963,2.4102963 0 0 0 -1.3907,1.230735 v 3.88e-4 a 2.432266,2.432266 0 1 0 1.3907,-1.231146 z"
       fill="#3f3d56"
       id="path9590"
       style="stroke-width:0.808895" />
    <path
       d="m 403.02014,409.54613 a 10.527297,10.527297 0 0 1 10.51564,-10.51563 h 42.87143 a 10.515633,10.515633 0 0 1 0,21.03125 h -42.87143 a 10.527297,10.527297 0 0 1 -10.51564,-10.51562 z"
       fill="#327e62"
       id="path9592"
       style="stroke-width:0.808895" />
    <rect
       x="471.25433"
       y="413.26395"
       width="82.855156"
       height="1.6179665"
       transform="rotate(-0.82737628)"
       fill="#3f3d56"
       id="rect9594"
       style="stroke-width:0.808895" />
    <path
       d="m 561.72793,410.00192 a 4.0178779,4.0178779 0 1 1 1.76905,0.41116 4.0188485,4.0188485 0 0 1 -1.76905,-0.41116 z m 0.9823,-5.93005 a 2.4102963,2.4102963 0 0 0 -1.3907,1.23072 v 3.9e-4 a 2.432266,2.432266 0 1 0 1.3907,-1.23114 z"
       fill="#3f3d56"
       id="path9596"
       style="stroke-width:0.808895" />
    <path
       d="m 414.34466,208.94021 a 10.527297,10.527297 0 0 1 10.51564,-10.51564 h 42.87143 a 10.515633,10.515633 0 0 1 0,21.03126 H 424.8603 a 10.527297,10.527297 0 0 1 -10.51564,-10.51562 z"
       fill="#327e62"
       id="path9598"
       style="stroke-width:0.808895" />
    <rect
       x="485.47531"
       y="212.84167"
       width="82.855156"
       height="1.6179665"
       transform="rotate(-0.82737628)"
       fill="#3f3d56"
       id="rect9600"
       style="stroke-width:0.808895" />
    <path
       d="m 573.05246,209.396 a 4.0178779,4.0178779 0 1 1 1.76905,0.41116 4.0188485,4.0188485 0 0 1 -1.76905,-0.41116 z m 0.98229,-5.93006 a 2.4102963,2.4102963 0 0 0 -1.39068,1.23073 v 3.8e-4 a 2.432266,2.432266 0 1 0 1.39068,-1.23113 z"
       fill="#3f3d56"
       id="path9602"
       style="stroke-width:0.808895" />
    <path
       d="m 793.09032,145.03751 h -42.87143 a 10.515635,10.515635 0 0 1 0,-21.03127 h 42.87143 a 10.515635,10.515635 0 0 1 0,21.03127 z"
       fill="#327e62"
       id="path9604"
       style="stroke-width:0.808895" />
    <rect
       x="-122.45621"
       y="648.41962"
       width="1.6179595"
       height="82.854797"
       transform="rotate(-89.17239)"
       fill="#3f3d56"
       id="rect9606"
       style="stroke-width:0.808895" />
    <path
       d="m 643.12908,135.38883 a 4.0516249,4.0516249 0 1 1 1.76905,-0.41116 4.0484379,4.0484379 0 0 1 -1.76905,0.41116 z m -0.006,-6.47472 a 2.428545,2.428545 0 1 0 2.183,1.36461 v -3.7e-4 a 2.4326866,2.4326866 0 0 0 -2.183,-1.36422 z"
       fill="#3f3d56"
       id="path9608"
       style="stroke-width:0.808895" />
    <path
       d="m 816.01786,264.81547 -12.45199,0.55212 c -2.80616,7.63061 -0.81826,26.15569 -0.81826,26.15569 l -6.5417,30.44166 a 5.5029117,5.5029117 0 1 0 9.19654,2.47004 l 13.28522,-36.50334 z"
       fill="#9e616a"
       id="path9610"
       style="stroke-width:0.808895" />
    <path
       d="m 807.73413,231.52044 v 0 a 13.150592,13.150592 0 0 1 13.43069,15.14247 l -1.19625,7.7782 c 0,0 3.42115,26.47862 -0.75005,33.68506 l -7.95548,21.54279 -12.97967,-0.66375 3.58873,-23.52521 c 0,0 0.90536,-11.64371 -2.40699,-16.5694 -2.02855,-3.01658 -4.09047,-14.36884 -4.44326,-23.85367 a 13.116909,13.116909 0 0 1 12.71228,-13.53649 z"
       fill="#3f3d56"
       id="path9612"
       style="stroke-width:0.808895" />
    <polygon
       points="568.047,476.036 582.801,476.036 582.798,514.593 572.803,514.592 "
       fill="#9e616a"
       id="polygon9614"
       transform="matrix(0.80889486,0,0,0.80889486,327.31376,46.779076)" />
    <path
       d="m 799.0213,471.46528 -24.86444,-8.1e-4 v -0.31458 a 9.6784269,9.6784269 0 0 1 9.67792,-9.67779 h 6e-4 l 4.54181,-3.44565 8.47398,3.44618 2.1705,8e-5 z"
       fill="#2f2e41"
       id="path9616"
       style="stroke-width:0.808895" />
    <polygon
       points="531.93,476.036 546.684,476.036 546.681,514.593 536.686,514.592 "
       fill="#9e616a"
       id="polygon9618"
       transform="matrix(0.80889486,0,0,0.80889486,327.31376,46.779076)" />
    <path
       d="m 769.80639,471.46528 -24.86444,-8.1e-4 v -0.31458 a 9.6784269,9.6784269 0 0 1 9.67794,-9.67779 h 5.9e-4 l 4.54182,-3.44565 8.47398,3.44618 2.1705,8e-5 z"
       fill="#2f2e41"
       id="path9620"
       style="stroke-width:0.808895" />
    <path
       d="m 740.16158,378.03898 c 4.80194,15.29726 6.64556,27.29859 10.30519,42.44559 1.44517,2.65927 7.66626,24.75558 7.66626,24.75558 0,0 9.32365,1.02304 12.62146,-1.58647 3.2978,-2.60951 -0.10039,-15.52351 -0.10039,-15.52351 2.17402,-9.76363 -3.18446,-25.14682 -3.50195,-34.61228 0.6596,-3.97248 -2.83679,-7.38266 -3.15689,-11.17122 2.31128,-1.75894 13.55571,-29.36052 15.84872,-37.0731 -1.17839,23.5009 9.15974,77.16006 3.7129,94.98609 -3.16461,10.35691 4.1914,8.05462 15.0846,8.55546 4.85703,-1.4427 2.88128,-9.75659 2.88128,-9.75659 0,0 3.29781,-5.49143 3.29781,-7.62063 2.36105,-9.96397 5.19882,-31.63831 4.42439,-36.50895 0.35489,-5.17004 0.53029,-56.82197 4.4792,-74.91385 2.63164,-14.41173 -29.62046,-17.58418 -38.89587,-21.02082 -15.47739,-7.45672 -12.86522,3.14442 -21.01606,12.91025 -7.8593,16.83429 -12.48859,46.89527 -13.6506,66.13445 z"
       fill="#2f2e41"
       id="path9622"
       style="stroke-width:0.808895" />
    <path
       d="m 776.2917,226.53591 9.40259,-10.58726 14.85722,1.6508 9.51206,13.31199 v 0 c 10.5128,2.41949 12.45139,11.0148 10.60559,21.64333 -3.69123,21.25504 -12.80334,36.11224 -8.66126,46.59954 6.28758,15.91946 3.23901,28.16977 -11.81186,25.93787 -15.05089,-2.23191 -49.73339,-16.97079 -39.9574,-26.74677 9.77598,-9.77597 1.03563,-14.90059 1.03563,-14.90059 l 6.86319,-37.3741 c -1.75761,-9.53144 -1.48641,-18.53704 8.15422,-19.53478 z"
       fill="#3f3d56"
       id="path9624"
       style="stroke-width:0.808895" />
    <path
       d="M 777.49952,260.08842 765.64981,256.223 c -5.31207,6.15489 -9.97084,24.19446 -9.97084,24.19446 l -16.83653,26.19201 a 5.5029117,5.5029117 0 1 0 7.73893,5.54855 l 25.2819,-29.49264 z"
       fill="#9e616a"
       id="path9626"
       style="stroke-width:0.808895" />
    <path
       d="m 781.46327,226.00812 v 0 a 13.150584,13.150584 0 0 1 7.24241,18.9004 l -3.8571,6.8596 c 0,0 -6.11632,25.9887 -12.55682,31.26614 l -15.02809,17.36487 -11.91572,-5.18921 11.63837,-20.75725 c 0,0 4.94521,-10.5802 3.57825,-16.35647 -0.83715,-3.53752 1.22802,-14.88917 4.23582,-23.89138 a 13.116909,13.116909 0 0 1 16.66288,-8.1967 z"
       fill="#3f3d56"
       id="path9628"
       style="stroke-width:0.808895" />
    <circle
       id="fe5d9414-b808-43bb-a4dc-97fa5cac342b"
       data-name="ab6171fa-7d69-4734-b81c-8dff60f9761b"
       cx="796.73035"
       cy="198.33363"
       r="15.35805"
       fill="#a0616a"
       style="stroke-width:0.808895" />
    <path
       d="m 783.35932,184.51446 a 8.6434218,8.6434218 0 0 1 1.50332,-3.534 4.2262329,4.2262329 0 0 1 6.29656,-0.19138 4.6344498,4.6344498 0 0 1 -0.20383,-2.174 11.775665,11.775665 0 0 0 3.55483,1.05731 l -2.72529,-2.84555 c 5.59897,-2.48785 10.22533,-2.35346 13.56608,1.24643 0.95642,1.03064 2.91428,0.31081 3.94238,1.37449 1.02817,1.06362 1.0852,3.33394 -0.21431,3.92702 2.56073,-0.96432 5.50123,0.43541 7.19061,2.78058 1.68944,2.34512 2.31154,5.43857 2.42569,8.43952 0.14797,3.89144 -0.57729,8.03435 -2.95256,10.89932 -1.55321,1.87345 -3.67115,3.04172 -5.39009,4.72719 l -0.0514,0.0508 a 15.280638,15.280638 0 0 1 -14.79135,4.12042 c -0.29309,-0.0805 -0.58412,-0.16999 -0.87659,-0.25338 -1.46195,0.66122 -3.28272,-0.24279 -4.2055,-1.71297 -0.98406,-1.56774 -1.17842,-3.57371 -1.2201,-5.48441 a 44.961053,44.961053 0 0 1 0.46027,-7.47114 c 0.40688,-2.78513 0.7736,-6.35194 -1.43221,-7.7509 -1.71728,-1.08911 -3.85104,-0.0143 -5.57987,1.05207 a 28.713624,28.713624 0 0 1 0.70343,-8.25744 z"
       fill="#2f2e41"
       id="path9631"
       style="stroke-width:0.808895" />
    <path
       d="m 933.93692,472.7463 -605.66002,0.2486 a 0.96314302,0.96314302 0 0 1 0,-1.92628 l 605.66002,-0.2486 a 0.96314065,0.96314065 0 1 1 0,1.92628 z"
       fill="#cacaca"
       id="path9633"
       style="stroke-width:0.808895" />
  </g>
</svg>
