<?xml version="1.0" encoding="UTF-8" standalone="no"?>
<svg
   data-name="Layer 1"
   width="800"
   height="800"
   viewBox="0 0 800.00001 800"
   version="1.1"
   id="svg6753"
   sodipodi:docname="CancellationMobile.svg"
   inkscape:version="1.2.1 (9c6d41e410, 2022-07-14)"
   xmlns:inkscape="http://www.inkscape.org/namespaces/inkscape"
   xmlns:sodipodi="http://sodipodi.sourceforge.net/DTD/sodipodi-0.dtd"
   xmlns="http://www.w3.org/2000/svg"
   xmlns:svg="http://www.w3.org/2000/svg">
  <defs
     id="defs6757" />
  <sodipodi:namedview
     id="namedview6755"
     pagecolor="#ffffff"
     bordercolor="#000000"
     borderopacity="0.25"
     inkscape:showpageshadow="2"
     inkscape:pageopacity="0.0"
     inkscape:pagecheckerboard="0"
     inkscape:deskcolor="#d1d1d1"
     showgrid="false"
     inkscape:zoom="0.70106915"
     inkscape:cx="519.92018"
     inkscape:cy="513.50141"
     inkscape:window-width="1920"
     inkscape:window-height="1017"
     inkscape:window-x="-8"
     inkscape:window-y="-8"
     inkscape:window-maximized="1"
     inkscape:current-layer="svg6753" />
  <path
     d="M 649.77651,720.25019 H 345.89826 a 41.269322,41.269322 0 0 1 -41.22261,-41.2225 V 251.53839 A 188.44854,188.44854 0 0 1 492.91083,63.302499 h 156.86634 a 41.268565,41.268565 0 0 1 41.22195,41.221961 v 574.50323 a 41.26887,41.26887 0 0 1 -41.22261,41.2225 z"
     fill="#f2f2f2"
     id="path9550"
     style="stroke-width:2.04935" />
  <path
     d="m 356.52403,434.81379 a 17.381835,17.381835 0 0 0 -17.36196,17.36192 v 97.57473 a 17.382449,17.382449 0 0 0 17.36196,17.36259 h 295.31293 a 17.382449,17.382449 0 0 0 17.36197,-17.36259 V 452.1757 a 17.381835,17.381835 0 0 0 -17.36197,-17.36197 z"
     fill="#ffffff"
     id="path9552"
     style="stroke-width:2.04935" />
  <path
     d="M 652.54754,371.50931 H 357.23533 A 18.805363,18.805363 0 0 1 338.45082,352.72483 116.49182,116.49182 0 0 1 454.81079,236.36496 h 197.73753 a 18.805343,18.805343 0 0 1 18.78446,18.7845 v 97.57467 a 18.806552,18.806552 0 0 1 -18.78524,18.78518 z"
     fill="#ffffff"
     id="path9554"
     style="stroke-width:2.04935" />
  <path
     d="M 779.6921,552.14316 H 439.74 a 7.5453196,7.5453196 0 0 1 -7.5367,-7.53666 v -89.57269 a 7.5450735,7.5450735 0 0 1 7.5367,-7.53641 h 339.9521 a 7.5450735,7.5450735 0 0 1 7.53666,7.53641 v 89.57269 a 7.5453196,7.5453196 0 0 1 -7.53666,7.53666 z"
     fill="#ffffff"
     id="path9556"
     style="stroke-width:2.04935" />
  <path
     d="M 779.69242,553.56582 H 439.74 a 8.9692581,8.9692581 0 0 1 -8.95915,-8.95913 v -89.57272 a 8.9692787,8.9692787 0 0 1 8.95915,-8.95916 h 339.95242 a 8.9692991,8.9692991 0 0 1 8.95913,8.95916 v 89.57272 a 8.9692787,8.9692787 0 0 1 -8.95913,8.95913 z M 439.74,448.91995 a 6.1213603,6.1213603 0 0 0 -6.11401,6.11402 v 89.57272 a 6.1213603,6.1213603 0 0 0 6.11401,6.11401 h 339.95242 a 6.1213603,6.1213603 0 0 0 6.11399,-6.11401 v -89.57272 a 6.1213603,6.1213603 0 0 0 -6.11399,-6.11402 z"
     fill="#cccccc"
     id="path9558"
     style="stroke-width:2.04935" />
  <circle
     cx="468.64731"
     cy="477.72443"
     r="12.229893"
     fill="#e6e6e6"
     id="circle9560"
     style="stroke-width:2.04935" />
  <path
     d="M 759.37138,508.54302 H 460.05912 a 3.6418303,3.6418303 0 1 1 0,-7.28362 h 299.3122 a 3.6418303,3.6418303 0 1 1 0,7.28362 z"
     fill="#e6e6e6"
     id="path9562"
     style="stroke-width:2.04935" />
  <path
     d="M 729.63105,522.93365 H 460.05912 a 3.6419985,3.6419985 0 1 1 0,-7.28399 h 269.57193 a 3.6419985,3.6419985 0 0 1 0,7.28399 z"
     fill="#e6e6e6"
     id="path9564"
     style="stroke-width:2.04935" />
  <path
     d="M 632.85081,347.72017 H 292.89839 a 8.9692581,8.9692581 0 0 1 -8.95915,-8.95913 v -89.57272 a 8.9692787,8.9692787 0 0 1 8.95915,-8.95916 h 339.95242 a 8.9692991,8.9692991 0 0 1 8.95913,8.95916 v 89.57272 a 8.9692787,8.9692787 0 0 1 -8.95913,8.95913 z M 292.89839,243.0743 a 6.1213603,6.1213603 0 0 0 -6.11401,6.11402 v 89.57272 a 6.1213603,6.1213603 0 0 0 6.11401,6.11401 h 339.95242 a 6.1213603,6.1213603 0 0 0 6.114,-6.11401 v -89.57272 a 6.1213603,6.1213603 0 0 0 -6.114,-6.11402 z"
     fill="#cccccc"
     id="path9558-1"
     style="stroke-width:2.04935" />
  <circle
     cx="321.80569"
     cy="271.87872"
     r="12.229893"
     fill="#e6e6e6"
     id="circle9560-6"
     style="stroke-width:2.04935" />
  <path
     d="M 612.52977,302.69737 H 313.21752 a 3.6418303,3.6418303 0 1 1 0,-7.28362 h 299.31219 a 3.6418303,3.6418303 0 1 1 0,7.28362 z"
     fill="#e6e6e6"
     id="path9562-7"
     style="stroke-width:2.04935" />
  <path
     d="M 582.78944,317.088 H 313.21752 a 3.6419985,3.6419985 0 1 1 0,-7.28399 h 269.57192 a 3.6419985,3.6419985 0 0 1 0,7.28399 z"
     fill="#e6e6e6"
     id="path9564-3"
     style="stroke-width:2.04935" />
  <circle
     cx="631.3161"
     cy="115.61988"
     r="32.192699"
     fill="#ffffff"
     id="circle9576"
     style="stroke-width:2.04935" />
  <path
     d="M 647.16677,114.34701 H 632.68578 V 99.866109 a 1.36992,1.36992 0 1 0 -2.73984,0 v 14.480901 h -14.48089 a 1.369926,1.369926 0 1 0 0,2.73983 h 14.48089 v 14.48124 a 1.36992,1.36992 0 1 0 2.73984,0 v -14.48124 h 14.48099 a 1.369926,1.369926 0 0 0 0,-2.73983 z"
     fill="#e6e6e6"
     id="path9578"
     style="stroke-width:2.04935" />
  <path
     d="M 19.287293,176.98404 A 26.670889,26.670889 0 0 1 45.928665,150.3427 H 154.54335 a 26.641347,26.641347 0 0 1 0,53.28269 H 45.928665 A 26.670889,26.670889 0 0 1 19.287293,176.98404 Z"
     fill="#327e62"
     id="path9586"
     style="stroke-width:2.04935" />
  <rect
     x="204.69347"
     y="172.024"
     width="209.91339"
     height="4.0991158"
     transform="rotate(-0.82737628)"
     fill="#3f3d56"
     id="rect9588"
     style="stroke-width:2.04935" />
  <path
     d="m 421.37325,178.13883 a 10.179287,10.179287 0 1 1 4.48189,1.04167 10.181746,10.181746 0 0 1 -4.48189,-1.04167 z m 2.48864,-15.02384 a 6.106482,6.106482 0 0 0 -3.52333,3.11809 v 9.7e-4 a 6.1621422,6.1621422 0 1 0 3.52333,-3.11909 z"
     fill="#3f3d56"
     id="path9590"
     style="stroke-width:2.04935" />
  <path
     d="m 633.19627,165.46157 a 26.670889,26.670889 0 0 1 26.64137,-26.64134 h 108.61469 a 26.641347,26.641347 0 0 1 0,53.28269 H 659.83764 a 26.670889,26.670889 0 0 1 -26.64137,-26.64135 z"
     fill="#327e62"
     id="path9586-6"
     style="stroke-width:2.04935" />
  <rect
     x="-438.01917"
     y="-538.29443"
     width="209.91339"
     height="4.0991158"
     transform="rotate(146.19132)"
     fill="#3f3d56"
     id="rect9588-4"
     style="stroke-width:2.04935" />
  <path
     d="m 478.82568,312.53415 a 10.179287,10.179287 0 1 1 -4.32668,1.56599 10.181746,10.181746 0 0 1 4.32668,-1.56599 z m 6.0909,13.95743 a 6.106482,6.106482 0 0 0 1.25813,-4.53356 l -5.2e-4,-8.2e-4 a 6.1621422,6.1621422 0 1 0 -1.25759,4.53441 z"
     fill="#3f3d56"
     id="path9590-2"
     style="stroke-width:2.04935" />
  <path
     d="M 39.780621,474.13748 A 26.670889,26.670889 0 0 1 66.421972,447.49613 H 175.03666 a 26.64134,26.64134 0 0 1 0,53.28264 H 66.421972 A 26.670889,26.670889 0 0 1 39.780621,474.13748 Z"
     fill="#327e62"
     id="path9598"
     style="stroke-width:2.04935" />
  <rect
     x="220.89256"
     y="469.44391"
     width="209.91339"
     height="4.0991158"
     transform="rotate(-0.82737628)"
     fill="#3f3d56"
     id="rect9600"
     style="stroke-width:2.04935" />
  <path
     d="m 441.86659,475.29223 a 10.179287,10.179287 0 1 1 4.48189,1.04167 10.181746,10.181746 0 0 1 -4.48189,-1.04167 z m 2.48864,-15.0238 a 6.106482,6.106482 0 0 0 -3.5233,3.11804 v 9.7e-4 a 6.1621422,6.1621422 0 1 0 3.5233,-3.11907 z"
     fill="#3f3d56"
     id="path9602"
     style="stroke-width:2.04935" />
</svg>
