<?xml version="1.0" encoding="UTF-8" standalone="no"?>
<svg
   data-name="Layer 1"
   width="500"
   height="500"
   viewBox="0 0 500.00002 500.00001"
   version="1.1"
   id="svg407"
   sodipodi:docname="Construction.svg"
   inkscape:version="1.2.1 (9c6d41e410, 2022-07-14)"
   xmlns:inkscape="http://www.inkscape.org/namespaces/inkscape"
   xmlns:sodipodi="http://sodipodi.sourceforge.net/DTD/sodipodi-0.dtd"
   xmlns:xlink="http://www.w3.org/1999/xlink"
   xmlns="http://www.w3.org/2000/svg"
   xmlns:svg="http://www.w3.org/2000/svg"
   xmlns:rdf="http://www.w3.org/1999/02/22-rdf-syntax-ns#"
   xmlns:cc="http://creativecommons.org/ns#"
   xmlns:dc="http://purl.org/dc/elements/1.1/">
  <sodipodi:namedview
     id="namedview409"
     pagecolor="#ffffff"
     bordercolor="#000000"
     borderopacity="0.25"
     inkscape:showpageshadow="2"
     inkscape:pageopacity="0.0"
     inkscape:pagecheckerboard="0"
     inkscape:deskcolor="#d1d1d1"
     showgrid="false"
     inkscape:zoom="1.0394564"
     inkscape:cx="179.4207"
     inkscape:cy="185.67397"
     inkscape:window-width="1920"
     inkscape:window-height="1017"
     inkscape:window-x="-8"
     inkscape:window-y="-8"
     inkscape:window-maximized="1"
     inkscape:current-layer="svg407" />
  <defs
     id="defs11">
    <linearGradient
       id="ac59aa7e-40f5-4d5f-b82f-fdd6bf7d03ee-647"
       x1="439.31"
       y1="679.56"
       x2="439.39999"
       y2="679.56"
       gradientUnits="userSpaceOnUse">
      <stop
         offset="0"
         stop-color="gray"
         stop-opacity="0.25"
         id="stop2" />
      <stop
         offset="0.54"
         stop-color="gray"
         stop-opacity="0.12"
         id="stop4" />
      <stop
         offset="1"
         stop-color="gray"
         stop-opacity="0.1"
         id="stop6" />
    </linearGradient>
    <linearGradient
       id="72a3db62-0825-44ad-a640-19754e14ba99-648"
       x1="186.82001"
       y1="533.62"
       x2="458.12"
       y2="533.62"
       xlink:href="#ac59aa7e-40f5-4d5f-b82f-fdd6bf7d03ee-647"
       gradientTransform="translate(-17.96,-172.03)" />
    <linearGradient
       id="060ac890-45f2-497a-b51d-740a183b02f3-649"
       x1="-1193.63"
       y1="706.12"
       x2="-1193.63"
       y2="383.51999"
       gradientTransform="translate(1979.37,-172.03)"
       xlink:href="#ac59aa7e-40f5-4d5f-b82f-fdd6bf7d03ee-647" />
  </defs>
  <title
     id="title13">design tools</title>
  <metadata
     id="metadata3146">
    <rdf:RDF>
      <cc:Work
         rdf:about="">
        <dc:title>design tools</dc:title>
      </cc:Work>
    </rdf:RDF>
  </metadata>
  <path
     d="m 470.03944,378.24208 h -12.82042 v -29.7842 h 12.82042 z m 0,53.84872 h -4.524 v -12.17135 h -28.16882 v 12.17135 h -6.30529 v -44.9081 h 38.99811 z m 0,57.02089 h -38.99811 v -48.08027 h 38.99811 z M 431.04133,348.45788 h 21.65858 v 29.7842 h -21.65858 z m -4.49958,29.7842 h -12.29338 v -29.7842 h 12.29338 z m 0,53.84872 h -12.29338 v -44.9081 h 12.29338 z m 0,57.02089 h -12.29338 v -48.08027 h 12.29338 z M 409.75368,378.24208 h -14.9775 v -29.7842 h 14.9775 z m 0,53.84872 h -14.9775 v -44.9081 h 14.9775 z m 0,57.02089 h -14.9775 v -48.08027 h 14.9775 z M 138.50427,478.96076 h -17.38345 v -29.85251 h 17.38345 z M 481.43971,325.48165 h -11.40027 v 18.18383 h -12.82042 v -9.6873 h -4.51911 v 9.6873 h -21.65858 v -9.6873 h -4.49958 v 9.6873 h -12.29338 v -9.6873 h -4.49469 v 9.6873 h -14.9775 v -18.18383 h -11.40517 v 74.94118 l -22.84935,22.87374 v 40.49146 H 302.54424 V 445.17964 H 285.2584 v -15.02629 h 5.2658 v -8.69175 l 45.03498,-24.19631 v 28.93992 c -0.62468,0.2001 -1.09319,0.81989 -1.09319,1.56656 v 6.03199 c 0,0.72228 0.46851,1.34207 1.09319,1.56657 v 4.3239 h -9.63852 v 8.49165 h 19.72111 v -8.49165 h -9.18952 v -4.3239 c 0.69301,-0.17569 1.19079,-0.79549 1.19079,-1.56657 v -6.03199 c 0,-0.77108 -0.49778,-1.39574 -1.19079,-1.59096 V 396.7724 l 0.79549,-0.42457 -1.24446,-2.60607 -45.47908,24.46471 v -1.81545 h -6.97877 v -8.09634 h -2.88423 v 8.09634 h -6.25649 v 13.76233 h 6.18329 v 15.02629 h -28.93992 v 17.76413 h -19.94559 l -10.13141,-10.11189 v -41.57977 h -37.75851 v 48.68541 H 166.8488 v -20.57027 h -0.37578 v -26.79747 h -5.48541 v 26.79747 h -17.13945 v -48.03633 h 5.81238 v -12.84484 h -5.86606 v -7.54974 h -2.67926 v 7.54974 h -6.53466 v 1.69345 l -42.42405,-22.82982 -1.166386,2.43524 0.741803,0.39531 v 27.45142 c -0.644199,0.17081 -1.117578,0.74181 -1.117578,1.46408 v 5.6367 c 0,0.72226 0.473379,1.29325 1.117578,1.46406 v 4.05063 h -8.56973 v 7.90112 h 18.383923 v -7.90112 h -8.994316 v -4.05063 c 0.595404,-0.2196 1.044385,-0.7662 1.044385,-1.46406 v -5.6367 c 0,-0.69787 -0.448981,-1.26887 -1.044385,-1.46408 v -27.00244 l 42.028756,22.60532 v 8.09636 h 4.91929 v 48.03633 H 119.70066 V 422.1302 h -5.51468 v 17.23705 h -8.04754 v -26.17766 h -5.51468 v 48.93429 H 73.650588 V 407.6993 h -0.04879 V 380.05265 H 66.422937 V 407.6993 H 62.201518 V 369.54547 H 59.717467 V 407.6993 H 51.543042 V 394.28835 H 42.578018 V 407.6993 H 36.01896 v -34.44972 h -3.181939 v 34.44972 h -6.03198 v -43.49283 h -5.714784 v 94.78428 h -41.901859 v 87.81041 H 506.25581 V 410.35903 h -24.8161 v -84.87738"
     style="fill:#e4dbd2;fill-opacity:1;fill-rule:nonzero;stroke:none;stroke-width:0.0488025"
     id="path6546" />
  <path
     d="m 215.26158,200.3249 h 0.004 c 6.87306,3.63955 15.38982,1.02239 19.03424,-5.84578 L 303.90619,63.230339 279.00171,50.04676 209.40512,181.27597 c -3.64443,6.87796 -1.0224,15.40937 5.85556,19.04893"
     style="fill:#eaeaf1;fill-opacity:1;fill-rule:nonzero;stroke:none;stroke-width:0.0489185"
     id="path6548" />
  <path
     d="m 261.92509,98.339262 -0.19078,-0.0978 v 0 l -6.47194,-3.4292 20.38931,-38.445173 6.66272,3.527035 -20.38931,38.445178"
     style="fill:#c3c3cb;fill-opacity:1;fill-rule:nonzero;stroke:none;stroke-width:0.0489185"
     id="path6550" />
  <path
     d="m 300.55616,69.550631 -18.24176,-9.656545 3.34114,-6.295831 18.23687,9.656543 -3.33625,6.295833"
     style="fill:#c3c3cb;fill-opacity:1;fill-rule:nonzero;stroke:none;stroke-width:0.0489185"
     id="path6552" />
  <path
     d="m 282.3144,59.894086 -6.66272,-3.527035 3.34114,-6.295832 6.66272,3.527036 -3.34114,6.295831"
     style="fill:#a2a1ab;fill-opacity:1;fill-rule:nonzero;stroke:none;stroke-width:0.0489185"
     id="path6554" />
  <path
     d="m 280.16686,107.99581 -45.86126,86.47353 c -3.64443,6.87307 -12.17584,9.49021 -19.04891,5.85066 -6.87798,-3.63954 -9.50001,-12.16118 -5.85557,-19.03424 l 45.86125,-86.473528 24.90449,13.183578"
     style="fill:#f03b27;fill-opacity:1;fill-rule:nonzero;stroke:none;stroke-width:0.0489185"
     id="path6556" />
  <path
     d="m 261.73431,98.241432 -6.47194,-3.4292 v 0 l 6.47194,3.4292"
     style="fill:#a2a1ab;fill-opacity:1;fill-rule:nonzero;stroke:none;stroke-width:0.0489185"
     id="path6558" />
  <path
     d="m 220.3638,160.61273 34.89857,-65.800498 6.47194,3.4292 -32.59451,61.461418 -8.776,0.90988"
     style="fill:#db3222;fill-opacity:1;fill-rule:nonzero;stroke:none;stroke-width:0.0489185"
     id="path6560" />
  <path
     d="m 225.9503,26.927795 7.23997,3.83523 c 0,0 17.0188,-17.23405 40.88132,-10.75722 5.86047,1.59475 9.2603,7.72426 7.66556,13.584715 L 277.47634,49.268955 304.74849,63.70485 323.95396,44.983678 335.78739,22.671875 300.69802,4.0974582 C 295.94313,1.5781482 290.61099,0.38453818 285.22993,0.59488818 269.58086,1.2112582 237.47555,5.1981282 225.9503,26.927795"
     style="fill:#eaeaf1;fill-opacity:1;fill-rule:nonzero;stroke:none;stroke-width:0.0489185"
     id="path6562" />
  <path
     d="m 323.94906,44.988571 c 15.3947,-2.431259 19.4305,10.287594 19.4305,10.287594 L 355.20809,32.969254 C 339.81827,35.400512 335.7776,22.686555 335.7776,22.686555 l -11.82854,22.302016"
     style="fill:#eaeaf1;fill-opacity:1;fill-rule:nonzero;stroke:none;stroke-width:0.0489185"
     id="path6564" />
  <path
     d="m 352.69368,33.243197 v -0.0049 c 0.75335,-0.04402 1.53604,-0.117407 2.34808,-0.239701 v 0 c -0.81204,0.122289 -1.59962,0.200567 -2.34808,0.244592"
     style="fill:#dad9da;fill-opacity:1;fill-rule:nonzero;stroke:none;stroke-width:0.0489185"
     id="path6566" />
  <path
     d="m 347.48873,47.24372 -1.73172,-0.919671 6.93667,-13.080852 c 0.74846,-0.04402 1.53604,-0.122289 2.34808,-0.244592 l -7.55303,14.245115"
     style="fill:#c3c3cb;fill-opacity:1;fill-rule:nonzero;stroke:none;stroke-width:0.0489185"
     id="path6568" />
  <path
     d="m 343.32085,55.100057 c -0.12719,-0.342431 -0.45494,-1.164262 -1.05175,-2.20623 v 0 c 0.59681,1.041968 0.92457,1.863799 1.05175,2.20623 v 0"
     style="fill:#dad9da;fill-opacity:1;fill-rule:nonzero;stroke:none;stroke-width:0.0489185"
     id="path6570" />
  <path
     d="m 342.2691,52.893827 c -1.79042,-3.121011 -6.01698,-8.208552 -14.52883,-8.213444 8.51185,0.0049 12.73841,5.092433 14.52883,8.213444 v 0 m -18.23687,-7.919933 c 0.0245,0 0.049,-0.0049 0.0733,-0.0099 -0.0245,0.0049 -0.0489,0.0099 -0.0733,0.0099 m 3.68847,-0.293511 h 0.004 v 0 h -0.004"
     style="fill:#dad9da;fill-opacity:1;fill-rule:nonzero;stroke:none;stroke-width:0.0489185"
     id="path6572" />
  <path
     d="m 342.2691,52.893827 c -1.79042,-3.121011 -6.01698,-8.208552 -14.52883,-8.213444 -0.004,0 -0.0107,0 -0.0149,0 v 0 0 h -0.004 c -1.13003,0 -2.33343,0.08805 -3.61508,0.283727 -0.0245,0.0049 -0.049,0.0099 -0.0734,0.0099 -0.0245,0.0049 -0.0538,0.0099 -0.0832,0.01462 1.61921,-3.052525 4.75002,-4.798921 7.98842,-4.798921 1.42353,0 2.86664,0.337537 4.2168,1.051749 l 9.60273,5.08265 -3.48791,6.569777"
     style="fill:#c3c3cb;fill-opacity:1;fill-rule:nonzero;stroke:none;stroke-width:0.0489185"
     id="path6574" />
  <path
     d="m 343.32085,55.100057 c -0.12719,-0.342431 -0.45494,-1.164262 -1.05175,-2.20623 v 0 c 0.59681,1.041968 0.92457,1.863799 1.05175,2.20623 v 0"
     style="fill:#b6b4b8;fill-opacity:1;fill-rule:nonzero;stroke:none;stroke-width:0.0489185"
     id="path6576" />
  <path
     d="m 343.32085,55.100057 c -0.12719,-0.342431 -0.45494,-1.164262 -1.05175,-2.20623 l 3.48791,-6.569778 1.73172,0.919671 -4.16788,7.856337"
     style="fill:#a2a1ab;fill-opacity:1;fill-rule:nonzero;stroke:none;stroke-width:0.0489185"
     id="path6578" />
  <path
     d="m 361.28867,31.056535 10.97736,5.811536 c 2.25514,1.193617 3.11612,3.991764 1.91762,6.242023 L 362.43337,65.27514 c -1.1936,2.250258 -3.98687,3.106335 -6.23711,1.91272 L 345.2189,61.376321 c -2.25515,-1.193615 -3.11612,-3.986871 -1.91761,-6.237128 l 11.75516,-22.165047 c 1.18872,-2.250261 3.98198,-3.106331 6.23222,-1.917611"
     style="fill:#eaeaf1;fill-opacity:1;fill-rule:nonzero;stroke:none;stroke-width:0.0489185"
     id="path6580" />
  <path
     d="m 361.28867,31.056535 10.97736,5.811536 c 2.25514,1.193617 3.11612,3.991764 1.91762,6.242023 L 362.43337,65.27514 c -1.1936,2.250258 -3.98687,3.106335 -6.23711,1.91272 L 345.2189,61.376321 c -2.25515,-1.193615 -3.11612,-3.986871 -1.91761,-6.237128 l 11.75516,-22.165047 c 1.18872,-2.250261 3.98198,-3.106331 6.23222,-1.917611"
     style="fill:#eaeaf1;fill-opacity:1;fill-rule:nonzero;stroke:none;stroke-width:0.0489185"
     id="path6582" />
  <path
     d="m 372.25136,46.754535 v 0 l 1.2621,-2.377446 -1.2621,2.377446 m 1.9763,-3.727604 c 0.33266,-0.660401 0.49409,-1.369723 0.49409,-2.064367 0.004,-1.575182 -0.79738,-3.101443 -2.22092,-3.962412 2.05459,1.242535 2.82262,3.869466 1.72683,6.026779 m -9.28475,-10.033219 -3.65424,-1.937177 c -0.0294,-0.0146 -0.0635,-0.0293 -0.0929,-0.0489 0.0294,0.0196 0.0635,0.0342 0.0978,0.0538 l 3.64934,1.932283"
     style="fill:#ffffff;fill-opacity:1;fill-rule:nonzero;stroke:none;stroke-width:0.0489185"
     id="path6584" />
  <path
     d="m 372.25136,46.754535 -19.1321,-10.131057 1.9323,-3.64444 c 0.8316,-1.565393 2.43125,-2.455723 4.08471,-2.455723 0.69464,0 1.39906,0.15655 2.05946,0.4843 0.0294,0.0196 0.0635,0.0342 0.093,0.0489 l 3.65422,1.937182 7.32803,3.879252 c 0.0782,0.03912 0.15163,0.08317 0.2299,0.127184 1.42354,0.860969 2.22581,2.38723 2.22093,3.96241 0,0.694646 -0.16144,1.403967 -0.49409,2.064367 -0.0149,0.02445 -0.0294,0.05382 -0.0391,0.07827 l -0.67508,1.271886 -1.2621,2.377446"
     style="fill:#f5f6f8;fill-opacity:1;fill-rule:nonzero;stroke:none;stroke-width:0.0489185"
     id="path6586" />
  <path
     d="m 356.2892,67.236778 c -0.0294,-0.01462 -0.0635,-0.03424 -0.0978,-0.04891 l -3.64934,-1.932286 3.65424,1.932286 c 0.0294,0.01957 0.0635,0.03424 0.093,0.04891 m 6.61868,-2.866634 2.87153,-5.415296 v 0 l -2.87153,5.415296 m -17.92379,-3.125902 c -2.05458,-1.237642 -2.81771,-3.864576 -1.72683,-6.021888 -0.33264,0.660403 -0.49408,1.369721 -0.49408,2.064369 -0.004,1.575179 0.79738,3.101442 2.22091,3.957519"
     style="fill:#dad9da;fill-opacity:1;fill-rule:nonzero;stroke:none;stroke-width:0.0489185"
     id="path6588" />
  <path
     d="m 358.34866,67.725965 c -0.69463,0 -1.39906,-0.15654 -2.05946,-0.489187 -0.0294,-0.01462 -0.0635,-0.02934 -0.0929,-0.04891 l -3.65423,-1.932286 -7.32803,-3.879251 c -0.0782,-0.03912 -0.15164,-0.08317 -0.2299,-0.132079 -1.42354,-0.856077 -2.22581,-2.382341 -2.22091,-3.95752 0,-0.694647 0.16142,-1.403965 0.49406,-2.064368 0.0148,-0.02935 0.0294,-0.05381 0.0392,-0.07827 l 3.35092,-6.3154 19.13208,10.126163 -2.87151,5.415296 -0.47452,0.900104 c -0.83162,1.565398 -2.43125,2.455717 -4.08471,2.455717"
     style="fill:#c3c3cb;fill-opacity:1;fill-rule:nonzero;stroke:none;stroke-width:0.0489185"
     id="path6590" />
  <path
     d="m 281.96218,32.558335 c 0.80716,-4.64727 -1.41375,-9.28476 -5.41531,-11.53502 4.00156,2.25026 6.22247,6.88775 5.4202,11.53013 0,0 0,0 -0.004,0.005 m -5.42019,-11.53991 c -0.015,-0.01 -0.0342,-0.0196 -0.0539,-0.0293 0.0195,0.01 0.0392,0.0196 0.0539,0.0293 m -0.0539,-0.0293 c -0.0195,-0.01 -0.0342,-0.0196 -0.0539,-0.0294 0.0195,0.01 0.0342,0.0196 0.0539,0.0294 m -0.0587,-0.0294 c -0.0148,-0.01 -0.0342,-0.0244 -0.0539,-0.0342 0.0195,0.01 0.0392,0.0245 0.0539,0.0342 m -0.0539,-0.0342 c -0.10767,-0.0587 -0.22012,-0.11741 -0.33753,-0.17122 0.1173,0.0538 0.22992,0.11251 0.33753,0.17122 m -0.34243,-0.17611 c -0.0148,-0.005 -0.0294,-0.0146 -0.044,-0.0196 0.0149,0.005 0.0294,0.0146 0.044,0.0196 m -0.0587,-0.0294 c -0.0149,-0.005 -0.0294,-0.01 -0.0391,-0.0196 0.0107,0.01 0.0245,0.0146 0.0391,0.0196 m -0.0635,-0.0293 c -0.0107,-0.005 -0.0245,-0.01 -0.0342,-0.0146 0.0148,0.005 0.0245,0.01 0.0342,0.0146 m -0.0587,-0.0293 c -0.0107,-0.005 -0.0245,-0.01 -0.0342,-0.0146 0.0107,0.005 0.0245,0.01 0.0342,0.0146 m -0.0637,-0.0293 c -0.0107,-0.005 -0.0195,-0.01 -0.0294,-0.0146 0.0107,0.005 0.0195,0.01 0.0294,0.0146 m -0.0587,-0.0245 c -0.0107,-0.005 -0.0195,-0.01 -0.0342,-0.0146 0.0148,0.005 0.0245,0.01 0.0342,0.0146 m -0.0635,-0.0294 c -0.0107,-0.005 -0.0195,-0.01 -0.0294,-0.0146 0.0107,0.005 0.0195,0.01 0.0294,0.0146 m -0.0587,-0.0293 c -0.0107,-0.005 -0.0195,-0.005 -0.0342,-0.01 0.0148,0.005 0.0245,0.005 0.0342,0.01 m -0.0635,-0.0245 c -0.0107,-0.005 -0.0195,-0.01 -0.0294,-0.0146 0.0107,0.005 0.0195,0.01 0.0294,0.0146 m -0.0635,-0.0293 c -0.0107,0 -0.0195,-0.005 -0.0294,-0.01 0.0107,0.005 0.0195,0.01 0.0294,0.01 m -0.0635,-0.0245 c -0.0107,-0.005 -0.0148,-0.01 -0.0245,-0.01 0.0107,0 0.0148,0.005 0.0245,0.01 m -0.0637,-0.0245 c -0.004,-0.005 -0.0148,-0.01 -0.0245,-0.0146 0.0107,0.005 0.0195,0.01 0.0245,0.0146 m -0.0635,-0.0293 c -0.0107,-0.005 -0.0148,-0.005 -0.0245,-0.01 0.0107,0.005 0.0148,0.005 0.0245,0.01 m -0.0685,-0.0293 c -0.0107,0 -0.0107,0 -0.0195,-0.005 0.0107,0.005 0.015,0.005 0.0195,0.005 m -0.14672,-0.0538 c 0,0 -0.004,-0.005 -0.0107,-0.005 0.004,0 0.0107,0.005 0.0107,0.005 m -0.0635,-0.0245 c -0.004,0 -0.0107,-0.005 -0.015,-0.005 0.004,0 0.0107,0.005 0.015,0.005 m -0.0635,-0.0245 c -0.004,0 -0.0148,-0.005 -0.0195,-0.005 0.004,0 0.015,0.005 0.0195,0.005 m -0.0635,-0.0196 c -0.004,-0.005 -0.015,-0.01 -0.0245,-0.01 0.0107,0 0.0195,0.005 0.0245,0.01 m -0.0637,-0.0245 c -0.0107,-0.005 -0.0149,-0.005 -0.0245,-0.01 0.0107,0.005 0.0149,0.005 0.0245,0.01 m -0.0635,-0.0245 c -0.0107,0 -0.0195,-0.005 -0.0245,-0.005 0.004,0 0.0148,0.005 0.0245,0.005 m -0.0635,-0.0196 c -0.0107,-0.005 -0.0195,-0.005 -0.0294,-0.01 0.0107,0.005 0.0195,0.005 0.0294,0.01 m -0.0685,-0.0245 c -0.004,0 -0.0148,-0.005 -0.0245,-0.005 0.0107,0 0.0195,0.005 0.0245,0.005 m -0.0635,-0.0196 c -0.0107,0 -0.0195,-0.005 -0.0245,-0.01 0.004,0.005 0.015,0.01 0.0245,0.01 m -0.0635,-0.0196 c -0.0107,-0.005 -0.0195,-0.005 -0.0294,-0.01 0.0107,0.005 0.0195,0.005 0.0294,0.01 m -0.0685,-0.0196 c -0.0107,-0.005 -0.0149,-0.005 -0.0245,-0.01 0.0107,0 0.0148,0.005 0.0245,0.01 m -0.0685,-0.0196 c -0.004,-0.005 -0.015,-0.01 -0.0245,-0.01 0.0107,0 0.0195,0.005 0.0245,0.01 m -0.0635,-0.0245 c -0.0107,0 -0.0195,-0.005 -0.0245,-0.005 0.004,0 0.0149,0.005 0.0245,0.005 m -0.0685,-0.0196 c -0.0107,0 -0.0149,-0.005 -0.0245,-0.005 0.0107,0 0.0148,0.005 0.0245,0.005 m -0.0734,-0.0196 c -0.004,0 -0.0107,-0.005 -0.0195,-0.005 0.0107,0 0.0149,0.005 0.0195,0.005 m -0.0832,-0.0245 v 0 c -0.0832,-0.0196 -0.16631,-0.044 -0.24459,-0.0636 0.0783,0.0196 0.16143,0.044 0.24459,0.0636 v 0 m -0.27883,-0.0734 c -3.66891,-0.96859 -7.18127,-1.3795 -10.48816,-1.3795 3.30689,0 6.81437,0.41091 10.48816,1.3795 m -10.51262,-1.3795 c 0.004,0 0.0107,0 0.0148,0 v 0 c -0.004,0 -0.0107,0 -0.0148,0"
     style="fill:#dad9da;fill-opacity:1;fill-rule:nonzero;stroke:none;stroke-width:0.0489185"
     id="path6592" />
  <path
     d="m 281.96707,32.553445 c 0.80227,-4.64238 -1.41864,-9.27987 -5.4202,-11.53013 0,0 0,-0.005 -0.004,-0.005 -0.015,-0.01 -0.0342,-0.0196 -0.0539,-0.0293 0,0 0,0 0,0 -0.0195,-0.01 -0.0342,-0.0196 -0.0539,-0.0293 0,0 0,0 -0.004,0 -0.0148,-0.01 -0.0342,-0.0245 -0.0539,-0.0342 v 0 c -0.10767,-0.0587 -0.22013,-0.1174 -0.33753,-0.17122 0,0 -0.004,-0.005 -0.004,-0.005 -0.0148,-0.005 -0.0294,-0.0146 -0.044,-0.0196 -0.004,-0.005 -0.0107,-0.005 -0.0148,-0.01 -0.0148,-0.005 -0.0294,-0.01 -0.0391,-0.0196 -0.0107,0 -0.0148,-0.005 -0.0245,-0.01 -0.0107,-0.005 -0.0195,-0.01 -0.0344,-0.0146 -0.0107,-0.005 -0.0148,-0.01 -0.0245,-0.0146 -0.0107,-0.005 -0.0245,-0.01 -0.0342,-0.0146 -0.0107,-0.005 -0.0195,-0.01 -0.0294,-0.0146 -0.0107,-0.005 -0.0195,-0.01 -0.0294,-0.0146 -0.0107,-0.005 -0.0195,-0.005 -0.0294,-0.01 -0.0107,-0.005 -0.0195,-0.01 -0.0342,-0.0146 -0.0107,-0.005 -0.0195,-0.01 -0.0294,-0.0146 -0.0107,-0.005 -0.0195,-0.01 -0.0294,-0.0146 -0.0107,-0.005 -0.0195,-0.01 -0.0294,-0.0146 -0.0107,-0.005 -0.0195,-0.005 -0.0342,-0.01 -0.0107,-0.005 -0.0195,-0.01 -0.0294,-0.0146 -0.0107,-0.005 -0.0195,-0.01 -0.0294,-0.0146 -0.0107,-0.005 -0.0195,-0.01 -0.0342,-0.0146 -0.0107,0 -0.0195,-0.005 -0.0294,-0.01 -0.0107,-0.005 -0.0195,-0.01 -0.0342,-0.0146 -0.0107,-0.005 -0.0148,-0.01 -0.0245,-0.01 -0.015,-0.005 -0.0245,-0.01 -0.0392,-0.0146 -0.004,-0.005 -0.0149,-0.01 -0.0245,-0.0146 -0.0148,-0.005 -0.0294,-0.01 -0.0391,-0.0146 -0.0107,-0.005 -0.0148,-0.005 -0.0245,-0.01 -0.015,-0.005 -0.0294,-0.01 -0.044,-0.0196 -0.004,0 -0.0107,0 -0.0195,-0.005 -0.0392,-0.0146 -0.0832,-0.0342 -0.1272,-0.0489 0,0 -0.004,-0.005 -0.0107,-0.005 -0.0195,-0.005 -0.0342,-0.0146 -0.0539,-0.0196 -0.004,0 -0.0107,-0.005 -0.0148,-0.005 -0.0195,-0.005 -0.0342,-0.0146 -0.049,-0.0196 -0.004,0 -0.0148,-0.005 -0.0195,-0.005 -0.0148,-0.005 -0.0294,-0.01 -0.044,-0.0146 -0.004,-0.005 -0.0149,-0.01 -0.0245,-0.01 -0.0107,-0.005 -0.0245,-0.01 -0.039,-0.0146 -0.0107,-0.005 -0.015,-0.005 -0.0245,-0.01 -0.0149,-0.005 -0.0245,-0.01 -0.0392,-0.0146 -0.0107,0 -0.0195,-0.005 -0.0245,-0.005 -0.0148,-0.005 -0.0294,-0.01 -0.0391,-0.0146 -0.0107,-0.005 -0.0195,-0.005 -0.0294,-0.01 -0.0107,-0.005 -0.0245,-0.01 -0.039,-0.0146 -0.004,0 -0.0149,-0.005 -0.0245,-0.005 -0.015,-0.005 -0.0245,-0.01 -0.0392,-0.0146 -0.0107,0 -0.0195,-0.005 -0.0245,-0.01 -0.0149,0 -0.0294,-0.005 -0.0391,-0.01 -0.0107,-0.005 -0.0195,-0.005 -0.0294,-0.01 -0.0148,-0.005 -0.0245,-0.005 -0.0391,-0.01 -0.0107,-0.005 -0.0148,-0.01 -0.0245,-0.01 -0.0148,-0.005 -0.0294,-0.01 -0.044,-0.01 -0.004,-0.005 -0.015,-0.01 -0.0245,-0.01 -0.015,-0.005 -0.0245,-0.01 -0.0392,-0.0146 -0.0107,0 -0.0195,-0.005 -0.0245,-0.005 -0.0149,-0.005 -0.0294,-0.01 -0.044,-0.0146 -0.0107,0 -0.0148,-0.005 -0.0245,-0.005 -0.0148,-0.005 -0.0342,-0.01 -0.049,-0.0146 -0.004,0 -0.0107,-0.005 -0.0195,-0.005 -0.0195,-0.005 -0.044,-0.01 -0.0637,-0.0196 v 0 c -0.0832,-0.0196 -0.16633,-0.044 -0.2446,-0.0636 -0.0107,-0.005 -0.0245,-0.005 -0.0342,-0.01 -3.6738,-0.96859 -7.18127,-1.37951 -10.48816,-1.37951 -0.004,0 -0.004,0 -0.0107,0 v 0 0 c -0.004,0 -0.0107,0 -0.0148,0 -17.97272,0.005 -29.99692,12.11226 -30.08986,12.2101 0,0 0,0 0,0 v 0 l -3.76674,-1.99588 c 14.33317,-15.44362 33.93977,-18.623337 47.64678,-18.623337 1.42354,0 2.78347,0.0343 4.06513,0.093 5.89959,0.26905 9.50001,6.579557 6.73121,11.794287 l -4.71574,8.89341 c -0.31798,0.6017 -0.72889,1.13002 -1.18385,1.62899"
     style="fill:#c3c3cb;fill-opacity:1;fill-rule:nonzero;stroke:none;stroke-width:0.0489185"
     id="path6594" />
  <path
     d="m 448.50087,78.869637 -19.58702,10.786565 c -3.97221,2.18667 -8.82005,2.09372 -12.70908,-0.25927 L 397.07269,77.827669 c -3.88414,-2.348096 -6.21758,-6.594236 -6.12952,-11.128997 l 0.45006,-22.365612 c 0.093,-4.534761 2.59757,-8.678172 6.57466,-10.87462 l 19.59194,-10.781675 c 1.03217,-0.56746 2.12306,-0.98326 3.23841,-1.24253 3.79609,-0.88543 6.79968,3.19928 4.78424,6.53064 l -14.82235,24.513142 c -2.01545,3.336254 -0.94414,7.660664 2.38233,9.671221 l 9.48044,5.738159 c 3.32647,2.010557 7.65577,0.949022 9.67123,-2.382339 l 14.83214,-24.53271 c 1.95184,-3.228632 6.90731,-2.675852 7.9346,0.958806 0.33265,1.188723 0.49897,2.436149 0.46961,3.708034 l -0.45004,22.355829 c -0.0978,4.539653 -2.60248,8.683064 -6.57957,10.87462"
     style="fill:#eaeaf1;fill-opacity:1;fill-rule:nonzero;stroke:none;stroke-width:0.0489185"
     id="path6616" />
  <path
     d="m 314.70344,238.67273 c -5.78708,-3.49964 -7.67534,-11.00719 -4.23148,-16.82851 L 396.08942,77.235753 417.18805,89.993742 331.69289,234.40654 c -3.49279,5.89469 -11.12409,7.81279 -16.98945,4.26619"
     style="fill:#eaeaf1;fill-opacity:1;fill-rule:nonzero;stroke:none;stroke-width:0.0489185"
     id="path6618" />
  <path
     d="m 413.94474,95.467742 3.24331,-5.474 -21.09863,-12.757989 10.54687,6.378993 9.56848,5.782186 c 0.0195,0.0146 0.0392,0.0245 0.0587,0.0342 l 0.92457,0.56257 -3.24331,5.47399"
     style="fill:#dad9da;fill-opacity:1;fill-rule:nonzero;stroke:none;stroke-width:0.0489185"
     id="path6620" />
  <path
     d="m 416.26348,89.431172 c -0.0195,-0.01 -0.0391,-0.0196 -0.0587,-0.0342 l -9.56847,-5.782182 9.62719,5.816432"
     style="fill:#c3c3cb;fill-opacity:1;fill-rule:nonzero;stroke:none;stroke-width:0.0489185"
     id="path6622" />
  <path
     d="m 413.77353,95.756362 -21.38725,-12.268804 3.70314,-6.251805 21.09863,12.757989 -3.24331,5.474 -0.17121,0.28862"
     style="fill:#c3c3cb;fill-opacity:1;fill-rule:nonzero;stroke:none;stroke-width:0.0489185"
     id="path6624" />
  <path
     d="m 361.60176,145.96647 23.63261,-40.34322 c 1.29634,-2.14753 3.58085,-3.33625 5.91917,-3.33625 1.21805,0 2.45081,0.32286 3.56616,0.99794 h 0.004 c 3.26289,1.97631 4.30975,6.22245 2.33343,9.49022 l -18.40809,31.42046 -17.04817,1.77085"
     style="fill:#c3c3cb;fill-opacity:1;fill-rule:nonzero;stroke:none;stroke-width:0.0489185"
     id="path6626" />
  <path
     d="M 513.07674,179.71215 V 296.69363 L -15.039358,325.90575 V 208.92426 L 513.07674,179.71215"
     style="fill:#f9b343;fill-opacity:0.95893216;fill-rule:nonzero;stroke:none;stroke-width:0.0357229"
     id="path6628" />
  <g
     id="g6630"
     transform="matrix(0.48918664,0,0,-0.48918664,-622.12488,597.65871)">
    <text
       xml:space="preserve"
       transform="matrix(1.000005,0.10372349,0,-0.999995,0,0)"
       style="font-variant:normal;font-weight:bold;font-size:89.3435px;font-family:Montserrat;-inkscape-font-specification:Montserrat-Bold;writing-mode:lr-tb;fill:#100f0d;fill-opacity:1;fill-rule:nonzero;stroke:none;stroke-width:0.994669"
       id="text6638"
       x="1415.1095"
       y="-489.1192"><tspan
         x="1415.1095 1475.8622 1547.6929 1617.9171 1675.6327 1730.4888 1795.1737 1862.8961 1924.72 1979.5769 2008.0758 2079.9075"
         y="-489.1192"
         sodipodi:role="line"
         id="tspan6632"
         style="stroke-width:0.994669">CONSTRUCTION</tspan><tspan
         sodipodi:role="line"
         id="tspan6634"
         x="1415.1095"
         y="-377.43982"
         style="stroke-width:0.994669" /><tspan
         sodipodi:role="line"
         id="tspan6636"
         x="1415.1095"
         y="-265.76047"
         style="stroke-width:0.994669" /></text>
  </g>
  <path
     d="m 248.64855,157.6825 -1.24252,0.12719 -263.40743,27.32107 v 48.18978 l 263.40743,-27.32597 1.24252,-0.1272 263.41234,-27.32107 v -48.18978 l -263.41234,27.32596"
     style="fill:#eaeaf1;fill-opacity:1;fill-rule:nonzero;stroke:none;stroke-width:0.0489185"
     id="path6640" />
  <path
     d="m 22.923185,229.27985 -38.924585,4.04069 v -48.18978 l 3.942844,-0.40603 34.981741,44.55512"
     style="fill:#f03b27;fill-opacity:1;fill-rule:nonzero;stroke:none;stroke-width:0.0489185"
     id="path6642" />
  <path
     d="M 110.76643,220.1712 66.416766,224.76956 31.43504,180.20953 75.784682,175.61118 110.76643,220.1712"
     style="fill:#f03b27;fill-opacity:1;fill-rule:nonzero;stroke:none;stroke-width:0.0489185"
     id="path6644" />
  <path
     d="m 198.60967,211.05765 -44.34476,4.59836 -34.98176,-44.55512 44.34477,-4.60326 34.98175,44.56002"
     style="fill:#f03b27;fill-opacity:1;fill-rule:nonzero;stroke:none;stroke-width:0.0489185"
     id="path6646" />
  <path
     d="m 251.35376,157.39877 -2.70521,0.28373 -1.24252,0.12719 -40.27963,4.17765 34.98174,44.56001 5.29789,-0.55278 1.24252,-0.1272 37.68695,-3.90861 -34.98174,-44.56002"
     style="fill:#f03b27;fill-opacity:1;fill-rule:nonzero;stroke:none;stroke-width:0.0489185"
     id="path6648" />
  <path
     d="m 374.17875,192.85014 -44.35455,4.59833 -34.98174,-44.56 44.35455,-4.59836 34.98174,44.56003"
     style="fill:#f03b27;fill-opacity:1;fill-rule:nonzero;stroke:none;stroke-width:0.0489185"
     id="path6650" />
  <path
     d="m 462.022,183.73659 -44.34477,4.59834 -34.98173,-44.56001 44.34475,-4.59836 34.98175,44.56003"
     style="fill:#f03b27;fill-opacity:1;fill-rule:nonzero;stroke:none;stroke-width:0.0489185"
     id="path6652" />
  <path
     d="m 512.06089,130.35654 v 48.18977 l -6.54041,0.67996 -34.98176,-44.56001 41.52217,-4.30972"
     style="fill:#f03b27;fill-opacity:1;fill-rule:nonzero;stroke:none;stroke-width:0.0489185"
     id="path6654" />
  <path
     d="m 22.923185,229.27985 -10.537084,-13.41838 43.493591,-4.51031 10.537074,13.4184 10.497939,-1.0909 -53.99152,5.60119 m 87.843245,-9.10865 -10.53708,-13.42328 43.50336,-4.51031 10.5322,13.4184 -43.49848,4.51519 m 87.84324,-9.11355 -10.53708,-13.41839 43.50337,-4.5152 10.53218,13.42329 5.29789,-0.55278 -48.79636,5.06308 m 87.72583,-9.09887 -10.53709,-13.4184 43.4936,-4.51029 10.53219,13.41838 -43.4887,4.51031"
     style="fill:#d8d9e4;fill-opacity:1;fill-rule:nonzero;stroke:none;stroke-width:0.0489185"
     id="path6656" />
  <path
     d="m -16.0014,233.32054 v -14.51416 l 28.387501,-2.94491 10.537084,13.41838 -38.924585,4.04069"
     style="fill:#ef3620;fill-opacity:1;fill-rule:nonzero;stroke:none;stroke-width:0.0489185"
     id="path6658" />
  <path
     d="m 66.416766,224.76956 -10.537074,-13.4184 44.349658,-4.60324 10.53708,13.42328 -33.851725,3.50746 -10.497939,1.0909"
     style="fill:#ef3620;fill-opacity:1;fill-rule:nonzero;stroke:none;stroke-width:0.0489185"
     id="path6660" />
  <path
     d="m 154.26491,215.65601 v 0 l -10.5322,-13.4184 44.33988,-4.59835 10.53708,13.41839 -44.34476,4.59836"
     style="fill:#ef3620;fill-opacity:1;fill-rule:nonzero;stroke:none;stroke-width:0.0489185"
     id="path6662" />
  <path
     d="m 242.10814,206.54735 -10.53218,-13.42329 15.83007,-1.63877 1.24252,-0.1272 27.14986,-2.81772 10.53709,13.41839 -37.68695,3.90861 -1.24252,0.1272 -5.29789,0.55278"
     style="fill:#ef3620;fill-opacity:1;fill-rule:nonzero;stroke:none;stroke-width:0.0489185"
     id="path6664" />
  <path
     d="m 374.17875,192.85014 -10.53707,-13.42331 43.49847,-4.51029 10.53708,13.41839 -43.49848,4.51521"
     style="fill:#d8d9e4;fill-opacity:1;fill-rule:nonzero;stroke:none;stroke-width:0.0489185"
     id="path6666" />
  <path
     d="m 462.022,183.73659 -10.53707,-13.41841 43.50335,-4.51518 10.5322,13.42327 6.54041,-0.67996 v -14.51416 0 14.51416 l -50.03889,5.19028"
     style="fill:#d8d9e4;fill-opacity:1;fill-rule:nonzero;stroke:none;stroke-width:0.0489185"
     id="path6668" />
  <path
     d="m 329.8242,197.44847 v 0 l -10.53219,-13.41838 44.34967,-4.60326 10.53707,13.42331 -44.35455,4.59833"
     style="fill:#ef3620;fill-opacity:1;fill-rule:nonzero;stroke:none;stroke-width:0.0489185"
     id="path6670" />
  <path
     d="m 417.67723,188.33493 v 0 l -10.53708,-13.41839 44.34478,-4.59836 10.53707,13.41841 -44.34477,4.59834"
     style="fill:#ef3620;fill-opacity:1;fill-rule:nonzero;stroke:none;stroke-width:0.0489185"
     id="path6672" />
  <path
     d="m 505.52048,179.22627 -10.5322,-13.42327 17.07261,-1.77085 v 14.51416 l -6.54041,0.67996"
     style="fill:#ef3620;fill-opacity:1;fill-rule:nonzero;stroke:none;stroke-width:0.0489185"
     id="path6674" />
  <path
     d="m 249.61059,298.3352 -1.24252,0.12719 -263.407428,27.32108 v 48.18977 l 263.407428,-27.32597 1.24252,-0.1272 L 513.02293,319.199 V 271.00923 L 249.61059,298.3352"
     style="fill:#eaeaf1;fill-opacity:1;fill-rule:nonzero;stroke:none;stroke-width:0.0489185"
     id="path6676" />
  <path
     d="m 23.885226,369.93255 -38.924584,4.04068 v -48.18977 l 3.942844,-0.41093 34.98174,44.56002"
     style="fill:#f03b27;fill-opacity:1;fill-rule:nonzero;stroke:none;stroke-width:0.0489185"
     id="path6678" />
  <path
     d="m 111.72847,360.8239 -44.349663,4.59835 -34.981726,-44.56002 44.349642,-4.59835 34.981747,44.56002"
     style="fill:#f03b27;fill-opacity:1;fill-rule:nonzero;stroke:none;stroke-width:0.0489185"
     id="path6680" />
  <path
     d="m 199.57171,351.71035 -44.34476,4.59835 -34.98176,-44.55512 44.34477,-4.60325 34.98175,44.56002"
     style="fill:#f03b27;fill-opacity:1;fill-rule:nonzero;stroke:none;stroke-width:0.0489185"
     id="path6682" />
  <path
     d="m 252.3158,298.05146 -2.70521,0.28374 -1.24252,0.12719 -40.27963,4.17765 34.98174,44.56001 5.29789,-0.55278 1.24252,-0.1272 37.68695,-3.90859 -34.98174,-44.56002"
     style="fill:#f03b27;fill-opacity:1;fill-rule:nonzero;stroke:none;stroke-width:0.0489185"
     id="path6684" />
  <path
     d="m 375.14079,333.50281 -44.35455,4.59835 -34.98174,-44.56001 44.35455,-4.59835 34.98174,44.56001"
     style="fill:#f03b27;fill-opacity:1;fill-rule:nonzero;stroke:none;stroke-width:0.0489185"
     id="path6686" />
  <path
     d="m 462.98404,324.38926 -44.34477,4.59837 -34.98173,-44.56002 44.34475,-4.59835 34.98175,44.56"
     style="fill:#f03b27;fill-opacity:1;fill-rule:nonzero;stroke:none;stroke-width:0.0489185"
     id="path6688" />
  <path
     d="M 513.02293,271.00923 V 319.199 l -6.54041,0.67997 -34.98176,-44.56 41.52217,-4.30974"
     style="fill:#f03b27;fill-opacity:1;fill-rule:nonzero;stroke:none;stroke-width:0.0489185"
     id="path6690" />
  <path
     d="m 23.885226,369.93255 -10.532192,-13.41839 43.488699,-4.51031 10.537074,13.4184 10.497939,-1.09089 -53.99152,5.60119 m 87.843244,-9.10865 -10.53708,-13.42329 43.50336,-4.5103 10.5322,13.41839 -43.49848,4.5152"
     style="fill:#d8d9e4;fill-opacity:1;fill-rule:nonzero;stroke:none;stroke-width:0.0489185"
     id="path6692" />
  <path
     d="m -15.039358,373.97323 v -14.51418 l 28.392392,-2.94489 10.532192,13.41839 -38.924584,4.04068"
     style="fill:#ef3620;fill-opacity:1;fill-rule:nonzero;stroke:none;stroke-width:0.0489185"
     id="path6694" />
  <path
     d="m 67.378807,365.42225 -10.537074,-13.4184 44.349657,-4.60324 10.53708,13.42329 -33.851724,3.50746 -10.497939,1.09089"
     style="fill:#ef3620;fill-opacity:1;fill-rule:nonzero;stroke:none;stroke-width:0.0489185"
     id="path6696" />
  <path
     d="m 189.30858,352.77678 10.26313,-1.06643 -10.53219,-13.41841 43.49848,-4.51518 10.53218,13.42328 5.29789,-0.55278 -59.05949,6.12952"
     style="fill:#d8d9e4;fill-opacity:1;fill-rule:nonzero;stroke:none;stroke-width:0.0489185"
     id="path6698" />
  <path
     d="m 287.29754,342.61148 -10.53709,-13.4184 43.4936,-4.5103 10.53219,13.41838 10.37076,-1.0762 -53.85946,5.58652"
     style="fill:#d8d9e4;fill-opacity:1;fill-rule:nonzero;stroke:none;stroke-width:0.0489185"
     id="path6700" />
  <path
     d="m 375.14079,333.49793 -10.53707,-13.4184 43.49847,-4.5103 10.53708,13.4184 -43.49848,4.5103"
     style="fill:#d8d9e4;fill-opacity:1;fill-rule:nonzero;stroke:none;stroke-width:0.0489185"
     id="path6702" />
  <path
     d="m 462.98404,324.38926 -10.53707,-13.41838 43.50335,-4.5152 10.5322,13.42329 6.54041,-0.67997 v -14.51417 0 14.51417 l -50.03889,5.19026"
     style="fill:#d8d9e4;fill-opacity:1;fill-rule:nonzero;stroke:none;stroke-width:0.0489185"
     id="path6704" />
  <path
     d="m 155.22695,356.3087 v 0 l -10.5322,-13.41839 44.34477,-4.59837 10.53219,13.41841 -10.26313,1.06643 -34.08163,3.53192"
     style="fill:#ef3620;fill-opacity:1;fill-rule:nonzero;stroke:none;stroke-width:0.0489185"
     id="path6706" />
  <path
     d="m 243.07018,347.20004 -10.53218,-13.42328 15.83007,-1.63877 1.24252,-0.13215 27.14986,-2.81281 10.53709,13.41838 -37.68695,3.90861 -1.24252,0.1272 -5.29789,0.55278"
     style="fill:#ef3620;fill-opacity:1;fill-rule:nonzero;stroke:none;stroke-width:0.0489185"
     id="path6708" />
  <path
     d="m 330.78624,338.10116 -10.53219,-13.41838 44.34967,-4.60325 10.53707,13.4184 -33.98379,3.52703 -10.37076,1.0762"
     style="fill:#ef3620;fill-opacity:1;fill-rule:nonzero;stroke:none;stroke-width:0.0489185"
     id="path6710" />
  <path
     d="m 418.63927,328.98763 v 0 l -10.53708,-13.4184 44.34478,-4.59835 10.53707,13.41838 -44.34477,4.59837"
     style="fill:#ef3620;fill-opacity:1;fill-rule:nonzero;stroke:none;stroke-width:0.0489185"
     id="path6712" />
  <path
     d="m 506.48252,319.87897 -10.5322,-13.42329 17.07261,-1.77085 V 319.199 l -6.54041,0.67997"
     style="fill:#ef3620;fill-opacity:1;fill-rule:nonzero;stroke:none;stroke-width:0.0489185"
     id="path6714" />
  <path
     d="m 42.427043,159.09135 c 0,0 -19.875646,13.72169 -8.281924,25.38879 11.588827,11.6671 34.517021,15.84476 93.718381,11.87255 59.19647,-3.97708 145.40093,-21.48997 150.28792,-37.07544 4.89185,-15.5855 -63.11487,-26.27912 -63.11487,-26.27912 L 42.427043,159.09135"
     style="fill:#f58539;fill-opacity:0.9794662;fill-rule:nonzero;stroke:none;stroke-width:0.0489185"
     id="path6716" />
  <path
     d="m 276.30228,153.03522 c 0.0342,0.61638 -0.0294,1.24254 -0.22992,1.87848 -4.88695,15.58549 -91.09143,33.09838 -150.29279,37.07545 -59.196471,3.9722 -82.124665,-0.20545 -93.718387,-11.87256 -0.640842,-0.64571 -1.183818,-1.30123 -1.663222,-1.96164 0.542989,2.12308 1.697476,4.26572 3.747158,6.32519 11.588827,11.6671 34.517021,15.84476 93.718381,11.87255 59.19647,-3.97708 145.40093,-21.48997 150.28792,-37.07544 0.68486,-2.18177 -0.0587,-4.26571 -1.84914,-6.24203"
     style="fill:#f8a41f;fill-opacity:1;fill-rule:nonzero;stroke:none;stroke-width:0.0489185"
     id="path6718" />
  <path
     d="m 220.69644,133.67811 -0.11248,-1.19362 C 215.75573,82.528752 171.80231,44.983678 121.81233,49.440169 71.426121,53.935795 34.428926,98.588752 39.28654,148.85268 l 1.120246,11.58882 c 0.484299,5.01907 4.104274,9.18694 9.015709,10.33164 22.419431,5.2294 87.505695,16.1725 156.114125,-11.96551 10.043,-4.11895 16.20676,-14.32828 15.1599,-25.12952"
     style="fill:#f8a41f;fill-opacity:1;fill-rule:nonzero;stroke:none;stroke-width:0.0489185"
     id="path6720" />
  <path
     d="m 135.82746,141.60293 -17.40038,1.68281 c -5.08753,0.48918 -8.81513,5.01417 -8.32106,10.1017 l 3.28732,34.02293 35.82316,-3.45855 -3.28734,-34.02781 c -0.48918,-5.08756 -5.01417,-8.81516 -10.1017,-8.32108"
     style="fill:#f57926;fill-opacity:1;fill-rule:nonzero;stroke:none;stroke-width:0.0489185"
     id="path6722" />
  <path
     d="m 83.09802,160.9894 -9.490204,0.91967 c -2.778586,0.26416 -4.808715,2.73456 -4.544543,5.50825 l 1.795315,18.56462 19.542993,-1.88826 -1.790406,-18.56463 c -0.269054,-2.77368 -2.739451,-4.8087 -5.513155,-4.53965"
     style="fill:#f57926;fill-opacity:1;fill-rule:nonzero;stroke:none;stroke-width:0.0489185"
     id="path6724" />
  <path
     d="m 190.98813,150.56482 -9.49511,0.91479 c -2.77369,0.26906 -4.8087,2.73946 -4.53965,5.51313 l 1.7953,18.56463 19.54302,-1.89314 -1.79532,-18.55975 c -0.26415,-2.77369 -2.73453,-4.8087 -5.50824,-4.53966"
     style="fill:#f57926;fill-opacity:1;fill-rule:nonzero;stroke:none;stroke-width:0.0489185"
     id="path6726" />
  <path
     d="m 55.747613,119.34494 c 3.571048,-0.3033 6.745885,-2.29429 8.60968,-5.28811 4.187427,-6.70186 9.343466,-12.49383 15.013137,-17.405258 26.78297,-23.187447 64.84169,-26.25954 95.30334,-8.20366 6.5453,3.88414 12.73842,8.74176 18.0999,14.690268 2.39211,2.66118 5.90937,4.10428 9.53424,3.79609 l 2.29919,-0.19567 C 198.20853,89.832312 186.38978,77.969533 173.12304,70.103411 142.66139,52.042643 104.59779,55.114733 77.81481,78.307073 66.270001,88.306052 56.833605,101.95925 53.433745,119.54061 l 2.313868,-0.19567"
     style="fill:#f67b27;fill-opacity:1;fill-rule:nonzero;stroke:none;stroke-width:0.0489185"
     id="path6728" />
  <path
     d="m 53.433745,119.54061 v 0 l 0.93924,-0.0832 v 0 l -0.93924,0.0832"
     style="fill:#fbee3a;fill-opacity:1;fill-rule:nonzero;stroke:none;stroke-width:0.0489185"
     id="path6730" />
  <path
     d="m 53.433745,119.54061 c 3.39986,-17.58136 12.836256,-31.234558 24.381065,-41.233537 15.218605,-13.17869 34.08164,-19.860978 53.12078,-19.860978 14.46524,0 29.03322,3.859682 42.18745,11.657316 13.26674,7.866122 25.08549,19.728901 31.48406,36.635189 v 0 l -0.94903,0.0783 C 197.04916,91.490682 185.85168,80.557361 173.38231,73.160859 160.22808,65.363224 145.66011,61.503543 131.18997,61.503543 c -19.03427,0 -37.897289,6.682288 -53.115883,19.860975 -10.850173,9.392384 -19.836523,22.018292 -23.701102,38.092962 l -0.93924,0.0832"
     style="fill:#fae104;fill-opacity:1;fill-rule:nonzero;stroke:none;stroke-width:0.0489185"
     id="path6732" />
  <path
     d="m 134.33544,160.03549 c -0.33755,-3.46833 -3.41942,-6.00721 -6.88776,-5.67457 -3.46832,0.33754 -6.0072,3.41942 -5.67455,6.88776 0.33752,3.46831 3.41942,6.0072 6.88774,5.67456 3.46834,-0.33755 6.00721,-3.41941 5.67457,-6.88775"
     style="fill:#f8a41f;fill-opacity:1;fill-rule:nonzero;stroke:none;stroke-width:0.0489185"
     id="path6734" />
</svg>
