<?xml version="1.0" encoding="UTF-8" standalone="no"?>
<svg
   width="500"
   height="500"
   viewBox="0 0 500 500"
   version="1.1"
   id="svg12"
   sodipodi:docname="CustomerTotalSpent.svg"
   inkscape:version="1.2.1 (9c6d41e410, 2022-07-14)"
   xmlns:inkscape="http://www.inkscape.org/namespaces/inkscape"
   xmlns:sodipodi="http://sodipodi.sourceforge.net/DTD/sodipodi-0.dtd"
   xmlns="http://www.w3.org/2000/svg"
   xmlns:svg="http://www.w3.org/2000/svg">
  <defs
     id="defs16" />
  <sodipodi:namedview
     id="namedview14"
     pagecolor="#ffffff"
     bordercolor="#000000"
     borderopacity="0.25"
     inkscape:showpageshadow="2"
     inkscape:pageopacity="0.0"
     inkscape:pagecheckerboard="0"
     inkscape:deskcolor="#d1d1d1"
     showgrid="false"
     inkscape:zoom="1.5733082"
     inkscape:cx="138.87934"
     inkscape:cy="225.00359"
     inkscape:window-width="1920"
     inkscape:window-height="1017"
     inkscape:window-x="-8"
     inkscape:window-y="-8"
     inkscape:window-maximized="1"
     inkscape:current-layer="g886" />
  <g
     id="g886"
     transform="translate(0.7582005,-16.28226)">
    <path
       d="M 479.45215,115.18216 H 19.031465 a 2.5817809,2.5817809 0 0 1 -2.578966,-2.57895 V 97.433059 a 2.5817809,2.5817809 0 0 1 2.578966,-2.57896 H 479.45215 a 2.581775,2.581775 0 0 1 2.57895,2.57896 v 15.170161 a 2.5817809,2.5817809 0 0 1 -2.57895,2.57894 z"
       fill="#e4e4e4"
       id="path244"
       style="stroke-width:0.579761" />
    <circle
       id="a35e044f-57c7-4e60-ba2c-0b63f07d3a91"
       data-name="a7a88a4d-66b2-4c09-a29b-e65e87e57a01"
       cx="31.419313"
       cy="104.27818"
       r="3.6614814"
       fill="#ffffff"
       style="stroke-width:0.579761" />
    <circle
       id="b8ca9947-3ca9-4995-aa34-7c8526cbf832"
       data-name="ecd091ab-fa27-42b2-b94f-bd1073aab054"
       cx="45.317108"
       cy="104.27818"
       r="3.6614814"
       fill="#ffffff"
       style="stroke-width:0.579761" />
    <circle
       id="a31b64b8-966e-40be-99c3-e775622dac5b"
       data-name="a332723e-32dc-4e13-8ae5-d2643a7feb7f"
       cx="59.215511"
       cy="104.27818"
       r="3.6614814"
       fill="#ffffff"
       style="stroke-width:0.579761" />
    <path
       d="m 465.83526,101.75805 h -16.0038 a 1.1854667,1.1854667 0 0 1 0,-2.370931 h 16.0038 a 1.1854681,1.1854681 0 0 1 0.005,2.370931 z"
       fill="#ffffff"
       id="path249"
       style="stroke-width:0.579761" />
    <path
       d="m 465.83526,106.20354 h -16.0038 a 1.1854667,1.1854667 0 0 1 0,-2.37092 h 16.0038 a 1.1854667,1.1854667 0 0 1 0.005,2.37092 z"
       fill="#ffffff"
       id="path251"
       style="stroke-width:0.579761" />
    <path
       d="m 465.83526,110.64905 h -16.0038 a 1.1854683,1.1854683 0 0 1 0,-2.37093 h 16.0038 a 1.1854705,1.1854705 0 0 1 0.005,2.37093 z"
       fill="#ffffff"
       id="path253"
       style="stroke-width:0.579761" />
    <path
       d="m 147.73541,396.30902 c 1.69421,-13.62329 10.13719,-27.04623 23.12971,-31.47961 a 63.250714,63.250714 0 0 0 0.002,43.42628 c 1.99645,5.40033 4.77928,11.19889 2.90136,16.64164 -1.16843,3.38659 -4.02682,5.97764 -7.22193,7.59777 -3.19529,1.62009 -6.7414,2.39228 -10.24314,3.14901 l -0.68915,0.56999 c -5.55895,-12.55242 -9.57418,-26.28177 -7.87997,-39.90508 z"
       fill="#f0f0f0"
       id="path255"
       style="stroke-width:0.579761" />
    <path
       d="m 170.99405,365.08702 a 54.062782,54.062782 0 0 0 -13.43995,30.42656 23.281069,23.281069 0 0 0 0.26484,7.28969 13.352839,13.352839 0 0 0 3.32102,6.19334 c 1.49686,1.64459 3.21843,3.15351 4.28945,5.13335 a 8.1759775,8.1759775 0 0 1 0.39946,6.67457 c -0.94559,2.71212 -2.80932,4.92275 -4.707,7.02121 -2.10702,2.32995 -4.33246,4.71665 -5.22812,7.80554 -0.10856,0.37429 -0.68288,0.18401 -0.57453,-0.1897 1.55826,-5.37415 6.77512,-8.42674 9.26305,-13.26716 1.1609,-2.25864 1.64818,-4.88081 0.55984,-7.26499 -0.95169,-2.08489 -2.72566,-3.64241 -4.25567,-5.2945 a 14.248628,14.248628 0 0 1 -3.47288,-5.93476 21.522747,21.522747 0 0 1 -0.54411,-7.25261 52.450414,52.450414 0 0 1 3.83069,-15.9393 55.021544,55.021544 0 0 1 9.89358,-15.85496 c 0.2587,-0.28971 0.65736,0.166 0.40036,0.45379 z"
       fill="#ffffff"
       id="path257"
       style="stroke-width:0.579761" />
    <path
       d="m 157.71697,391.852 a 8.1111544,8.1111544 0 0 1 -6.1742,-8.49673 0.30279186,0.30279186 0 0 1 0.60446,0.0302 7.5107594,7.5107594 0 0 0 5.75942,7.89198 c 0.37879,0.0901 0.18693,0.6641 -0.18968,0.57456 z"
       fill="#ffffff"
       id="path259"
       style="stroke-width:0.579761" />
    <path
       d="m 160.27116,408.26267 a 15.633543,15.633543 0 0 0 6.98135,-9.00378 c 0.10982,-0.37386 0.68426,-0.18373 0.57454,0.1897 a 16.261293,16.261293 0 0 1 -7.28377,9.35448 c -0.33551,0.19899 -0.6058,-0.34245 -0.27212,-0.5404 z"
       fill="#ffffff"
       id="path261"
       style="stroke-width:0.579761" />
    <path
       d="m 163.63107,375.25088 a 4.5912214,4.5912214 0 0 0 4.35101,-0.2209 c 0.33281,-0.20316 0.60277,0.33859 0.27211,0.54042 a 5.1449224,5.1449224 0 0 1 -4.81282,0.25502 0.31268838,0.31268838 0 0 1 -0.19242,-0.38212 0.30404995,0.30404995 0 0 1 0.38212,-0.19242 z"
       fill="#ffffff"
       id="path263"
       style="stroke-width:0.579761" />
    <path
       d="m 210.46813,389.16229 c -0.20422,0.13276 -0.40843,0.26554 -0.61289,0.40343 a 60.464393,60.464393 0 0 0 -7.73111,6.03589 c -0.18901,0.16855 -0.37801,0.34215 -0.56179,0.5158 a 63.743442,63.743442 0 0 0 -13.84379,18.9504 61.902514,61.902514 0 0 0 -3.39081,8.77302 c -1.2512,4.15164 -2.27751,8.75258 -4.75421,12.14846 a 10.620268,10.620268 0 0 1 -0.82733,1.02129 h -22.382 c -0.0509,-0.0255 -0.10205,-0.046 -0.1531,-0.0715 l -0.89366,0.0408 c 0.0358,-0.15829 0.0765,-0.32173 0.11256,-0.48002 0.0205,-0.092 0.0459,-0.18383 0.0662,-0.27575 0.0152,-0.0613 0.0307,-0.12254 0.0408,-0.17874 0.005,-0.0205 0.0103,-0.0408 0.0153,-0.0562 0.0103,-0.0562 0.0256,-0.1073 0.0358,-0.15832 q 0.33698,-1.37114 0.69442,-2.74222 c 0,-0.005 0,-0.005 0.005,-0.0103 a 91.019372,91.019372 0 0 1 7.6598,-20.1096 c 0.10227,-0.18892 0.20421,-0.38298 0.31667,-0.57194 a 59.069158,59.069158 0 0 1 5.30577,-8.04794 52.219785,52.219785 0 0 1 3.47759,-3.978 43.424586,43.424586 0 0 1 10.86662,-8.13985 c 8.02759,-4.23844 17.32136,-5.86229 25.90052,-3.2733 0.21939,0.0666 0.43408,0.13291 0.65348,0.20439 z"
       fill="#f0f0f0"
       id="path265"
       style="stroke-width:0.579761" />
    <path
       d="m 210.41781,389.44637 a 54.062647,54.062647 0 0 0 -29.04991,16.20213 23.281411,23.281411 0 0 0 -4.17745,5.97984 13.352833,13.352833 0 0 0 -1.0772,6.94455 c 0.20499,2.21433 0.67112,4.45561 0.33428,6.68123 a 8.1760934,8.1760934 0 0 1 -3.69963,5.56975 c -2.38791,1.59619 -5.20691,2.23916 -7.98553,2.77214 -3.08513,0.59176 -6.29897,1.15755 -8.87383,3.08461 -0.31198,0.23349 -0.65604,-0.26426 -0.34453,-0.49737 4.47982,-3.35277 10.48305,-2.6492 15.38377,-5.01611 2.28676,-1.10443 4.25456,-2.90471 4.82105,-5.46366 0.49537,-2.23766 0.0167,-4.5493 -0.21026,-6.78959 a 14.248662,14.248662 0 0 1 0.80023,-6.82949 21.523453,21.523453 0 0 1 3.93212,-6.11838 52.450993,52.450993 0 0 1 12.65516,-10.42032 55.021496,55.021496 0 0 1 17.44526,-6.7027 c 0.38097,-0.0755 0.42493,0.5283 0.0464,0.60337 z"
       fill="#ffffff"
       id="path267"
       style="stroke-width:0.579761" />
    <path
       d="m 183.70245,402.82297 a 8.1111312,8.1111312 0 0 1 0.18589,-10.50144 c 0.25826,-0.2913 0.72305,0.0963 0.46443,0.38804 a 7.5107305,7.5107305 0 0 0 -0.15293,9.76888 c 0.24821,0.29998 -0.25059,0.64279 -0.49739,0.34452 z"
       fill="#ffffff"
       id="path269"
       style="stroke-width:0.579761" />
    <path
       d="m 175.86147,417.46379 a 15.633682,15.633682 0 0 0 10.9951,-2.98577 c 0.31279,-0.23239 0.65693,0.26528 0.34454,0.49738 a 16.261361,16.261361 0 0 1 -11.44773,3.08375 c -0.38769,-0.0431 -0.2775,-0.63822 0.1081,-0.59536 z"
       fill="#ffffff"
       id="path271"
       style="stroke-width:0.579761" />
    <path
       d="m 198.41953,393.12862 a 4.591291,4.591291 0 0 0 3.60702,2.44324 c 0.38805,0.0381 0.27746,0.63322 -0.1081,0.59532 a 5.1449107,5.1449107 0 0 1 -3.9963,-2.69401 0.3126826,0.3126826 0 0 1 0.0764,-0.42096 0.30404995,0.30404995 0 0 1 0.42097,0.0764 z"
       fill="#ffffff"
       id="path273"
       style="stroke-width:0.579761" />
    <path
       d="M 167.36031,200.6283 H 93.309983 a 8.6409402,8.6409402 0 0 1 -8.631027,-8.63131 v -40.33134 a 8.6404473,8.6404473 0 0 1 8.631027,-8.63077 h 74.050327 a 8.6404531,8.6404531 0 0 1 8.63103,8.63076 v 40.33134 a 8.6409402,8.6409402 0 0 1 -8.63103,8.63132 z"
       fill="#e6e6e6"
       id="path275"
       style="stroke-width:0.579761" />
    <path
       d="m 280.41376,200.6283 h -74.05034 a 8.6409402,8.6409402 0 0 1 -8.63103,-8.63131 v -40.33134 a 8.6404473,8.6404473 0 0 1 8.63103,-8.63077 h 74.05034 a 8.6404416,8.6404416 0 0 1 8.63103,8.63076 v 40.33134 a 8.6409518,8.6409518 0 0 1 -8.63103,8.63132 z"
       fill="#327e62"
       id="path277"
       style="stroke-width:0.579761" />
    <path
       d="m 393.46718,200.6283 h -74.05033 a 8.6409402,8.6409402 0 0 1 -8.63103,-8.63131 v -40.33134 a 8.6404473,8.6404473 0 0 1 8.63103,-8.63077 h 74.05033 a 8.6404416,8.6404416 0 0 1 8.63103,8.63076 v 40.33134 a 8.6409518,8.6409518 0 0 1 -8.63103,8.63132 z"
       fill="#e6e6e6"
       id="path279"
       style="stroke-width:0.579761" />
    <path
       d="M 167.36031,290.49128 H 93.309983 a 8.6409402,8.6409402 0 0 1 -8.631027,-8.63131 v -40.33133 a 8.6404647,8.6404647 0 0 1 8.631027,-8.63077 h 74.050327 a 8.640459,8.640459 0 0 1 8.63103,8.63074 v 40.33133 a 8.6409402,8.6409402 0 0 1 -8.63103,8.63134 z"
       fill="#f2f2f2"
       id="path281"
       style="stroke-width:0.579761" />
    <path
       d="m 280.41376,290.49128 h -74.05034 a 8.6409402,8.6409402 0 0 1 -8.63103,-8.63131 v -40.33133 a 8.6404647,8.6404647 0 0 1 8.63103,-8.63077 h 74.05034 a 8.6404473,8.6404473 0 0 1 8.63103,8.63074 v 40.33133 a 8.6409518,8.6409518 0 0 1 -8.63103,8.63134 z"
       fill="#e6e6e6"
       id="path283"
       style="stroke-width:0.579761" />
    <g
       id="e3e4f7c8-e232-44d3-85d4-7e764218aef0"
       data-name="aa405d94-515b-444f-88dd-2c52df39214d"
       transform="matrix(0.57976117,0,0,0.57976117,16.452499,94.854099)">
      <circle
         id="fcc64bf3-a6e1-406f-af2a-c5c9529d985b"
         data-name="ede3a9f0-5e02-4455-ac7e-751a5f8c3692"
         cx="464.31155"
         cy="327.43307"
         r="22.812229"
         fill="#327e62" />
      <path
         id="a515bf60-7ad9-4961-925b-281b4504c434-996"
         data-name="ba039ca8-d148-45ed-9781-bacb7304e881"
         d="m 672.25828,479.82985 h -7.75611 v -7.75613 a 1.82507,1.82507 0 0 0 -1.82507,-1.82511 v 0 a 1.82508,1.82508 0 0 0 -1.82507,1.82511 v 7.75613 h -7.75611 a 1.82507,1.82507 0 0 0 -1.82507,1.8251 v 0 a 1.82508,1.82508 0 0 0 1.82507,1.82511 h 7.75617 v 7.75613 a 1.82507,1.82507 0 0 0 1.82507,1.8251 v 0 a 1.82508,1.82508 0 0 0 1.82508,-1.82507 V 483.48 h 7.756 a 1.82508,1.82508 0 0 0 1.82507,-1.82511 v 0 a 1.82507,1.82507 0 0 0 -1.82507,-1.8251 v 0 z"
         transform="translate(-198.47381,-154.31245)"
         fill="#ffffff" />
    </g>
    <g
       id="e103fff6-fe82-4519-942e-bf1bf1b0aca3"
       data-name="bbf41f8a-587e-4352-8304-6d86282586e3"
       transform="matrix(0.57976117,0,0,0.57976117,16.452499,94.854099)">
      <circle
         id="add300b1-303e-47da-8a54-54886e1d1e76"
         data-name="e4c91425-bc08-43ed-9b2d-9a6452dd6ab0"
         cx="662.31152"
         cy="176.43306"
         r="22.812241"
         fill="#327e62" />
      <path
         id="ac71a829-1528-4702-ba68-9cb7b8b12af7-997"
         data-name="b08e8960-896e-4763-a2dc-6c3da3e5d175"
         d="m 870.25828,328.82985 h -7.75611 v -7.75613 a 1.82507,1.82507 0 0 0 -1.82507,-1.82511 v 0 a 1.82508,1.82508 0 0 0 -1.82507,1.82511 v 7.75613 h -7.75611 a 1.82507,1.82507 0 0 0 -1.82507,1.8251 v 0 a 1.82508,1.82508 0 0 0 1.82507,1.82511 h 7.75617 v 7.75613 a 1.82507,1.82507 0 0 0 1.82507,1.8251 v 0 a 1.82508,1.82508 0 0 0 1.82508,-1.82507 V 332.48 h 7.756 a 1.82508,1.82508 0 0 0 1.82507,-1.82511 v 0 a 1.82507,1.82507 0 0 0 -1.82507,-1.8251 v 0 z"
         transform="translate(-198.47381,-154.31245)"
         fill="#ffffff" />
    </g>
    <g
       id="eec1f109-4866-4d4c-80db-d160015753dd"
       data-name="b77ad267-181d-433f-b31f-af61e58bf4a6"
       transform="matrix(0.57976117,0,0,0.57976117,16.452499,94.854099)">
      <circle
         id="ad2802dd-75a3-400f-a980-dd7e255328e3"
         data-name="e8aef769-5476-47e9-8295-ae809767f9aa"
         cx="269.31155"
         cy="174.43306"
         r="22.812229"
         fill="#327e62" />
      <path
         id="a152d324-d2c4-475a-92fe-001d0469b5e0-998"
         data-name="efbebd4e-dbd2-4103-8d2c-f0ca8346a3bf"
         d="m 477.25828,326.82985 h -7.75614 v -7.75613 a 1.82509,1.82509 0 0 0 -1.82507,-1.82511 v 0 a 1.8251,1.8251 0 0 0 -1.8251,1.82511 v 0 7.75613 h -7.75614 a 1.8251,1.8251 0 0 0 -1.8251,1.8251 v 0 a 1.8251,1.8251 0 0 0 1.82507,1.82511 h 7.75614 v 7.75613 a 1.82509,1.82509 0 0 0 1.8251,1.8251 v 0 a 1.82508,1.82508 0 0 0 1.8251,-1.82507 V 330.48 h 7.75614 a 1.8251,1.8251 0 0 0 1.8251,-1.82511 v 0 a 1.8251,1.8251 0 0 0 -1.8251,-1.8251 v 0 z"
         transform="translate(-198.47381,-154.31245)"
         fill="#ffffff" />
    </g>
    <path
       d="m 271.60648,177.71345 a 5.2583063,5.2583063 0 0 1 -4.24432,6.85536 l -6.11548,41.74328 -10.03161,-4.89957 10.09,-41.6676 a 5.2867378,5.2867378 0 0 1 10.30137,-2.03148 z"
       fill="#9e616a"
       id="path294"
       style="stroke-width:0.579761" />
    <path
       d="m 198.56448,311.40631 a 5.2582077,5.2582077 0 0 0 -2.02453,-7.80459 l 4.1257,-44.40179 -8.64119,4.42931 -2.69821,42.7869 a 5.2867378,5.2867378 0 0 0 9.23816,4.99017 z"
       fill="#9e616a"
       id="path296"
       style="stroke-width:0.579761" />
    <polygon
       points="388.259,332.324 391.949,265.903 318.148,265.903 324.298,334.784 "
       fill="#9e616a"
       id="polygon298"
       transform="matrix(0.57976117,0,0,0.57976117,16.452499,94.854099)" />
    <polygon
       points="323.357,569.354 328.556,527.197 312.425,527.197 312.427,569.355 "
       fill="#9e616a"
       id="polygon300"
       transform="matrix(0.57976117,0,0,0.57976117,16.452499,94.854099)" />
    <path
       d="m 196.0137,421.81805 10.01697,-0.59788 v 4.2917 l 9.5234,6.5772 a 2.6807577,2.6807577 0 0 1 -1.5233,4.8868 H 202.1052 l -2.05554,-4.24514 -0.80259,4.24514 h -4.4964 z"
       fill="#2f2e41"
       id="path302"
       style="stroke-width:0.579761" />
    <polygon
       points="371.971,569.354 377.17,527.197 361.039,527.197 361.041,569.355 "
       fill="#9e616a"
       id="polygon304"
       transform="matrix(0.57976117,0,0,0.57976117,16.452499,94.854099)" />
    <path
       d="m 203.95339,279.90902 c 0,0 -11.09521,8.95754 -5.0805,40.94764 -0.9159,0.10914 0.12116,1.91454 0.12116,1.91454 l 0.86791,26.0658 0.67068,2.98745 -2.22982,4.8205 0.91923,5.23756 -2.83387,47.53561 10.46885,1.35378 10.01839,-49.36292 1.90793,-5.5498 1.91373,-4.86464 -1.0323,-5.18752 0.84665,-8.05165 5.77552,-27.14963 1.41384,47.08708 -1.97292,4.49535 1.09794,4.93468 -2.44601,2.61948 -0.96675,44.05601 11.16295,0.52215 9.23623,-44.41153 -0.71618,-5.66743 1.22881,-4.19046 v -9.78817 l 2.10468,-4.61957 4.58823,-25.18918 c 0,0 1.38413,-19.68771 -8.71487,-42.85533 z"
       fill="#2f2e41"
       id="path306"
       style="stroke-width:0.579761" />
    <path
       d="m 208.47523,217.01025 c 0,0 -14.01373,2.77153 -16.42843,14.72284 -2.41469,11.95133 -3.96821,38.99641 -3.96821,38.99641 l 0.52883,3.76626 13.55579,3.14334 8.65211,-37.89477 z"
       fill="#3f3d56"
       id="path308"
       style="stroke-width:0.579761" />
    <path
       d="m 240.45674,221.04433 c 0,0 1.42049,-1.99059 9.37539,-2.29759 0.32752,-0.0127 -0.078,-0.66239 -0.078,-0.66239 l 3.82572,-18.69887 12.7493,7.05875 -2.15214,19.60346 -20.95,23.82856 z"
       fill="#3f3d56"
       id="path310"
       style="stroke-width:0.579761" />
    <path
       d="m 232.50978,276.78888 c -6.00202,4.6e-4 -15.03667,-0.66192 -28.63761,-2.6811 a 4.1539886,4.1539886 0 0 1 -3.48653,-3.47795 3.1447289,3.1447289 0 0 1 -0.52836,-3.57137 l 0.0127,-0.0248 -0.30817,-0.36322 a 3.3630611,3.3630611 0 0 1 -0.22425,-4.06497 l -4.21207,-30.13299 a 12.694271,12.694271 0 0 1 8.82844,-13.92671 l 1.55491,-0.48415 5.88021,-7.69138 0.11602,0.001 18.87743,0.25133 6.12611,7.77937 9.90279,2.33503 0.0258,0.15073 2.29938,13.28466 c 1.1957,6.90943 -1.54677,9.6275 -5.04728,15.70358 l 1.02742,17.0649 0.46613,0.84692 a 2.2953789,2.2953789 0 0 1 -0.54958,2.88011 4.4709905,4.4709905 0 0 1 0.0609,2.76685 l -0.24231,0.80044 c 4.5e-4,0.0231 -0.0641,0.34834 -0.58703,0.74541 -0.94266,0.71601 -3.64951,1.80795 -11.35486,1.80795 z"
       fill="#3f3d56"
       id="path312"
       style="stroke-width:0.579761" />
    <path
       d="m 224.19832,421.81805 10.01696,-0.59788 v 4.2917 l 9.52339,6.5772 a 2.6807577,2.6807577 0 0 1 -1.52331,4.8868 h -11.92555 l -2.05556,-4.24514 -0.80257,4.24514 h -4.49643 z"
       fill="#2f2e41"
       id="path314"
       style="stroke-width:0.579761" />
    <circle
       cx="-153.5121"
       cy="247.90112"
       r="14.799329"
       transform="rotate(-80.782676)"
       fill="#9e616a"
       id="circle316"
       style="stroke-width:0.579761" />
    <path
       d="m 228.76457,176.77778 c -5.4242,-3.73047 -10.20082,-4.29872 -14.12453,-3.24066 a 5.1580017,5.1580017 0 0 0 -2.06329,-1.83212 c -3.0602,-7.71088 -12.37308,-12.34165 -20.36527,-10.09055 -8.04389,2.26564 -13.594,11.1759 -12.08043,19.39459 0.93797,5.09436 4.14407,9.50572 5.43364,14.52262 2.4963,9.71183 -3.59325,20.83673 -13.11958,23.96733 9.01968,1.81107 18.94816,-3.69836 22.18399,-12.31033 1.57164,-4.18299 1.66643,-8.74998 1.86626,-13.21399 a 43.80931,43.80931 0 0 1 1.12624,-9.15037 19.550851,19.550851 0 0 1 1.4562,-3.89619 13.332687,13.332687 0 0 1 6.38079,-6.19059 5.0891435,5.0891435 0 0 0 0.74315,4.58156 c -2.11525,2.64982 -3.26669,5.51543 -3.26669,7.23155 -4.39421,8.0312 1.88958,14.92969 9.92098,19.3238 a 16.454132,16.454132 0 0 0 10.51266,1.83274 l 0.33601,-1.43432 0.45524,1.29202 1.51967,4.33153 q 2.62969,1.27214 5.2138,2.78897 c -0.65453,-3.07358 -1.18396,-6.14147 -1.54831,-9.14111 -0.50442,-4.08263 1.25398,-10.16062 2.52243,-13.85683 a 21.817572,21.817572 0 0 0 1.1945,-7.0805 v -0.10536 l 1.23509,3.9672 4.49649,-1.91815 c -0.83652,-4.79818 5e-5,-10.24527 -10.02904,-9.77284 z"
       fill="#2f2e41"
       id="path318"
       style="stroke-width:0.579761" />
    <path
       d="M 413.68932,437.71042 H 84.794278 a 0.69031583,0.69031583 0 0 1 0,-1.38061 H 413.68932 a 0.69031583,0.69031583 0 0 1 0,1.38061 z"
       fill="#cccccc"
       id="path320"
       style="stroke-width:0.579761" />
    <circle
       id="aeef577c-289f-4c95-850d-f6939249b5af"
       data-name="e4c91425-bc08-43ed-9b2d-9a6452dd6ab0"
       cx="171.077"
       cy="286.42505"
       r="13.225652"
       fill="#e6e6e6"
       style="stroke-width:0.579761" />
    <path
       d="m 370.07136,278.82404 h -46.38832 a 5.4130618,5.4130618 0 0 1 -5.40686,-5.40703 v -25.2653 a 5.4127547,5.4127547 0 0 1 5.40686,-5.40668 h 46.38832 a 5.4127547,5.4127547 0 0 1 5.40685,5.40666 v 25.2653 a 5.4130618,5.4130618 0 0 1 -5.40685,5.40705 z"
       fill="#f2f2f2"
       id="path323"
       style="stroke-width:0.579761" />
    <g
       id="a3c861bb-19cc-462b-bc3a-1f29faec5e60"
       data-name="bc9af32e-f7cd-4c85-a4cc-5543d455b8de"
       transform="matrix(0.57976117,0,0,0.57976117,16.452499,94.854099)">
      <circle
         id="a24c8b8a-c30a-477e-8412-dbddb638fe0a"
         data-name="b56288f5-6382-4006-aaf1-aded98dde780"
         cx="611.11774"
         cy="287.50409"
         r="12.11453"
         fill="#327e62" />
      <path
         id="ac585bde-7a48-4e1f-a3d4-d671a5b024fe-999"
         data-name="b9aaef6b-2cfc-46ac-8dc0-30fdc28925de"
         d="m 814.62215,440.79921 h -4.119 v -4.11893 a 0.96921,0.96921 0 0 0 -0.96923,-0.96923 v 0 a 0.96924,0.96924 0 0 0 -0.96923,0.96921 v 4.119 h -4.11889 a 0.96923,0.96923 0 0 0 -0.96923,0.96921 v 0 0 a 0.96921,0.96921 0 0 0 0.96923,0.96923 h 4.11894 v 4.11892 a 0.96921,0.96921 0 0 0 0.96923,0.96923 v 0 a 0.96923,0.96923 0 0 0 0.96923,-0.96921 v -4.11894 h 4.119 a 0.96924,0.96924 0 0 0 0.96923,-0.96921 v 0 0 a 0.96921,0.96921 0 0 0 -0.96923,-0.96923 z"
         transform="translate(-198.47381,-154.31245)"
         fill="#ffffff" />
    </g>
    <path
       d="m 388.97038,271.65413 h -38.22829 a 6.1267768,6.1267768 0 0 1 -6.11997,-6.11976 v -22.81932 a 1.1275021,1.1275021 0 0 1 2.255,0 v 6.11132 l 44.40434,4.03653 a 3.3864255,3.3864255 0 0 1 3.32634,3.38212 1.1283544,1.1283544 0 0 1 -0.0193,0.20773 l -2.23776,11.93413 a 3.3862632,3.3862632 0 0 1 -3.38039,3.26725 z m -42.09318,-20.5636 v 14.44384 a 3.8693259,3.8693259 0 0 0 3.86494,3.86475 h 38.22828 a 1.1287196,1.1287196 0 0 0 1.1275,-1.12748 1.1283544,1.1283544 0 0 1 0.0193,-0.20775 l 2.23242,-11.9059 a 1.1289689,1.1289689 0 0 0 -1.12419,-1.04051 c -0.0342,0 -0.0681,-0.001 -0.10204,-0.005 z"
       fill="#327e62"
       id="path328"
       style="stroke-width:0.579761" />
    <circle
       cx="340.58395"
       cy="280.29822"
       r="1.8791625"
       fill="#327e62"
       id="circle330"
       style="stroke-width:0.579761" />
    <circle
       cx="387.46707"
       cy="280.29822"
       r="1.8791625"
       fill="#327e62"
       id="circle332"
       style="stroke-width:0.579761" />
    <path
       d="m 389.34621,278.4191 h -50.26559 a 1.127497,1.127497 0 0 1 0,-2.25499 h 50.26559 a 1.127497,1.127497 0 0 1 0,2.25499 z"
       fill="#327e62"
       id="path334"
       style="stroke-width:0.579761" />
    <path
       d="m 348.75636,243.46671 h -9.77165 a 1.1275021,1.1275021 0 0 1 0,-2.255 h 9.77165 a 1.1275021,1.1275021 0 0 1 0,2.255 z"
       fill="#327e62"
       id="path336"
       style="stroke-width:0.579761" />
    <path
       d="m 356.59544,277.84508 a 1.1231423,1.1231423 0 0 1 -0.73424,-0.27232 l -7.41094,-6.36859 a 1.1274847,1.1274847 0 1 1 1.46954,-1.71036 l 7.41093,6.3686 a 1.1274963,1.1274963 0 0 1 -0.73532,1.98266 z"
       fill="#327e62"
       id="path338"
       style="stroke-width:0.579761" />
    <path
       d="m 358.15698,270.96154 a 1.1274267,1.1274267 0 0 1 -1.1275,-1.12736 v -18.09917 a 1.1274981,1.1274981 0 0 1 2.25499,0 v 18.09905 a 1.127421,1.127421 0 0 1 -1.12736,1.12748 z"
       fill="#327e62"
       id="path340"
       style="stroke-width:0.579761" />
    <path
       d="m 381.97438,270.96154 a 1.1274267,1.1274267 0 0 1 -1.12751,-1.12737 v -16.59582 a 1.1275021,1.1275021 0 0 1 2.25499,0 v 16.59572 a 1.1274267,1.1274267 0 0 1 -1.12737,1.12747 z"
       fill="#327e62"
       id="path342"
       style="stroke-width:0.579761" />
    <rect
       style="fill:#000000;stroke-width:0.762808"
       id="rect397"
       width="5.5475006"
       height="115.9372"
       x="290.97412"
       y="78.500618"
       transform="rotate(39.002533)" />
    <rect
       style="fill:#000000;stroke-width:0.762808"
       id="rect397-0"
       width="5.5475006"
       height="115.9372"
       x="367.3299"
       y="-32.868004"
       transform="rotate(39.002533)" />
    <rect
       style="fill:#000000;stroke-width:0.762808"
       id="rect397-0-2"
       width="5.5475006"
       height="115.9372"
       x="367.40817"
       y="-82.035767"
       transform="rotate(39.002533)" />
    <rect
       style="fill:#000000;stroke-width:0.401983"
       id="rect397-9-7"
       width="5.5475006"
       height="32.196461"
       x="337.15802"
       y="167.588" />
    <rect
       style="fill:#000000;stroke-width:0.401983"
       id="rect397-9-7-8"
       width="5.5475006"
       height="32.196461"
       x="167.64232"
       y="-342.51688"
       transform="rotate(90)" />
    <rect
       style="fill:#000000;stroke-width:0.68573"
       id="rect397-8"
       width="5.0813189"
       height="81.873085"
       x="-74.726112"
       y="293.31253"
       transform="rotate(-49.259679)" />
  </g>
</svg>
