<?xml version="1.0" encoding="UTF-8" standalone="no"?>
<svg
   data-name="Layer 1"
   width="1200.953"
   height="537"
   viewBox="0 0 1200.953 537"
   version="1.1"
   id="svg78"
   sodipodi:docname="EmptyCart.svg"
   inkscape:version="1.2.1 (9c6d41e410, 2022-07-14)"
   xmlns:inkscape="http://www.inkscape.org/namespaces/inkscape"
   xmlns:sodipodi="http://sodipodi.sourceforge.net/DTD/sodipodi-0.dtd"
   xmlns="http://www.w3.org/2000/svg"
   xmlns:svg="http://www.w3.org/2000/svg">
  <defs
     id="defs82" />
  <sodipodi:namedview
     id="namedview80"
     pagecolor="#ffffff"
     bordercolor="#000000"
     borderopacity="0.25"
     inkscape:showpageshadow="2"
     inkscape:pageopacity="0.0"
     inkscape:pagecheckerboard="0"
     inkscape:deskcolor="#d1d1d1"
     showgrid="false"
     inkscape:zoom="1.5088171"
     inkscape:cx="805.59798"
     inkscape:cy="283.00316"
     inkscape:window-width="1920"
     inkscape:window-height="1017"
     inkscape:window-x="-8"
     inkscape:window-y="-8"
     inkscape:window-maximized="1"
     inkscape:current-layer="svg78" />
  <g
     id="g3360-5-5-0-6-7"
     transform="matrix(0.97785562,0.00189465,-0.00189465,0.97785562,918.17627,487.64723)">
    <path
       d="m -73.246098,-75.55182 h -61.854142 c 4.32447,-23.38042 3.32957,-51.61308 0,-81.97535 h 61.854142 c -3.24098,30.36236 -4.20949,58.59497 0,81.97535 z"
       fill="#327e62"
       id="path551-2-6-9-4-6-7-5"
       style="stroke-width:0.739107" />
    <circle
       cx="-103.80054"
       cy="-118.77519"
       r="14.904608"
       fill="#ffffff"
       id="circle553-3-9-7-8-1-0-4"
       style="stroke-width:0.739107" />
  </g>
  <g
     id="g2843"
     transform="translate(2,2)">
    <polygon
       points="467.529,418.694 467.529,406.752 525.258,406.752 581.559,672.902 837.751,672.902 837.751,684.845 571.879,684.845 515.578,418.694 "
       fill="#3f3d56"
       id="polygon583-3"
       transform="matrix(0.75275034,0,0,0.75275034,95.426254,-139.26037)" />
    <circle
       cx="555.237"
       cy="393.59415"
       r="19.26392"
       fill="#3f3d56"
       id="circle585-8"
       style="stroke-width:0.752751" />
    <circle
       cx="699.07428"
       cy="393.59415"
       r="19.26392"
       fill="#3f3d56"
       id="circle587-1"
       style="stroke-width:0.752751" />
    <path
       d="M 722.39463,372.0234 H 527.67436 L 493.31783,202.23917 h 261.31831 a 9.2328593,9.2328593 0 0 1 9.12025,10.66414 l -32.24278,151.32171 a 9.1863695,9.1863695 0 0 1 -9.11898,7.79838 z m -192.60576,-2.56853 h 192.60576 a 6.6284786,6.6284786 0 0 0 6.58058,-5.62868 l 32.24276,-151.32171 a 6.6619459,6.6619459 0 0 0 -6.58183,-7.69679 H 496.43568 Z"
       fill="#3f3d56"
       id="path589-1"
       style="stroke-width:0.752751" />
    <polygon
       points="627.879,677.943 624.513,678.499 594.623,455.653 597.989,455.097 "
       fill="#3f3d56"
       id="polygon591-4"
       transform="matrix(0.75275034,0,0,0.75275034,95.426254,-139.26037)" />
    <polygon
       points="819.729,455.648 790.712,676.788 787.343,676.242 816.36,455.102 "
       fill="#3f3d56"
       id="polygon593-8"
       transform="matrix(0.75275034,0,0,0.75275034,95.426254,-139.26037)" />
    <rect
       x="628.45996"
       y="203.52344"
       width="2.5685196"
       height="167.74721"
       fill="#3f3d56"
       id="rect595-1"
       style="stroke-width:0.752751" />
    <rect
       x="-249.81415"
       y="507.03839"
       width="2.568527"
       height="248.63019"
       transform="rotate(-89.86127)"
       fill="#3f3d56"
       id="rect597-0"
       style="stroke-width:0.752751" />
    <rect
       x="516.83301"
       y="332.85074"
       width="218.4315"
       height="2.5685799"
       transform="rotate(-0.39166002)"
       fill="#3f3d56"
       id="rect599-8"
       style="stroke-width:0.752751" />
    <ellipse
       cx="451.21188"
       cy="170.13263"
       rx="14.126873"
       ry="7.7055664"
       fill="#3f3d56"
       id="ellipse601-9"
       style="stroke-width:0.752751" />
  </g>
  <g
     id="g3163-9-7-8"
     transform="matrix(0.98095795,0,0,0.98095795,907.37405,483.91338)">
    <path
       d="m -45.284236,-73.065471 -0.235874,0.40851 c -0.07684,-56.487719 -0.0238,-49.278939 0,-79.890159 l 61.434971,-0.40851 c -75.757717,3.44543 -50.947157,6.24507 -61.199097,79.890159 z"
       fill="#327e62"
       id="path551-2-6-2-7-3-9"
       style="stroke-width:0.729646"
       sodipodi:nodetypes="ccccc" />
    <g
       id="g2756-3-6-4-7-0"
       transform="translate(33.997837,-591.63682)">
      <path
         d="m -17.822534,519.39903 h -61.854144 c 21.812025,-8.41226 -3.784012,-57.28243 14.908585,-61.30368 l 46.945559,-19.63427 c -4.223161,33.84287 -5.646802,58.3091 0,80.93795 z"
         fill="#327e62"
         id="path551-2-6-1-1-1-5"
         style="stroke-width:0.739107"
         sodipodi:nodetypes="ccccc" />
      <circle
         cx="-48.376976"
         cy="476.17566"
         r="14.904608"
         fill="#ffffff"
         id="circle553-3-9-8-5-1-0"
         style="stroke-width:0.739107" />
    </g>
  </g>
  <g
     id="g2752-5-1-70-76"
     transform="matrix(0.88554226,0,0,0.88554226,874.73332,-25.919559)">
    <path
       d="m -39.376373,320.91755 h -10.37652 a 1.3757285,1.3757285 0 0 0 -1.37572,1.37572 v 4.55457 a 1.3757285,1.3757285 0 0 0 1.37572,1.37571 h 1.71954 v 6.8243 h 6.93744 v -6.8243 h 1.71954 a 1.3757137,1.3757137 0 0 0 1.37571,-1.37571 v -4.55457 a 1.3757211,1.3757211 0 0 0 -1.37571,-1.37572 z"
       fill="#e6e6e6"
       id="path543-48-8-9-9-10"
       style="stroke-width:0.739107" />
    <path
       d="m -28.983173,362.60091 a 53.34723,53.34723 0 0 1 -9.28084,-31.62901 1.1250975,1.1250975 0 0 0 -0.8782,-1.12277 v -1.96802 h -10.95899 v 1.94066 h -0.151 a 1.1244914,1.1244914 0 0 0 -1.12303,1.12595 q 6e-5,0.041 0.003,0.0818 1.29505,18.05263 -8.74613,32.37849 a 3.0989923,3.0989923 0 0 0 -0.56086,1.87803 l 1.19831,37.06717 a 3.2088013,3.2088013 0 0 0 3.18136,3.097 h 24.78758 a 3.2099396,3.2099396 0 0 0 3.18327,-3.15162 l 0.46174,-35.98915 a 6.4951202,6.4951202 0 0 0 -1.11635,-3.70853 z"
       fill="#327e62"
       id="path545-0-7-1-7-45"
       style="stroke-width:0.739107" />
    <path
       d="m -41.539503,322.4016 a 2.96806,2.96806 0 0 1 -5.93612,0"
       opacity="0.2"
       style="isolation:isolate;stroke-width:0.739107"
       id="path547-9-3-1-9-37" />
    <path
       d="m -32.907103,374.91345 h -21.57566 a 2.2151022,2.2151022 0 0 0 -2.18937,2.55195 l 3.26039,21.19256 h 18.72162 l 3.96021,-21.12116 a 2.2151761,2.2151761 0 0 0 -2.17719,-2.62335 z"
       fill="#ffffff"
       id="path549-8-4-7-4-3"
       style="stroke-width:0.739107" />
  </g>
  <path
     d="m 309.59295,415.56847 h 627.21344 v -1.2362 H 309.59295 c -0.38889,0 -0.7071,0.27815 -0.7071,0.61811 v 0 c 0,0.33994 0.31821,0.61809 0.7071,0.61809 z"
     fill="#3f3d56"
     id="path2567"
     style="stroke-width:0.661114" />
  <g
     id="g2854"
     transform="translate(16,2)">
    <path
       d="M 429.03059,413.31166 389.152,412.17863 c 0,0 3.00167,-17.9565 -6.62906,-22.93956 -6.56422,-3.39908 -12.39001,-19.27555 -10.73275,-30.07876 0.0225,-0.14374 0.0451,-0.28748 0.0705,-0.4284 0.8399,-4.83651 3.24124,-8.58226 7.83253,-9.59972 14.84209,-3.28635 25.43392,-0.73845 25.43392,-0.73845 0,0 2.45207,0.031 6.08508,0.71308 0.12965,0.0225 0.2593,0.0479 0.38895,0.0761 10.28462,2.01521 29.29522,9.19104 30.11821,34.67005 1.133,35.00545 -12.68879,29.45305 -12.68879,29.45305 z"
       fill="#3f3d56"
       id="path2561"
       style="stroke-width:0.281848" />
    <path
       d="m 411.21219,349.10964 c -0.0676,1.82637 -0.48196,3.64146 -1.23731,5.36637 -1.56707,3.57664 -4.42501,6.30775 -8.04392,7.69161 -10.83986,4.1488 -23.48917,0.0338 -29.8871,-4.42782 -0.0254,0.14093 -0.53269,2.81566 -0.55524,2.9594 2.83256,1.93911 16.69664,3.80776 19.32627,3.80776 3.99378,0 7.83818,-0.66234 11.25699,-1.97293 3.71757,-1.42333 6.6516,-4.23053 8.26095,-7.903 0.76944,-1.7531 1.19221,-3.59356 1.26831,-5.44811 -0.12965,-0.0282 -0.2593,-0.0536 -0.38895,-0.0761 0,0 0,0 0,0 z"
       fill="#327e62"
       id="path2563"
       style="stroke-width:0.281848" />
    <path
       d="m 414.16031,351.43488 -6.35565,-15.98357 c 0,0 7.6296,-13.07772 1.63471,-14.52923 -5.99489,-1.45434 -12.17017,6.35565 -12.17017,6.35565 0,0 -11.44301,-3.99659 -15.80036,-0.72716 0,0 -7.26603,-10.17188 -11.62339,-8.17358 -4.36018,1.9983 1.55016,16.39789 1.55016,16.39789 0,0 -8.99657,13.20737 -2.09413,20.83416 6.90245,7.62961 32.87468,13.80488 44.86166,-4.17698 v 0 z"
       fill="#3f3d56"
       id="path2565"
       style="stroke-width:0.281848" />
    <path
       d="m 427.79327,403.74576 c 2.16459,0.96392 4.42501,1.94474 6.79253,1.85173 2.36751,-0.093 4.85623,-1.6178 5.22545,-3.95713 0.19166,-1.20913 -0.18602,-2.50281 0.27621,-3.63584 0.62288,-1.52197 2.62963,-2.11103 4.18825,-1.58961 1.56144,0.52141 2.70574,1.86865 3.52873,3.29197 1.53889,2.66628 2.15331,6.16682 0.50451,8.76546 -1.42897,2.25196 -4.14034,3.27224 -6.66005,4.14597 -3.35963,1.16403 -7.1082,2.31679 -10.36354,0.88782 -3.27225,-1.43742 -5.05634,-5.58903 -3.84439,-8.95147"
       fill="#3f3d56"
       id="path2569"
       style="stroke-width:0.281848" />
    <path
       d="m 391.98738,344.25059 c 0,0 -3.91204,-1.56426 -6.45149,0.39177 l 2.93403,4.49828 c 0,0 3.52028,-4.88723 3.52028,-4.88723 z"
       fill="#327e62"
       id="path2571"
       style="stroke-width:0.281848" />
    <path
       d="m 371.4548,364.78035 7.23502,38.5229 c 0,0 -10.94977,11.14707 3.1285,10.94978 14.07828,-0.19448 9.97177,-7.4295 9.97177,-7.4295 l -4.49829,-33.43837"
       fill="#3f3d56"
       id="path2573"
       style="stroke-width:0.281848" />
    <path
       d="m 381.4632,414.5377 c -3.8134,0 -6.11891,-0.87373 -6.85735,-2.60146 -1.34441,-3.14541 3.03268,-7.93964 3.78239,-8.72881 l -4.86469,-28.79917 0.55524,-0.093 4.9126,29.08102 -0.10146,0.10146 c -0.0507,0.0507 -5.05634,5.20008 -3.76548,8.21585 0.66234,1.55017 2.90867,2.30833 6.69106,2.25478 5.25645,-0.0733 8.64426,-1.1753 9.79983,-3.18487 1.04002,-1.80946 -0.0592,-3.80494 -0.0705,-3.82467 l -0.0254,-0.0479 -0.008,-0.0535 -3.12851,-23.26932 0.55806,-0.0761 3.12287,23.21859 c 0.18602,0.35231 1.15839,2.38443 0.0451,4.32917 -1.27677,2.2266 -4.73785,3.39627 -10.28461,3.47237 -0.1212,0 -0.23957,0 -0.35795,0 z"
       fill="#2f2e41"
       id="path2575"
       style="stroke-width:0.281848" />
    <path
       d="m 389.83406,364.78035 7.23503,38.5229 c 0,0 -10.94978,11.14707 3.12851,10.94978 14.07827,-0.19448 9.97175,-7.4295 9.97175,-7.4295 l -4.49828,-33.43837"
       fill="#3f3d56"
       id="path2577"
       style="stroke-width:0.281848" />
    <path
       d="m 399.84247,414.5377 c -3.8134,0 -6.11891,-0.87373 -6.85735,-2.60146 -1.34441,-3.13978 3.02422,-7.92836 3.77957,-8.72599 l -2.90585,-15.50161 0.55524,-0.10429 2.9594,15.7891 -0.10428,0.10428 c -0.0507,0.0507 -5.05634,5.20008 -3.76548,8.21585 0.66234,1.55017 2.91148,2.31115 6.69105,2.25478 5.25928,-0.0733 8.6499,-1.1753 9.80266,-3.19051 1.04002,-1.8151 -0.062,-3.7993 -0.0733,-3.81903 l -0.0282,-0.0479 -4.50392,-33.49192 0.55806,-0.0761 4.48983,33.38765 c 0.18602,0.35231 1.1584,2.38443 0.0451,4.32917 -1.27677,2.2266 -4.73785,3.39627 -10.28461,3.47237 -0.12119,0 -0.23957,0 -0.35794,0 z"
       fill="#2f2e41"
       id="path2579"
       style="stroke-width:0.281848" />
  </g>
</svg>
