<?xml version="1.0" encoding="UTF-8" standalone="no"?>
<svg
   width="500"
   height="500"
   viewBox="0 0 500 500"
   version="1.1"
   id="svg12"
   sodipodi:docname="undraw_male_avatar_g98d.svg"
   inkscape:version="1.2.1 (9c6d41e410, 2022-07-14)"
   xmlns:inkscape="http://www.inkscape.org/namespaces/inkscape"
   xmlns:sodipodi="http://sodipodi.sourceforge.net/DTD/sodipodi-0.dtd"
   xmlns="http://www.w3.org/2000/svg"
   xmlns:svg="http://www.w3.org/2000/svg">
  <defs
     id="defs16" />
  <sodipodi:namedview
     id="namedview14"
     pagecolor="#ffffff"
     bordercolor="#000000"
     borderopacity="0.25"
     inkscape:showpageshadow="2"
     inkscape:pageopacity="0.0"
     inkscape:pagecheckerboard="0"
     inkscape:deskcolor="#d1d1d1"
     showgrid="false"
     inkscape:zoom="1.1124969"
     inkscape:cx="92.135084"
     inkscape:cy="305.61882"
     inkscape:window-width="1920"
     inkscape:window-height="1017"
     inkscape:window-x="-8"
     inkscape:window-y="-8"
     inkscape:window-maximized="1"
     inkscape:current-layer="svg12" />
  <circle
     cx="161.45081"
     cy="331.3508"
     r="36.029797"
     fill="#ffb6b6"
     id="circle2"
     style="stroke-width:0.417258" />
  <polygon
     points="204.18982,398.05209 221.18982,360.05209 217.28876,320.6185 295.18982,306.05209 341.18982,418.05209 261.18982,510.05209 "
     fill="#ffb6b6"
     id="polygon4"
     transform="matrix(0.41725799,0,0,0.41725799,48.474098,222.47392)" />
  <path
     d="m 138.61743,364.49075 7.10637,1.60562 c 0,0 -5.58634,-17.7145 -3.69021,-19.4057 1.89613,-1.69121 6.54263,0.97358 6.54263,0.97358 l 4.88276,5.47438 5.94757,-6.05541 c 0,0 6.45704,-8.02892 8.98522,-10.28386 2.52817,-2.25495 -1.53267,-10.62491 -1.53267,-10.62491 0,0 37.50809,-10.11401 23.55129,-28.30665 0,0 -8.18282,-14.26376 -10.84759,-9.61726 -2.66479,4.64651 -5.8423,-2.73309 -5.8423,-2.73309 l -9.70283,1.84511 c 0,0 -19.14976,-11.29118 -37.32511,12.86389 -18.17535,24.15508 11.92488,64.26429 11.92488,64.26429 h -10e-6 z"
     fill="#2f2e41"
     id="path6"
     style="stroke-width:0.417258" />
  <path
     d="m 229.21359,419.81609 c -19.69041,15.9643 -44.04993,24.63908 -69.74887,24.63908 -23.46658,0 -45.8191,-7.23524 -64.516426,-20.64592 0.03337,-0.35051 0.06675,-0.69681 0.09599,-1.04314 0.496535,-5.42435 0.93883,-10.6985 1.230887,-15.07136 1.130778,-16.97823 40.741079,-28.29426 40.741079,-28.29426 0,0 0.17942,0.17941 0.53827,0.49235 2.18643,1.91938 11.06149,8.87925 26.62524,10.82368 13.87798,1.73578 18.44695,-6.49671 19.82808,-10.43981 0.41726,-1.2017 0.54245,-2.00701 0.54245,-2.00701 l 40.74106,19.23976 c 2.65793,3.79707 3.69692,11.97531 3.90138,21.16752 0.008,0.37969 0.0167,0.75523 0.0208,1.1391 z"
     fill="#327e62"
     id="path8"
     style="stroke-width:0.417258" />
  <path
     d="m 237.94679,254.9825 c -20.96303,-20.96306 -48.83587,-32.50858 -78.48207,-32.50858 -29.64619,0 -57.519,11.54552 -78.482035,32.50858 -20.963041,20.96304 -32.508587,48.83587 -32.508587,78.48205 0,27.05919 9.617817,52.64128 27.242794,72.84073 1.681532,1.9319 3.438202,3.81374 5.265793,5.64133 0.429764,0.42977 0.863729,0.85955 1.301845,1.27681 1.168317,1.13076 2.357515,2.2365 3.567551,3.30885 0.734381,0.65511 1.477113,1.29767 2.228174,1.92773 0.588316,0.49654 1.176668,0.98473 1.773342,1.46459 0.01248,0.0125 0.0209,0.0208 0.03337,0.0292 1.656524,1.3352 3.342243,2.62036 5.061337,3.85545 18.697336,13.41068 41.049846,20.64592 64.516416,20.64592 25.69893,0 50.05846,-8.67479 69.74886,-24.63908 1.60644,-1.30185 3.17951,-2.65376 4.72336,-4.05159 1.36443,-1.23506 2.69965,-2.50772 4.00985,-3.81789 0.41308,-0.41308 0.82616,-0.83034 1.23092,-1.25177 1.1266,-1.15999 2.21981,-2.34084 3.28799,-3.53837 18.09648,-20.32879 27.98965,-46.24885 27.98965,-73.69192 0,-29.64618 -11.54552,-57.51901 -32.50856,-78.48204 z m 4.24769,151.13501 c -1.04315,1.18502 -2.11133,2.35333 -3.20454,3.49245 -1.70242,1.77334 -3.45906,3.49244 -5.27414,5.14897 -0.68847,0.63424 -1.38531,1.25178 -2.09047,1.86513 -0.80113,0.69684 -1.61061,1.38113 -2.4326,2.05293 -6.48003,5.32003 -13.5776,9.90987 -21.16751,13.64849 -3.00009,1.48126 -6.07528,2.82902 -9.22139,4.0349 -12.22149,4.68998 -25.48614,7.26027 -39.33911,7.26027 -13.36893,0 -26.18708,-2.39505 -38.04975,-6.77627 -4.86939,-1.7942 -9.57605,-3.92637 -14.09496,-6.36736 -0.66345,-0.35883 -1.32271,-0.72184 -1.9778,-1.09321 -3.44656,-1.95276 -6.780446,-4.08495 -9.980802,-6.38822 -0.104318,-0.0751 -0.212808,-0.15438 -0.317125,-0.22948 -2.278237,-1.644 -4.493873,-3.37564 -6.63441,-5.19488 -0.784443,-0.66345 -1.560542,-1.33522 -2.324133,-2.02368 -1.243418,-1.10575 -2.461804,-2.24485 -3.651003,-3.4132 -2.253175,-2.20728 -4.406249,-4.50638 -6.46332,-6.89726 -16.611047,-19.294 -26.662799,-44.37955 -26.662799,-71.77254 0,-60.74025 49.415884,-110.15612 110.156102,-110.15612 60.74023,0 110.15612,49.41587 110.15612,110.15612 0,27.81443 -10.36051,53.25046 -27.42636,72.65296 z"
     fill="#3f3d56"
     id="path10"
     style="stroke-width:0.417258" />
  <polygon
     points="379.19,379.04999 246.19,379.04999 246.19,199.04999 361.19,262.04999 "
     fill="#2f2e41"
     id="polygon299"
     transform="matrix(0.41725799,0,0,0.41725799,237.89229,45.365684)" />
  <circle
     cx="350.86905"
     cy="154.24167"
     r="36.029797"
     fill="#ffb6b6"
     id="circle301"
     style="stroke-width:0.417258" />
  <polygon
     points="221.19,360.04999 217.28893,320.61639 295.19,306.04999 341.19,418.04999 261.19,510.04999 204.19,398.04999 "
     fill="#ffb6b6"
     id="polygon303"
     transform="matrix(0.41725799,0,0,0.41725799,237.89229,45.365684)" />
  <path
     d="m 428.59587,233.58658 c -0.40473,0.42144 -0.81781,0.83869 -1.23089,1.25178 -1.3102,1.31019 -2.64543,2.58282 -4.00987,3.81792 -20.44564,18.54294 -46.67865,28.69066 -74.4722,28.69066 -25.6238,0 -49.92075,-8.62474 -69.57776,-24.50141 -0.0126,-0.008 -0.0209,-0.0167 -0.0334,-0.0292 -0.59667,-0.47984 -1.185,-0.96805 -1.77335,-1.46458 0.10432,-0.30042 0.21699,-0.59668 0.32965,-0.88877 6.32145,-16.46916 18.80582,-24.52641 26.38322,-28.05224 3.75532,-1.74831 6.30476,-2.3867 6.30476,-2.3867 l 8.89595,-16.02272 6.26305,11.68322 4.61487,8.61222 18.93516,35.32922 16.33566,-40.6743 5.06132,-12.60955 1.29769,-3.22957 6.17124,4.80264 5.84161,4.54395 11.7625,2.59533 9.54269,2.10715 12.96003,2.86241 c 5.24076,4.26854 8.42862,12.38839 10.21032,22.47768 0.0668,0.35884 0.12935,0.72185 0.18775,1.08487 z"
     fill="#327e62"
     id="path305"
     style="stroke-width:0.417258" />
  <path
     d="m 331.91697,113.2966 c 4.38879,-7.3721 12.44925,-12.43023 20.99639,-13.17575 8.54714,-0.745501 17.36159,2.84077 22.96043,9.34173 3.33634,3.87392 5.52391,8.61828 8.776,12.56319 6.99837,8.48932 18.93193,13.45302 21.98913,24.02183 1.33409,4.61194 0.66932,9.5357 -0.006,14.28902 -0.57857,4.07414 -1.15715,8.14829 -1.73573,12.22243 -0.45027,3.17058 -0.88202,6.5131 0.30684,9.48665 1.3948,3.48862 4.73272,5.77354 6.89086,8.84899 3.67221,5.23305 3.40375,12.89474 -0.62573,17.85795 -1.7475,2.15241 -4.06427,3.77566 -5.89634,5.85656 -1.83207,2.0809 -3.19104,4.926 -2.42371,7.59017 1.46994,5.10358 9.47369,6.3275 10.35153,11.56551 0.44883,2.67804 -1.40093,5.35241 -3.82449,6.57701 -2.42357,1.22459 -5.27653,1.26016 -7.97208,0.93254 -10.24514,-1.24526 -19.7309,-7.64679 -24.71903,-16.68182 -4.98813,-9.03503 -5.35135,-20.47302 -0.94652,-29.80634 3.61778,-7.66564 10.34182,-14.43946 10.26857,-22.91559 -0.0399,-4.61771 -2.15794,-8.93065 -4.22905,-13.05804 -4.23902,-8.44771 -8.47806,-16.89542 -12.71708,-25.34313 -2.27071,-4.52514 -4.9059,-9.40153 -9.58072,-11.3455 -3.61291,-1.50239 -7.71228,-0.91968 -11.57658,-0.30518 -3.86429,0.61449 -7.95775,1.21264 -11.58143,-0.26363 -3.62367,-1.47628 -6.36169,-5.8624 -4.63519,-9.37374"
     fill="#2f2e41"
     id="path307"
     style="stroke-width:0.417258" />
  <path
     d="m 338.2309,113.68156 c -6.961,-2.29135 -14.7697,1.38704 -19.48231,6.99926 -4.71262,5.61223 -6.99862,12.81231 -9.17634,19.80969 -1.2474,4.00811 -2.4948,8.01621 -3.7422,12.02432 -1.17344,3.77045 -2.34686,7.54089 -3.5203,11.31134 -1.38022,4.4349 -2.77174,9.1465 -1.63899,13.65097 0.81891,3.25653 2.92607,6.21349 2.97142,9.5711 0.0473,3.50733 -2.14908,6.58646 -4.07394,9.51877 -1.92486,2.93232 -3.73174,6.41618 -2.81465,9.80182 1.39493,5.14969 8.55463,7.98033 8.16215,13.30113 -0.13098,1.77572 -1.15785,3.4182 -1.13921,5.19865 0.0237,2.26535 1.79732,4.22278 3.87524,5.12533 2.07794,0.90256 4.41535,0.95157 6.68048,0.91173 6.9479,-0.12217 13.88324,-0.94728 20.66587,-2.45867 2.60954,-0.58149 5.26321,-1.29467 7.4354,-2.85335 2.17217,-1.55867 3.79262,-4.14106 3.50993,-6.79961 -0.44053,-4.1428 -4.89482,-6.49314 -7.14262,-10.00087 -2.20787,-3.44539 -2.15668,-7.81089 -3.10874,-11.79072 -1.30844,-5.46961 -4.53988,-10.24472 -6.96571,-15.31858 -9.11999,-19.07539 -5.92745,-43.38948 7.80783,-59.46388 1.21444,-1.42125 2.54123,-2.85102 3.0479,-4.65048 0.50666,-1.79947 -0.14649,-4.09217 -1.90675,-4.72166"
     fill="#2f2e41"
     id="path309"
     style="stroke-width:0.417258" />
  <path
     d="m 427.36498,77.874245 c -20.96306,-20.96304 -48.83589,-32.508561 -78.48207,-32.508561 -29.64618,0 -57.519,11.545521 -78.48207,32.508561 -20.96303,20.963034 -32.50855,48.835865 -32.50855,78.482065 0,27.05918 9.61779,52.64126 27.24276,72.84071 1.68156,1.9319 3.43823,3.81374 5.2658,5.64134 0.42979,0.42979 0.86372,0.85955 1.30187,1.27681 1.16832,1.13077 2.35749,2.23649 3.56755,3.30885 0.73438,0.65509 1.47708,1.29769 2.22814,1.92773 0.58835,0.49653 1.17668,0.98475 1.77335,1.46458 0.0125,0.0126 0.0208,0.0209 0.0334,0.0292 19.65702,15.87666 43.95396,24.5014 69.57777,24.5014 27.79355,0 54.02656,-10.14772 74.47219,-28.69066 1.36445,-1.23509 2.69968,-2.50773 4.00988,-3.81792 0.41308,-0.41308 0.82616,-0.83034 1.23089,-1.25177 1.1266,-1.15997 2.21981,-2.34082 3.28799,-3.53834 18.09648,-20.32883 27.98966,-46.24889 27.98966,-73.69193 0,-29.6462 -11.54552,-57.519031 -32.50856,-78.482075 z m 4.24768,151.135025 c -1.04314,1.185 -2.11132,2.35331 -3.20453,3.49245 -1.70242,1.77335 -3.45909,3.49245 -5.27415,5.14895 -0.68848,0.63424 -1.3853,1.25178 -2.09046,1.86516 -7.12261,6.19627 -15.05051,11.48709 -23.60012,15.70141 -3.00008,1.48126 -6.07528,2.829 -9.22139,4.03488 -12.2215,4.68998 -25.48613,7.2603 -39.3391,7.2603 -13.36893,0 -26.18711,-2.39509 -38.04976,-6.77629 -4.86938,-1.79421 -9.57607,-3.92639 -14.09495,-6.36734 -0.66346,-0.35886 -1.32273,-0.72187 -1.97783,-1.09324 -3.44653,-1.95277 -6.78044,-4.08494 -9.9808,-6.38822 -2.39089,-1.71493 -4.71084,-3.52166 -6.95151,-5.42435 -0.78444,-0.66343 -1.56054,-1.3352 -2.32413,-2.0237 -1.24345,-1.10574 -2.46183,-2.24484 -3.651,-3.41316 -2.25321,-2.20729 -4.40625,-4.50639 -6.46333,-6.89729 -16.61104,-19.294 -26.66279,-44.37954 -26.66279,-71.77252 0,-60.740251 49.41585,-110.156113 110.1561,-110.156113 60.74025,0 110.15611,49.415862 110.15611,110.156113 0,27.81441 -10.36052,53.25047 -27.42636,72.65296 z"
     fill="#3f3d56"
     id="path311"
     style="stroke-width:0.417258" />
</svg>
