<?xml version="1.0" encoding="UTF-8" standalone="no"?>
<svg
   width="500"
   height="500"
   viewBox="0 0 500 500"
   version="1.1"
   id="svg12"
   sodipodi:docname="CustomersOverTime.svg"
   inkscape:version="1.2.1 (9c6d41e410, 2022-07-14)"
   xmlns:inkscape="http://www.inkscape.org/namespaces/inkscape"
   xmlns:sodipodi="http://sodipodi.sourceforge.net/DTD/sodipodi-0.dtd"
   xmlns="http://www.w3.org/2000/svg"
   xmlns:svg="http://www.w3.org/2000/svg">
  <defs
     id="defs16" />
  <sodipodi:namedview
     id="namedview14"
     pagecolor="#ffffff"
     bordercolor="#000000"
     borderopacity="0.25"
     inkscape:showpageshadow="2"
     inkscape:pageopacity="0.0"
     inkscape:pagecheckerboard="0"
     inkscape:deskcolor="#d1d1d1"
     showgrid="false"
     inkscape:zoom="1.1124969"
     inkscape:cx="87.640694"
     inkscape:cy="186.96681"
     inkscape:window-width="1920"
     inkscape:window-height="1017"
     inkscape:window-x="-8"
     inkscape:window-y="-8"
     inkscape:window-maximized="1"
     inkscape:current-layer="svg12" />
  <rect
     style="fill:#327e62;fill-opacity:1;stroke-width:1.03244"
     id="rect2826"
     width="461.90054"
     height="6.1223931"
     x="26.129095"
     y="259.69696" />
  <rect
     style="fill:#327e62;fill-opacity:1;stroke-width:0.14825"
     id="rect2826-8"
     width="4.7618527"
     height="12.244786"
     x="89.053688"
     y="250.51335" />
  <rect
     style="fill:#327e62;fill-opacity:0.954825;stroke-width:0.14825"
     id="rect2826-8-9"
     width="4.7618527"
     height="12.244786"
     x="160.90965"
     y="263.98489" />
  <rect
     style="fill:#327e62;fill-opacity:0.954825;stroke-width:0.14825"
     id="rect2826-8-9-8"
     width="4.7618527"
     height="12.244786"
     x="235.59062"
     y="251.37151" />
  <rect
     style="fill:#327e62;fill-opacity:0.954825;stroke-width:0.14825"
     id="rect2826-8-9-8-2"
     width="4.7618527"
     height="12.244786"
     x="304.6171"
     y="262.43503" />
  <rect
     style="fill:#327e62;fill-opacity:0.954825;stroke-width:0.14825"
     id="rect2826-8-9-8-2-8"
     width="4.7618527"
     height="12.244786"
     x="372.72461"
     y="252.214" />
  <rect
     style="fill:#327e62;fill-opacity:0.954825;stroke-width:0.14825"
     id="rect2826-8-9-8-2-8-0"
     width="4.7618527"
     height="12.244786"
     x="444.83276"
     y="263.77853" />
  <rect
     x="118.1989"
     y="357.52917"
     width="3.1765823"
     height="1.0588608"
     fill="#e6e6e6"
     id="rect1900"
     style="stroke-width:0.529431" />
  <rect
     x="118.1989"
     y="350.11713"
     width="3.1765823"
     height="1.0588608"
     fill="#e6e6e6"
     id="rect1906"
     style="stroke-width:0.529431" />
  <rect
     x="118.1989"
     y="334.76361"
     width="3.1765823"
     height="1.0588608"
     fill="#e6e6e6"
     id="rect1912"
     style="stroke-width:0.529431" />
  <rect
     x="118.1989"
     y="324.17505"
     width="3.1765823"
     height="1.0588608"
     fill="#e6e6e6"
     id="rect1918"
     style="stroke-width:0.529431" />
  <rect
     x="118.1989"
     y="301.40955"
     width="3.1765823"
     height="1.0588608"
     fill="#e6e6e6"
     id="rect1924"
     style="stroke-width:0.529431" />
  <path
     d="m 334.48375,306.77078 a 28.819238,28.819238 0 1 1 -28.81922,-28.81922 28.691825,28.691825 0 0 1 28.81922,28.81922 z"
     fill="#f2f2f2"
     id="path1930"
     style="stroke-width:0.529431" />
  <path
     d="m 317.45096,299.87521 v 0 l -0.1426,0.25705 c 1.26922,-3.12802 0.11508,-6.98248 -2.14911,-9.3411 -2.26411,-2.35861 -5.41175,-3.43692 -8.51112,-3.86471 a 13.823698,13.823698 0 0 0 -6.87678,0.5344 c -3.1681,1.22045 -5.58862,4.04571 -7.60954,6.98476 -0.92438,1.3443 -1.83328,2.87686 -1.7412,4.55706 0.0855,1.55924 1.01103,2.88242 1.76897,4.2053 0.75803,1.32289 1.39099,2.96416 0.84699,4.40799 -0.32416,0.86041 -1.00929,1.48009 -1.56518,2.18394 -0.55589,0.70385 -1.0132,1.65519 -0.74467,2.53831 a 2.0709359,2.0709359 0 0 0 1.54288,1.34087 5.4554734,5.4554734 0 0 0 2.04982,-0.0485 l 17.66642,-2.66914 a 7.5291675,7.5291675 0 0 0 5.46512,-11.08618 z"
     fill="#2f2e41"
     id="path1932"
     style="stroke-width:0.529431" />
  <circle
     cx="304.31036"
     cy="302.20081"
     r="8.6374454"
     fill="#ffb9b9"
     id="circle1934"
     style="stroke-width:0.529431" />
  <path
     d="m 327.30434,325.79899 a 28.809162,28.809162 0 0 1 -40.31999,2.91394 l 2.47191,-6.89741 a 7.417389,7.417389 0 0 1 6.3004,-4.32645 l 1.57255,-0.0966 3.74976,-3.23403 c 0,0 10.1035,-0.36077 9.9536,-0.53351 l 6.12003,3.68116 -0.005,-0.0254 2.40584,0.14735 a 7.4141435,7.4141435 0 0 1 6.3004,4.32643 z"
     fill="#327e62"
     id="path1936"
     style="stroke-width:0.529431" />
  <path
     d="m 312.50317,294.1842 c -0.22296,-1.17951 -1.42596,-1.71899 -2.45669,-1.9804 a 23.664898,23.664898 0 0 0 -9.15494,-0.50273 c -2.22722,0.31762 -4.50731,1.01799 -6.12335,2.75644 a 8.2353378,8.2353378 0 0 0 -2.08236,5.30373 6.3159831,6.3159831 0 0 0 0.75594,3.36941 3.1227024,3.1227024 0 0 0 2.59609,1.67322 l 0.10358,0.3604 a 15.723332,15.723332 0 0 0 10.90196,-7.30234 9.3553901,9.3553901 0 0 1 -2.7332,4.41542 17.029945,17.029945 0 0 0 7.35143,-5.66567 c 0.51302,-0.68094 1.01111,-1.5301 0.8415,-2.42748 z"
     fill="#2f2e41"
     id="path1938"
     style="stroke-width:0.529431" />
  <circle
     cx="91.02877"
     cy="218.82666"
     r="28.819239"
     fill="#f2f2f2"
     id="circle1940"
     style="stroke-width:0.529431" />
  <circle
     cx="83.114922"
     cy="203.944"
     r="4.068789"
     fill="#2f2e41"
     id="circle1942"
     style="stroke-width:0.529431" />
  <circle
     cx="89.624962"
     cy="213.16656"
     r="10.307603"
     fill="#2f2e41"
     id="circle1944"
     style="stroke-width:0.529431" />
  <circle
     cx="90.477898"
     cy="215.09555"
     r="8.376092"
     fill="#9e616a"
     id="circle1946"
     style="stroke-width:0.529431" />
  <path
     d="m 96.166114,206.55725 a 9.5945498,9.5945498 0 0 0 -14.58711,8.3735 c 4.26805,1.07157 8.75191,1.89163 13.30348,0.25632 l 1.07488,-2.6307 0.6337,2.63264 c 1.3861,0.56655 2.7758,1.04592 4.165486,-0.005 a 9.7965804,9.7965804 0 0 0 -4.590436,-8.62629 z"
     fill="#2f2e41"
     id="path1948"
     style="stroke-width:0.529431" />
  <path
     d="m 79.326584,192.89873 a 8.3226461,8.3226461 0 0 0 -8.68649,1.33815 9.4131351,9.4131351 0 0 0 -3.0042,8.37713 c 0.46137,3.12369 2.36037,5.81361 4.11081,8.44158 1.75045,2.62797 3.46058,5.50763 3.45862,8.66518 a 8.5896802,8.5896802 0 0 1 -8.57262,8.58438 c 2.6692,1.1491 5.45514,2.32073 8.35799,2.18451 2.90285,-0.13622 5.94547,-2.00236 6.41899,-4.86957 0.3412,-2.06593 -0.67238,-4.08048 -1.51775,-5.99617 a 42.414471,42.414471 0 0 1 -2.96425,-9.7578 c -0.28232,-1.60364 -0.46615,-3.28954 0.0566,-4.83163 a 5.6735828,5.6735828 0 0 1 5.63626,-3.72319 l 0.95915,-0.86291 a 7.4671448,7.4671448 0 0 0 -4.25317,-7.54966 z"
     fill="#2f2e41"
     id="path1950"
     style="stroke-width:0.529431" />
  <path
     d="m 112.71304,238.10892 a 28.809146,28.809146 0 0 1 -40.319986,2.91394 l 2.47188,-6.89742 a 7.4173784,7.4173784 0 0 1 6.3004,-4.32642 l 1.57256,-0.0966 3.74975,-3.23403 c 0,0 10.10351,-0.36076 9.95362,-0.53351 l 6.120026,3.68113 -0.005,-0.0254 2.40583,0.14735 a 7.4141435,7.4141435 0 0 1 6.30041,4.32643 z"
     fill="#327e62"
     id="path1952"
     style="stroke-width:0.529431" />
  <path
     d="m 475.60572,306.81427 a 28.819238,28.819238 0 1 1 -28.7681,-28.87029 28.744731,28.744731 0 0 1 28.7681,28.87029 z"
     fill="#f2f2f2"
     id="path1954"
     style="stroke-width:0.529431" />
  <path
     d="m 433.42908,297.38829 c 1.19166,-3.79779 3.90154,-7.28099 7.64924,-8.56485 3.74793,-1.28387 9.23584,0.67189 12.05344,3.47995 5.15394,5.13653 6.41169,22.78232 2.87072,28.35859 -0.70431,-0.0373 -3.13462,-0.0649 -3.84745,-0.0915 l -1.00841,-3.36096 v 3.32783 q -1.70348,-0.0526 -3.43364,-0.0727 a 14.943438,14.943438 0 0 1 -14.75364,-14.57478 c -0.0923,-3.69876 1.2e-4,-7.00497 0.46974,-8.50159 z"
     fill="#2f2e41"
     id="path1956"
     style="stroke-width:0.529431" />
  <circle
     cx="446.35913"
     cy="301.76178"
     r="8.2132816"
     fill="#9e616a"
     id="circle1958"
     style="stroke-width:0.529431" />
  <path
     d="m 439.27078,294.54855 9.4568,-4.73526 v 0 a 11.886242,11.886242 0 0 1 6.96177,9.84793 l 0.2357,2.82346 -3.96004,-1.00804 -0.43385,-3.61033 -0.67248,3.32871 -1.82753,-0.46499 0.0174,-5.60502 -1.82866,5.60101 -6.52716,-1.4996 z"
     fill="#2f2e41"
     id="path1960"
     style="stroke-width:0.529431" />
  <path
     d="m 468.17231,325.83456 a 28.809157,28.809157 0 0 1 -40.31999,2.91394 l 2.47188,-6.89742 a 7.4173678,7.4173678 0 0 1 6.3004,-4.32643 l 1.57256,-0.0966 3.74975,-3.23402 c 0,0 10.10351,-0.36076 9.95361,-0.53352 l 6.12003,3.68116 -0.005,-0.0254 2.40584,0.14735 a 7.4141435,7.4141435 0 0 1 6.3004,4.32644 z"
     fill="#327e62"
     id="path1962"
     style="stroke-width:0.529431" />
  <circle
     cx="375.64981"
     cy="221.67587"
     r="28.819239"
     fill="#f2f2f2"
     id="circle1964"
     style="stroke-width:0.529431" />
  <circle
     cx="374.85437"
     cy="216.04648"
     r="9.1994095"
     fill="#ffb6b6"
     id="circle1966"
     style="stroke-width:0.529431" />
  <path
     d="m 397.27055,240.95809 a 28.809146,28.809146 0 0 1 -40.31999,2.91395 l 2.47188,-6.89742 a 7.417373,7.417373 0 0 1 6.30039,-4.32644 l 1.57256,-0.0966 3.74976,-3.23402 c 0,0 10.1035,-0.36077 9.9536,-0.53352 l 6.12003,3.68114 -0.005,-0.0254 2.40583,0.14736 a 7.4141435,7.4141435 0 0 1 6.3004,4.32643 z"
     fill="#327e62"
     id="path1968"
     style="stroke-width:0.529431" />
  <path
     d="m 384.55668,210.34121 a 11.860697,11.860697 0 0 0 -4.96707,-6.758 c -1.93136,-1.23532 -4.34142,-1.86598 -6.52947,-1.21269 -2.18805,0.65327 -3.99958,2.80058 -3.85636,5.12065 a 2.2447055,2.2447055 0 0 0 -2.26584,0.69971 5.1944165,5.1944165 0 0 0 -1.11166,2.25075 14.30926,14.30926 0 0 0 0.1342,7.92373 l -0.0435,0.36972 c 1.06748,-0.17659 1.87718,-1.09251 2.3807,-2.06836 0.50351,-0.97584 0.79325,-2.05847 1.33896,-3.01045 0.5457,-0.95199 1.45193,-1.80118 2.53298,-1.83089 l -0.0953,1.65248 q 1.39513,-0.7188 2.79025,-1.43758 -0.33186,0.79382 -0.66371,1.58764 1.2184,-0.50925 2.43679,-1.01848 -0.13621,0.76333 -0.27239,1.52665 a 3.6255395,3.6255395 0 0 1 4.99147,-1.61388 4.8178168,4.8178168 0 0 1 1.96958,2.77067 14.595962,14.595962 0 0 1 0.47166,3.45798 12.092657,12.092657 0 0 0 0.75862,-8.40965 z"
     fill="#2f2e41"
     id="path1970"
     style="stroke-width:0.529431" />
  <circle
     cx="160.71571"
     cy="308.93481"
     r="28.819239"
     fill="#f2f2f2"
     id="circle1972"
     style="stroke-width:0.529431" />
  <circle
     id="a04f79c1-b358-4543-9edb-632b127caa90"
     data-name="ab6171fa-7d69-4734-b81c-8dff60f9761b"
     cx="160.08128"
     cy="303.18109"
     r="8.7430506"
     fill="#9e616a"
     style="stroke-width:0.529431" />
  <path
     d="m 181.96553,327.96283 a 28.809162,28.809162 0 0 1 -40.31999,2.91394 l 2.4719,-6.89742 a 7.4173784,7.4173784 0 0 1 6.30039,-4.32643 l 1.57256,-0.0966 3.74976,-3.23402 c 0,0 10.1035,-0.36076 9.95361,-0.53352 l 6.12004,3.68116 -0.005,-0.0254 2.40583,0.14735 a 7.4141435,7.4141435 0 0 1 6.3004,4.32643 z"
     fill="#327e62"
     id="path1975"
     style="stroke-width:0.529431" />
  <path
     d="m 152.13723,307.22319 c -0.0172,-0.0478 -0.0329,-0.0961 -0.0498,-0.14411 -0.0337,0.0297 -0.0659,0.0603 -0.10244,0.088 z"
     fill="#2f2e41"
     id="path1977"
     style="stroke-width:0.529431" />
  <path
     d="m 170.55452,300.07069 a 6.2856891,6.2856891 0 0 0 -2.34715,-4.58781 5.5141501,5.5141501 0 0 1 -1.43632,-1.29842 8.8827835,8.8827835 0 0 1 -0.48792,-1.21679 c -0.67117,-1.59754 -2.58398,-2.44658 -4.29983,-2.20468 a 6.4601787,6.4601787 0 0 0 -4.20093,2.8111 2.8593161,2.8593161 0 0 0 -3.9986,3.31427 c -0.88855,-0.71579 -2.32584,-0.14322 -2.88049,0.85389 -0.55466,0.99712 -0.46662,2.21722 -0.30172,3.34624 a 31.619273,31.619273 0 0 0 1.48584,5.99057 c 0.86516,-0.76185 0.812,-2.14932 0.70626,-3.32218 -0.10987,-1.21847 -0.044,-2.70613 1.02144,-3.30739 1.02942,-0.5809 2.27885,0.0568 3.41389,0.38673 a 6.4519408,6.4519408 0 0 0 5.33709,-0.8395 16.811613,16.811613 0 0 1 1.75502,-1.22267 2.0713965,2.0713965 0 0 1 2.04191,-0.0363 2.8526187,2.8526187 0 0 1 0.9467,1.66372 q 0.65555,2.22303 1.31109,4.44605 a 6.2856202,6.2856202 0 0 0 1.93372,-4.7768 z"
     fill="#2f2e41"
     id="path1979"
     style="stroke-width:0.529431" />
</svg>
