<?xml version="1.0" encoding="UTF-8" standalone="no"?>
<svg
   data-name="Layer 1"
   width="500"
   height="500"
   viewBox="0 0 500 500.00001"
   version="1.1"
   id="svg98"
   sodipodi:docname="MostVisitedPage.svg"
   inkscape:version="1.2.1 (9c6d41e410, 2022-07-14)"
   xmlns:inkscape="http://www.inkscape.org/namespaces/inkscape"
   xmlns:sodipodi="http://sodipodi.sourceforge.net/DTD/sodipodi-0.dtd"
   xmlns="http://www.w3.org/2000/svg"
   xmlns:svg="http://www.w3.org/2000/svg">
  <g
     id="g1288"
     transform="matrix(1.1893946,0,0,1.1893946,3.2229835,-82.726062)">
    <path
       d="M 381.52413,142.24846 H 30.610312 a 5.0455625,5.0455625 0 0 0 -5.040971,5.04114 v 237.7889 a 5.0455625,5.0455625 0 0 0 5.040971,5.04113 H 381.52413 a 5.0367521,5.0367521 0 0 0 3.83309,-1.76902 1.1822789,1.1822789 0 0 0 0.10985,-0.13874 4.7211725,4.7211725 0 0 0 0.72263,-1.21985 4.9180946,4.9180946 0 0 0 0.38136,-1.91355 V 147.28962 a 5.0466436,5.0466436 0 0 0 -5.04693,-5.04116 z m 3.60755,242.83005 a 3.5699786,3.5699786 0 0 1 -0.59562,1.97715 3.7263809,3.7263809 0 0 1 -1.36426,1.22559 3.5752163,3.5752163 0 0 1 -1.64767,0.3989 H 30.610312 a 3.6060181,3.6060181 0 0 1 -3.601633,-3.60164 V 147.28962 a 3.6060181,3.6060181 0 0 1 3.601633,-3.60164 H 381.52413 a 3.6070991,3.6070991 0 0 1 3.60755,3.60164 z"
       fill="#3f3d56"
       id="path2"
       style="stroke-width:0.578112" />
    <rect
       x="26.287724"
       y="162.45302"
       width="359.56052"
       height="1.4411227"
       fill="#3f3d56"
       id="rect4"
       style="stroke-width:0.578112" />
    <circle
       cx="38.537292"
       cy="153.0569"
       r="4.3233738"
       fill="#3f3d56"
       id="circle6"
       style="stroke-width:0.578112" />
    <circle
       cx="50.966991"
       cy="153.0569"
       r="4.3233738"
       fill="#3f3d56"
       id="circle8"
       style="stroke-width:0.578112" />
    <circle
       cx="63.396671"
       cy="153.0569"
       r="4.3233738"
       fill="#3f3d56"
       id="circle10"
       style="stroke-width:0.578112" />
    <path
       d="M 343.21012,266.93059 H 62.825932 a 9.8389756,9.8389756 0 0 1 -9.827897,-9.82789 v -59.54551 a 9.8389813,9.8389813 0 0 1 9.827897,-9.8279 H 343.21012 a 9.8389813,9.8389813 0 0 1 9.8279,9.8279 v 59.54551 a 9.8389756,9.8389756 0 0 1 -9.8279,9.82789 z M 62.825932,188.88551 a 8.6815035,8.6815035 0 0 0 -8.671669,8.67168 v 59.54551 a 8.6815035,8.6815035 0 0 0 8.671669,8.67167 H 343.21012 a 8.6815035,8.6815035 0 0 0 8.67167,-8.67167 v -59.54551 a 8.6815035,8.6815035 0 0 0 -8.67167,-8.67168 z"
       fill="#f2f2f2"
       id="path12"
       style="stroke-width:0.578112" />
    <path
       d="M 124.68389,374.45938 H 62.825932 a 9.8389756,9.8389756 0 0 1 -9.827897,-9.82791 v -43.93649 a 9.8389813,9.8389813 0 0 1 9.827897,-9.8279 h 61.857958 a 9.8389813,9.8389813 0 0 1 9.82789,9.8279 v 43.93649 a 9.8389756,9.8389756 0 0 1 -9.82789,9.82791 z M 62.825932,312.02331 a 8.6815035,8.6815035 0 0 0 -8.671669,8.67167 v 43.93649 a 8.6815035,8.6815035 0 0 0 8.671669,8.67168 h 61.857958 a 8.6815035,8.6815035 0 0 0 8.67168,-8.67168 v -43.93649 a 8.6815035,8.6815035 0 0 0 -8.67168,-8.67167 z"
       fill="#f2f2f2"
       id="path14"
       style="stroke-width:0.578112" />
    <path
       d="m 343.21012,374.45938 h -61.85795 a 9.8389756,9.8389756 0 0 1 -9.8279,-9.82791 v -43.93649 a 9.8389813,9.8389813 0 0 1 9.8279,-9.8279 h 61.85795 a 9.8389813,9.8389813 0 0 1 9.8279,9.8279 v 43.93649 a 9.8389756,9.8389756 0 0 1 -9.8279,9.82791 z m -61.85795,-62.43607 a 8.6815035,8.6815035 0 0 0 -8.67168,8.67167 v 43.93649 a 8.6815035,8.6815035 0 0 0 8.67168,8.67168 h 61.85795 a 8.6815035,8.6815035 0 0 0 8.67167,-8.67168 v -43.93649 a 8.6815035,8.6815035 0 0 0 -8.67167,-8.67167 z"
       fill="#f2f2f2"
       id="path16"
       style="stroke-width:0.578112" />
    <path
       d="m 238.57189,374.45938 h -61.85794 a 9.8389756,9.8389756 0 0 1 -9.82791,-9.82791 v -43.93649 a 9.8389813,9.8389813 0 0 1 9.82791,-9.8279 h 61.85794 a 9.8389813,9.8389813 0 0 1 9.82791,9.8279 v 43.93649 a 9.8389756,9.8389756 0 0 1 -9.82791,9.82791 z m -61.85794,-62.43607 a 8.6815035,8.6815035 0 0 0 -8.67168,8.67167 v 43.93649 a 8.6815035,8.6815035 0 0 0 8.67168,8.67168 h 61.85794 a 8.6815035,8.6815035 0 0 0 8.67168,-8.67168 v -43.93649 a 8.6815035,8.6815035 0 0 0 -8.67168,-8.67167 z"
       fill="#f2f2f2"
       id="path18"
       style="stroke-width:0.578112" />
    <rect
       x="-172.72758"
       y="100.08043"
       width="1.15605"
       height="304.89441"
       transform="rotate(-76.25179)"
       fill="#f2f2f2"
       id="rect20"
       style="stroke-width:0.578112" />
    <rect
       x="-8.7523327"
       y="268.90051"
       width="302.29578"
       height="1.1562754"
       transform="rotate(-13.91411)"
       fill="#f2f2f2"
       id="rect22"
       style="stroke-width:0.578112" />
    <path
       d="M 354.7724,286.87532 H 74.388224 a 9.5496368,9.5496368 0 0 1 -9.538846,-9.53884 v -59.54551 a 9.5496311,9.5496311 0 0 1 9.538846,-9.53884 H 354.7724 a 9.5498275,9.5498275 0 0 1 9.53885,9.53884 v 59.54551 a 9.5498275,9.5498275 0 0 1 -9.53885,9.53884 z"
       fill="#ffffff"
       id="path24"
       style="stroke-width:0.578112" />
    <rect
       x="-143.29474"
       y="327.45215"
       width="1.1562651"
       height="93.971344"
       transform="rotate(-52.043257)"
       fill="#f2f2f2"
       id="rect26"
       style="stroke-width:0.578118" />
    <rect
       x="-98.588661"
       y="397.53265"
       width="93.6502"
       height="1.1561713"
       transform="rotate(-38.66636)"
       fill="#f2f2f2"
       id="rect28"
       style="stroke-width:0.578112" />
    <rect
       x="-213.34409"
       y="237.65411"
       width="1.1562651"
       height="93.971344"
       transform="rotate(-52.043257)"
       fill="#f2f2f2"
       id="rect30"
       style="stroke-width:0.578118" />
    <rect
       x="-187.51212"
       y="326.3772"
       width="93.6502"
       height="1.1561713"
       transform="rotate(-38.66636)"
       fill="#f2f2f2"
       id="rect32"
       style="stroke-width:0.578112" />
    <rect
       x="-78.934669"
       y="409.95691"
       width="1.1562651"
       height="93.971344"
       transform="rotate(-52.043257)"
       fill="#f2f2f2"
       id="rect34"
       style="stroke-width:0.578118" />
    <rect
       x="-16.887411"
       y="462.90903"
       width="93.6502"
       height="1.1561713"
       transform="rotate(-38.66636)"
       fill="#f2f2f2"
       id="rect36"
       style="stroke-width:0.578112" />
    <path
       d="m 247.24357,416.37247 h -61.85795 a 9.5496368,9.5496368 0 0 1 -9.53884,-9.53884 v -43.93649 a 9.5496426,9.5496426 0 0 1 9.53884,-9.53884 h 61.85795 a 9.5496368,9.5496368 0 0 1 9.53885,9.53884 v 43.93649 a 9.5496311,9.5496311 0 0 1 -9.53885,9.53884 z"
       fill="#327e62"
       id="path38"
       style="stroke-width:0.578112" />
    <path
       d="M 279.55183,417.23964 H 152.94536 a 0.57811172,0.57811172 0 0 1 0,-1.15622 h 126.60647 a 0.57811172,0.57811172 0 0 1 0,1.15622 z"
       fill="#cccccc"
       id="path40"
       style="stroke-width:0.578112" />
    <path
       d="m 224.38085,381.68577 h -16.18713 a 4.624895,4.624895 0 0 1 0,-9.24979 h 16.18713 a 4.624895,4.624895 0 0 1 0,9.24979 z"
       fill="#ffffff"
       id="path44"
       style="stroke-width:0.578112" />
    <path
       d="m 233.947,397.29479 h -35.26481 a 4.624895,4.624895 0 0 1 0,-9.24979 H 233.947 a 4.624895,4.624895 0 0 1 0,9.24979 z"
       fill="#ffffff"
       id="path46"
       style="stroke-width:0.578112" />
    <path
       d="M 134.51178,382.842 H 72.653838 a 9.5496368,9.5496368 0 0 1 -9.538847,-9.53885 v -43.93649 a 9.5496426,9.5496426 0 0 1 9.538847,-9.53885 h 61.857942 a 9.5496368,9.5496368 0 0 1 9.53885,9.53885 v 43.93649 a 9.5496311,9.5496311 0 0 1 -9.53885,9.53885 z"
       fill="#327e62"
       id="path48"
       style="stroke-width:0.578112" />
    <path
       d="M 111.64906,348.15529 H 95.461933 a 4.6248937,4.6248937 0 0 1 0,-9.24978 h 16.187127 a 4.6248937,4.6248937 0 0 1 0,9.24978 z"
       fill="#ffffff"
       id="path50"
       style="stroke-width:0.578112" />
    <path
       d="M 121.21522,363.7643 H 85.950401 a 4.6248937,4.6248937 0 1 1 0,-9.24978 h 35.264819 a 4.6248937,4.6248937 0 0 1 0,9.24978 z"
       fill="#ffffff"
       id="path52"
       style="stroke-width:0.578112" />
    <path
       d="m 356.50668,399.60723 h -61.85794 a 9.5496368,9.5496368 0 0 1 -9.53885,-9.53884 V 346.1319 a 9.5496426,9.5496426 0 0 1 9.53885,-9.53884 h 61.85794 a 9.5496368,9.5496368 0 0 1 9.53885,9.53884 v 43.93649 a 9.5496311,9.5496311 0 0 1 -9.53885,9.53884 z"
       fill="#e6e6e6"
       id="path54"
       style="stroke-width:0.578112" />
    <path
       d="m 333.64396,364.92053 h -16.18713 a 4.624895,4.624895 0 0 1 0,-9.24979 h 16.18713 a 4.624895,4.624895 0 0 1 0,9.24979 z"
       fill="#ffffff"
       id="path56"
       style="stroke-width:0.578112" />
    <path
       d="M 343.21012,380.52955 H 307.9453 a 4.624895,4.624895 0 0 1 0,-9.24979 h 35.26482 a 4.624895,4.624895 0 0 1 0,9.24979 z"
       fill="#ffffff"
       id="path58"
       style="stroke-width:0.578112" />
    <path
       d="M 388.81494,400.4744 H 262.20847 a 0.578115,0.578115 0 0 1 0,-1.15623 h 126.60647 a 0.578115,0.578115 0 0 1 0,1.15623 z"
       fill="#cccccc"
       id="path90"
       style="stroke-width:0.578112" />
    <path
       d="m 277.46148,285.85527 v 0.73113 H 153.9189 v -0.76514 l 0.66505,-0.94087 39.16708,-55.2947 a 1.9566769,1.9566769 0 0 1 3.17368,0 l 26.26372,37.0785 18.69604,-26.16236 a 1.9571452,1.9571452 0 0 1 3.16805,0 l 31.74421,44.41827 z"
       fill="#327e62"
       id="path92"
       style="stroke-width:0.578112" />
    <circle
       cx="153.6627"
       cy="234.68576"
       r="14.379563"
       fill="#327e62"
       id="circle94"
       style="stroke-width:0.578112" />
    <path
       d="M 354.77236,287.16451 H 74.388167 a 9.8389756,9.8389756 0 0 1 -9.827897,-9.8279 V 217.7911 a 9.8389813,9.8389813 0 0 1 9.827897,-9.8279 H 354.77236 a 9.8389813,9.8389813 0 0 1 9.82789,9.8279 v 59.54551 a 9.8389756,9.8389756 0 0 1 -9.82789,9.8279 z M 74.388167,209.11942 a 8.6815035,8.6815035 0 0 0 -8.67167,8.67168 v 59.54551 a 8.6815035,8.6815035 0 0 0 8.67167,8.67167 H 354.77236 a 8.6815035,8.6815035 0 0 0 8.67167,-8.67167 V 217.7911 a 8.6815035,8.6815035 0 0 0 -8.67167,-8.67168 z"
       fill="#3f3d56"
       id="path96"
       style="stroke-width:0.578112" />
  </g>
  <defs
     id="defs102" />
  <sodipodi:namedview
     id="namedview100"
     pagecolor="#ffffff"
     bordercolor="#000000"
     borderopacity="0.25"
     inkscape:showpageshadow="2"
     inkscape:pageopacity="0.0"
     inkscape:pagecheckerboard="0"
     inkscape:deskcolor="#d1d1d1"
     showgrid="false"
     inkscape:zoom="0.6930126"
     inkscape:cx="101.72975"
     inkscape:cy="343.4281"
     inkscape:window-width="1920"
     inkscape:window-height="1017"
     inkscape:window-x="-8"
     inkscape:window-y="-8"
     inkscape:window-maximized="1"
     inkscape:current-layer="svg98" />
</svg>
