<?xml version="1.0" encoding="UTF-8" standalone="no"?>
<svg
   width="500"
   height="500"
   viewBox="0 0 500 500"
   version="1.1"
   id="svg12"
   sodipodi:docname="SalesByProduct.svg"
   inkscape:version="1.2.1 (9c6d41e410, 2022-07-14)"
   xmlns:inkscape="http://www.inkscape.org/namespaces/inkscape"
   xmlns:sodipodi="http://sodipodi.sourceforge.net/DTD/sodipodi-0.dtd"
   xmlns="http://www.w3.org/2000/svg"
   xmlns:svg="http://www.w3.org/2000/svg">
  <defs
     id="defs16" />
  <sodipodi:namedview
     id="namedview14"
     pagecolor="#ffffff"
     bordercolor="#000000"
     borderopacity="0.25"
     inkscape:showpageshadow="2"
     inkscape:pageopacity="0.0"
     inkscape:pagecheckerboard="0"
     inkscape:deskcolor="#d1d1d1"
     showgrid="false"
     inkscape:zoom="1.1124969"
     inkscape:cx="-31.011322"
     inkscape:cy="216.62982"
     inkscape:window-width="1920"
     inkscape:window-height="1017"
     inkscape:window-x="-8"
     inkscape:window-y="-8"
     inkscape:window-maximized="1"
     inkscape:current-layer="svg12" />
  <g
     id="g1907"
     transform="translate(12.382062,-64.719281)">
    <rect
       id="b636d421-4358-445b-b124-1d058e78c733"
       data-name="Rectangle 341"
       x="41.426548"
       y="282.86838"
       width="84.972267"
       height="218.03052"
       fill="#e6e6e6"
       style="fill:#ff9955;stroke-width:1.09917" />
    <rect
       id="ab9c902d-64a9-4a2b-a9ec-6dc7022c80f6"
       data-name="Rectangle 342"
       x="148.83942"
       y="352.08203"
       width="84.972267"
       height="149.71571"
       fill="#e6e6e6"
       style="fill:#ffdd55;stroke-width:0.910841" />
    <rect
       id="f4a232af-026e-479b-8040-5c62e5965d9e"
       data-name="Rectangle 343"
       x="365.27518"
       y="257.54837"
       width="84.972267"
       height="247.69353"
       fill="#e6e6e6"
       style="fill:#ff8080;stroke-width:1.17156" />
    <rect
       id="ead16b6d-d132-49a9-a42f-1f570e523a46"
       data-name="Rectangle 346"
       x="258.30859"
       y="206.42151"
       width="84.972267"
       height="298.03073"
       fill="#e6e6e6"
       style="fill:#327e62;fill-opacity:1;stroke-width:1.2851" />
    <path
       id="ee50e840-b8e9-4cc0-9b2e-64e12816c6e5-167"
       data-name="Path 2645"
       d="m 193.73989,387.40909 c 0,0 -2.21429,26.57779 -2.30988,31.52283 0,0 -3.29103,2.15961 -3.31883,4.65706 -1.0919,0.0158 -1.12726,-0.003 -1.12726,-0.003 l 1.25334,-36.45107 c -5.37261,-3.39421 3.12739,-13.64336 3.759,-20.52103 -0.37071,4.74631 8.26911,18.84044 1.74363,20.7949 z"
       fill="#3f3d56"
       sodipodi:nodetypes="cccccccc"
       style="stroke-width:0.714731" />
    <path
       id="b668efb4-5504-4326-941b-9be143c4d030-168"
       data-name="Path 2646"
       d="m 67.021983,359.46341 6.466245,1.21036 14.226284,-49.3231 12.446878,-0.062 0.64199,-7.46511 -19.775687,0.24794 -2.741973,10.97139 z"
       fill="#ffffff"
       sodipodi:nodetypes="cccccccc"
       style="stroke-width:0.788799" />
    <path
       id="b699d661-049e-451c-8a7e-64343ac1c335-169"
       data-name="Path 2647"
       d="m 409.28258,277.54865 1.72102,62.43677 1.83835,-0.0685 -2.31555,-62.27714 c 12.09593,-19.72952 -22.19653,-7.52591 -1.24382,-0.0911 z"
       fill="#ffffff"
       sodipodi:nodetypes="ccccc"
       style="fill:#3f3d56;fill-opacity:1;stroke-width:0.817302" />
    <path
       id="a4f25674-ecb7-42aa-ae9a-d508200b11eb-170"
       data-name="Path 2648"
       d="m 281.61351,278.55784 c 10.41707,-0.89313 21.34219,0.14603 32.66622,2.69016 l 6.33548,-30.75336 c -10.2268,-8.58237 -25.14594,-7.47509 -36.0452,-7.70473 -2.55258,7.11344 -4.71572,15.60536 -2.9565,35.76793 z"
       fill="#3f3d56"
       sodipodi:nodetypes="ccccc"
       style="fill:#ffffff;stroke-width:0.768615" />
  </g>
  <rect
     style="fill:#e4e4e4;fill-opacity:1;stroke-width:0.542312"
     id="rect1961"
     width="486.29349"
     height="7.191031"
     x="5.3932734"
     y="435.95627" />
  <rect
     style="fill:#e4e4e4;fill-opacity:1;stroke-width:0.431185"
     id="rect1961-5"
     width="5.393271"
     height="409.88879"
     x="4.3371077"
     y="32.157417" />
</svg>
