<?xml version="1.0" encoding="UTF-8" standalone="no"?>
<svg
   data-name="Layer 1"
   width="800"
   height="800"
   viewBox="0 0 800.00001 800"
   version="1.1"
   id="svg6753"
   sodipodi:docname="ReturnsMobile.svg"
   inkscape:version="1.2.1 (9c6d41e410, 2022-07-14)"
   xmlns:inkscape="http://www.inkscape.org/namespaces/inkscape"
   xmlns:sodipodi="http://sodipodi.sourceforge.net/DTD/sodipodi-0.dtd"
   xmlns="http://www.w3.org/2000/svg"
   xmlns:svg="http://www.w3.org/2000/svg">
  <defs
     id="defs6757" />
  <sodipodi:namedview
     id="namedview6755"
     pagecolor="#ffffff"
     bordercolor="#000000"
     borderopacity="0.25"
     inkscape:showpageshadow="2"
     inkscape:pageopacity="0.0"
     inkscape:pagecheckerboard="0"
     inkscape:deskcolor="#d1d1d1"
     showgrid="false"
     inkscape:zoom="0.49573075"
     inkscape:cx="-109.93871"
     inkscape:cy="125.06789"
     inkscape:window-width="1920"
     inkscape:window-height="1017"
     inkscape:window-x="-8"
     inkscape:window-y="-8"
     inkscape:window-maximized="1"
     inkscape:current-layer="svg6753" />
  <g
     id="g12995"
     transform="translate(21.340567,-6.4706284)">
    <path
       d="m 479.33297,598.65444 a 8.7430287,8.7430287 0 0 0 12.24037,-10.95271 c 0.17799,-0.88584 0.30594,-1.52182 0.48412,-2.40781 a 23.489229,23.489229 0 0 1 39.48654,18.36736 c -1.08266,26.35242 0.21904,54.78805 -17.2962,76.03264 79.94115,-65.32459 116.39098,-176.60789 91.9782,-276.69725 -11.97901,-16.69203 -17.56717,-38.86677 -12.19508,-58.96127 6.74114,6.55637 19.88214,4.79508 17.87407,-6.55488 -1.07736,-4.48566 -2.19224,-8.95779 -3.26928,-13.44344 46.04326,-17.96686 58.0645,50.49511 3.52396,78.36945 a 280.31867,280.31867 0 0 1 7.22996,58.00073 117.86224,117.86224 0 0 1 29.90813,-46.38979 c 13.0711,-11.76871 30.35486,-18.68912 46.43412,-26.58499 19.56582,-9.63336 41.28066,9.4648 33.57693,29.8529 -13.02467,-1.66647 -22.24098,13.90168 -10.42149,22.26778 -20.75938,34.86438 -60.56444,57.02419 -101.00728,57.37614 a 281.41082,281.41082 0 0 1 -36.73169,112.79687 c 25.83572,-39.2856 75.83412,-27.97473 115.34726,-29.64856 a 13.613394,13.613394 0 0 1 12.80804,21.38053 78.62987,78.62987 0 0 0 -15.56973,0.63303 11.883803,11.883803 0 0 0 -4.35109,21.95845 c -34.66181,31.77592 -88.37176,38.60641 -130.5256,18.33002 a 289.30817,289.30817 0 0 1 -41.95597,42.8518 l -62.67031,-29.87358 c 0.1071,-0.80346 0.24777,-1.61878 0.37744,-2.41149 a 78.879524,78.879524 0 0 0 17.83364,7.23293 c -6.68571,-25.48679 -14.13576,-40.4151 6.88861,-61.5249 z"
       fill="#f2f2f2"
       id="path12335"
       style="stroke-width:1.49368" />
    <path
       d="m 368.59396,538.3633 a 8.7430136,8.7430136 0 0 1 -15.46757,-5.52649 c -0.499,-0.75328 -0.85737,-1.29403 -1.35657,-2.04727 a 23.489215,23.489215 0 0 0 -29.64146,31.90498 c 10.94289,23.99745 20.4634,50.8235 44.69828,63.89196 -98.67654,-30.34494 -174.41029,-119.65886 -189.55489,-221.5632 4.79783,-19.97753 1.60869,-42.62216 -10.94616,-59.20586 -3.77005,8.61484 -16.60477,11.94047 -19.02626,0.67147 -0.69423,-4.56068 -1.34859,-9.12299 -2.04313,-13.6836 -49.419211,0.72802 -34.72837,68.66718 26.29757,73.90958 a 280.31904,280.31904 0 0 0 15.18212,56.44342 117.86205,117.86205 0 0 0 -45.19725,-31.68157 c -16.54474,-5.9689 -35.16214,-5.85859 -53.031998,-7.10603 -21.754244,-1.54149 -34.661122,24.33681 -19.836062,40.313 11.433958,-6.45633 25.841832,4.48543 18.051118,16.69187 32.376862,24.45847 77.600292,29.96677 115.188382,15.03751 a 281.41052,281.41052 0 0 0 76.56568,90.60931 c -38.74589,-26.63829 -80.78448,2.69665 -118.01015,16.05094 a 13.613394,13.613394 0 0 0 -3.79713,24.63227 78.629378,78.629378 0 0 1 14.65839,-5.28668 11.883803,11.883803 0 0 1 12.3124,18.69515 c 44.08735,16.35409 96.40626,2.42046 127.79789,-32.25871 a 289.30767,289.30767 0 0 0 55.02055,23.86045 l 46.77248,-51.30626 c -0.40229,-0.70368 -0.84006,-1.40572 -1.25918,-2.09098 a 78.879,78.879 0 0 1 -13.78798,13.42555 c -3.42191,-26.12594 -2.15317,-42.7617 -29.58716,-54.38167 z"
       fill="#f2f2f2"
       id="path12337"
       style="stroke-width:1.49368" />
    <path
       d="m 380.6312,321.5668 a 8.7430287,8.7430287 0 0 0 4.05457,-15.91693 c -0.34614,-0.83461 -0.59447,-1.43393 -0.94056,-2.26868 a 23.489229,23.489229 0 0 1 43.02022,-6.76823 c 13.79412,22.47988 30.72894,45.35977 28.03375,72.76147 29.9408,-98.79994 -1.84675,-211.50366 -77.91779,-280.980736 -19.25094,-7.177885 -36.25344,-22.470428 -42.99757,-42.146921 9.25163,1.684198 19.17852,-7.104715 11.18336,-15.407213 -3.39534,-3.123045 -6.8143,-6.213931 -10.20932,-9.33717 28.20505,-40.586512 76.3554,9.544238 46.62035,63.09302 a 280.31904,280.31904 0 0 1 38.34025,44.11783 117.86217,117.86217 0 0 1 -1.03661,-55.185487 c 4.28921,-17.057521 14.77873,-32.438998 23.72447,-47.958702 10.87133,-18.906022 39.54594,-15.158949 44.51816,6.061352 -11.74149,5.87851 -10.71226,23.940903 3.76407,24.295936 2.20541,40.516832 -18.48324,81.106021 -51.86036,103.947091 a 281.41057,281.41057 0 0 1 32.39745,114.11729 c -0.4564,-47.01738 47.35585,-65.50441 79.22412,-88.9245 a 13.613394,13.613394 0 0 1 22.55321,10.60772 78.628944,78.628944 0 0 0 -12.57215,9.20644 11.883803,11.883803 0 0 0 8.63092,20.65459 c -11.05755,45.70429 -51.83614,81.32058 -98.13497,87.99116 a 289.30824,289.30824 0 0 1 -10.93737,58.96571 l -68.68136,10.14267 c -0.35903,-0.72674 -0.69688,-1.48195 -1.0312,-2.21232 a 78.879882,78.879882 0 0 0 18.83718,-3.93883 C 389.4538,359.05328 374.94586,350.81448 380.6293,321.56815 Z"
       fill="#f2f2f2"
       id="path12339"
       style="stroke-width:1.49368" />
    <path
       d="m 449.70802,299.5449 c -31.26809,0 -48.22806,-3.82099 -54.15099,-11.97715 -5.22639,-7.19636 -1.7227,-16.69156 2.33462,-27.68558 2.91589,-7.90236 6.22051,-16.85859 6.22051,-25.72293 0,-43.11395 21.8611,-64.97506 64.97505,-64.97506 21.45122,0 44.48363,11.39513 61.61208,30.48258 15.57132,17.35236 23.32854,38.12019 21.28275,56.97789 v 0 c -1.67821,15.46557 -8.87675,25.63614 -22.65463,32.00908 l -0.80592,0.37271 -0.22901,-0.85771 a 36.659674,36.659674 0 0 0 -5.93606,-12.30899 42.118937,42.118937 0 0 1 -4.29432,16.68939 l -0.14669,0.29683 -0.31798,0.0911 c -15.59394,4.44164 -34.10083,5.64506 -48.48185,6.19644 q -10.49915,0.40921 -19.40764,0.41138 z"
       fill="#2f2e41"
       id="path12341"
       style="stroke-width:1.49368" />
    <path
       d="M 458.23024,359.61567 A 23.400505,23.400505 0 0 0 421.79663,348.6144 l -102.84969,61.49082 -32.1833,-78.52721 a 22.848695,22.848695 0 1 0 -25.24539,9.07467 c 1.98361,22.64464 13.00747,123.85766 51.35758,120.17847 32.2351,-3.09257 112.28797,-56.40612 137.15244,-74.89133 a 23.40297,23.40297 0 0 0 8.20197,-26.32415 z"
       fill="#ffb6b6"
       id="path12343"
       style="stroke-width:1.49368" />
    <path
       d="m 535.73515,806.23842 h -89.5162 l -15.01149,-74.22093 -4.86939,74.22093 h -83.15313 a 1696.2705,1696.2705 0 0 1 9.0965,-174.50652 l 1.03064,-3.51015 1.62811,-5.61623 1.03064,-3.52509 17.20719,-59.08996 1.35926,-4.69015 h 103.61653 a 151.6758,151.6758 0 0 1 16.44541,18.16314 c 1.68786,2.1509 3.4504,4.48104 5.25775,6.99043 1.25469,1.77747 2.55419,3.64456 3.85369,5.60129 a 188.19913,188.19913 0 0 1 25.54193,56.16234 v 0.0148 q 1.36671,5.1308 2.41975,10.50058 v 0.0149 c 0.62735,3.18153 1.18001,6.40788 1.61318,9.70892 0.32862,2.40482 0.61241,4.83952 0.82152,7.30408 a 167.44646,167.44646 0 0 1 -1.29958,40.95665 z"
       fill="#2f2e41"
       id="path12345"
       style="stroke-width:1.49368" />
    <ellipse
       cx="10.945341"
       cy="133.18193"
       rx="11.287228"
       ry="7.8519897"
       transform="rotate(-21.16137)"
       fill="#e6e6e6"
       id="ellipse12347"
       style="stroke-width:1.49368" />
    <ellipse
       cx="82.59465"
       cy="150.84889"
       rx="11.287228"
       ry="7.851974"
       transform="rotate(-21.16137)"
       fill="#3f3d56"
       id="ellipse12349"
       style="stroke-width:1.49368" />
    <ellipse
       cx="-17.518093"
       cy="189.12726"
       rx="11.287228"
       ry="7.8519897"
       transform="rotate(-21.16137)"
       fill="#ff6584"
       id="ellipse12351"
       style="stroke-width:1.49368" />
    <ellipse
       cx="-17.417973"
       cy="212.32156"
       rx="4.962451"
       ry="7.1335287"
       transform="rotate(-13.31636)"
       fill="#e6e6e6"
       id="ellipse12353"
       style="stroke-width:1.49368" />
    <ellipse
       cx="-28.583458"
       cy="257.60391"
       rx="4.962451"
       ry="7.1335287"
       transform="rotate(-13.31636)"
       fill="#3f3d56"
       id="ellipse12355"
       style="stroke-width:1.49368" />
    <ellipse
       cx="56.179451"
       cy="178.40254"
       rx="4.962451"
       ry="7.1335287"
       transform="rotate(-13.31636)"
       fill="#e6e6e6"
       id="ellipse12357"
       style="stroke-width:1.49368" />
    <ellipse
       cx="20.821987"
       cy="160.41365"
       rx="4.962451"
       ry="7.1335287"
       transform="rotate(-13.31636)"
       fill="#ff6584"
       id="ellipse12359"
       style="stroke-width:1.49368" />
    <ellipse
       cx="70.475021"
       cy="128.03516"
       rx="4.962451"
       ry="7.1335287"
       transform="rotate(-13.31636)"
       fill="#3f3d56"
       id="ellipse12361"
       style="stroke-width:1.49368" />
    <ellipse
       cx="-256.64377"
       cy="363.07062"
       rx="7.8519897"
       ry="11.287228"
       transform="rotate(-49.59538)"
       fill="#e6e6e6"
       id="ellipse12363"
       style="stroke-width:1.49368" />
    <ellipse
       cx="-238.97679"
       cy="291.4213"
       rx="7.851974"
       ry="11.287228"
       transform="rotate(-49.59538)"
       fill="#3f3d56"
       id="ellipse12365"
       style="stroke-width:1.49368" />
    <ellipse
       cx="-200.69841"
       cy="391.53406"
       rx="7.8519897"
       ry="11.287228"
       transform="rotate(-49.59538)"
       fill="#ff6584"
       id="ellipse12367"
       style="stroke-width:1.49368" />
    <ellipse
       cx="-122.80479"
       cy="441.14218"
       rx="7.1335287"
       ry="4.962451"
       transform="rotate(-41.75038)"
       fill="#e6e6e6"
       id="ellipse12369"
       style="stroke-width:1.49368" />
    <ellipse
       cx="-77.522476"
       cy="452.30765"
       rx="7.1335287"
       ry="4.962451"
       transform="rotate(-41.75038)"
       fill="#3f3d56"
       id="ellipse12371"
       style="stroke-width:1.49368" />
    <ellipse
       cx="-156.72382"
       cy="367.54471"
       rx="7.1335287"
       ry="4.962451"
       transform="rotate(-41.75038)"
       fill="#e6e6e6"
       id="ellipse12373"
       style="stroke-width:1.49368" />
    <ellipse
       cx="-174.71266"
       cy="402.90225"
       rx="7.1335287"
       ry="4.962451"
       transform="rotate(-41.75038)"
       fill="#ff6584"
       id="ellipse12375"
       style="stroke-width:1.49368" />
    <ellipse
       cx="-207.09114"
       cy="353.24921"
       rx="7.1335287"
       ry="4.962451"
       transform="rotate(-41.75038)"
       fill="#3f3d56"
       id="ellipse12377"
       style="stroke-width:1.49368" />
    <ellipse
       cx="342.60345"
       cy="217.31277"
       rx="7.8519897"
       ry="11.287228"
       transform="rotate(-26.18799)"
       fill="#e6e6e6"
       id="ellipse12379"
       style="stroke-width:1.49368" />
    <ellipse
       cx="324.93652"
       cy="288.9621"
       rx="7.851974"
       ry="11.287228"
       transform="rotate(-26.18799)"
       fill="#3f3d56"
       id="ellipse12381"
       style="stroke-width:1.49368" />
    <ellipse
       cx="286.65811"
       cy="188.84937"
       rx="7.8519897"
       ry="11.287228"
       transform="rotate(-26.18799)"
       fill="#ff6584"
       id="ellipse12383"
       style="stroke-width:1.49368" />
    <ellipse
       cx="287.17877"
       cy="122.0764"
       rx="7.1335287"
       ry="4.962451"
       transform="rotate(-18.34298)"
       fill="#e6e6e6"
       id="ellipse12385"
       style="stroke-width:1.49368" />
    <ellipse
       cx="241.89639"
       cy="110.9109"
       rx="7.1335287"
       ry="4.962451"
       transform="rotate(-18.34298)"
       fill="#3f3d56"
       id="ellipse12387"
       style="stroke-width:1.49368" />
    <ellipse
       cx="321.09781"
       cy="195.67375"
       rx="7.1335287"
       ry="4.962451"
       transform="rotate(-18.34298)"
       fill="#e6e6e6"
       id="ellipse12389"
       style="stroke-width:1.49368" />
    <ellipse
       cx="339.08667"
       cy="160.31627"
       rx="7.1335287"
       ry="4.962451"
       transform="rotate(-18.34298)"
       fill="#ff6584"
       id="ellipse12391"
       style="stroke-width:1.49368" />
    <ellipse
       cx="371.46518"
       cy="209.96936"
       rx="7.1335287"
       ry="4.962451"
       transform="rotate(-18.34298)"
       fill="#3f3d56"
       id="ellipse12393"
       style="stroke-width:1.49368" />
    <path
       d="m 434.5855,311.54753 49.31532,-2.54042 22.90557,36.19368 c 0,0 43.09753,7.20534 40.11018,57.99045 -2.98736,50.7851 -52.43683,95.34926 -52.43683,95.34926 l 2.11382,26.44664 -3.67117,10.48978 0.47077,5.89004 5.00817,6.23779 0.5156,6.451 -4.43719,10.20664 6.03411,9.77285 -126.8641,-12.29115 -4.63909,-16.8995 6.76744,-9.07487 -3.78008,-11.83664 5.68285,-11.3849 2.96325,-36.16357 c 0,0 -32.41906,-48.70505 4.79702,-85.389 l 14.9368,-25.39255 16.71299,-20.39063 z"
       fill="#327e62"
       id="path12395"
       style="stroke-width:1.49368" />
    <circle
       cx="459.10187"
       cy="249.07251"
       r="52.255253"
       fill="#ffb6b6"
       id="circle12397"
       style="stroke-width:1.49368" />
    <path
       d="m 452.10534,245.90519 q -6.75441,0 -13.50145,-0.38072 l -0.80373,-0.0453 0.10574,-0.7979 a 36.601226,36.601226 0 0 0 -1.09546,-14.89596 42.126391,42.126391 0 0 1 -10.26606,14.49914 l -0.24944,0.22829 -0.3355,-0.0365 A 257.89709,257.89709 0 0 1 389.73693,237.87 l -0.45584,-0.11666 -0.0911,-0.46095 a 68.384887,68.384887 0 0 1 -1.37406,-13.26078 c 0,-13.91498 5.0448,-25.62667 14.206,-32.97764 9.97075,-8.00154 24.26426,-10.46232 40.26079,-6.93306 h 51.15121 a 21.23443,21.23443 0 0 1 21.21055,21.21054 v 32.39193 l -0.55794,0.14578 a 244.68253,244.68253 0 0 1 -61.98118,8.03589 z"
       fill="#2f2e41"
       id="path12399"
       style="stroke-width:1.49368" />
    <path
       d="m 95.544255,187.78011 a 9.2065771,9.2065771 0 0 0 -5.491217,11.7894 l 55.181402,151.41255 a 9.206592,9.206592 0 0 0 11.78919,5.49164 l 214.16834,-78.05238 a 9.2065771,9.2065771 0 0 0 5.49121,-11.78939 L 321.50177,115.21937 a 9.206592,9.206592 0 0 0 -11.78918,-5.49164 z"
       fill="#cccccc"
       id="path12401"
       style="stroke-width:1.49368" />
    <path
       d="M 291.48299,299.12346 160.3899,346.89955 a 9.9088006,9.9088006 0 0 1 -12.68852,-5.9105 L 97.65233,203.6592 a 9.9088006,9.9088006 0 0 1 5.91012,-12.68871 l 202.06618,-73.64183 a 9.9090694,9.9090694 0 0 1 12.68882,5.9105 l 24.1832,66.35642 a 85.534507,85.534507 0 0 1 -51.01766,109.52788 z"
       fill="#ffffff"
       id="path12403"
       style="stroke-width:1.49368" />
    <path
       d="m 197.15453,199.91407 -31.15218,11.35323 a 3.1663093,3.1663093 0 1 1 -2.16836,-5.94981 l 31.15218,-11.35323 a 3.1663114,3.1663114 0 0 1 2.16838,5.94981 z"
       fill="#327e62"
       id="path12405"
       style="stroke-width:1.49368" />
    <path
       d="m 271.4218,186.63132 -100.98511,36.80344 a 3.1663166,3.1663166 0 1 1 -2.16838,-5.94982 L 269.25344,180.6815 a 3.1663126,3.1663126 0 0 1 2.16836,5.94982 z"
       fill="#327e62"
       id="path12407"
       style="stroke-width:1.49368" />
    <path
       d="m 276.51184,200.59791 -100.98512,36.80342 a 3.1663072,3.1663072 0 1 1 -2.16837,-5.9498 l 100.98511,-36.80345 a 3.1663208,3.1663208 0 0 1 2.16838,5.94983 z"
       fill="#327e62"
       id="path12409"
       style="stroke-width:1.49368" />
    <path
       d="m 281.60188,214.56448 -100.98511,36.80344 a 3.1663178,3.1663178 0 1 1 -2.16839,-5.94982 L 279.4335,208.61467 a 3.1663114,3.1663114 0 0 1 2.16838,5.94981 z"
       fill="#327e62"
       id="path12411"
       style="stroke-width:1.49368" />
    <path
       d="M 286.69192,228.53107 185.70674,265.3345 a 3.1663099,3.1663099 0 1 1 -2.16837,-5.94981 l 100.98511,-36.80343 a 3.1663114,3.1663114 0 0 1 2.16838,5.94981 z"
       fill="#327e62"
       id="path12413"
       style="stroke-width:1.49368" />
    <path
       d="m 607.11797,267.31928 -55.29029,132.31013 a 23.145773,23.145773 0 0 1 -29.97909,12.48129 v 0 a 23.145817,23.145817 0 0 1 -12.33057,-31.24477 l 61.6465,-135.67711 33.98342,-84.02151 a 20.198041,20.198041 0 1 1 25.82346,2.26165 z"
       fill="#ffb6b6"
       id="path12415"
       style="stroke-width:1.49368" />
  </g>
</svg>
