<?xml version="1.0" encoding="UTF-8" standalone="no"?>
<svg
   data-name="Layer 1"
   width="1200.953"
   height="537"
   viewBox="0 0 1200.953 537"
   version="1.1"
   id="svg78"
   sodipodi:docname="Returns.svg"
   inkscape:version="1.2.1 (9c6d41e410, 2022-07-14)"
   xmlns:inkscape="http://www.inkscape.org/namespaces/inkscape"
   xmlns:sodipodi="http://sodipodi.sourceforge.net/DTD/sodipodi-0.dtd"
   xmlns="http://www.w3.org/2000/svg"
   xmlns:svg="http://www.w3.org/2000/svg">
  <defs
     id="defs82" />
  <sodipodi:namedview
     id="namedview80"
     pagecolor="#ffffff"
     bordercolor="#000000"
     borderopacity="0.25"
     inkscape:showpageshadow="2"
     inkscape:pageopacity="0.0"
     inkscape:pagecheckerboard="0"
     inkscape:deskcolor="#d1d1d1"
     showgrid="false"
     inkscape:zoom="0.75440855"
     inkscape:cx="542.80933"
     inkscape:cy="218.71438"
     inkscape:window-width="1920"
     inkscape:window-height="1017"
     inkscape:window-x="-8"
     inkscape:window-y="-8"
     inkscape:window-maximized="1"
     inkscape:current-layer="svg78" />
  <g
     id="g12075"
     transform="translate(-18.346239,8.0310494)">
    <path
       d="m 569.67679,446.20551 6.38783,-20.80349 A 70.215581,70.215581 0 0 0 547.9977,406.59775 c 10.49945,17.39449 0.32546,40.08585 4.56511,59.95625 a 42.234748,42.234748 0 0 0 22.62155,28.78203 l 9.69356,12.01071 a 70.772136,70.772136 0 0 0 5.20171,-59.02887 68.361851,68.361851 0 0 0 -7.91547,-15.21396 c -5.76031,6.77198 -12.48737,13.1016 -12.48737,13.1016 z"
       fill="#f2f2f2"
       id="path11317"
       style="stroke-width:0.799993" />
    <path
       d="m 534.5528,448.86354 -3.56056,-21.46886 a 70.215587,70.215587 0 0 0 -33.50743,-4.31331 c 17.15506,10.88624 18.16883,35.73339 30.82531,51.62742 a 42.234773,42.234773 0 0 0 33.08346,15.67237 l 14.03269,6.42694 a 70.772151,70.772151 0 0 0 -21.67,-55.15315 68.361707,68.361707 0 0 0 -13.86982,-10.08699 c -2.13555,8.63016 -5.33365,17.29558 -5.33365,17.29558 z"
       fill="#f2f2f2"
       id="path11319"
       style="stroke-width:0.799993" />
    <polygon
       points="503.386,569.293 521.539,569.294 521.537,616.734 509.237,616.733 "
       fill="#ffb6b6"
       id="polygon11321"
       transform="matrix(0.79999357,0,0,0.79999357,326.39428,8.6246146)" />
    <path
       d="m 746.12953,511.54537 -31.72615,-8.1e-4 v -0.40128 a 12.349373,12.349373 0 0 1 12.3487,-12.34853 h 8e-4 l 5.79522,-4.39653 10.81255,4.39721 2.76951,1.1e-4 z"
       fill="#2f2e41"
       id="path11323"
       style="stroke-width:0.799993" />
    <polygon
       points="673.137,552.804 685.514,539.526 720.217,571.872 711.831,580.869 "
       fill="#ffb6b6"
       id="polygon11325"
       transform="matrix(0.79999357,0,0,0.79999357,326.39428,8.6246146)" />
    <path
       d="m 911.25117,470.78569 -21.63182,23.20809 -0.29351,-0.2736 a 12.349373,12.349373 0 0 1 -0.61408,-17.45276 l 5.6e-4,-5.8e-4 0.73487,-7.23698 10.58871,-4.91178 1.88839,-2.02592 z"
       fill="#2f2e41"
       id="path11327"
       style="stroke-width:0.799993" />
    <path
       d="m 888.00407,444.78936 -10.3999,21.75131 -63.86285,-42.28376 -9.29059,-12.65847 -30.46281,-41.50564 -12.38286,19.64849 -8.61633,20.53983 v 0 a 22.641418,22.641418 0 0 0 -10.13957,16.52327 l -0.39423,3.63638 5.44458,48.94552 -20.69416,6.35421 -11.8851,-65.75155 3.88516,-14.2478 3.99998,-19.99984 20.13882,-63.19949 h 53.89103 l 30.90975,65.79322 2.25953,13.40614 8.76397,10.05805 z"
       fill="#2f2e41"
       id="path11329"
       style="stroke-width:0.799993" />
    <path
       d="m 776.00813,219.14131 9.07193,6.90794 10.94071,3.36208 c 0,0 4.52299,63.62216 8.59846,67.69761 4.07545,4.07545 0.39988,4.185 1.2188,9.47926 0.81891,5.29425 2.80931,16.14688 2.80931,16.14688 -27.50943,14.56195 -51.22544,14.95257 -70.27544,-2.08738 a 4.7449059,4.7449059 0 0 1 2.58886,-5.35566 c 3.54552,-1.88129 -3.26842,-10.66196 -0.37089,-12.13007 2.89754,-1.46813 -1.1779,-14.20389 -1.1779,-14.20389 l 2.67347,-26.57225 -2.11218,-4.24762 5.15449,-25.99066 8.94404,-3.26637 3.57277,-8.60814 z"
       fill="#3f3d56"
       id="path11331"
       style="stroke-width:0.799993" />
    <path
       d="m 781.69124,332.21938 a 7.8642169,7.8642169 0 0 1 8.96581,-8.06412 l 12.78522,-24.85073 7.12306,12.65576 -13.23308,21.65842 a 7.9068245,7.9068245 0 0 1 -15.64096,-1.39932 z"
       fill="#ffb6b6"
       id="path11333"
       style="stroke-width:0.799993" />
    <path
       d="m 803.22259,326.14026 27.42248,-42.50159 -0.0905,-0.19556 c -0.10355,-0.22405 -6.3133,-13.63557 -12.3303,-25.91966 -0.9266,-1.89171 -1.84863,-3.7567 -2.74308,-5.54267 q -0.57904,-1.15618 -1.14083,-2.26402 c -2.52719,-4.98223 -4.73517,-9.10016 -6.05314,-11.05624 a 23.212045,23.212045 0 0 0 -12.30011,-9.33084 l -0.12688,-0.0326 -0.12114,0.0504 a 11.779369,11.779369 0 0 0 -7.01022,12.95791 83.436234,83.436234 0 0 0 15.48221,35.00373 l 4.44561,5.85974 -15.44912,33.58789 z"
       fill="#3f3d56"
       id="path11335"
       style="stroke-width:0.799993" />
    <path
       d="m 708.92466,163.22497 a 7.8642008,7.8642008 0 0 1 -1.88704,11.91029 l 5.71643,27.35586 -13.50279,-5.34609 -3.35832,-25.15797 a 7.9068245,7.9068245 0 0 1 13.03167,-8.76209 z"
       fill="#ffb6b6"
       id="path11337"
       style="stroke-width:0.799993" />
    <path
       d="m 696.02627,181.50571 5.46037,50.28483 0.19345,0.095 c 0.15943,0.0784 7.07725,3.47146 15.56892,7.51243 1.43252,0.68169 1.2272,3.63462 2.72438,4.3404 1.03129,0.48614 3.75471,-1.27784 4.79675,-0.79054 9.28177,4.34056 18.66722,8.56121 22.40766,9.70485 a 23.212054,23.212054 0 0 0 15.43084,-0.49679 l 0.1191,-0.0545 0.0623,-0.11551 a 11.779369,11.779369 0 0 0 -2.7138,-14.48052 83.436226,83.436226 0 0 0 -34.069,-17.44309 l -7.14339,-1.75269 -9.1488,-35.82068 z"
       fill="#3f3d56"
       id="path11339"
       style="stroke-width:0.799993" />
    <circle
       cx="766.33557"
       cy="198.34773"
       r="17.944479"
       fill="#ffb6b6"
       id="circle11341"
       style="stroke-width:0.799993" />
    <path
       d="m 748.51971,186.32336 c 1.4757,-4.2932 8.82188,-7.27099 20.73117,-7.68504 11.90928,-0.41405 14.92972,13.6205 14.92972,13.6205 7.95033,6.44933 -8.48939,23.71581 -9.28473,23.09395 l 0.3576,-3.24404 c 0.59222,-5.37334 3.10837,-9.56594 -0.0916,-15.1659 l -3.07277,0.0353 q -5.95276,1.14468 -11.90551,2.28936 l 4.69829,-4.13672 -0.13248,-0.20498 a 18.181014,18.181014 0 0 1 -6.41327,1.94727 c -2.5252,0.14843 -5.28589,-0.85655 -6.49542,-3.07822 a 5.1724705,5.1724705 0 0 1 -0.58031,-1.96804 c -3.40522,1.3605 -4.96236,5.55844 -4.96236,5.55844 0,0 0.74597,-6.76867 2.22167,-11.06186 z"
       fill="#2f2e41"
       id="path11343"
       style="stroke-width:0.799993" />
    <path
       d="m 398.69249,187.3999 a 9.6122353,9.6122353 0 0 0 -0.78508,-0.87893 c 0.0683,-0.0939 0.13656,-0.19624 0.20485,-0.29009 z"
       fill="#2f2e41"
       id="path11345"
       style="stroke-width:0.799993" />
    <path
       d="m 402.18243,259.57187 c -2.93535,5.2137 -8.79752,8.12342 -14.60847,9.54842 a 36.502491,36.502491 0 0 1 -19.85628,-0.38396 c -0.81914,-0.2645 -1.63832,-0.57173 -2.43188,-0.91302 a 20.952928,20.952928 0 0 0 0.9045,-3.11456 21.361308,21.361308 0 0 0 0.44373,-4.36036 13.76529,13.76529 0 0 1 -2.48314,3.42175 12.555611,12.555611 0 0 1 -2.60255,2.09053 25.557483,25.557483 0 0 1 -7.55167,-7.01408 c 0.12796,-0.31572 0.256,-0.63144 0.37545,-0.94715 a 34.041527,34.041527 0 0 0 1.46765,-5.06859 34.659002,34.659002 0 0 0 0.72534,-7.09091 22.280749,22.280749 0 0 1 -4.04468,5.56346 18.135262,18.135262 0 0 1 -1.55296,1.47624 20.417924,20.417924 0 0 1 1.2287,-15.70925 c 3.37908,-6.24616 9.93241,-9.95799 15.769,-13.99407 5.84507,-4.03614 11.69019,-9.49723 12.18508,-16.58814 0.33279,-4.78699 -1.88575,-9.58257 -0.99835,-14.29275 a 11.043111,11.043111 0 0 1 18.75549,-5.67446 c -3.3108,4.69314 -6.60452,9.54841 -7.9442,15.12898 -1.36526,5.68299 -0.24745,12.34726 4.23238,16.11027 1.53592,1.29702 3.42172,2.21859 4.60783,3.83983 1.57858,2.15034 1.58713,5.01741 1.8431,7.66266 0.51197,5.14537 2.19299,10.09449 3.09747,15.18868 0.91305,5.08573 0.96424,10.60655 -1.56154,15.12048 z"
       fill="#2f2e41"
       id="path11347"
       style="stroke-width:0.799993" />
    <polygon
       points="62.898,551.747 48.53,540.646 19.519,578.195 29.254,585.716 "
       fill="#a0616a"
       id="polygon11349"
       transform="matrix(0.79999357,0,0,0.79999357,326.39428,8.6246146)" />
    <path
       d="m 342.34068,465.29748 12.87829,8.77753 -4.07548,5.27436 5.45813,17.12679 a 4.1635026,4.1635026 0 0 1 -6.51266,4.55915 l -14.65614,-11.32471 1.50506,-7.16914 -5.01762,4.455 -5.52595,-4.26988 z"
       fill="#2f2e41"
       id="path11351"
       style="stroke-width:0.799993" />
    <path
       d="m 381.51988,202.55989 a 18.588723,18.588723 0 1 0 31.97261,-12.8932 l -0.0892,-0.0891 c -0.14873,-0.15621 -0.29745,-0.31233 -0.4536,-0.46109 a 0.00727994,0.00727994 0 0 1 -0.008,-0.008 c -0.19332,-0.17844 -0.38667,-0.35688 -0.58744,-0.52789 -3.27158,-2.87008 -7.86984,-5.98532 -12.56163,-5.98532 -10.26841,0 -18.27332,9.69562 -18.27332,19.96407 z"
       fill="#2f2e41"
       id="path11353"
       style="stroke-width:0.799993" />
    <path
       d="m 487.47279,193.01387 a 6.8090414,6.8090414 0 0 1 -7.37354,7.39193 l -46.03038,41.56061 -7.92128,-12.51066 47.73716,-36.91881 a 6.8459211,6.8459211 0 0 1 13.58805,0.47689 z"
       fill="#a0616a"
       id="path11355"
       style="stroke-width:0.799993" />
    <path
       d="m 414.39621,254.51104 c 0,0 1.71265,3.16318 7.56288,-1.72105 4.68356,-3.91018 27.12208,-20.88575 31.95611,-27.84195 a 5.349069,5.349069 0 0 0 6.2977,-1.82864 l -13.24486,-11.59962 c -3.96289,0.45619 -3.87796,3.11837 -3.46525,4.62982 l -9.99084,4.52656 -25.79944,16.48766 5.40513,15.08276 z"
       fill="#327e62"
       id="path11357"
       style="stroke-width:0.799993" />
    <polygon
       points="76.531,370.716 121.615,373.194 120.215,340.612 115.845,333.432 78.761,343.789 77.555,349.532 "
       fill="#a0616a"
       id="polygon11359"
       transform="matrix(0.79999357,0,0,0.79999357,326.39428,8.6246146)" />
    <circle
       cx="404.68832"
       cy="206.86079"
       r="15.587444"
       fill="#a0616a"
       id="circle11361"
       style="stroke-width:0.799993" />
    <path
       d="m 377.01466,264.35433 -0.0958,-12.95692 a 20.620762,20.620762 0 0 1 15.96923,-20.09904 l 0.0588,-0.0138 3.08222,-4.15296 12.52254,1.25268 2.29524,4.69089 9.07398,5.40309 3.49362,11.23082 a 13.281574,13.281574 0 0 1 5.73927,8.89499 c 1.18611,7.57635 -4.11856,15.15707 -4.74957,16.02627 l -1.62578,9.15639 -35.36784,6.24041 -0.2872,0.0363 z"
       fill="#327e62"
       id="path11363"
       style="stroke-width:0.799993" />
    <path
       d="m 423.76239,204.08187 a 53.142061,53.142061 0 0 1 -5.64888,3.11452 32.505203,32.505203 0 0 1 -6.16079,2.22718 21.293357,21.293357 0 0 0 -2.21857,-3.78011 13.74717,13.74717 0 0 1 0.017,4.22379 22.005711,22.005711 0 0 1 -10.5041,-0.86179 l -2.93534,-4.92355 -0.22187,5.49524 c -2.43188,0.44374 -4.85528,0.86185 -7.28714,1.29704 -0.14506,0.017 -0.2901,0.0512 -0.42667,0.0769 -1.51038,-6.80931 0.63145,-14.30985 5.39286,-18.84935 a 17.155863,17.155863 0 0 1 18.02168,-3.49856 c 0.38399,0.1536 0.77647,0.32425 1.15192,0.50347 a 0.00836792,0.00836792 0 0 0 0.009,0.009 c 0.22187,0.11088 0.4096,0.37539 0.65707,0.34983 10.64913,-1.18617 10.99048,7.07376 10.15427,14.61695 z"
       fill="#2f2e41"
       id="path11365"
       style="stroke-width:0.799993" />
    <polygon
       points="132.623,526.535 118.233,515.464 89.297,553.071 99.047,560.572 "
       fill="#a0616a"
       id="polygon11367"
       transform="matrix(0.79999357,0,0,0.79999357,326.39428,8.6246146)" />
    <path
       d="m 398.85801,445.74153 12.89597,8.75149 -4.06481,5.28259 5.49269,17.11572 a 4.1635026,4.1635026 0 0 1 -6.50343,4.57226 l -14.67898,-11.2951 1.49058,-7.17217 -5.00861,4.46513 -5.53458,-4.25871 z"
       fill="#2f2e41"
       id="path11369"
       style="stroke-width:0.799993" />
    <path
       d="m 372.52087,417.84479 -3.8e-4,-0.10166 3.6967,-6.37027 -3.77475,-8.29231 -0.11326,-21.30441 0.61189,-3.1982 a 26.905152,26.905152 0 0 0 -0.69759,-12.92668 v 0 l -0.069,-12.96793 c -0.13261,-3.24859 4.89995,-6.10577 3.72637,-8.81403 -11.09289,-25.599 11.32756,-45.12749 11.47901,-45.28423 l 0.45818,-0.47634 2.48589,1.88284 2.36607,0.003 31.92918,5.81802 0.23054,0.42987 c 1.25583,2.35554 3.67947,10.4747 3.82324,14.14888 1.5913,1.84217 19.71745,22.81693 21.32875,24.27426 10.88856,9.85202 17.12268,26.15855 19.86959,35.00197 a 14.043639,14.043639 0 0 1 -2.40491,12.91409 l -41.22098,45.15061 -11.09289,-10.23959 22.30429,-40.64376 -1.60837,-4.12364 a 12.674298,12.674298 0 0 1 -7.38938,-4.29284 l -4.51648,-5.36096 a 10.023183,10.023183 0 0 1 -2.28764,-5.21356 l -2.73894,-0.32967 -9.811,-10.30074 -6.80666,61.64122 -1.85053,4.86937 -32.22671,37.88653 -13.65279,-8.53299 z"
       fill="#2f2e41"
       id="path11371"
       style="stroke-width:0.799993" />
    <path
       d="m 367.5993,153.16469 a 6.8090332,6.8090332 0 0 0 2.0987,10.2277 l -10.2474,30.33737 8.36758,32.1496 13.49278,-6.0999 -8.32609,-24.24954 6.22924,-35.29708 a 6.8459211,6.8459211 0 0 0 -11.61481,-7.06816 z"
       fill="#a0616a"
       id="path11373"
       style="stroke-width:0.799993" />
    <path
       d="m 379.94997,252.36883 c 0,0 -3.16907,1.70171 -5.37305,-5.59372 -1.76445,-5.84054 -13.77231,-37.55191 -13.98869,-46.02007 a 5.3490851,5.3490851 0 0 1 -4.25688,-4.98839 l 17.44001,-2.41345 c 3.06031,2.55875 1.52649,4.7363 0.35114,5.77234 l 5.93996,10.06143 12.41538,27.16252 -10.2153,14.82992 z"
       fill="#327e62"
       id="path11375"
       style="stroke-width:0.799993" />
    <path
       d="m 388.79922,210.87272 a 31.706753,31.706753 0 0 1 24.41075,-21.21347 c 0.0222,-0.008 0.0967,-0.0371 0.19334,-0.0817 0.0595,-0.0371 0.13382,-0.0744 0.20817,-0.11156 -0.22307,-0.12638 -0.43867,-0.23789 -0.66178,-0.34953 a 0.00727994,0.00727994 0 0 1 -0.008,-0.008 c -0.19332,-0.17844 -0.38667,-0.35688 -0.58744,-0.52789 l -0.5651,0.0223 c 0,0 -19.86018,-3.14519 -22.99055,22.26925 z"
       fill="#fd6584"
       id="path11377"
       style="stroke-width:0.799993" />
    <ellipse
       cx="37.12923"
       cy="741.92975"
       rx="7.0853028"
       ry="8.1556625"
       transform="rotate(-56.36398)"
       fill="#f2f2f2"
       id="ellipse11379"
       style="stroke-width:0.799993" />
    <ellipse
       cx="113.99725"
       cy="637.94135"
       rx="7.0853028"
       ry="8.1556625"
       transform="rotate(-56.36398)"
       fill="#f2f2f2"
       id="ellipse11381"
       style="stroke-width:0.799993" />
    <ellipse
       cx="60.060375"
       cy="894.82568"
       rx="7.0853028"
       ry="8.1556625"
       transform="rotate(-56.36398)"
       fill="#f2f2f2"
       id="ellipse11383"
       style="stroke-width:0.799993" />
    <ellipse
       cx="179.70558"
       cy="368.42114"
       rx="7.0853028"
       ry="8.1556625"
       transform="rotate(-56.36398)"
       fill="#f2f2f2"
       id="ellipse11385"
       style="stroke-width:0.799993" />
    <ellipse
       cx="307.83505"
       cy="491.68454"
       rx="7.0853028"
       ry="8.1556625"
       transform="rotate(-56.36398)"
       fill="#f2f2f2"
       id="ellipse11387"
       style="stroke-width:0.799993" />
    <ellipse
       cx="-5.9037008"
       cy="601.73499"
       rx="7.0853028"
       ry="8.1556625"
       transform="rotate(-56.36398)"
       fill="#e6e6e6"
       id="ellipse11389"
       style="stroke-width:0.799993" />
    <path
       d="M 862.60379,512.31176 H 342.37273 a 0.95254431,0.95254431 0 0 1 0,-1.90508 h 520.23106 a 0.95254032,0.95254032 0 0 1 0,1.90508 z"
       fill="#cccccc"
       id="path11391"
       style="stroke-width:0.799993" />
    <path
       d="m 439.20023,195.95261 a 17.792057,17.792057 0 0 1 -17.6358,-15.86432 L 411.40827,85.763653 a 17.783978,17.783978 0 0 1 15.76041,-19.56391 L 728.72954,33.729691 a 17.784057,17.784057 0 0 1 19.56469,15.760032 l 10.15617,94.324247 a 17.784658,17.784658 0 0 1 -15.76081,19.56468 l -0.0429,-0.39765 0.0429,0.39765 -301.56087,32.47005 a 17.994879,17.994879 0 0 1 -1.92849,0.10391 z"
       fill="#e6e6e6"
       id="path11393"
       style="stroke-width:0.799993" />
    <path
       d="m 725.40808,38.108569 a 15.881696,15.881696 0 0 0 -1.69607,0.09142 l -290.68829,31.29934 a 15.567236,15.567236 0 0 0 -13.81121,17.144394 l 5.13511,47.691417 a 59.048606,59.048606 0 0 0 65.03111,52.38864 L 693.781,164.71499 a 58.86952,58.86952 0 0 0 52.22926,-64.8335 L 740.85601,52.011169 A 15.570595,15.570595 0 0 0 725.40808,38.108542 Z"
       fill="#ffffff"
       id="path11395"
       style="stroke-width:0.799993" />
    <path
       d="M 664.19342,87.741663 501.72396,105.23536 a 3.5554115,3.5554115 0 1 1 -0.76125,-7.069945 L 663.43216,80.671716 a 3.5554115,3.5554115 0 1 1 0.76126,7.069947 z"
       fill="#327e62"
       id="path11397"
       style="stroke-width:0.799993" />
    <path
       d="m 666.52974,109.4398 -162.46947,17.4937 a 3.5554126,3.5554126 0 0 1 -0.76125,-7.06996 l 162.46947,-17.4937 a 3.5554126,3.5554126 0 0 1 0.76125,7.06996 z"
       fill="#327e62"
       id="path11399"
       style="stroke-width:0.799993" />
    <path
       d="m 525.32998,146.59244 -18.93345,2.03865 a 3.5554126,3.5554126 0 0 1 -0.76125,-7.06996 l 18.93345,-2.03864 a 3.5554115,3.5554115 0 1 1 0.76125,7.06995 z"
       fill="#327e62"
       id="path11401"
       style="stroke-width:0.799993" />
    <circle
       cx="432.80771"
       cy="83.343765"
       r="6.3999486"
       fill="#3f3d56"
       id="circle11403"
       style="stroke-width:0.799993" />
    <circle
       cx="719.20538"
       cy="51.344002"
       r="6.3999486"
       fill="#3f3d56"
       id="circle11405"
       style="stroke-width:0.799993" />
    <path
       d="m 632.6807,189.13235 a 5.2697017,5.2697017 0 0 1 -1.78894,-4.15654 70.126909,70.126909 0 0 0 -4.50382,-27.26111 5.2696938,5.2696938 0 0 1 0.35697,-4.51106 5.1509347,5.1509347 0 0 1 3.55897,-2.50381 c 7.43881,-4.48895 15.06461,-5.74921 22.67031,-3.74498 a 5.2116222,5.2116222 0 0 1 5.73058,3.59283 115.98548,115.98548 0 0 1 5.09176,30.81987 5.2113102,5.2113102 0 0 1 -4.35668,5.26014 l -22.50644,3.7183 a 5.1499986,5.1499986 0 0 1 -4.25271,-1.21364 z"
       fill="#327e62"
       id="path11407"
       style="stroke-width:0.799993" />
    <path
       d="m 634.67972,162.048 18.94305,-3.12957 a 1.1999904,1.1999904 0 1 0 -0.39119,-2.36788 l -18.94305,3.12958 a 1.1999904,1.1999904 0 0 0 0.39119,2.36787 z"
       fill="#ffffff"
       id="path11409"
       style="stroke-width:0.799993" />
    <path
       d="m 636.24451,171.51953 18.94305,-3.12958 a 1.1999912,1.1999912 0 0 0 -0.3912,-2.36787 l -18.94305,3.12956 a 1.1999904,1.1999904 0 1 0 0.3912,2.36788 z"
       fill="#ffffff"
       id="path11411"
       style="stroke-width:0.799993" />
    <path
       d="m 637.80931,180.99106 18.94305,-3.12957 a 1.1999938,1.1999938 0 0 0 -0.3912,-2.36789 l -18.94305,3.12958 a 1.1999915,1.1999915 0 1 0 0.3912,2.36788 z"
       fill="#ffffff"
       id="path11413"
       style="stroke-width:0.799993" />
  </g>
</svg>
