<?xml version="1.0" encoding="UTF-8" standalone="no"?>
<svg
   data-name="Layer 1"
   width="800"
   height="800"
   viewBox="0 0 800.00001 800"
   version="1.1"
   id="svg6753"
   sodipodi:docname="ReviewThumbsUp.svg"
   inkscape:version="1.2.1 (9c6d41e410, 2022-07-14)"
   xmlns:inkscape="http://www.inkscape.org/namespaces/inkscape"
   xmlns:sodipodi="http://sodipodi.sourceforge.net/DTD/sodipodi-0.dtd"
   xmlns="http://www.w3.org/2000/svg"
   xmlns:svg="http://www.w3.org/2000/svg">
  <defs
     id="defs6757" />
  <sodipodi:namedview
     id="namedview6755"
     pagecolor="#ffffff"
     bordercolor="#000000"
     borderopacity="0.25"
     inkscape:showpageshadow="2"
     inkscape:pageopacity="0.0"
     inkscape:pagecheckerboard="0"
     inkscape:deskcolor="#d1d1d1"
     showgrid="false"
     inkscape:zoom="1.4021383"
     inkscape:cx="340.90788"
     inkscape:cy="300.25569"
     inkscape:window-width="1920"
     inkscape:window-height="1017"
     inkscape:window-x="-8"
     inkscape:window-y="-8"
     inkscape:window-maximized="1"
     inkscape:current-layer="svg6753" />
  <path
     d="m 1002.6643,512.5916 113.621,-34.05394 c 0,0 28.8899,28.97784 -19.4624,50.15849 l -77.7467,26.18116 z"
     fill="#9f616a"
     id="path6688-6"
     sodipodi:nodetypes="ccccc" />
  <path
     d="m 940.03789,556.67367 32.22239,-5.54063 c 0,0 26.20372,31.42779 -23.83776,48.23299 z"
     fill="#9f616a"
     id="path6690" />
  <path
     d="m 956.2894,616.50193 32.22239,-5.54063 c 0,0 26.20371,31.42778 -23.83776,48.23301 z"
     fill="#9f616a"
     id="path6692" />
  <path
     d="m 963.56668,678.76793 32.22239,-5.54063 c 0,0 26.20373,31.42778 -23.83777,48.233 z"
     fill="#9f616a"
     id="path6694" />
  <rect
     x="452.26376"
     y="1012.7246"
     width="20.430164"
     height="1.0001202"
     transform="rotate(-35.418998)"
     opacity="0.2"
     id="rect6702" />
  <rect
     x="430.83286"
     y="1070.903"
     width="20.430164"
     height="1.0001202"
     transform="rotate(-35.418998)"
     opacity="0.2"
     id="rect6704" />
  <rect
     x="301.90933"
     y="1160.2864"
     width="10.35283"
     height="0.99980998"
     transform="rotate(-40.835902)"
     opacity="0.2"
     id="rect6706" />
  <path
     d="m 1077.8467,619.15356 2.6499,16.56 v 114.17 a 29.01752,29.01752 0 0 1 -3.79,14.4 l -26.6196,-46.67 -9.5904,-97.74 -2.3896,-24.41 36.0698,0.76 z"
     fill="#9f616a"
     id="path6712" />
  <g
     id="g6997"
     transform="translate(1.4263928,146.91846)"
     style="fill:#ffccaa">
    <path
       d="m 212.55695,506.26834 -2.46059,9.38608 c 100.28408,14.09628 236.26665,17.87041 290.11352,-4.72201 61.91419,-75.38283 92.88204,-153.43385 59.73815,-231.19888 -18.14622,-21.26549 -178.08932,-18.57659 -178.08932,-18.57659 z"
       fill="#9f616a"
       id="path6686"
       sodipodi:nodetypes="cccccc"
       style="fill:#ffccaa" />
    <path
       d="m 146.24108,298.37755 118.68375,-8.93996 46.88368,-33.60125 90.40745,-88.51441 29.74866,-40.28552 c 0,0 40.81252,15.46896 -16.00984,91.93306 l -26.19564,42.01479 v 0 c 5.61512,31.01387 -5.27871,60.35154 -13.24605,90.846 l -27.38273,104.80558 c -6.44776,24.67838 -137.06191,70.32214 -162.55028,71.29193 l -40.26444,-3.88572 z"
       fill="#9f616a"
       id="path6720"
       sodipodi:nodetypes="cccccccsssscc"
       style="fill:#ffccaa" />
    <polygon
       points="257.728,125.255 275.778,77.932 276.712,78.289 258.272,126.636 245.33,120.276 245.771,119.378 "
       opacity="0.2"
       id="polygon6722"
       transform="rotate(14.642442,129.3815,755.08863)"
       style="fill:#2b1100" />
  </g>
  <rect
     style="fill:#fde047;fill-opacity:1"
     id="rect7572-4"
     width="19.256283"
     height="151.91081"
     x="424.27475"
     y="62.49395"
     ry="12.480934"
     rx="7.8451509" />
  <rect
     style="fill:#fde047;fill-opacity:1"
     id="rect7572-4-1"
     width="19.256283"
     height="151.91081"
     x="-126.61601"
     y="179.98251"
     ry="12.480934"
     rx="7.8451509"
     transform="rotate(-58.803031)" />
  <rect
     style="fill:#fde047;fill-opacity:1"
     id="rect7572-4-1-2"
     width="19.256283"
     height="151.91081"
     x="555.95667"
     y="410.30011"
     ry="12.480934"
     rx="7.8451509"
     transform="matrix(0.51798177,0.85539165,0.85539165,-0.51798177,0,0)" />
</svg>
