<?xml version="1.0" encoding="UTF-8" standalone="no"?>
<svg
   width="731.66998"
   height="511.11554"
   viewBox="0 0 731.66998 511.11554"
   version="1.1"
   id="svg71"
   sodipodi:docname="ShoppingBag.svg"
   inkscape:version="1.2.1 (9c6d41e410, 2022-07-14)"
   xmlns:inkscape="http://www.inkscape.org/namespaces/inkscape"
   xmlns:sodipodi="http://sodipodi.sourceforge.net/DTD/sodipodi-0.dtd"
   xmlns="http://www.w3.org/2000/svg"
   xmlns:svg="http://www.w3.org/2000/svg">
  <defs
     id="defs75" />
  <sodipodi:namedview
     id="namedview73"
     pagecolor="#ffffff"
     bordercolor="#000000"
     borderopacity="0.25"
     inkscape:showpageshadow="2"
     inkscape:pageopacity="0.0"
     inkscape:pagecheckerboard="0"
     inkscape:deskcolor="#d1d1d1"
     showgrid="false"
     inkscape:zoom="0.57897709"
     inkscape:cx="482.74794"
     inkscape:cy="374.79894"
     inkscape:window-width="1920"
     inkscape:window-height="1017"
     inkscape:window-x="-8"
     inkscape:window-y="-8"
     inkscape:window-maximized="1"
     inkscape:current-layer="svg71" />
  <path
     d="m0,509.69553c0,.66.53,1.19,1.19,1.19h729.28998c.65997,0,1.19-.53,1.19-1.19s-.53003-1.19-1.19-1.19H1.19c-.66,0-1.19.53-1.19,1.19Z"
     fill="#3f3d58"
     id="path2" />
  <polygon
     points="548.58002,460.80551 399.42999,461.78552 376.26001,451.12552 389.76001,313.41553 403.34,314.10553 543.07001,321.21551 "
     fill="#064e3b"
     id="polygon26"
     transform="matrix(2.1526588,0,0,1.8032332,-628.83396,-463.06851)" />
  <polygon
     points="389.76001,313.41553 403.34,314.10553 399.42999,461.78552 376.26001,451.12552 "
     fill="#272223"
     isolation="isolate"
     opacity="0.2"
     id="polygon28"
     transform="matrix(2.1526588,0,0,1.8032332,-628.83396,-463.06851)" />
  <g
     id="g362"
     transform="matrix(1.5936068,0,0,1.3967437,-376.18811,-207.6055)">
    <path
       d="m 485.25,336.45553 c -4.64999,0 -9.72,-1.14001 -14.73001,-2.26001 -3.70999,-0.82999 -6.98001,-1.04001 -9.60001,-1.20001 -3.98001,-0.25 -7.13,-0.45001 -8.88,-2.78 -1.73001,-2.29999 -1.73001,-6.20999 0,-13.92001 2.29999,-10.23999 7.42001,-26.60001 13.67999,-40.06 8.09,-17.35999 15.85999,-25.35001 23.10999,-23.72 9.70999,2.17999 13.57999,18.38998 15.03,27.85001 2.01999,13.20999 1.84,28.91 -0.44,39.07001 v 0 c -3.01999,13.45001 -9.95001,17.01001 -18.17999,17.01001 l 0.01,0.01 z m 1.76999,-81.13 c -5.32999,0 -11.87,7.78 -18.57001,22.17999 -6.17001,13.25 -11.20999,29.35999 -13.48001,39.45001 -1.45001,6.48001 -1.60999,10.01001 -0.53,11.45999 0.92001,1.22 3.32999,1.38 6.66,1.57999 2.73001,0.17001 6.13,0.38 10.07001,1.26999 15.66,3.51001 25.45001,4.79001 29.32001,-12.48001 4.14999,-18.5 0.98999,-60.35001 -12.32001,-63.34 -0.38,-0.09 -0.76999,-0.13 -1.16,-0.13 z"
       fill="#dfdfe0"
       id="path24" />
    <path
       d="m 487.5,311.05551 c -2.76999,0 -5.79999,-0.67999 -8.78,-1.35001 -2.20999,-0.5 -4.16,-0.62 -5.73001,-0.72 -2.37,-0.14999 -4.25,-0.26999 -5.29001,-1.66 -1.03,-1.37 -1.03,-3.70001 0,-8.29999 1.37,-6.10999 4.42001,-15.85999 8.16,-23.88 4.82001,-10.35001 9.45999,-15.10999 13.78,-14.14001 5.79001,1.29999 8.10001,10.95999 8.95999,16.61002 1.20001,7.88 1.10001,17.23999 -0.26001,23.29001 v 0 c -1.79999,8.01999 -5.92999,10.14001 -10.84,10.14001 l 3e-5,0.01 z m 1.06,-48.37 c -3.17999,0 -7.07999,4.64001 -11.07001,13.23001 -3.67999,7.89999 -6.69,17.5 -8.03,23.51999 -0.87,3.85999 -0.95999,5.97 -0.31,6.82999 0.54999,0.73001 1.98001,0.82001 3.97,0.94 1.63,0.10001 3.64999,0.23001 6,0.76001 9.32999,2.09 15.17001,2.85001 17.48001,-7.44 2.47,-11.03 0.59,-35.98001 -7.34,-37.76001 -0.23001,-0.05 -0.45999,-0.08 -0.69,-0.08 h -0.01 z"
       fill="#dfdfe0"
       id="path30" />
    <polygon
       points="430.56,297.32553 438.66,297.73553 521.96997,301.97552 525.25,385.20553 436.32999,385.78552 422.51001,379.43552 "
       fill="#e2e3e4"
       id="polygon32" />
    <polygon
       points="422.51001,379.43552 430.56,297.32553 438.66,297.73553 436.32999,385.78552 "
       fill="#272223"
       isolation="isolate"
       opacity="0.2"
       id="polygon34" />
  </g>
</svg>
