<?xml version="1.0" encoding="UTF-8" standalone="no"?>
<svg
   data-name="Layer 1"
   width="500"
   height="500"
   viewBox="0 0 500.00002 500.00001"
   version="1.1"
   id="svg407"
   sodipodi:docname="UserType.svg"
   inkscape:version="1.2.1 (9c6d41e410, 2022-07-14)"
   xmlns:inkscape="http://www.inkscape.org/namespaces/inkscape"
   xmlns:sodipodi="http://sodipodi.sourceforge.net/DTD/sodipodi-0.dtd"
   xmlns:xlink="http://www.w3.org/1999/xlink"
   xmlns="http://www.w3.org/2000/svg"
   xmlns:svg="http://www.w3.org/2000/svg"
   xmlns:rdf="http://www.w3.org/1999/02/22-rdf-syntax-ns#"
   xmlns:cc="http://creativecommons.org/ns#"
   xmlns:dc="http://purl.org/dc/elements/1.1/">
  <sodipodi:namedview
     id="namedview409"
     pagecolor="#ffffff"
     bordercolor="#000000"
     borderopacity="0.25"
     inkscape:showpageshadow="2"
     inkscape:pageopacity="0.0"
     inkscape:pagecheckerboard="0"
     inkscape:deskcolor="#d1d1d1"
     showgrid="false"
     inkscape:zoom="1.4700134"
     inkscape:cx="160.20262"
     inkscape:cy="270.74583"
     inkscape:window-width="1920"
     inkscape:window-height="1017"
     inkscape:window-x="-8"
     inkscape:window-y="-8"
     inkscape:window-maximized="1"
     inkscape:current-layer="svg407" />
  <defs
     id="defs11">
    <linearGradient
       id="ac59aa7e-40f5-4d5f-b82f-fdd6bf7d03ee-647"
       x1="439.31"
       y1="679.56"
       x2="439.39999"
       y2="679.56"
       gradientUnits="userSpaceOnUse">
      <stop
         offset="0"
         stop-color="gray"
         stop-opacity="0.25"
         id="stop2" />
      <stop
         offset="0.54"
         stop-color="gray"
         stop-opacity="0.12"
         id="stop4" />
      <stop
         offset="1"
         stop-color="gray"
         stop-opacity="0.1"
         id="stop6" />
    </linearGradient>
    <linearGradient
       id="72a3db62-0825-44ad-a640-19754e14ba99-648"
       x1="186.82001"
       y1="533.62"
       x2="458.12"
       y2="533.62"
       xlink:href="#ac59aa7e-40f5-4d5f-b82f-fdd6bf7d03ee-647"
       gradientTransform="translate(-17.96,-172.03)" />
    <linearGradient
       id="060ac890-45f2-497a-b51d-740a183b02f3-649"
       x1="-1193.63"
       y1="706.12"
       x2="-1193.63"
       y2="383.51999"
       gradientTransform="translate(1979.37,-172.03)"
       xlink:href="#ac59aa7e-40f5-4d5f-b82f-fdd6bf7d03ee-647" />
    <linearGradient
       inkscape:collect="always"
       xlink:href="#ac59aa7e-40f5-4d5f-b82f-fdd6bf7d03ee-647"
       id="linearGradient3511"
       gradientUnits="userSpaceOnUse"
       x1="439.31"
       y1="679.56"
       x2="439.39999"
       y2="679.56"
       gradientTransform="translate(-17.96,-172.03)" />
  </defs>
  <title
     id="title13">design tools</title>
  <g
     id="g4264"
     transform="matrix(0.42906184,0,0,0.46134707,2.0439045,102.19776)">
    <path
       d="m 1155.21,461.06 a 83.63,83.63 0 0 1 -23,27.6 c -1.36,1.09 -2.75,2.14 -4.16,3.17 q -2.85,2 -5.84,3.93 c -15.49,9.83 -33.63,16.55 -51.34,21.45 q -7.24,2 -14.53,3.76 -6.15,1.49 -12.31,2.78 c -1.56,0.34 -3.12,0.66 -4.68,1 -1.56,0.34 -3.35,0.67 -5,1 l -2.37,0.45 c -45.82,8.45 -92.24,10.06 -139,7.94 l -2.22,-0.11 -3.55,-0.18 q -14.24,-0.74 -28.51,-1.89 l -3.6,-0.29 -1.59,-0.13 q -8,-0.67 -16,-1.47 -10.54,-1 -21.11,-2.21 l -0.91,-0.1 -0.74,-0.09 v 0 c -25.15,-2.83 -50.36,-6.23 -75.6,-9.72 l -3.57,-0.5 -6.41,-0.89 -5.4,-0.75 v 0 l -1.6,-0.22 q -12.78,-1.79 -25.56,-3.54 l -1.38,-0.19 c -16,-2.19 -32.09,-4.3 -48.13,-6.22 l -2.09,-0.25 v 0 q -9.85,-1.17 -19.69,-2.23 l -5,-0.53 -6.65,-0.67 c -18.43,-1.83 -36.85,-3.29 -55.23,-4.2 q -13.26,-0.66 -26.58,-1 -11,-0.25 -22,-0.29 -14.92,-0.07 -29.9,0.17 v 0 h -2.26 c -14.07,0.23 -28.17,0.63 -42.28,1.11 l -2.54,0.08 h -0.84 c -30,1.06 -60,2.47 -89.92,3.48 l -7.31,0.24 h -1.06 q -15.6,0.5 -31.17,0.77 h -2.75 -0.09 -3.34 l -4.64,0.06 q -7.23,0.07 -14.43,0.08 h -5.89 c -17.62,-0.05 -35.17,-0.44 -52.61,-1.35 L 216.89,501 C 183,499.17 149.49,495.39 116.58,488.52 q -5.11,-1.07 -10.2,-2.24 a 468.41,468.41 0 0 1 -66.8,-20.31 c -10.24,-4 -20.54,-8.62 -28.33,-16.44 -19.76,-20 -12.34,-59.17 13.37,-70.56 20.11,-8.91 43.67,-1.66 65.3,-5.68 a 33.38,33.38 0 0 0 3.93,-1 54.61,54.61 0 0 0 8,-3.3 c 0.88,-0.44 1.76,-0.91 2.65,-1.4 2,-1.09 4,-2.3 5.92,-3.62 a 90.88,90.88 0 0 0 9,-6.83 q 1.9,-1.62 3.7,-3.36 a 70.77,70.77 0 0 0 10.92,-13.07 46.19,46.19 0 0 0 3,-5.64 c 0.47,-1 0.89,-2.08 1.24,-3.12 a 29.06,29.06 0 0 0 1.19,-4.62 c 1.26,-7.42 -0.78,-14.66 -7.88,-20.78 a 20.94,20.94 0 0 0 -2,-1.51 30.56,30.56 0 0 0 -4.34,-2.51 c -0.61,-0.29 -1.24,-0.57 -1.88,-0.84 -9.14,-3.85 -20.93,-5.33 -30.87,-8 v 0 a 54.5,54.5 0 0 1 -8.84,-3.07 c -1.81,-0.84 -3.61,-1.72 -5.38,-2.64 v 0 l -0.47,-0.26 v 0 a 120.39,120.39 0 0 1 -39,-32 104.24,104.24 0 0 1 -7.26,-10.54 c -0.67,-1.1 -1.32,-2.23 -1.94,-3.36 -17.57,-31.7 -19.38,-72.32 -1.1,-103.49 a 97.93,97.93 0 0 1 7.4,-10.86 q 1.32,-1.71 2.73,-3.36 c 17.4,-20.53 42.4,-34.44 67.64,-44.74 33.88,-13.82 69.35,-22.55 105.5,-28.3 q 11,-1.75 22,-3.14 c 30.7,-3.92 61.76,-6 92.6,-7.58 q 43.27,-2.19 86.92,-2.83 14.79,-0.2 29.61,-0.17 33.39,0 66.78,1.29 11,0.42 22,1 28.21,1.46 56.31,4 13.5,1.22 26.94,2.69 c 68.24,7.46 135.49,20.11 200.42,39.78 q 11.05,3.34 22,7 a 849.57,849.57 0 0 1 80.39,31.07 q 3.72,1.67 7.42,3.36 24.59,11.28 48.48,24.31 a 539.15,539.15 0 0 1 60.6,38 q 11.32,8.3 22,17.32 a 316.44,316.44 0 0 1 35.11,34.64 q 1.44,1.67 2.85,3.36 7.32,8.79 13.9,18.21 c 21.4,30.76 35.76,65.94 46.36,101.88 9.35,31.36 15.57,66.57 0.74,95.8 z"
       fill="#327e62"
       opacity="0.1"
       id="path15" />
    <path
       d="m 1141.76,353.78 h -85.43 V 245.11 h 38 q -1.41,-1.69 -2.85,-3.36 h -35.11 v -34.64 q -10.66,-9 -22,-17.32 v 52 H 837.42 V 127.47 h 87.81 q -3.71,-1.69 -7.42,-3.36 H 837.42 V 93.04 q -11,-3.63 -22,-7 v 38 H 534.34 l -0.67,-0.64 81.31,-77.18 q -13.44,-1.48 -26.94,-2.69 l -56.31,53.44 v -57.4 q -11,-0.58 -22,-1 v 62.09 L 442.95,37.28 q -14.81,0 -29.61,0.17 l 90.56,85.95 -0.67,0.64 H 233.8 V 47.97 q -11,1.39 -22,3.14 v 73 H 38.64 q -1.41,1.65 -2.73,3.36 H 211.78 V 241.75 H 29.57 c 0.62,1.13 1.27,2.26 1.94,3.36 h 180.27 v 108.67 h -88.67 q -1.8,1.74 -3.7,3.36 h 92.37 v 111.2 q 11,1.57 22,3.28 V 357.14 h 275.93 v 139.33 q 11,0 22,0.29 V 357.14 H 815.4 v 170.57 l 0.91,0.1 q 10.56,1.18 21.11,2.21 V 357.14 h 196.89 V 525.7 c 1.68,-0.31 3.36,-0.64 5,-1 1.64,-0.36 3.12,-0.63 4.68,-1 q 6.16,-1.31 12.31,-2.78 V 357.14 h 86.12 c -0.22,-1.12 -0.44,-2.24 -0.66,-3.36 z m -632.05,0 H 233.8 V 245.11 h 275.91 z m 0,-112 H 233.8 V 127.47 h 272 l 3.88,3.06 z m 305.69,112 H 531.73 V 245.11 H 815.4 Z m 0,-112 H 531.73 V 127.47 H 815.4 Z m 218.91,112 H 837.42 V 245.11 h 196.89 z"
       fill="#327e62"
       opacity="0.1"
       id="path17" />
    <path
       d="m 297.19,507.21 c 0,0.11 -0.08,0.22 -0.11,0.33 v 0 c 0,-0.11 0.07,-0.22 0.12,-0.33 z"
       fill="#eaecf0"
       id="path19" />
    <path
       d="m 302.41,502.42 h -2.75 -0.09 -3.34 l -4.64,0.06 -0.51,-5.27 -0.47,-5 -2.18,-22.81 -0.07,-0.7 v -0.31 l -0.61,-6.42 9.34,-3.5 1.14,9.31 0.08,0.69 v 0.08 l 2.31,18.9 0.71,5.8 0.41,3.37 0.35,2.89 v 0.1 z"
       fill="#eaecf0"
       id="path21" />
    <polygon
       points="335.94,507.2 336.05,507.53 335.31,507.53 335.2,507.2 "
       fill="#3a3768"
       id="polygon23" />
    <path
       d="M 421.44,507.52 Z"
       fill="#3a3768"
       id="path25" />
    <path
       d="m 480.78,375.45 c 0,0.2 0,0.31 0,0.31 v 0.12 c 0,0 -8.72,23.83 -11.56,44.17 q -0.29,2 -0.48,4 c -0.14,1.41 -0.25,2.79 -0.31,4.13 -0.08,1.57 -0.1,3.09 -0.06,4.54 0,0.33 0,0.67 0,1 0,0.67 0.07,1.36 0.11,2.07 0.04,0.71 0.1,1.42 0.16,2.16 0.06,0.74 0.12,1.39 0.19,2.1 2.15,22 10.32,54.21 10.32,54.21 0,0 0.27,0.87 0.62,2.35 h -2.26 c -14.07,0.23 -28.17,0.63 -42.28,1.11 l -2.54,0.08 h -0.84 c -30,1.06 -60,2.47 -89.92,3.48 l -7.31,0.24 h -1.06 q -15.6,0.5 -31.17,0.77 h -2.75 a 16.85,16.85 0 0 1 2.42,-2.73 17.6,17.6 0 0 1 2.45,-1.9 55.14,55.14 0 0 1 15.35,-6.59 12.24,12.24 0 0 1 3.51,-0.43 l 7,0.14 h 1.08 l 10.74,0.21 92.12,1.83 h 0.23 l 0.65,-0.13 a 17.25,17.25 0 0 0 3.11,-1.1 10.92,10.92 0 0 0 6.56,-8.48 c 0,-0.31 0.08,-0.64 0.1,-1 a 11.8,11.8 0 0 0 0,-1.46 c 0,-0.34 0,-0.7 -0.08,-1.07 -0.08,-0.37 -0.1,-0.74 -0.17,-1.12 -2.22,-12.41 -6,-50.61 -6,-50.61 v 0.12 c 0,0 0,-1.63 0.09,-4.37 0,-0.21 0,-0.44 0,-0.67 v -0.59 c 0,-0.61 0.07,-1.27 0.11,-2 0,-0.43 0.06,-0.87 0.09,-1.33 0.05,-0.67 0.11,-1.36 0.17,-2.08 a 0.59,0.59 0 0 1 0,-0.13 q 0.06,-0.68 0.12,-1.38 c 0,0 0,-0.1 0,-0.15 1.49,-14.75 6.18,-38.1 21,-46.75 6.95,-4.07 11.55,-4.89 14.58,-4.09 4.42,1.16 5.53,5.76 5.77,8.75 0,0.2 0,0.39 0,0.58 a 14.61,14.61 0 0 1 0.14,1.69 z"
       fill="#3a3768"
       id="path27" />
    <path
       d="m 297.19,507.21 c 0,0.11 -0.08,0.22 -0.11,0.33 v 0 c 0,-0.11 0.07,-0.22 0.12,-0.33 z"
       opacity="0.1"
       id="path29" />
    <polygon
       points="335.94,507.2 336.05,507.53 335.31,507.53 335.2,507.2 "
       opacity="0.1"
       id="polygon31" />
    <path
       d="M 421.44,507.52 Z"
       opacity="0.1"
       id="path33" />
    <path
       d="m 480.78,375.45 c 0,0.2 0,0.31 0,0.31 0,0 -7.19,19.65 -10.62,38.49 v 0 q -0.36,2 -0.66,3.87 c -0.1,0.64 -0.19,1.28 -0.28,1.92 q -0.29,2 -0.48,4 c -0.14,1.41 -0.25,2.79 -0.31,4.13 -0.08,1.57 -0.1,3.09 -0.06,4.54 0,0.33 0,0.67 0,1 0,0.67 0.07,1.36 0.11,2.07 0.04,0.71 0.1,1.43 0.16,2.16 0.06,0.73 0.12,1.39 0.19,2.1 0.07,0.71 0.14,1.39 0.22,2.09 0.32,2.83 0.72,5.8 1.18,8.82 3.13,20.37 8.92,43.19 8.92,43.19 0,0 0.29,0.92 0.64,2.46 v 0 h -2.26 c -14.07,0.23 -28.17,0.63 -42.28,1.11 l -2.54,0.08 h -0.84 c -30,1.06 -60,2.47 -89.92,3.48 l -7.31,0.24 h -1.06 q -15.6,0.5 -31.17,0.77 h -2.75 -0.09 a 17.18,17.18 0 0 1 2.5,-2.83 16.56,16.56 0 0 1 2.46,-1.92 55.74,55.74 0 0 1 15.35,-6.59 12.59,12.59 0 0 1 3.51,-0.42 l 7,0.14 h 1.08 l 10.77,0.21 92.19,1.82 h 0.16 c 0,0 0.27,0 0.72,-0.15 a 16.16,16.16 0 0 0 3.13,-1.13 10.91,10.91 0 0 0 6.47,-8.31 c 0,-0.31 0.08,-0.64 0.1,-1 a 11.8,11.8 0 0 0 0,-1.46 c 0,-0.34 0,-0.7 -0.08,-1.07 -0.08,-0.37 -0.1,-0.81 -0.17,-1.23 -2.22,-12.41 -6,-50.61 -6,-50.61 0,0 0,-1.63 0.09,-4.37 0,-0.21 0,-0.44 0,-0.67 v -0.59 c 0,-0.61 0.07,-1.27 0.11,-2 0,-0.43 0.06,-0.87 0.09,-1.33 0.05,-0.67 0.11,-1.36 0.17,-2.08 a 0.59,0.59 0 0 1 0,-0.13 q 0.06,-0.68 0.12,-1.38 c 0,0 0,-0.1 0,-0.15 0.18,-1.84 0.42,-3.82 0.72,-5.89 2.08,-14.48 7.28,-33.39 20.24,-41 6.77,-4 11.3,-4.84 14.34,-4.15 4.68,1.07 5.79,5.89 6,8.93 0,0.2 0,0.39 0,0.58 a 14.61,14.61 0 0 1 0.14,1.95 z"
       opacity="0.1"
       id="path35" />
    <path
       d="m 297.19,507.21 c 0,0.11 -0.08,0.22 -0.11,0.33 v 0 c 0,-0.11 0.07,-0.22 0.12,-0.33 z"
       fill="#3a3768"
       id="path37" />
    <polygon
       points="335.94,507.2 336.05,507.53 335.31,507.53 335.2,507.2 "
       fill="#3a3768"
       id="polygon39" />
    <path
       d="M 421.44,507.52 Z"
       fill="#3a3768"
       id="path41" />
    <path
       d="m 478.22,374.6 c 0,0 -13.05,35.66 -12.42,57 0.63,21.34 10.82,61.44 10.82,61.44 0,0 0.44,1.41 0.91,3.66 -14.07,0.23 -28.17,0.63 -42.28,1.11 l -2.54,0.08 h -0.84 c -30,1.06 -60,2.47 -89.92,3.48 l -7.31,0.24 h -1.06 q -15.6,0.5 -31.17,0.77 h -2.75 -0.09 -3.34 a 18,18 0 0 1 5.49,-5.77 l 0.27,-0.19 a 55.66,55.66 0 0 1 15.34,-6.45 12.59,12.59 0 0 1 3.51,-0.42 l 9.24,0.18 h 1.08 l 11.13,0.22 89.75,1.79 a 15.09,15.09 0 0 0 3.71,-1.21 10.66,10.66 0 0 0 1.14,-0.61 v 0 a 12,12 0 0 0 3,-2.45 c 1.89,-2.15 3.15,-5.35 2.31,-10 -2.23,-12.41 -6,-50.61 -6,-50.61 0,0 -0.64,-46.48 21.64,-59.53 9,-5.27 14.06,-5.09 16.89,-3 a 1.88,1.88 0 0 1 0.24,0.18 c 3.9,3.14 3.25,10.09 3.25,10.09 z"
       fill="#3a3768"
       id="path43" />
    <path
       d="m 119.12,462.1 -0.36,3.73 -2.18,22.89 q -5.11,-1.07 -10.2,-2.24 l 2.55,-20.81 0.86,-7.07 z"
       fill="#eaecf0"
       id="path45" />
    <polygon
       points="55.12,454.7 109.58,338.79 328.95,355.9 349.17,454.7 "
       fill="#efc6cd"
       id="polygon47" />
    <polygon
       points="55.12,464.81 55.12,454.7 349.17,454.7 349.17,469.48 "
       fill="#d48a9b"
       id="polygon49" />
    <path
       d="m 138.04,437.77 131.56,2.68 a 1.82,1.82 0 0 0 1.77,-2.39 l -20.51,-55.32 -88.61,-1.69 -26.21,53.66 a 2.18,2.18 0 0 0 2,3.06 z"
       fill="#dfe6f5"
       id="path51" />
    <path
       d="m 138.04,437.77 131.56,2.68 a 1.82,1.82 0 0 0 1.77,-2.39 l -20.51,-55.32 -88.61,-1.69 -26.21,53.66 a 2.18,2.18 0 0 0 2,3.06 z"
       opacity="0.15"
       id="path53" />
    <path
       d="m 136.98,435.46 132.92,2.8 -18.07,-54.73 a 4.51,4.51 0 0 0 -4.19,-3.1 l -85.42,-1.62 z"
       fill="#dfe6f5"
       id="path55" />
    <path
       d="m 147.96,423.07 15.93,-35.05 a 4.25,4.25 0 0 1 3.86,-2.48 h 39.59 a 4.23,4.23 0 0 1 4.23,4.23 v 37.87 a 4.24,4.24 0 0 1 -4.44,4.23 l -55.53,-2.83 a 4.23,4.23 0 0 1 -3.64,-5.97 z"
       fill="#4c4c56"
       id="path57" />
    <path
       d="m 226.04,418.63 0.68,-20 a 3.07,3.07 0 0 1 3.06,-3 h 11.7 a 3.06,3.06 0 0 1 3,2.54 l 3.44,19.89 a 3.07,3.07 0 0 1 -3,3.59 l -15.83,0.14 a 3.06,3.06 0 0 1 -3.05,-3.16 z"
       fill="#d1d9ec"
       id="path59" />
    <path
       d="m 71.04,288.55 44.11,-3.68 a 3,3 0 0 1 3.14,1.77 l 41.71,94.41 -23.28,52.26 c 0.73,-1.64 1.27,11.12 -4,0.06 L 66.43,295.08 c -0.89,-1.85 2.54,-6.27 4.61,-6.53 z"
       fill="#4c4c56"
       id="path61" />
    <path
       d="m 71.04,288.55 44.11,-3.68 a 3,3 0 0 1 3.14,1.77 l 41.71,94.41 -23.28,52.26 c 0.73,-1.64 1.27,11.12 -4,0.06 L 66.43,295.08 c -0.89,-1.85 2.54,-6.27 4.61,-6.53 z"
       opacity="0.15"
       id="path63" />
    <path
       d="m 71.04,288.55 46.35,-5.92 a 3,3 0 0 1 3.14,1.77 l 41.72,94.41 -25.24,56.65 -68.34,-142.62 a 3,3 0 0 1 2.37,-4.29 z"
       fill="#4c4c56"
       id="path65" />
    <path
       d="m 82.61,295.19 33.51,-5.22 a 3,3 0 0 1 3.25,1.84 l 35.1,85.86 a 2.72,2.72 0 0 1 -0.06,2.2 l -16.07,33.58 a 2.71,2.71 0 0 1 -4.91,0 l -53.09,-114 a 3,3 0 0 1 2.27,-4.26 z"
       fill="#327e62"
       id="path67" />
    <path
       d="M 421.44,507.52 Z"
       fill="url(#ac59aa7e-40f5-4d5f-b82f-fdd6bf7d03ee-647)"
       id="path69"
       style="fill:url(#linearGradient3511)" />
    <path
       d="m 440.16,488.65 c 0,0 -0.69,1.14 -1.7,3 l -0.09,0.17 c -0.9,1.6 -2,3.7 -3.12,6 l -2.54,0.08 h -0.84 c -30,1.06 -60,2.47 -89.92,3.48 l -7.31,0.24 h -1.06 q -15.6,0.5 -31.17,0.77 h -2.75 -0.09 -3.34 l -4.64,0.06 q -7.23,0.07 -14.43,0.08 h -5.72 c -17.62,-0.05 -35.17,-0.44 -52.61,-1.35 l -1.94,-0.11 c 3.43,-7.46 9.56,-19.69 14.54,-23.6 3.85,-3 31.5,-6.33 56.93,-8.77 l 2.68,-0.26 h 0.06 l 7.1,-0.66 c 9.73,-0.89 18.56,-1.61 24.86,-2.1 l 0.58,-0.05 -3.28,-11 -4.75,-16 1.35,-13.44 0.11,-1.08 h -0.15 a 8.83,8.83 0 0 1 -4,-0.5 l -47.49,-1.64 h -0.86 v 0 l -18.24,-0.65 v 0 c -9.78,-0.35 -16.73,-0.61 -17,-0.66 a 4.31,4.31 0 0 1 -0.84,-0.23 3.78,3.78 0 0 1 -1.16,-0.7 4.64,4.64 0 0 1 -1,-1.2 h -0.2 -0.44 l -2.58,0.17 -1.31,0.09 c -0.05,-0.14 -0.09,-0.28 -0.14,-0.41 -0.12,-0.39 -0.24,-0.76 -0.35,-1.14 h -0.69 l -9,-0.19 h -0.16 c 0,0 -23.22,1.77 -35.35,-2.65 v 0 c -4.45,-1.62 -7.41,-4.07 -7.18,-7.74 a 8.37,8.37 0 0 1 0.52,-2.44 c -3.9,-7.29 15.15,-20.59 29.67,-16.92 a 25.7,25.7 0 0 0 12.06,0.5 15.52,15.52 0 0 0 6,-2.73 c 0.18,-0.13 0.34,-0.26 0.49,-0.39 -0.24,-0.15 -0.49,-0.28 -0.72,-0.4 a 11.18,11.18 0 0 0 -3.17,-1.1 l 3.94,-1.15 h 0.06 c 0,0 14,-1.28 23.11,-1.79 h 0.06 c 2.71,-0.14 5,-0.23 6.36,-0.19 6,0.17 17.69,-4.12 18.19,-5.44 0.5,-1.32 5.84,0 5.84,0 l 4.67,-1.82 c 4.67,-1.81 7.34,-4.28 7.34,-6.1 0,-1.82 4.17,-3.79 4.17,-3.79 1.88,-3.16 5.57,-6.55 9.44,-9.55 3.35,-2.59 6.83,-4.9 9.41,-6.51 a 189.75,189.75 0 0 1 4,-19.24 c 1.77,-5.91 7.26,-10.29 9.23,-11.71 l 0.72,-0.48 a 51.85,51.85 0 0 0 -2.2,-7.32 q -0.1,-0.3 -0.24,-0.6 c -0.2,-0.47 -0.41,-0.93 -0.62,-1.36 l -0.31,-0.6 c -0.51,0.1 -1,0.19 -1.54,0.26 a 35,35 0 0 1 -5,0.37 34.31,34.31 0 0 1 -33.15,-25 c 0,0 0,0 0,-0.06 a 33.86,33.86 0 0 1 -1.2,-9 32.92,32.92 0 0 1 1.14,-8.64 c 0,0 0,0 0,0 0.15,-0.6 0.33,-1.19 0.52,-1.78 a 1.59,1.59 0 0 1 0.07,-0.2 c 0.09,-0.27 0.18,-0.55 0.28,-0.82 a 35.17,35.17 0 0 1 -4.47,0.39 h -1 a 21.16,21.16 0 0 1 -8.37,-1.39 v 0 a 11.36,11.36 0 0 1 -1.85,-1 0.24,0.24 0 0 1 -0.08,-0.06 9.38,9.38 0 0 1 -2.06,-1.63 10.6,10.6 0 0 0 4.07,-7.08 c 0.27,-2.16 -0.09,-4.57 1.2,-6.33 a 9.08,9.08 0 0 1 2.34,-2 c 5.32,-3.63 9.54,-8.61 14.35,-12.9 4.81,-4.29 10.63,-8 17.1,-8.2 8.68,-0.27 16.32,5.77 24.92,6.91 2.64,0.35 5.35,0.23 7.93,0.89 a 27.3,27.3 0 0 1 8.05,4.08 20.21,20.21 0 0 1 5.74,4.88 17.21,17.21 0 0 1 2.34,5.59 61.82,61.82 0 0 1 2,12.81 c 0.23,4.53 0,9.09 0.48,13.59 a 23.31,23.31 0 0 0 3.84,10.93 h 0.13 a 15,15 0 0 0 1.24,1.52 c -0.85,0.27 -1.7,0.51 -2.57,0.72 a 40.56,40.56 0 0 1 -4.39,0.87 12.79,12.79 0 0 1 -2.05,0.17 6.11,6.11 0 0 1 -1.42,-0.13 l 0.88,0.59 2.44,1.64 v 0 l 0.92,0.61 1.85,1.23 c 0.42,-1.23 1,-1.56 1.67,-1.48 1.36,-1.28 3.39,1.49 3.39,1.49 1.19,2.28 4.39,4.55 7.22,6.23 a 57.06,57.06 0 0 0 5.13,2.68 c 37.37,22.27 35,55.59 37.2,58.23 2.2,2.64 2.34,12.2 2.34,12.2 0,0 5.51,32.49 8,35.3 2.49,2.81 0.16,3.79 2.33,6.93 2.17,3.14 1.67,11.54 1.67,11.54 0,0 1.5,19.79 6.84,24.08 4.79,3.85 11.19,36.24 12.46,42.86 z"
       fill="url(#72a3db62-0825-44ad-a640-19754e14ba99-648)"
       id="path71"
       style="fill:url(#72a3db62-0825-44ad-a640-19754e14ba99-648)" />
    <path
       d="m 221.13,384.41 c 0,0 -5.19,8.17 -19.89,4.41 -14.7,-3.76 -34.15,10.46 -28.6,17.48 5.55,7.02 41.34,-2 41.34,-2 l 13.73,-2.78 -0.9,-11.43 z"
       fill="#d38884"
       id="path73" />
    <path
       d="m 221.13,384.41 c 0,0 -5.19,8.17 -19.89,4.41 -14.7,-3.76 -34.15,10.46 -28.6,17.48 5.55,7.02 41.34,-2 41.34,-2 l 13.73,-2.78 -0.9,-11.43 z"
       opacity="0.1"
       id="path75" />
    <path
       d="m 225.91,383.97 -6.37,-0.33 -3.92,1.14 c 0,0 12.42,1.8 9,18.63 l 13.39,-0.81 z"
       fill="#a36468"
       id="path77" />
    <path
       d="m 225.91,383.97 -6.37,-0.33 -3.92,1.14 c 0,0 12.42,1.8 9,18.63 l 13.39,-0.81 z"
       opacity="0.1"
       id="path79" />
    <path
       d="m 310.23,346.33 c 0,0 -17.48,10 -22.39,18.31 0,0 -4.08,2 -4.08,3.76 0,1.76 -2.62,4.24 -7.19,6 l -4.58,1.8 c 0,0 -5.23,-1.31 -5.72,0 -0.49,1.31 -11.92,5.55 -17.81,5.39 -5.89,-0.16 -28.92,2 -28.92,2 a 20.47,20.47 0 0 1 11.6,22.71 l 54.42,-2.28 20.58,-4.58 12.1,-12.09 z"
       fill="#444053"
       id="path81" />
    <path
       d="m 310.23,346.33 c 0,0 -17.48,10 -22.39,18.31 0,0 -4.08,2 -4.08,3.76 0,1.76 -2.62,4.24 -7.19,6 l -4.58,1.8 c 0,0 -5.23,-1.31 -5.72,0 -0.49,1.31 -11.92,5.55 -17.81,5.39 -5.89,-0.16 -28.92,2 -28.92,2 a 20.47,20.47 0 0 1 11.6,22.71 l 54.42,-2.28 20.58,-4.58 12.1,-12.09 z"
       opacity="0.1"
       id="path83" />
    <path
       d="m 230.04,418.63 -7.7,-0.15 -9,-0.19 c 0,0 -42.5,3.27 -41.67,-10.32 0.83,-13.59 33.52,-18.36 38.07,-14.46 3.45,2.95 11.43,5.33 15.07,6.3 1.16,0.31 1.87,0.48 1.87,0.48 z"
       fill="#d38884"
       id="path85" />
    <path
       d="m 230.04,418.63 -7.7,-0.15 c -3.07,-10.55 0.49,-16.36 2.51,-18.64 1.16,0.31 1.87,0.48 1.87,0.48 z"
       opacity="0.1"
       id="path87" />
    <path
       d="m 235.23,419.21 -8,0.56 -3.8,0.26 c -5.23,-15.36 3.22,-21.41 3.22,-21.41 h 2.5 l 4.09,0.49 z"
       fill="#a36468"
       id="path89" />
    <path
       d="m 332.13,317.25 -9.48,18 c 0,0 -1.45,-18.23 -5.67,-26.82 -1.08,-2.2 -2.34,-3.76 -3.81,-4.23 -4,-1.26 19,-26.47 19,-26.47 0.77,0.16 5.17,3 10.56,6.67 5.93,4 13.07,8.88 17.87,12 9.11,5.81 -28.47,20.85 -28.47,20.85 z"
       fill="#d38884"
       id="path91" />
    <path
       d="m 319.97,317.59 c 0,0 -7.62,4.89 -9.74,12.08 -2.12,7.19 -4.09,20.1 -4.09,20.1 0,0 3.44,30.88 5.23,32.35 1.79,1.47 8.6,32.35 8.6,32.35 l 6.6,-4.41 -8.66,-38.89 c 0,0 5.76,-49.97 2.06,-53.58 z"
       fill="#444053"
       id="path93" />
    <path
       d="m 319.97,317.59 c 0,0 -7.62,4.89 -9.74,12.08 -2.12,7.19 -4.09,20.1 -4.09,20.1 0,0 3.44,30.88 5.23,32.35 1.79,1.47 8.6,32.35 8.6,32.35 l 6.6,-4.41 -8.66,-38.89 c 0,0 5.76,-49.97 2.06,-53.58 z"
       opacity="0.1"
       id="path95" />
    <polygon
       points="353.13,386.48 315.04,386.48 321.21,326.39 353.13,326.39 "
       fill="#a36468"
       id="polygon97" />
    <path
       d="m 264.88,507.21 h 0.46 l -0.86,0.33 z"
       fill="#67647e"
       id="path99" />
    <path
       d="m 336.54,479.84 -7.45,2.86 -1,0.37 -26.82,10.31 -10.23,3.93 -13.92,5.35 h -5.68 c -17.62,-0.05 -35.17,-0.44 -52.61,-1.35 3.38,-7.41 9.29,-19.27 14.11,-23.1 3.76,-3 30.66,-6.24 55.49,-8.68 3.1,-0.3 6.16,-0.59 9.14,-0.86 l 0.71,-0.07 c 9.86,-0.9 18.78,-1.63 25,-2.13 l 1,-0.08 7.82,-0.6 0.82,-0.82 1,4.28 0.83,3.42 z"
       fill="#67647e"
       id="path101" />
    <path
       d="m 264.88,507.21 h 0.46 l -0.86,0.33 z"
       opacity="0.1"
       id="path103" />
    <path
       d="m 336.54,479.84 -7.45,2.86 -1,0.37 -26.82,10.31 -10.23,3.93 -13.92,5.35 h -5.68 c -17.62,-0.05 -35.17,-0.44 -52.61,-1.35 3.38,-7.41 9.29,-19.27 14.11,-23.1 3.76,-3 30.66,-6.24 55.49,-8.68 3.1,-0.3 6.16,-0.59 9.14,-0.86 l 0.71,-0.07 c 9.86,-0.9 18.78,-1.63 25,-2.13 l 1,-0.08 7.82,-0.6 0.82,-0.82 1,4.28 0.83,3.42 z"
       opacity="0.1"
       id="path105" />
    <path
       d="m 264.88,507.21 h 0.46 l -0.86,0.33 z"
       fill="#67647e"
       id="path107" />
    <path
       d="m 297.19,507.21 c 0,0.11 -0.08,0.22 -0.11,0.33 v 0 c 0,-0.11 0.07,-0.22 0.12,-0.33 z"
       fill="#67647e"
       id="path109" />
    <polygon
       points="336.05,507.53 335.31,507.53 335.2,507.2 335.94,507.2 "
       fill="#67647e"
       id="polygon111" />
    <path
       d="m 342.91,469.39 -0.62,20.58 v 1.11 0.11 l -0.31,10.19 -7.31,0.24 h -1.06 q -15.6,0.5 -31.17,0.77 h -2.75 -0.09 -3.34 l -4.64,0.06 q -7.23,0.07 -14.43,0.08 h -5.75 c 5.2,-3.22 11.93,-6.77 19.17,-10.32 3.25,-1.6 6.62,-3.19 10,-4.76 9,-4.18 18.11,-8.13 25.54,-11.28 l 0.95,-0.4 c 2.88,-1.22 5.49,-2.31 7.72,-3.23 4.82,-2 7.88,-3.2 8.09,-3.28 z"
       fill="#67647e"
       id="path113" />
    <path
       d="m 276.12,384.81 c 1.87,3.9 3.8,7.88 6.89,10.92 0.49,0.48 1.34,0.92 1.78,0.39 a 1.26,1.26 0 0 0 0.19,-0.74 9.54,9.54 0 0 0 -1.8,-5.1 c -1,-1.54 -2.18,-2.94 -3.07,-4.54 -0.89,-1.6 -1.91,-4.68 -3.91,-5.1 -2.57,-0.54 -0.65,2.99 -0.08,4.17 z"
       opacity="0.1"
       id="path115" />
    <path
       d="m 342.69,284.37 c -0.14,0.5 -0.29,1 -0.45,1.48 a 33.69,33.69 0 0 1 -25.26,22.55 c -1.08,-2.2 -2.34,-3.76 -3.81,-4.23 -4,-1.26 19,-26.47 19,-26.47 0.73,0.16 5.13,3.05 10.52,6.67 z"
       opacity="0.1"
       id="path117" />
    <path
       d="m 343.89,274.76 a 33.66,33.66 0 1 1 -33.66,-33.66 33.59,33.59 0 0 1 33.66,33.66 z"
       fill="#d38884"
       id="path119" />
    <path
       d="m 323.14,324.76 c 0,0 -7,8.5 -5.88,14.06 h 8.49 l 6.21,-7 z"
       fill="#67647e"
       id="path121" />
    <path
       d="m 348.04,288.87 -26.7,36.71 c 0,0 6.86,9.81 10.13,10.3 3.27,0.49 21.92,-43.42 21.92,-43.42 z"
       opacity="0.1"
       id="path123" />
    <path
       d="m 348.38,288.21 -26.71,36.76 c 0,0 6.86,9.8 10.13,10.29 3.27,0.49 21.92,-43.41 21.92,-43.41 z"
       fill="#a36468"
       id="path125" />
    <path
       d="m 318.24,335.23 c 0,0 -1.31,20.58 -2.62,24.67 -1.31,4.09 0,41.66 0,41.66 l 12.26,-5.06 -2.13,-57.68 z"
       fill="#67647e"
       id="path127" />
    <polygon
       points="335.94,507.2 336.05,507.53 335.31,507.53 335.2,507.2 "
       opacity="0.1"
       id="polygon129" />
    <path
       d="M 421.44,507.52 Z"
       opacity="0.1"
       id="path131" />
    <path
       d="m 436.38,489.48 c 0,0 -0.23,0.38 -0.61,1 -0.38,0.62 -0.79,1.39 -1.32,2.37 a 0.75,0.75 0 0 0 -0.07,0.12 c -0.74,1.37 -1.62,3.05 -2.51,4.88 -30,1.06 -60,2.47 -89.92,3.48 l -7.31,0.24 h -1.06 l -3.14,-10.6 v -0.11 l -0.33,-1.12 -2,-6.66 -2,-6.77 -2.07,-7.22 -0.76,-2.62 -0.2,-0.66 -3.26,-11.1 -4.42,-15.07 1.43,-14.38 v 0 l 0.1,-1.09 1.29,-12.88 0.18,-3.82 v 0 l 0.1,-2 v -0.57 0 l 0.22,-4.64 0.66,-13.8 0.34,-7.06 v 0 l 0.06,-1.07 v 0 l 0.68,-14.17 1.93,-5.79 1,-2.88 2.22,-6.69 0.48,-1.65 v 0 c 0.7,-2.51 2.11,-7.47 3.43,-12.24 v 0 l 0.12,-0.41 v 0 l 0.09,-0.31 0.94,-3.39 1.17,-4.35 c 0.44,-1.67 0.73,-2.86 0.8,-3.27 0.11,-0.71 2,-3.85 4.48,-8 v 0 c 5,-8.27 12.52,-20.44 13.38,-24.52 a 0.44,0.44 0 0 0 0,-0.1 5,5 0 0 1 0.21,-0.73 c 0.41,-1.22 1,-1.55 1.62,-1.47 a 2,2 0 0 1 0.79,0.31 6.29,6.29 0 0 1 1.56,1.5 c 1.17,2.25 4.3,4.5 7.07,6.17 l 0.54,0.31 0.32,0.19 c 2.3,1.31 4.16,2.15 4.16,2.15 36.6,22.06 34.32,55.07 36.44,57.68 2.12,2.61 2.29,12.1 2.29,12.1 0,0 5.39,32.19 7.84,35 2.45,2.81 0.17,3.76 2.29,6.87 2.12,3.11 1.63,11.33 1.63,11.33 0,0 1.47,19.6 6.7,23.85 5.23,4.25 12.42,43.66 12.42,43.66 z"
       opacity="0.1"
       id="path133" />
    <path
       d="m 437.36,489.16 -0.44,0.76 v 0 c -0.35,0.62 -0.91,1.6 -1.58,2.83 l -0.07,0.14 c -0.76,1.41 -1.66,3.12 -2.55,5 h -0.84 c -30,1.06 -60,2.47 -89.92,3.48 l -7.31,0.24 -3.13,-10.64 v -0.11 l -0.33,-1.12 -2.07,-7 -2,-6.8 -2,-6.79 -0.79,-2.72 v 0 l -3.42,-11.68 -4.52,-15.39 1.25,-12.51 0.17,-1.67 1.38,-14.21 v 0 l 0.53,-11.08 0.65,-13.39 0.17,-3.51 0.19,-4.06 0.08,-1.71 0.65,-13.38 1.93,-5.78 0.83,-2.49 1.94,-5.85 0.41,-1.24 c 0,0 1.87,-6.57 3.68,-13.08 0.07,-0.24 0.14,-0.48 0.2,-0.72 0.16,-0.56 0.31,-1.12 0.47,-1.67 v 0 c 0.16,-0.56 0.31,-1.11 0.45,-1.66 0.51,-1.82 1,-3.52 1.34,-4.92 0.49,-1.83 0.82,-3.16 0.89,-3.59 0.11,-0.71 2,-3.94 4.57,-8.14 4.73,-7.82 11.63,-19 13.09,-23.64 a 7.51,7.51 0 0 0 0.2,-0.73 v 0 a 3.81,3.81 0 0 1 0.87,-2 c 1.34,-1.29 3.33,1.48 3.33,1.48 1.17,2.25 4.3,4.51 7.07,6.17 a 53,53 0 0 0 5,2.65 c 36.6,22.06 34.32,55.07 36.44,57.69 2.12,2.62 2.29,12.09 2.29,12.09 0,0 5.39,32.19 7.84,35 2.45,2.81 0.17,3.76 2.29,6.86 2.12,3.1 1.63,11.44 1.63,11.44 0,0 1.47,19.61 6.7,23.86 5.23,4.25 12.44,43.59 12.44,43.59 z"
       fill="#444053"
       id="path135" />
    <path
       d="m 362.73,296.62 c -3.59,5.22 -9.44,14.4 -11,21 0,0 -5.72,5.89 -7.85,5.56 -2.13,-0.33 2,4.41 2,4.41 l -22.47,31.14 3.19,-9.57 c 0,0 6.7,-23.53 7,-25.65 0.3,-2.12 16.57,-26.41 17.86,-32.52 1,-4.89 4.2,-0.49 4.2,-0.49 1.16,2.2 4.29,4.47 7.07,6.12 z"
       opacity="0.1"
       id="path137" />
    <path
       d="m 362.73,295.97 c -3.59,5.21 -9.44,14.4 -11,20.95 0,0 -5.72,5.88 -7.85,5.56 -2.13,-0.32 2,4.41 2,4.41 l -22.47,31.14 3.19,-9.57 c 0,0 6.7,-23.53 7,-25.66 0.3,-2.13 16.57,-26.4 17.86,-32.51 1,-4.9 4.2,-0.49 4.2,-0.49 1.16,2.25 4.29,4.5 7.07,6.17 z"
       fill="#444053"
       id="path139" />
    <path
       d="m 392.91,360.49 c 0.17,7.14 -10.29,16.89 -10.78,17.46 -0.49,0.57 -32.52,27 -32.52,27 l -23,17.64 a 19.54,19.54 0 0 1 -9,4.16 l 1.57,-15.78 1.55,-32 c 3.59,-4 7.07,-8.2 7.15,-9.54 0.16,-2.77 6,-5.72 6,-5.72 0,0 4.09,-3.43 3.43,-5.39 -0.66,-1.96 2.17,-11.35 2.17,-11.35 1.47,-26.64 28.92,-29.25 28.92,-29.25 0,0 13.24,5.23 22.55,10.78 9.31,5.55 1.8,24.86 1.96,31.99 z"
       opacity="0.1"
       id="path141" />
    <path
       d="m 235.23,419.21 -8,0.56 c -3.38,-5.75 1.27,-21.15 1.27,-21.15 h 0.65 l 4.09,0.49 z"
       opacity="0.1"
       id="path143" />
    <path
       d="m 368.4,316.1 c 0,0 -27.45,2.62 -28.92,29.25 0,0 -2.78,9.32 -2.13,11.28 0.65,1.96 -3.43,5.39 -3.43,5.39 0,0 -5.88,2.94 -6,5.72 -0.12,2.78 -15,17.94 -15,17.94 0,0 -6.2,7.06 -20.58,7.8 -14.38,0.74 -21.08,5.14 -21.08,5.14 0,0 -7,-4.9 -12.1,-3.43 -5.1,1.47 -29.9,3.43 -29.9,3.43 0,0 -6.59,21.84 1.63,23.21 1,0.16 81.9,2.94 81.9,2.94 0,0 5.53,2.61 13.86,-3.76 8.33,-6.37 23,-17.65 23,-17.65 0,0 32,-26.47 32.52,-27 0.52,-0.53 11,-10.33 10.78,-17.46 -0.22,-7.13 7.36,-26.42 -2,-32 -9.36,-5.58 -22.55,-10.8 -22.55,-10.8 z"
       fill="#444053"
       id="path145" />
    <path
       d="m 343.89,274.76 a 33.59,33.59 0 0 1 -1.65,10.43 14.07,14.07 0 0 1 -1.24,-1.71 q -2.34,-3.6 -4.69,-7.2 a 19.46,19.46 0 0 0 -4.77,-5.62 c -2,-1.42 -4.84,-2 -7,-0.74 -1.9,1.12 -2.83,3.41 -3,5.61 a 63.69,63.69 0 0 0 0.17,6.62 3.65,3.65 0 0 1 -0.61,2.39 3.92,3.92 0 0 1 -2.58,1 l -3,0.41 a 2.15,2.15 0 0 1 -2.76,-1.37 c -2.49,-4.51 -4.21,-10.11 -8.88,-12.28 -2.88,-1.34 -6.68,-1.25 -8.53,-3.83 -1.26,-1.76 -1.09,-4.15 -0.72,-6.29 a 49.65,49.65 0 0 1 1.75,-7.12 c 0.53,-1.64 1.71,-4.91 -0.91,-5.24 -1.78,-0.23 -4.24,1.66 -5.14,3 -0.9,1.34 -1.12,3.13 -1.76,4.66 a 11.13,11.13 0 0 1 -6.15,5.71 17.62,17.62 0 0 1 -4.24,1.15 33.66,33.66 0 0 1 65.7,10.34 z"
       opacity="0.1"
       id="path147" />
    <path
       d="m 290.34,251.97 c -0.91,1.39 -1.12,3.12 -1.76,4.65 a 11.14,11.14 0 0 1 -6.14,5.71 23.63,23.63 0 0 1 -8.43,1.5 c -4.66,0.14 -9.86,-0.57 -12.86,-4.14 a 10.53,10.53 0 0 0 4,-7 c 0.26,-2.14 -0.09,-4.53 1.18,-6.28 a 9,9 0 0 1 2.28,-1.93 c 5.22,-3.6 9.34,-8.54 14.06,-12.78 4.72,-4.24 10.41,-7.93 16.75,-8.13 8.49,-0.26 16,5.72 24.4,6.85 2.58,0.35 5.24,0.23 7.76,0.88 a 26.46,26.46 0 0 1 7.89,4 20.19,20.19 0 0 1 5.63,4.84 17.41,17.41 0 0 1 2.29,5.54 61.86,61.86 0 0 1 2,12.69 c 0.23,4.48 0,9 0.48,13.46 0.48,4.46 1.9,9 4.95,12.3 a 44,44 0 0 1 -6.81,1.57 7.09,7.09 0 0 1 -4.33,-0.34 7.63,7.63 0 0 1 -2.64,-2.85 l -4.69,-7.2 a 19.46,19.46 0 0 0 -4.77,-5.62 c -2,-1.42 -4.84,-2 -7,-0.74 -1.9,1.12 -2.82,3.41 -3,5.61 a 63.69,63.69 0 0 0 0.17,6.62 3.65,3.65 0 0 1 -0.61,2.39 3.93,3.93 0 0 1 -2.59,1 l -3,0.41 a 2.15,2.15 0 0 1 -2.76,-1.37 c -2.49,-4.52 -4.21,-10.11 -8.88,-12.28 -2.88,-1.34 -6.68,-1.25 -8.53,-3.83 -1.26,-1.76 -1.09,-4.15 -0.72,-6.29 a 49.65,49.65 0 0 1 1.75,-7.12 c 0.53,-1.64 1.71,-4.91 -0.91,-5.25 -1.8,-0.19 -4.26,1.7 -5.16,3.13 z"
       fill="#444053"
       id="path149" />
    <path
       d="m 366.48,331.04 c 2.53,-0.35 5.19,-0.58 7.56,0.39 -6.17,-2.53 -16.21,-1.56 -21.83,1.92 0.51,1.17 12.31,-2.04 14.27,-2.31 z"
       opacity="0.1"
       id="path151" />
    <path
       d="m 369.43,339.24 c 6.15,0.41 12.5,1.27 18.33,-0.73 -4.88,-1.68 -10.25,-0.62 -15.39,-1.13 -4.1,-0.41 -8.27,-1.83 -12.27,-0.79 -1.67,0.43 -7.82,3.26 -7.4,5.33 a 33.23,33.23 0 0 1 16.73,-2.68 z"
       opacity="0.1"
       id="path153" />
    <path
       d="m 353.14,352.68 a 9.24,9.24 0 0 1 3.82,0.4 58.43,58.43 0 0 0 14.08,1.55 c 3.62,0 7.52,-0.55 10.16,-3 z"
       opacity="0.1"
       id="path155" />
    <path
       d="m 333.33,383.97 a 28.18,28.18 0 0 0 13.75,2.5 60.69,60.69 0 0 0 13.84,-2.66 c 2,-0.59 4.18,-1.33 5.35,-3.07 z"
       opacity="0.1"
       id="path157" />
    <path
       d="m 377.6,388.37 a 73.46,73.46 0 0 0 30.52,9.45 q -8.13,-3.26 -16.38,-6.17 a 118.64,118.64 0 0 0 -17.25,-4.62 8.77,8.77 0 0 1 3.11,1.34 z"
       opacity="0.1"
       id="path159" />
    <path
       d="m 392.71,382.64 a 25.79,25.79 0 0 0 5.69,0.31 c 1,0 2.19,-0.14 2.78,-1 -4.29,0.18 -8.52,-0.92 -12.71,-1.87 -1.19,-0.28 -3.33,-0.94 -4.33,-0.23 1.9,1.36 6.17,2.31 8.57,2.79 z"
       opacity="0.1"
       id="path161" />
    <path
       d="m 418.5,471.97 c 2.25,3.86 4.53,7.76 7.64,11 a 56.07,56.07 0 0 0 5.73,4.92 c -3.71,-9.46 -7.48,-19 -13.42,-27.27 -1.5,-2.08 -3.74,-5.06 -6.47,-5.44 -0.78,2.31 1.19,6.4 2.14,8.57 a 82.49,82.49 0 0 0 4.38,8.22 z"
       opacity="0.1"
       id="path163" />
    <path
       d="m 309.17,401.23 c -0.17,1.6 -0.3,3.37 0.63,4.68 a 3.38,3.38 0 0 0 1.9,1.31 c -0.48,-0.12 -1,-4.82 -1.12,-5.46 -0.22,-1.31 0,-3.76 -0.93,-4.73 -0.24,1.38 -0.33,2.8 -0.48,4.2 z"
       opacity="0.1"
       id="path165" />
    <path
       d="m 314.37,399.39 a 10.66,10.66 0 0 0 5,6.77 c -1.75,-2.16 -2.32,-5 -3.84,-7.37 -0.49,-0.76 -1.06,-1.85 -2,-2 a 27.49,27.49 0 0 0 0.84,2.6 z"
       opacity="0.1"
       id="path167" />
    <path
       d="m 309.97,370.59 a 12.49,12.49 0 0 1 -9.9,1.25 c -0.75,-0.22 -2.5,-1 -2.08,-2.1 0.42,-1.1 2.45,-0.34 3.28,-0.24 l 4.35,0.55 c 0.8,0.1 3.7,0.92 4.35,0.54 z"
       opacity="0.1"
       id="path169" />
    <path
       d="m 295.25,377.71 c 2.05,-0.26 3.89,1.16 5.81,1.93 a 17.7,17.7 0 0 0 6.6,0.88 c 1.12,0 2.39,-0.09 3.08,-1 -5.21,-1.19 -10.08,-2.5 -15.49,-1.81 z"
       opacity="0.1"
       id="path171" />
    <polygon
       points="319.97,317.58 320.3,317.58 322.75,326.39 319.97,329.35 "
       fill="#a36468"
       id="polygon173" />
    <g
       opacity="0.1"
       id="g183">
      <path
         d="m 283.75,419.76 a 20.64,20.64 0 0 0 -0.45,4.35 9.61,9.61 0 0 0 0.27,-1.4 c 0.12,-0.96 0.11,-1.97 0.18,-2.95 z"
         transform="translate(-17.96,-172.03)"
         id="path175" />
      <path
         d="m 313.58,420.9 a 1.76,1.76 0 0 1 1.64,2 c 0.47,-1.66 0.73,-3.7 -1.31,-4 -1.78,-0.22 -4.24,1.67 -5.14,3.05 -0.9,1.38 -1.12,3.13 -1.76,4.66 a 11.11,11.11 0 0 1 -6.14,5.71 23.63,23.63 0 0 1 -8.43,1.5 c -4.24,0.13 -8.93,-0.46 -12,-3.26 a 10.17,10.17 0 0 1 -1.19,1.08 c 3,3.57 8.2,4.28 12.87,4.14 a 23.62,23.62 0 0 0 8.42,-1.5 11.16,11.16 0 0 0 6.15,-5.71 c 0.64,-1.53 0.84,-3.26 1.75,-4.65 0.91,-1.39 3.36,-3.24 5.14,-3.02 z"
         transform="translate(-17.96,-172.03)"
         id="path177" />
      <path
         d="m 366.4,455.76 a 7.09,7.09 0 0 1 -4.33,-0.34 7.72,7.72 0 0 1 -2.64,-2.85 q -2.34,-3.6 -4.69,-7.2 a 19.3,19.3 0 0 0 -4.76,-5.62 c -2,-1.43 -4.85,-2 -7,-0.74 -1.91,1.12 -2.83,3.41 -3.05,5.61 0,0.09 0,0.18 0,0.27 a 6.32,6.32 0 0 1 2.73,-3.92 c 2.13,-1.26 5,-0.68 7,0.74 a 19.62,19.62 0 0 1 4.77,5.62 q 2.34,3.6 4.69,7.2 a 7.55,7.55 0 0 0 2.64,2.85 7.06,7.06 0 0 0 4.32,0.34 44.34,44.34 0 0 0 6.82,-1.57 14.64,14.64 0 0 1 -1.22,-1.51 42.93,42.93 0 0 1 -5.28,1.12 z"
         transform="translate(-17.96,-172.03)"
         id="path179" />
      <path
         d="m 339.51,453.63 a 4,4 0 0 1 -2.58,1 l -3,0.41 a 2.15,2.15 0 0 1 -2.76,-1.37 c -2.49,-4.52 -4.21,-10.11 -8.88,-12.28 -2.88,-1.34 -6.67,-1.25 -8.52,-3.83 a 7.36,7.36 0 0 1 -0.89,-5.24 c -0.05,0.31 -0.12,0.61 -0.17,0.91 -0.36,2.14 -0.54,4.53 0.73,6.29 1.85,2.58 5.65,2.49 8.52,3.83 4.68,2.17 6.4,7.76 8.89,12.28 a 2.86,2.86 0 0 0 1.15,1.37 2.93,2.93 0 0 0 1.61,0.07 l 3,-0.41 a 3.92,3.92 0 0 0 2.58,-1 3.59,3.59 0 0 0 0.61,-2.39 v 0 a 3,3 0 0 1 -0.29,0.36 z"
         transform="translate(-17.96,-172.03)"
         id="path181" />
    </g>
    <path
       d="m 735.44,517.4 -6.41,-0.89 v -94.63 l 1.31,0.4 4,1.23 v 3.15 2.37 3.59 l 0.05,4.11 0.09,8.46 v 0.85 1.13 2.4 1.45 3.51 2.2 l 0.48,42.61 v 1.14 l 0.17,15 v 0.23 z"
       fill="#eaecf0"
       id="path185" />
    <path
       d="m 739.04,517.9 -3.57,-0.5 v -1.71 -0.23 l -0.17,-15 v -1.14 l -0.48,-42.61 v -2.2 -3.51 -1.45 -2.4 -1.13 -0.85 l -0.09,-8.46 -0.05,-4.11 v -3.59 -2.37 -3.15 h 3.85 v 3.48 2.38 2.74 3.63 l 0.08,9.14 v 2 2.09 1.46 1.79 2.33 0 l 0.37,44.72 v 1.15 l 0.12,14.87 v 0.24 z"
       fill="#d3dae1"
       id="path187" />
    <path
       d="M 739.04,523.24 Z"
       fill="#d3dae1"
       id="path189" />
    <path
       d="m 1128.04,410.15 v 81.68 q -2.85,2 -5.84,3.93 l -0.08,-68 v -7.22 z"
       fill="#eaecf0"
       id="path191" />
    <path
       d="m 1132.2,408.97 v 79.7 c -1.36,1.09 -2.75,2.14 -4.16,3.17 v -81.69 z"
       fill="#d3dae1"
       id="path193" />
    <path
       d="m 1039.34,524.72 c -2.46,0.5 -4.93,1 -7.4,1.43 l -0.09,-73.91 v -3.2 l 7.13,-3 v 6.78 z"
       fill="#eaecf0"
       id="path195" />
    <path
       d="m 1044.04,443.7 v 80 c -1.56,0.34 -3.12,0.66 -4.68,1 l -0.33,-71.87 v -6.78 l 0.47,-0.22 v 0 z"
       fill="#d3dae1"
       id="path197" />
    <path
       d="m 620.19,502.58 -6.65,-0.67 -0.85,-83.34 v -2.38 -1.59 h 6.53 v 2.15 2.38 z"
       fill="#eaecf0"
       id="path199" />
    <path
       d="m 625.14,503.11 -5,-0.53 -1,-83.45 v -2.38 -2.15 h 5.05 v 2.59 2.38 z"
       fill="#d3dae1"
       id="path201" />
    <polygon
       points="1039.45,445.84 1044.02,443.69 1044.02,453.78 1039.57,455.27 "
       opacity="0.1"
       id="polygon203" />
    <polygon
       points="1122.1,420.53 1128.04,410.14 1132.19,408.95 1132.19,424.39 1128.04,425.78 1122.11,427.75 "
       opacity="0.1"
       id="polygon205" />
    <polygon
       points="1132.19,379.27 1132.19,422.02 1039.57,452.89 1038.97,407.17 "
       fill="#d48a9b"
       id="polygon207" />
    <polygon
       points="611.46,376.3 733.18,353.14 1132.19,379.27 1038.97,407.17 "
       fill="#efc6cd"
       id="polygon209" />
    <polygon
       points="624.27,419.56 619.23,419.12 612.68,418.56 612.65,414.6 624.23,414.6 "
       opacity="0.1"
       id="polygon211" />
    <polygon
       points="734.37,423.5 738.23,423.5 738.28,429.36 734.43,429.02 729.03,428.56 729.03,421.88 "
       opacity="0.1"
       id="polygon213" />
    <polygon
       points="611.46,376.3 611.46,416.08 1039.57,452.89 1038.97,407.17 "
       fill="#d48a9b"
       id="polygon215" />
    <polygon
       points="950.9,423.6 894.98,423.6 894.98,403.31 950.9,407.25 "
       fill="#d48a9b"
       id="polygon217" />
    <polygon
       points="950.9,423.6 894.98,423.6 894.98,403.31 950.9,407.25 "
       opacity="0.1"
       id="polygon219" />
    <polygon
       points="819.87,398.86 819.87,430.92 1034.52,447.25 1034.52,413.11 950.8,408.36 942.48,415.78 908.34,413.41 896.17,404.5 "
       opacity="0.1"
       id="polygon221" />
    <polygon
       points="818.68,397.67 818.68,429.74 1033.33,446.06 1033.33,411.92 949.61,407.17 941.3,414.6 907.15,412.22 894.98,403.31 "
       fill="#ffffff"
       id="polygon223" />
    <polygon
       points="737.04,392.63 736.45,408.76 703.3,408.76 681.13,400.05 686.27,389.06 "
       fill="#d48a9b"
       id="polygon225" />
    <polygon
       points="737.04,392.63 736.45,408.76 703.3,408.76 681.13,400.05 686.27,389.06 "
       opacity="0.1"
       id="polygon227" />
    <polygon
       points="618.59,384.61 618.59,413.41 813.34,428.85 813.34,398.27 738.23,393.81 730.21,399.75 699.93,397.97 687.46,390.25 "
       opacity="0.1"
       id="polygon229" />
    <polygon
       points="617.4,383.42 617.4,412.22 812.15,427.66 812.15,397.08 737.04,392.63 729.03,398.56 698.74,396.78 686.27,389.06 "
       fill="#ffffff"
       id="polygon231" />
    <polygon
       points="1034.54,383.53 1061.84,385.32 1016.61,398.86 993.57,397.2 "
       opacity="0.1"
       id="polygon233" />
    <polygon
       points="1034.54,382.35 1061.84,384.13 1016.61,397.67 993.57,396.01 "
       fill="#ffffff"
       id="polygon235" />
    <path
       d="m 1031.28,385.42 c 1.08,-0.47 2.23,0.4 3.38,0.62 0.65,0.13 1.33,0 2,0.13 1.34,0.18 2.66,1.07 3.94,0.62 z"
       fill="#d3dae1"
       id="path237" />
    <path
       d="m 1029.87,386.23 c 1.07,-0.46 2.22,0.41 3.37,0.63 0.66,0.12 1.34,0 2,0.12 1.33,0.18 2.66,1.08 3.94,0.63 z"
       fill="#d3dae1"
       id="path239" />
    <path
       d="m 1026.63,387.87 c 1.07,-0.46 2.22,0.4 3.37,0.62 0.66,0.13 1.33,0 2,0.13 1.34,0.18 2.67,1.08 3.94,0.62 z"
       fill="#d3dae1"
       id="path241" />
    <polygon
       points="850.35,368.55 911.22,372.54 898.25,391.17 831.33,384.02 "
       opacity="0.1"
       id="polygon243" />
    <polygon
       points="849.16,367.36 910.03,371.34 897.06,389.98 830.13,382.83 "
       fill="#3a3768"
       id="polygon245" />
    <polygon
       points="851.84,368.73 904.93,371.98 893.62,387.16 835.25,381.33 "
       fill="#d5e1f4"
       id="polygon247" />
    <path
       d="M 739.04,523.24 Z"
       fill="#3a3768"
       id="path249" />
    <path
       d="M 739.04,523.24 Z"
       opacity="0.1"
       id="path251" />
    <path
       d="M 738.58,523.24 Z"
       fill="#3a3768"
       id="path253" />
    <path
       d="m 816.24,520.97 c 0,0.28 0,0.57 -0.05,0.85 -0.05,0.28 0,0.5 -0.08,0.75 a 16.89,16.89 0 0 1 -1.45,5.09 v 0 c -25.15,-2.83 -50.36,-6.23 -75.6,-9.72 l -3.57,-0.5 -6.41,-0.89 -5.4,-0.75 v 0 a 130.08,130.08 0 0 1 -17.64,-1.65 91.25,91.25 0 0 1 -10.9,-2.3 c -16,-2.19 -32.09,-4.3 -48.13,-6.22 l -2.09,-0.25 c 0.38,-1.7 0.7,-2.73 0.7,-2.73 0,0 3.44,-13.52 6.3,-28.63 0.63,-3.28 1.23,-6.62 1.75,-9.93 0.42,-2.65 0.8,-5.27 1.12,-7.79 0.18,-1.39 0.33,-2.75 0.46,-4.08 0.07,-0.66 0.13,-1.32 0.18,-2 0.05,-0.68 0.11,-1.42 0.16,-2.11 0.05,-0.69 0.07,-1.3 0.1,-1.93 v -0.94 c 0,-1.35 0,-2.76 -0.05,-4.21 a 124,124 0 0 0 -3.4,-21.41 c -0.28,-1.2 -0.57,-2.4 -0.87,-3.57 -0.09,-0.38 -0.19,-0.75 -0.29,-1.12 -3.23,-12.51 -7,-22.73 -7,-22.73 a 1.15,1.15 0 0 1 0,-0.17 0.57,0.57 0 0 0 0,-0.12 2.36,2.36 0 0 0 0,-0.25 c 0,-0.32 0,-0.81 0,-1.4 0,-0.12 0,-0.25 0,-0.38 a 15.32,15.32 0 0 1 0.54,-3.1 11.23,11.23 0 0 1 0.38,-1.06 6.59,6.59 0 0 1 4.5,-4.16 v 0 c 2.83,-0.73 7.11,0 13.57,3.83 a 23.35,23.35 0 0 1 3,2.06 c 0.48,0.38 1,0.78 1.4,1.21 7.4,6.89 11.34,18.26 13.44,28.64 0.08,0.37 0.15,0.74 0.22,1.11 0.25,1.28 0.46,2.53 0.65,3.76 0.34,2.16 0.61,4.24 0.81,6.17 0,0.52 0.11,1 0.16,1.53 0.05,0.53 0.1,1 0.13,1.48 0.13,1.56 0.22,3 0.28,4.22 0.17,3.24 0.14,5.23 0.14,5.23 v 0.1 c 0,0 0,0.15 -0.05,0.43 a 0.19,0.19 0 0 0 0,0.08 c 0,0.12 0,0.27 0,0.44 0,0.17 0,0.29 0,0.46 q -0.06,0.63 -0.15,1.47 c -0.09,0.86 -0.19,1.87 -0.31,3 -0.08,0.84 -0.18,1.75 -0.28,2.71 -0.22,2 -0.46,4.32 -0.72,6.76 -0.06,0.46 -0.11,0.92 -0.16,1.38 -0.23,2.09 -0.47,4.27 -0.72,6.47 v 0 c -0.27,2.5 -0.57,5 -0.86,7.47 -0.07,0.54 -0.14,1.08 -0.2,1.61 -0.74,6 -1.48,11.45 -2.08,14.84 a 14.1,14.1 0 0 0 -0.2,1.52 4.67,4.67 0 0 0 0,0.52 10.25,10.25 0 0 0 0,1.36 c 0.49,8.54 9.72,10 9.72,10 l 41.91,-0.83 6.22,-0.12 3.62,-0.07 32.67,-0.65 v 0 l 3,-0.06 16.25,-0.32 a 11.62,11.62 0 0 1 3.27,0.39 51.92,51.92 0 0 1 14.2,6.21 16.69,16.69 0 0 1 3.67,3.2 1.07,1.07 0 0 1 0.14,0.16 17.3,17.3 0 0 1 3.93,9.36 c 0,0.23 0,0.46 0,0.69 0.08,0.48 0.08,1.02 0.07,1.59 z"
       fill="#3a3768"
       id="path255" />
    <path
       d="M 738.58,523.24 Z"
       opacity="0.1"
       id="path257" />
    <path
       d="m 816.24,520.97 c 0,0.28 0,0.57 -0.05,0.85 -0.05,0.28 0,0.5 -0.08,0.75 a 17.5,17.5 0 0 1 -1.5,5.09 c -25.15,-2.83 -50.36,-6.23 -75.6,-9.72 l -3.57,-0.5 -6.41,-0.89 -5.4,-0.75 v 0 a 130.08,130.08 0 0 1 -17.64,-1.65 91.25,91.25 0 0 1 -10.9,-2.3 c -16,-2.19 -32.09,-4.3 -48.13,-6.22 l -2.09,-0.25 v 0 c 0.38,-1.76 0.72,-2.83 0.72,-2.83 0,0 2.81,-11 5.48,-24.33 v 0 c 0.19,-0.92 0.37,-1.84 0.55,-2.77 l 0.27,-1.41 c 0.62,-3.27 1.22,-6.63 1.75,-9.93 0.42,-2.65 0.8,-5.27 1.12,-7.79 0.18,-1.39 0.33,-2.75 0.46,-4.08 0.07,-0.66 0.13,-1.32 0.18,-2 0.05,-0.68 0.11,-1.42 0.16,-2.11 0.05,-0.69 0.07,-1.3 0.1,-1.93 v -0.94 c 0,-1.35 0,-2.76 -0.05,-4.21 a 123,123 0 0 0 -3.37,-21.41 q -0.42,-1.82 -0.87,-3.57 c -0.1,-0.38 -0.19,-0.75 -0.29,-1.12 -3.24,-12.55 -7,-22.83 -7,-22.83 a 0.32,0.32 0 0 0 0,-0.07 0.57,0.57 0 0 0 0,-0.12 2.36,2.36 0 0 0 0,-0.25 c 0,-0.32 0,-0.81 0,-1.4 0,-0.12 0,-0.25 0,-0.38 a 15.35,15.35 0 0 1 0.51,-3.1 c 0.11,-0.35 0.23,-0.71 0.37,-1.06 a 6.61,6.61 0 0 1 4.74,-4.31 c 2.83,-0.66 7.06,0.16 13.38,3.86 a 24.2,24.2 0 0 1 3.12,2.18 v 0 c 0.47,0.39 0.92,0.78 1.36,1.2 7.34,6.93 11.25,18.28 13.33,28.63 0.08,0.37 0.15,0.75 0.22,1.12 0.25,1.27 0.46,2.53 0.65,3.75 0.34,2.16 0.6,4.23 0.8,6.15 0.05,0.53 0.11,1.05 0.15,1.55 0.04,0.5 0.1,1 0.13,1.48 0.13,1.56 0.22,3 0.28,4.22 0.17,3.24 0.14,5.23 0.14,5.23 v 0.34 c 0,0.06 0,0.12 0,0.19 a 0.19,0.19 0 0 0 0,0.08 c 0,0.12 0,0.27 0,0.44 0,0.17 0,0.29 0,0.46 q -0.06,0.63 -0.15,1.47 c -0.09,0.86 -0.19,1.87 -0.31,3 -0.1,0.83 -0.19,1.74 -0.29,2.71 -0.22,2 -0.46,4.32 -0.72,6.76 -0.06,0.46 -0.11,0.92 -0.16,1.38 -0.23,2.09 -0.48,4.29 -0.72,6.49 v 0 c -0.29,2.5 -0.58,5 -0.88,7.46 -0.07,0.54 -0.13,1.08 -0.2,1.61 -0.73,6 -1.46,11.37 -2.06,14.74 a 13.92,13.92 0 0 0 -0.2,1.63 4.67,4.67 0 0 0 0,0.52 10.25,10.25 0 0 0 0,1.36 c 0.57,8.44 9.72,9.85 9.72,9.85 l 41.91,-0.82 6.21,-0.13 3.63,-0.07 32.73,-0.64 3.06,-0.06 16.19,-0.32 a 10.94,10.94 0 0 1 3.27,0.39 51.33,51.33 0 0 1 14.31,6.15 16.48,16.48 0 0 1 3.72,3.26 1.07,1.07 0 0 1 0.14,0.16 17.13,17.13 0 0 1 3.88,9.4 c 0,0.23 0,0.46 0,0.69 -0.09,0.56 -0.09,1.1 -0.1,1.67 z"
       opacity="0.1"
       id="path259" />
    <path
       d="M 738.58,523.24 Z"
       fill="#3a3768"
       id="path261" />
    <path
       d="m 816.31,527.81 -1.65,-0.19 v 0 c -25.15,-2.83 -50.36,-6.23 -75.6,-9.72 l -3.57,-0.5 -6.41,-0.89 -5.4,-0.75 v 0 a 130.08,130.08 0 0 1 -17.64,-1.65 91.25,91.25 0 0 1 -10.9,-2.3 c -16,-2.19 -32.09,-4.3 -48.13,-6.22 a 40.91,40.91 0 0 1 1,-4.16 c 0,0 9.5,-37.41 10.09,-57.3 0.21,-7.11 -1.2,-15.91 -3.11,-24.3 v 0 c -0.28,-1.21 -0.56,-2.41 -0.86,-3.59 l -0.27,-1.12 c -3.39,-13.15 -7.42,-24.15 -7.42,-24.15 a 16.25,16.25 0 0 1 0.23,-4.07 10.89,10.89 0 0 1 0.24,-1.07 8.16,8.16 0 0 1 2.58,-4.32 v 0 a 1.33,1.33 0 0 1 0.19,-0.14 c 2.63,-2 7.35,-2.14 15.75,2.78 a 24.63,24.63 0 0 1 4.69,3.59 c 0.4,0.38 0.8,0.78 1.18,1.19 6.75,7.31 10.33,18.51 12.21,28.53 l 0.21,1.11 c 0.22,1.25 0.41,2.48 0.59,3.67 0,0 0,0.07 0,0.1 v 0 c 0.23,1.58 0.42,3.09 0.58,4.53 0,0 0,0 0,0 a 119.31,119.31 0 0 1 0.72,12.77 c 0,0 -0.39,3.95 -1,9.64 -0.23,2.23 -0.5,4.73 -0.79,7.37 0,0.13 0,0.26 0,0.4 l -0.15,1.4 c -0.51,4.61 -1.07,9.53 -1.64,14.09 -0.06,0.56 -0.13,1.11 -0.2,1.65 -0.64,5.13 -1.28,9.69 -1.81,12.66 -2.08,11.58 9.5,13.36 9.5,13.36 l 39.54,-0.78 6.2,-0.12 3.63,-0.08 h 1.52 0.49 l 31.36,-0.62 h 3 l 18,-0.36 a 11.24,11.24 0 0 1 3.27,0.4 51.58,51.58 0 0 1 14.32,6.14 17,17 0 0 1 3.37,2.86 1.63,1.63 0 0 1 0.17,0.2 17.32,17.32 0 0 1 1.92,19.96 z"
       fill="#3a3768"
       id="path263" />
    <polygon
       points="957.67,347.05 969.9,373.25 967.85,373.25 953.51,347.36 "
       fill="#4c4c56"
       id="polygon265" />
    <polygon
       points="957.67,347.05 969.9,373.25 967.85,373.25 953.51,347.36 "
       opacity="0.1"
       id="polygon267" />
    <polygon
       points="957.67,373.25 969.9,373.25 969.9,375.99 957.67,376.3 "
       fill="#4c4c56"
       id="polygon269" />
    <polygon
       points="957.67,373.25 969.9,373.25 969.9,375.99 957.67,376.3 "
       opacity="0.1"
       id="polygon271" />
    <path
       d="m 862.54,250.64 v 91.49 a 6.79,6.79 0 0 0 6.79,6.79 h 152.5 a 6.75,6.75 0 0 0 6.75,-6.88 l -1.73,-91.57 a 6.75,6.75 0 0 0 -6.75,-6.62 H 869.33 a 6.79,6.79 0 0 0 -6.79,6.79 z"
       fill="#4c4c56"
       id="path273" />
    <path
       d="m 862.54,250.64 v 91.49 a 6.79,6.79 0 0 0 6.79,6.79 h 152.5 a 6.75,6.75 0 0 0 6.75,-6.88 l -1.73,-91.57 a 6.75,6.75 0 0 0 -6.75,-6.62 H 869.33 a 6.79,6.79 0 0 0 -6.79,6.79 z"
       opacity="0.1"
       id="path275" />
    <path
       d="m 857.04,250.64 v 91.49 a 6.79,6.79 0 0 0 6.79,6.79 h 152.5 a 6.74,6.74 0 0 0 6.74,-6.88 l -1.73,-91.57 a 6.75,6.75 0 0 0 -6.74,-6.62 H 863.87 a 6.79,6.79 0 0 0 -6.83,6.79 z"
       fill="#4c4c56"
       id="path277" />
    <path
       d="m 863.04,256.36 v 80.55 a 6.79,6.79 0 0 0 6.79,6.79 h 141.21 a 6.75,6.75 0 0 0 6.75,-6.75 v -80.64 a 6.75,6.75 0 0 0 -6.75,-6.74 H 869.83 a 6.79,6.79 0 0 0 -6.79,6.79 z"
       fill="#327e62"
       id="path279" />
    <polygon
       points="924.14,347.42 937.55,373.25 967.85,373.25 952.7,343.7 "
       fill="#4c4c56"
       id="polygon281" />
    <polygon
       points="913.46,373.25 911.22,375.99 957.67,375.99 957.67,373.25 "
       fill="#4c4c56"
       id="polygon283" />
    <path
       d="m 717.6,278.41 c -3.33,-9.36 -3.31,-19.75 -7.35,-28.82 a 35.11,35.11 0 0 1 -1.69,-4 11.72,11.72 0 0 1 -0.46,-2.61 l -0.25,0.06 -0.25,0.07 -0.25,0.1 v 0 l -0.23,0.14 a 8.75,8.75 0 0 0 0.23,0.88 33.67,33.67 0 0 0 1.71,4 c 4.12,9.12 4.09,19.55 7.48,29 a 2.72,2.72 0 0 0 0.63,1.11 1.49,1.49 0 0 0 0.51,0.31 c -0.03,-0.11 -0.06,-0.17 -0.08,-0.24 z m 0,0 c -3.33,-9.36 -3.31,-19.75 -7.35,-28.82 a 35.11,35.11 0 0 1 -1.69,-4 11.72,11.72 0 0 1 -0.46,-2.61 l -0.25,0.06 -0.25,0.07 -0.25,0.1 v 0 l -0.23,0.14 a 8.75,8.75 0 0 0 0.23,0.88 33.67,33.67 0 0 0 1.71,4 c 4.12,9.12 4.09,19.55 7.48,29 a 2.72,2.72 0 0 0 0.63,1.11 1.49,1.49 0 0 0 0.51,0.31 c -0.03,-0.11 -0.06,-0.17 -0.08,-0.24 z m 0,0 c -3.33,-9.36 -3.31,-19.75 -7.35,-28.82 a 35.11,35.11 0 0 1 -1.69,-4 11.72,11.72 0 0 1 -0.46,-2.61 l -0.25,0.06 -0.25,0.07 -0.25,0.1 v 0 l -0.23,0.14 a 8.75,8.75 0 0 0 0.23,0.88 33.67,33.67 0 0 0 1.71,4 c 4.12,9.12 4.09,19.55 7.48,29 a 2.72,2.72 0 0 0 0.63,1.11 1.49,1.49 0 0 0 0.51,0.31 c -0.03,-0.11 -0.06,-0.17 -0.08,-0.24 z m 0,0 c -3.33,-9.36 -3.31,-19.75 -7.35,-28.82 a 35.11,35.11 0 0 1 -1.69,-4 11.72,11.72 0 0 1 -0.46,-2.61 l -0.25,0.06 -0.25,0.07 -0.25,0.1 v 0 l -0.23,0.14 a 8.75,8.75 0 0 0 0.23,0.88 33.67,33.67 0 0 0 1.71,4 c 4.12,9.12 4.09,19.55 7.48,29 a 2.72,2.72 0 0 0 0.63,1.11 1.49,1.49 0 0 0 0.51,0.31 c -0.03,-0.11 -0.06,-0.17 -0.08,-0.24 z m 0,0 c -3.33,-9.36 -3.31,-19.75 -7.35,-28.82 a 35.11,35.11 0 0 1 -1.69,-4 11.72,11.72 0 0 1 -0.46,-2.61 l -0.25,0.06 -0.25,0.07 -0.25,0.1 v 0 l -0.23,0.14 a 8.75,8.75 0 0 0 0.23,0.88 33.67,33.67 0 0 0 1.71,4 c 4.12,9.12 4.09,19.55 7.48,29 a 2.72,2.72 0 0 0 0.63,1.11 1.49,1.49 0 0 0 0.51,0.31 c -0.03,-0.11 -0.06,-0.17 -0.08,-0.24 z m 0,0 c -3.33,-9.36 -3.31,-19.75 -7.35,-28.82 a 35.11,35.11 0 0 1 -1.69,-4 11.72,11.72 0 0 1 -0.46,-2.61 l -0.25,0.06 -0.25,0.07 -0.25,0.1 v 0 l -0.23,0.14 a 8.75,8.75 0 0 0 0.23,0.88 33.67,33.67 0 0 0 1.71,4 c 4.12,9.12 4.09,19.55 7.48,29 a 2.72,2.72 0 0 0 0.63,1.11 1.49,1.49 0 0 0 0.51,0.31 c -0.03,-0.11 -0.06,-0.17 -0.08,-0.24 z m 0,0 c -3.33,-9.36 -3.31,-19.75 -7.35,-28.82 a 35.11,35.11 0 0 1 -1.69,-4 11.72,11.72 0 0 1 -0.46,-2.61 l -0.25,0.06 -0.25,0.07 -0.25,0.1 v 0 l -0.23,0.14 a 8.75,8.75 0 0 0 0.23,0.88 33.67,33.67 0 0 0 1.71,4 c 4.12,9.12 4.09,19.55 7.48,29 a 2.72,2.72 0 0 0 0.63,1.11 1.49,1.49 0 0 0 0.51,0.31 c -0.03,-0.11 -0.06,-0.17 -0.08,-0.24 z m 173.75,93.2 v 0 l -0.77,-0.14 1,-0.22 v 0 a 1.53,1.53 0 0 0 0.29,-0.07 v 0 c 1.11,-0.24 2.21,-0.51 3.29,-0.8 v 0 l 1.13,-0.32 v 0 l 0.16,-0.05 c 9.32,-2.75 -1.55,-5.28 -15.37,-7.16 h -0.04 c -14.92,-2 -33.22,-3.31 -33.22,-3.31 l -5.73,0.76 h -0.05 c -7,0.92 -18.05,2.44 -19.81,3 -2.14,0.71 -20.3,1.58 -26.63,1.86 a 2.76,2.76 0 0 0 -0.94,-1 l -18.67,-0.86 v 2.57 0 l -0.14,-0.06 a 25.61,25.61 0 0 0 -2.53,-10 l -0.14,-0.28 c -4.82,-9.14 -5.79,-11.43 -5.79,-11.43 v 0 c 0,-0.16 -0.08,-0.32 -0.13,-0.49 -1.62,-5.62 -7.59,-15.39 -17.71,-29.41 l -0.35,-0.49 -1.27,-6.22 -0.22,-1.09 h -6.37 a 83.3,83.3 0 0 1 4.42,-15.81 c 0.13,-0.32 0.26,-0.64 0.4,-0.95 l 0.08,-0.18 c 0.14,-0.33 0.3,-0.66 0.45,-1 0.37,0 0.74,0 1.11,0 v 0 a 30.43,30.43 0 0 0 29.24,-28.3 0.19,0.19 0 0 0 0,-0.08 q 0.06,-0.93 0.06,-1.86 a 29.77,29.77 0 0 0 -4,-15 c -0.08,-0.14 -0.16,-0.28 -0.25,-0.42 l -0.16,-0.27 -0.36,-0.56 c 2.28,-0.54 5,0.5 7,-0.78 a 5.12,5.12 0 0 0 1.71,-2.06 10.71,10.71 0 0 0 1,-3 c 0,0 0,0 0,0 0,0 0,0 0,0 a 1,1 0 0 0 0,-0.17 0.13,0.13 0 0 0 0,-0.06 11.83,11.83 0 0 0 0.15,-2.06 11.1,11.1 0 0 0 -0.7,-4.16 11.46,11.46 0 0 0 -6.44,-6.46 43.63,43.63 0 0 0 -4.68,-1.27 c -6.4,-1.71 -11.81,-5.93 -18,-8.28 a 32.65,32.65 0 0 0 -13.49,-2.08 19.3,19.3 0 0 0 -8,2 34.25,34.25 0 0 0 -5.34,3.87 c -4.45,3.51 -9.5,6.51 -13.37,10.7 a 23.92,23.92 0 0 0 -1.94,2.4 c -0.34,0.49 -0.65,1 -1,1.5 a 2.68,2.68 0 0 0 -2.41,-1 v 0 a 3.92,3.92 0 0 0 -0.49,0 9.7,9.7 0 0 0 -1.24,0.13 c -1,0.17 -8.45,2.14 -8.45,3.16 a 35.19,35.19 0 0 0 -8.56,5.26 c -6,5.49 -7.34,14.19 -8.1,22.21 a 205.81,205.81 0 0 0 -1,28 c 0.14,3.4 0.41,6.8 0.25,10.2 a 75.86,75.86 0 0 1 -1.77,11.88 q -1.29,6.1 -2.79,12.16 c -0.48,2 -1.25,4.23 -3.21,4.86 l 0.73,0.1 a 3.51,3.51 0 0 1 -0.73,0.35 21.84,21.84 0 0 0 2.54,0.25 h 0.59 a 6.9,6.9 0 0 0 1.43,-0.17 5.34,5.34 0 0 0 1.81,-0.84 c 0.08,-0.2 0.15,-0.4 0.22,-0.61 a 3.38,3.38 0 0 0 1.2,-1.86 13.23,13.23 0 0 1 -0.2,3.38 c 0,0.16 -0.06,0.33 -0.1,0.49 a 13.8,13.8 0 0 1 -3.44,6.52 l 1,-0.76 a 14.71,14.71 0 0 1 -1,1.21 q 2.16,-1.62 4.32,-3.31 v 0 a 2.07,2.07 0 0 0 0.25,-0.19 v 0 l 2.46,-1.94 c 0,0.24 0,0.55 0,0.94 0,0.39 0,0.62 0,1 v 0 c 0,0.14 0,0.29 0,0.45 -0.2,6.9 -0.49,23.85 1.08,27.9 0.09,0.24 0.19,0.48 0.27,0.71 1.79,4.61 2.56,6.6 2.33,9 -0.16,1.67 1.09,6.45 1.78,10.25 a 12.72,12.72 0 0 1 0.32,4.63 6.6,6.6 0 0 0 0.18,2.76 c 0.09,0.44 0.2,0.91 0.32,1.4 0,0.17 0.08,0.35 0.13,0.53 0.91,3.64 2.2,8.14 0.85,9.93 a 7.93,7.93 0 0 0 -1,2 c -1.11,3 -1.29,7.1 -2.57,8.76 -1.5,1.93 -1,5.36 -0.88,5.8 a 0.18,0.18 0 0 1 0,0.05 c 0,0 -0.07,0.39 -0.21,1 -0.17,0.84 -0.44,2.13 -0.78,3.56 v 0.1 a 50.87,50.87 0 0 1 -1.73,5.93 c 0,0 0,0 0,0 -0.51,1.36 -1,2.34 -1.57,2.53 -2,0.73 -3,10.12 -3,10.12 0,0 -4.58,7.43 -3.71,9.26 a 12.26,12.26 0 0 0 0.65,1.23 l -0.44,0.68 c -2.45,3.93 -6,11.07 -2.56,14.91 a 17,17 0 0 0 4.1,3.13 c -0.18,0.4 -0.37,0.83 -0.57,1.3 -3.78,8.86 -9.6,29.44 12.79,38.12 a 71,71 0 0 0 6.79,2.23 91.25,91.25 0 0 0 10.9,2.3 133.59,133.59 0 0 0 16,1.43 c 2.38,0.08 4.73,0.1 7,0.08 2.27,-0.02 4.33,-0.07 6.39,-0.16 q 1.83,-0.07 3.57,-0.18 a 186.76,186.76 0 0 0 20.53,-2.25 l 32,-5.73 c 0,0 13.44,0.48 18.39,3.32 l 0.15,0.09 c 0,0 0.81,-0.47 2.17,-1.39 v 0 c 0.59,-0.4 1.29,-0.88 2.06,-1.45 5.07,-3.73 13.53,-11 19.07,-21.22 l 0.11,-0.19 1.09,-0.14 h 0.25 l 0.78,-0.11 1.62,-0.23 h 0.1 0.19 c 4.05,-0.59 7.88,-1.24 7.88,-1.24 0,0 0.15,4.47 0.33,9.65 0.06,1.58 0.11,3.23 0.17,4.83 0.19,5.48 0.36,10.46 0.36,10.63 0,0.17 4.12,11 8.73,21.92 l 3.6,0.29 q 14.26,1.14 28.51,1.89 l 3.55,0.18 2.22,0.11 c -1.6,-9.69 -2.86,-18.93 -2.86,-18.93 l -5.94,-27.67 c 0,0 -0.62,-5.73 -5.07,-31.2 -3.6,-20.64 -24.8,-18.81 -32.74,-17.36 -0.81,0.15 -1.47,0.29 -2,0.4 v -1.55 c 0,0 -15.23,1.28 -29,1.9 l -3.35,0.14 c -3.19,0.12 -6.22,0.19 -8.88,0.19 a 65,65 0 0 1 -7,-0.28 c -10.63,-1.22 -22.75,2.43 -22.75,2.43 0,0 -15.49,2.51 -17.56,1.59 a 5.33,5.33 0 0 0 -1.75,-0.36 c -0.31,0 -0.64,0 -1,0 a 1.6,1.6 0 0 0 1,-1.78 c -0.62,-2.56 -0.87,-6.1 0.87,-8.54 0.76,-1.08 2,-2.78 3.11,-4.33 l 2.7,-3.71 v -0.29 l 0.07,-1.09 0.65,-9.72 1.56,-9 0.1,-0.57 0.14,-0.8 0.1,-0.58 0.3,0.1 v 0 c 4.43,1.54 9.45,2.62 13,1.38 h 0.07 a 5.94,5.94 0 0 0 0.82,-0.35 h 0.16 v 0.67 l 0.06,1.17 16.69,-0.91 h 0.25 c 0,0 0.65,-3.22 1.35,-7.66 0.05,-0.36 0.11,-0.73 0.17,-1.11 0.06,-0.38 0.15,-1 0.22,-1.46 0,-0.23 0.07,-0.47 0.1,-0.71 h 0.67 0.33 c 7.74,-0.28 18.54,-0.94 22.94,-2.54 v 0 a 5,5 0 0 0 1.51,-0.81 c 1.87,-1.62 8.58,-3.94 15.17,-5.94 v 0 l 2.63,-0.78 c 1.91,-0.56 3.75,-1.08 5.38,-1.54 3.78,-1 6.48,-1.74 6.48,-1.74 0,0 26,2.41 45.42,-3.2 v 0 l 0.32,-0.09 c 7.31,-2.33 2.77,-4.29 -5.92,-5.94 z m -184.49,-130 c 0,0.32 0.06,0.57 0.11,0.89 0,0 0,0 0,0 0,0 0,0 0,0 0,0 0,0 0,0 0,0 0,0 0,0 a 2.5,2.5 0 0 0 0.06,0.38 c 0,0.13 0,0.26 0.08,0.39 a 8.75,8.75 0 0 0 0.23,0.88 33.67,33.67 0 0 0 1.71,4 c 4.12,9.12 4.09,19.55 7.48,29 a 2.72,2.72 0 0 0 0.63,1.11 1.49,1.49 0 0 0 0.51,0.31 l 0.24,0.08 v 0 h 0.28 l -0.11,0.19 a 1,1 0 0 1 -0.08,0.14 l -0.07,0.11 c -1.34,2.26 -2.77,4.48 -4.21,6.44 a 9.4,9.4 0 0 0 -3.47,1.42 l -0.56,0.37 -0.24,0.18 c -0.35,-1.72 -0.83,-3.42 -1.27,-5.12 a 118.18,118.18 0 0 1 -3.86,-27.74 c 0,-0.2 0,-0.4 0,-0.6 0,-0.43 0,-0.86 0,-1.29 0,-2.42 0.06,-4.83 0.21,-7.25 a 6,6 0 0 1 0.85,-3.18 v 0 a 2.19,2.19 0 0 1 1.48,-0.72 z m 10.74,36.81 c -3.33,-9.36 -3.31,-19.75 -7.35,-28.82 a 35.11,35.11 0 0 1 -1.69,-4 11.72,11.72 0 0 1 -0.46,-2.61 l -0.25,0.06 -0.25,0.07 -0.25,0.1 v 0 l -0.23,0.14 a 8.75,8.75 0 0 0 0.23,0.88 33.67,33.67 0 0 0 1.71,4 c 4.12,9.12 4.09,19.55 7.48,29 a 2.72,2.72 0 0 0 0.63,1.11 1.49,1.49 0 0 0 0.51,0.31 c -0.03,-0.12 -0.06,-0.18 -0.08,-0.25 z m 0,0 c -3.33,-9.36 -3.31,-19.75 -7.35,-28.82 a 35.11,35.11 0 0 1 -1.69,-4 11.72,11.72 0 0 1 -0.46,-2.61 l -0.25,0.06 -0.25,0.07 -0.25,0.1 v 0 l -0.23,0.14 a 8.75,8.75 0 0 0 0.23,0.88 33.67,33.67 0 0 0 1.71,4 c 4.12,9.12 4.09,19.55 7.48,29 a 2.72,2.72 0 0 0 0.63,1.11 1.49,1.49 0 0 0 0.51,0.31 c -0.03,-0.12 -0.06,-0.18 -0.08,-0.25 z m 0,0 c -3.33,-9.36 -3.31,-19.75 -7.35,-28.82 a 35.11,35.11 0 0 1 -1.69,-4 11.72,11.72 0 0 1 -0.46,-2.61 l -0.25,0.06 -0.25,0.07 -0.25,0.1 v 0 l -0.23,0.14 a 8.75,8.75 0 0 0 0.23,0.88 33.67,33.67 0 0 0 1.71,4 c 4.12,9.12 4.09,19.55 7.48,29 a 2.72,2.72 0 0 0 0.63,1.11 1.49,1.49 0 0 0 0.51,0.31 c -0.03,-0.12 -0.06,-0.18 -0.08,-0.25 z m 0,0 c -3.33,-9.36 -3.31,-19.75 -7.35,-28.82 a 35.11,35.11 0 0 1 -1.69,-4 11.72,11.72 0 0 1 -0.46,-2.61 l -0.25,0.06 -0.25,0.07 -0.25,0.1 v 0 l -0.23,0.14 a 8.75,8.75 0 0 0 0.23,0.88 33.67,33.67 0 0 0 1.71,4 c 4.12,9.12 4.09,19.55 7.48,29 a 2.72,2.72 0 0 0 0.63,1.11 1.49,1.49 0 0 0 0.51,0.31 c -0.03,-0.12 -0.06,-0.18 -0.08,-0.25 z m 0,0 c -3.33,-9.36 -3.31,-19.75 -7.35,-28.82 a 35.11,35.11 0 0 1 -1.69,-4 11.72,11.72 0 0 1 -0.46,-2.61 l -0.25,0.06 -0.25,0.07 -0.25,0.1 v 0 l -0.23,0.14 a 8.75,8.75 0 0 0 0.23,0.88 33.67,33.67 0 0 0 1.71,4 c 4.12,9.12 4.09,19.55 7.48,29 a 2.72,2.72 0 0 0 0.63,1.11 1.49,1.49 0 0 0 0.51,0.31 c -0.03,-0.12 -0.06,-0.18 -0.08,-0.25 z m 0,0 c -3.33,-9.36 -3.31,-19.75 -7.35,-28.82 a 35.11,35.11 0 0 1 -1.69,-4 11.72,11.72 0 0 1 -0.46,-2.61 l -0.25,0.06 -0.25,0.07 -0.25,0.1 v 0 l -0.23,0.14 a 8.75,8.75 0 0 0 0.23,0.88 33.67,33.67 0 0 0 1.71,4 c 4.12,9.12 4.09,19.55 7.48,29 a 2.72,2.72 0 0 0 0.63,1.11 1.49,1.49 0 0 0 0.51,0.31 c -0.03,-0.12 -0.06,-0.18 -0.08,-0.25 z"
       fill="url(#060ac890-45f2-497a-b51d-740a183b02f3-649)"
       id="path285"
       style="fill:url(#060ac890-45f2-497a-b51d-740a183b02f3-649)" />
    <path
       d="m 751.04,283.67 a 23.32,23.32 0 0 0 -3.84,5.94 c -0.15,0.33 -0.3,0.65 -0.44,1 -4.42,10 -5.92,24.15 -5.92,24.15 0,0 -2.74,-1.23 -6.62,-3.15 -7.23,-3.58 -18.39,-9.54 -22.9,-14.29 -2,-2.15 -2.72,-4.05 -1.06,-5.38 0.36,-0.29 0.73,-0.62 1.1,-1 a 31.8,31.8 0 0 0 3.49,-4.14 c 1.44,-2 2.86,-4.23 4.2,-6.52 0.79,-1.34 1.54,-2.69 2.24,-4 l 0.28,-0.52 c 3,-5.69 5.19,-10.55 5.19,-10.55 0,0 1,0.32 2.62,0.89 7.47,2.67 28.04,10.78 21.66,17.57 z"
       fill="#efb7b9"
       id="path287" />
    <path
       d="m 887.92,515.36 c 0,0 1.22,9.06 2.77,18.62 l -3.55,-0.18 q -14.24,-0.74 -28.51,-1.89 c -5.4,-12.51 -11,-27.36 -11,-27.59 0,-0.23 -0.17,-5.12 -0.36,-10.58 -0.06,-1.92 -0.13,-3.9 -0.19,-5.76 v 0 c -0.1,-2.82 -0.19,-5.36 -0.24,-6.94 0,-1.08 -0.06,-1.72 -0.06,-1.72 0,0 -5.14,0.9 -9.76,1.53 l -2.05,0.27 c -1.06,0.13 -2,0.23 -2.85,0.29 a 7.33,7.33 0 0 1 -2.21,0 c -1.58,-0.61 1.7,-16 1.7,-16 l 8.16,-19.75 2.28,-5.5 1,-0.25 c 0.49,-0.12 1.15,-0.26 1.94,-0.41 7.79,-1.43 28.6,-3.25 32.13,17.29 4.37,25.37 5,31.07 5,31.07 z"
       fill="#efb7b9"
       id="path289" />
    <path
       d="m 895.81,555.97 h -2.47 2.44 z"
       fill="#efb7b9"
       id="path291" />
    <path
       d="m 887.92,515.36 c 0,0 1.22,9.06 2.77,18.62 l -3.55,-0.18 q -14.24,-0.74 -28.51,-1.89 c -5.4,-12.51 -11,-27.36 -11,-27.59 0,-0.23 -0.17,-5.12 -0.36,-10.58 -0.06,-1.92 -0.13,-3.9 -0.19,-5.76 v 0 c -0.1,-2.82 -0.19,-5.36 -0.24,-6.94 0,-1.08 -0.06,-1.72 -0.06,-1.72 0,0 -5.14,0.9 -9.76,1.53 l -2.05,0.27 c -1.06,0.13 -2,0.23 -2.85,0.29 a 7.33,7.33 0 0 1 -2.21,0 c -1.58,-0.61 1.7,-16 1.7,-16 l 8.16,-19.75 2.28,-5.5 1,-0.25 c 0.49,-0.12 1.15,-0.26 1.94,-0.41 7.79,-1.43 28.6,-3.25 32.13,17.29 4.37,25.37 5,31.07 5,31.07 z"
       opacity="0.05"
       id="path293" />
    <path
       d="m 895.81,555.97 h -2.47 2.44 z"
       opacity="0.05"
       id="path295" />
    <path
       d="m 887.14,533.8 q -14.24,-0.74 -28.51,-1.89 l -3.6,-0.29 -1.59,-0.13 c -4.48,-10.81 -8.46,-21.38 -8.46,-21.57 0,-0.19 -0.17,-5.12 -0.36,-10.58 -0.23,-6.82 -0.49,-14.42 -0.49,-14.42 l -0.67,0.11 -0.28,0.05 h -0.12 -0.24 l -1.61,0.27 -0.88,0.14 c -1.59,0.26 -3.51,0.55 -5.39,0.82 l -0.42,0.06 -1.1,0.14 -1,0.12 v 0 c -0.77,0.1 -1.5,0.18 -2.16,0.24 l -0.81,0.07 a 7,7 0 0 1 -2.21,0 c -1.58,-0.61 1.7,-16 1.7,-16 l 10.44,-25.25 0.36,-0.1 c 0.55,-0.14 1.71,-0.41 3.28,-0.68 0.59,-0.1 1.24,-0.2 1.94,-0.29 9.06,-1.16 26.3,-0.83 29.49,17.7 4.37,25.37 5,31.07 5,31.07 l 5.83,27.58 c 0,0 0.76,5.7 1.86,12.83 z"
       fill="#efb7b9"
       id="path297" />
    <path
       d="m 844.62,499.34 c -0.23,-6.82 -0.49,-14.43 -0.49,-14.43 0,0 -10,1.75 -14.66,2.09 l 0.94,-3.18 c 0,0 17.12,-4.73 17.48,-2.06 0.26,1.87 -1.94,11.81 -3.27,17.58 z"
       opacity="0.1"
       id="path299" />
    <path
       d="m 844.98,439.45 v 7.23 c 0,0 -0.85,13 -7.53,32.89 -0.14,0.43 -0.29,0.85 -0.45,1.27 a 45.38,45.38 0 0 1 -2.48,5.58 c -1.88,0.26 -3.7,0.48 -5.05,0.58 a 7.31,7.31 0 0 1 -2.21,0 c -1.58,-0.61 1.69,-16 1.69,-16 l 10.44,-25.24 0.37,-0.1 2.27,-5.51 c 0,0 1.12,-0.36 2.95,-0.7 z"
       opacity="0.1"
       id="path301" />
    <path
       d="m 843.04,438.31 v 8.37 c 0,0 -0.85,13 -7.53,32.9 -0.17,0.52 -0.36,1 -0.55,1.53 -0.19,0.53 -0.44,1.16 -0.69,1.72 -0.55,1.33 -1.17,2.62 -1.82,3.86 v 0 c -5.23,9.91 -13.2,17 -18.26,20.9 -0.74,0.57 -1.43,1.07 -2,1.49 h -0.05 c -1,0.68 -1.72,1.17 -2.18,1.46 -0.46,0.29 -0.5,0.31 -0.5,0.31 -4.74,-2.91 -18.21,-3.4 -18.21,-3.4 l -31.44,5.71 a 182.23,182.23 0 0 1 -20.77,2.36 l -3.57,0.17 c -2.06,0.08 -4.2,0.13 -6.39,0.14 -1.77,0 -3.57,0 -5.4,-0.07 v 0 a 130.08,130.08 0 0 1 -17.64,-1.65 88.09,88.09 0 0 1 -9.52,-2.11 67,67 0 0 1 -6.59,-2.2 c -22,-8.64 -16.27,-29.13 -12.56,-38 0.2,-0.47 0.39,-0.9 0.57,-1.3 0.82,-1.81 1.43,-2.87 1.43,-2.87 l 1.46,-3.53 v 0 l 2.39,-5.79 0.53,-1.27 0.15,-0.37 1.77,-4.29 25,-3.24 18.37,-2.38 5.59,-0.72 3.79,-0.49 7.23,-0.94 2.72,-0.35 a 33.85,33.85 0 0 1 5.07,-0.4 7.09,7.09 0 0 1 2.7,0.4 c 2,0.91 17.24,-1.58 17.24,-1.58 0,0 11.89,-3.64 22.33,-2.43 a 124.22,124.22 0 0 0 15.51,0.1 v 0 l 1.28,-0.06 1.66,-0.07 h 0.36 c 13.52,-0.63 28.52,-1.91 28.52,-1.91 z"
       fill="#444053"
       id="path303" />
    <path
       d="m 753.09,463.43 c 0,0 -12,27.31 -12.5,27.79 -0.5,0.48 -0.48,9 0,8.5 0.48,-0.5 17.12,-37.38 17.12,-37.38 z"
       opacity="0.1"
       id="path305" />
    <path
       d="m 811.23,440.33 c 0,0 -6.07,3.92 -7.89,7.08 -1.82,3.16 -18.45,34.59 -22.57,39.2 a 100.69,100.69 0 0 0 -9.23,13.13 c -0.48,0.83 -0.48,6.05 2.43,1.07 2.91,-4.98 2.19,-5.82 7.89,-12 5.7,-6.18 12,-20.15 14.44,-22.94 2.44,-2.79 5.83,-11.17 10.08,-16.15 l 8.14,-9.51 z"
       opacity="0.1"
       id="path307" />
    <path
       d="m 812.69,494.26 c 0,0 -4.25,-2.91 -8.25,2.06 -4,4.97 8.25,-2.06 8.25,-2.06 z"
       opacity="0.1"
       id="path309" />
    <path
       d="m 817.91,495.76 c 0,0 -3.52,6.14 -5.22,6.63 -1.7,0.49 5.22,-6.63 5.22,-6.63 z"
       opacity="0.1"
       id="path311" />
    <path
       d="m 812.69,497.29 c 0,0 -2.79,4.86 -5.22,4.37 z"
       opacity="0.1"
       id="path313" />
    <path
       d="m 793.04,366.08 c 0,0 25.73,-1.09 28.28,-1.94 2.55,-0.85 25.12,-3.76 25.12,-3.76 0,0 66.88,4.73 47.83,10.44 -19.05,5.71 -44.91,3.27 -44.91,3.27 0,0 -25.25,6.56 -29.13,10 -3.88,3.44 -32.53,3.52 -32.53,3.52 z"
       fill="#efb7b9"
       id="path315" />
    <path
       d="m 793.04,366.08 c 0,0 25.73,-1.09 28.28,-1.94 2.55,-0.85 25.12,-3.76 25.12,-3.76 0,0 66.88,4.73 47.83,10.44 -19.05,5.71 -44.91,3.27 -44.91,3.27 0,0 -25.25,6.56 -29.13,10 -3.88,3.44 -32.53,3.52 -32.53,3.52 z"
       opacity="0.05"
       id="path317" />
    <path
       d="m 701.51,307.46 c 0,0 -23.55,8 -12.14,28.4 11.41,20.4 26.1,30 26.1,30 l 37.87,26.22 c 0,0 15.9,9.1 23.18,5.34 l 11.89,-1 2,-31.2 c 0,0 -10,7.77 -20.88,-3 -10.88,-10.77 -24.28,-18.09 -25.37,-23.91 -1.09,-5.82 -28.94,-35.83 -42.65,-30.85 z"
       fill="#a36468"
       id="path319" />
    <path
       d="m 775.91,373.49 c 0,0 12.26,4.37 11.78,4.61 -0.48,0.24 -11.78,4.49 -11.78,4.49 l 0.85,16.63 16.63,-0.91 c 0,0 6.07,-30.28 0.85,-33.32 l -18.33,-0.85 z"
       fill="#67647e"
       id="path321" />
    <path
       d="m 775.91,373.49 c 0,0 12.26,4.37 11.78,4.61 -0.48,0.24 -11.78,4.49 -11.78,4.49 l 0.85,16.63 16.63,-0.91 c 0,0 6.07,-30.28 0.85,-33.32 l -18.33,-0.85 z"
       opacity="0.1"
       id="path323" />
    <path
       d="m 751.04,283.67 a 23.32,23.32 0 0 0 -3.84,5.94 c -0.15,0.33 -0.3,0.65 -0.44,1 -8.93,0 -15.35,-6.94 -20.83,-13.15 -1,-1.15 -3.53,0.59 -4.36,-0.7 -0.09,-0.15 -0.18,-0.3 -0.28,-0.45 l 0.28,-0.52 c 3,-5.69 5.19,-10.55 5.19,-10.55 0,0 1,0.32 2.62,0.89 7.47,2.64 28.04,10.75 21.66,17.54 z"
       opacity="0.1"
       id="path325" />
    <path
       d="m 777.04,259.52 a 30.1,30.1 0 0 1 -29.82,30.09 h -0.29 a 30.05,30.05 0 0 1 -22.58,-10.2 30.66,30.66 0 0 1 -2.76,-3.65 30.11,30.11 0 1 1 55.45,-16.24 z"
       fill="#efb7b9"
       id="path327" />
    <path
       d="m 746.42,446.19 c 0,0 -2.29,2.8 -4.82,5.41 -1.91,2 -3.95,3.83 -5.26,4.3 -3,1.1 -16.75,11.53 -16.75,11.53 0,0 -10.92,7.41 -13.71,9.59 -2.79,2.18 -12.87,0.85 -12.87,0.85 0,0 -9.7,-2.12 -15.71,-6 a 39.05,39.05 0 0 1 2,-4.16 l 6.31,-15.3 25,-3.23 z"
       opacity="0.1"
       id="path329" />
    <path
       d="m 745.93,444.25 c 0,0 -2.28,2.8 -4.81,5.41 -1.91,2 -4,3.83 -5.26,4.3 -3,1.09 -16.75,11.53 -16.75,11.53 0,0 -10.93,7.41 -13.72,9.59 -2.79,2.18 -12.86,0.85 -12.86,0.85 0,0 -13.84,-3 -18.7,-8.5 -3.4,-3.83 0.12,-10.93 2.52,-14.84 1,-1.67 1.85,-2.76 1.85,-2.76 z"
       fill="#67647e"
       id="path331" />
    <path
       d="m 763.9,350.18 c -8.26,-0.73 -35.45,-34 -35.45,-34 l 0.62,-0.85 5.7,-7.89 h 13.33 l 1.47,7.28 c 10.14,14.22 16.11,24.11 17.73,29.77 1.17,4.12 0.06,6 -3.4,5.69 z"
       fill="#67647e"
       id="path333" />
    <path
       d="m 763.9,350.18 c -8.26,-0.73 -35.45,-34 -35.45,-34 l 0.62,-0.85 a 153.54,153.54 0 0 1 13.71,14.32 c 19.9,23.42 23.84,16.88 24.52,14.84 1.17,4.12 0.06,6 -3.4,5.69 z"
       opacity="0.1"
       id="path335" />
    <path
       d="m 745.93,444.25 c 0,0 -2.28,2.8 -4.81,5.41 a 13.64,13.64 0 0 1 -4.17,0.9 c -3.16,-0.12 -10.44,4.86 -10.44,4.86 0,0 -12.86,-0.73 -15.29,0.6 -2.43,1.33 -11.78,1.58 -11.78,1.58 -17.11,4.88 -21.84,-2.53 -23.09,-5 1,-1.67 1.85,-2.76 1.85,-2.76 z"
       opacity="0.1"
       id="path337" />
    <path
       d="m 775.65,371.97 c 0,0.47 -0.09,0.94 -0.15,1.39 -0.06,0.45 -0.12,0.91 -0.19,1.34 a 22,22 0 0 1 -2.19,7.09 c -2.18,3.64 -8.86,17.84 -8.86,17.84 l -0.45,2.62 -0.23,1.37 -0.24,1.35 -1.63,9.57 -0.73,11.05 c 0,0 -4,5.58 -5.7,8 -1.7,2.42 -1.46,5.95 -0.85,8.5 0.61,2.55 -5.58,2.91 -5.58,2.91 0,0 -8.74,4.25 -11.9,4.13 -3.16,-0.12 -10.44,4.84 -10.44,4.84 0,0 -12.86,-0.73 -15.29,0.61 -2.43,1.34 -11.78,1.58 -11.78,1.58 -18.32,5.21 -22.45,-3.65 -23.3,-5.47 -0.85,-1.82 3.64,-9.22 3.64,-9.22 0,0 1,-9.35 2.91,-10.08 1.91,-0.73 4.25,-13.1 4.25,-13.1 0,0 -0.73,-3.77 0.85,-5.83 1.58,-2.06 1.46,-7.89 3.52,-10.68 2.06,-2.79 -2.18,-12.14 -1.45,-14.57 0.73,-2.43 -2.31,-12.26 -2.07,-14.81 0.24,-2.55 -0.6,-4.61 -2.55,-9.71 -1.66,-4.35 -1.19,-23.68 -1,-29.22 0,-0.94 0.05,-1.48 0.05,-1.48 0,0 1.7,-5.47 6.19,-16.39 3.4,-8.27 11.05,-11.4 14.56,-12.42 a 18.28,18.28 0 0 1 1.83,-0.45 12.85,12.85 0 0 1 2.58,0.65 c 3.54,1.19 10.62,4.56 20.72,14 a 155.32,155.32 0 0 1 12.63,13.32 c 22.77,26.76 24.63,14.27 24.63,14.27 0,0 1,2.28 5.69,11.38 2.51,4.84 2.97,10.62 2.53,15.62 z"
       fill="#a36468"
       id="path339" />
    <path
       d="m 738.16,305.97 -22.84,-18.22 c 0,0 -8.23,1 -11.63,14.82 l 23.51,20.59 z"
       opacity="0.1"
       id="path341" />
    <path
       d="m 738.16,305.97 -4,5.59 -4.06,5.73 -3.06,4.49 -18.77,-15.81 -3.23,-2.8 -1.81,-1.54 c 1.83,-7.47 5.08,-11.2 7.67,-13 a 9.53,9.53 0 0 1 4,-1.79 z"
       fill="#67647e"
       id="path343" />
    <path
       d="m 895.23,378.1 c -19.06,5.7 -44.91,3.28 -44.91,3.28 0,0 -25.25,6.55 -29.13,10 -2.5,2.19 -15.27,3 -24,3.33 -4.85,0.18 -8.48,0.19 -8.48,0.19 l 5.33,-21.53 3.08,-0.14 c 6.91,-0.32 23.2,-1.14 25.2,-1.81 2.55,-0.85 25.12,-3.76 25.12,-3.76 0,0 66.84,4.73 47.79,10.44 z"
       fill="#efb7b9"
       id="path345" />
    <path
       d="m 775.31,374.65 a 22,22 0 0 1 -2.19,7.09 c -2.18,3.64 -8.86,17.84 -8.86,17.84 l -0.92,5.39 a 65.78,65.78 0 0 1 -9,-4.14 l -37.9,-26.25 c 0,0 -14.69,-9.59 -26.1,-30 -11.41,-20.41 12.14,-28.4 12.14,-28.4 13.71,-5 41.51,25 42.6,30.83 1.09,5.83 14.45,13.11 25.37,23.91 a 22.2,22.2 0 0 0 4.86,3.73 z"
       opacity="0.1"
       id="path347" />
    <path
       d="m 775.65,371.97 c -0.09,0.95 -0.2,1.86 -0.34,2.73 a 22,22 0 0 1 -2.19,7.09 c -2.18,3.64 -8.86,17.84 -8.86,17.84 l -0.45,2.62 a 64.87,64.87 0 0 1 -9.5,-4.32 l -37.87,-26.26 c 0,0 -14.69,-9.59 -26.1,-30 -11.41,-20.41 12.14,-28.41 12.14,-28.41 13.71,-5 41.51,25 42.6,30.83 1.09,5.83 14.45,13.11 25.37,23.92 a 21.89,21.89 0 0 0 5.2,3.96 z"
       opacity="0.1"
       id="path349" />
    <path
       d="m 791.33,372.52 -1.94,31.19 -11.9,1 a 5.82,5.82 0 0 1 -0.81,0.35 c -7.58,2.78 -22.37,-5.69 -22.37,-5.69 l -37.87,-26.25 c 0,0 -14.69,-9.59 -26.1,-30 -11.41,-20.41 12.14,-28.4 12.14,-28.4 13.71,-5 41.51,25 42.6,30.83 1.09,5.83 14.45,13.11 25.37,23.91 a 21.79,21.79 0 0 0 5.46,4 14.91,14.91 0 0 0 15.42,-0.94 z"
       fill="#a36468"
       id="path351" />
    <path
       d="m 791.33,372.52 -1.94,31.19 -11.9,1 a 5.82,5.82 0 0 1 -0.81,0.35 l -0.77,-15.16 c 0,0 11.29,-4.25 11.78,-4.49 0.49,-0.24 -11.78,-4.61 -11.78,-4.61 v -7.25 a 14.91,14.91 0 0 0 15.42,-1.03 z"
       opacity="0.1"
       id="path353" />
    <path
       d="m 797.14,394.66 c -4.85,0.18 -8.48,0.19 -8.48,0.19 l 5.38,-21.48 3.08,-0.14 c 1.98,3.41 1.13,13.43 0.02,21.43 z"
       opacity="0.1"
       id="path355" />
    <path
       d="m 776.88,380.77 c 0,0 12.26,4.37 11.78,4.61 -0.48,0.24 -11.78,4.49 -11.78,4.49 l 0.85,16.63 16.63,-0.91 c 0,0 6.07,-30.28 0.85,-33.32 l -18.33,-0.85 z"
       fill="#67647e"
       id="path357" />
    <path
       d="m 704.18,400.68 c 0,0 -4.13,3.88 -7.53,4.91 z"
       opacity="0.1"
       id="path359" />
    <path
       d="m 694.35,412.21 c 0,0 10.07,-0.37 11.28,-2.43 1.21,-2.06 -11.28,2.43 -11.28,2.43 z"
       opacity="0.1"
       id="path361" />
    <path
       d="m 689.37,426.65 c 0.61,0 12.74,-1.7 13.23,-3.28 z"
       opacity="0.1"
       id="path363" />
    <path
       d="m 685.61,435.88 c 4.37,-0.13 11.77,-4.86 11.77,-4.86 z"
       opacity="0.1"
       id="path365" />
    <path
       d="m 713.89,438.3 c 0,0 26.34,0 27.55,-4.85 1.21,-4.85 -27.55,4.85 -27.55,4.85 z"
       opacity="0.1"
       id="path367" />
    <path
       d="m 733.67,370.45 c 0.49,0 20.76,0 22.7,-2.79 1.94,-2.79 -22.7,2.79 -22.7,2.79 z"
       opacity="0.1"
       id="path369" />
    <path
       d="m 711.35,290.97 a 19.37,19.37 0 0 1 0.26,3 18.58,18.58 0 0 1 -0.3,3.33 28.83,28.83 0 0 1 -1.88,6.07 l -0.21,0.49 c -0.3,0.7 -0.62,1.38 -0.95,2.06 a 56.65,56.65 0 0 1 -5.24,8.64 94.48,94.48 0 0 1 -15.72,16.35 q -1.53,1.29 -3.09,2.55 c 0,-0.94 0.05,-1.48 0.05,-1.48 0,0 1.7,-5.47 6.19,-16.39 3.4,-8.27 11.05,-11.4 14.56,-12.42 l -1.81,-1.54 c 1.83,-7.47 5.08,-11.2 7.67,-13 0.16,0.74 0.35,1.52 0.47,2.34 z"
       opacity="0.1"
       id="path371" />
    <path
       d="m 772.64,243.89 a 3.52,3.52 0 0 0 -0.88,0.35 c -1.9,1.05 -2.45,3.54 -4,5.11 -1.79,1.85 -4.59,2.13 -7.14,2.45 -2.55,0.32 -5.4,0.95 -6.75,3.14 -1,1.63 -0.91,3.68 -1.27,5.56 a 1.77,1.77 0 0 1 -0.39,0.92 1.8,1.8 0 0 1 -1.22,0.4 c -5,0.35 -8.64,-1.37 -13.32,-2.58 -2.2,-0.56 -4.76,-0.49 -6.44,1 -1.52,1.37 -1.94,3.61 -1.9,5.66 v 0.18 a 38.64,38.64 0 0 1 0.18,6 9.9,9.9 0 0 1 -5.23,7.33 9.25,9.25 0 0 1 -3.78,1.08 3.06,3.06 0 0 1 -1.5,-0.22 c 0.89,-1.52 1.74,-3 2.52,-4.51 a 30.11,30.11 0 1 1 51.08,-31.88 z"
       opacity="0.1"
       id="path373" />
    <path
       d="m 780.88,240.05 a 5.08,5.08 0 0 1 -1.67,2.05 c -2.28,1.48 -5.55,-0.15 -7.93,1.17 -1.91,1.05 -2.45,3.54 -4,5.11 -1.78,1.85 -4.58,2.13 -7.14,2.45 -2.56,0.32 -5.39,0.95 -6.75,3.14 -1,1.63 -0.9,3.67 -1.27,5.56 a 1.69,1.69 0 0 1 -0.39,0.92 1.83,1.83 0 0 1 -1.22,0.4 c -5,0.35 -8.64,-1.38 -13.32,-2.58 -2.19,-0.56 -4.75,-0.49 -6.43,1 -1.68,1.49 -1.94,3.62 -1.91,5.67 a 43.82,43.82 0 0 1 0.19,6.16 10,10 0 0 1 -9,8.41 2.46,2.46 0 0 1 -1.85,-0.47 2.65,2.65 0 0 1 -0.61,-1.1 c -3.33,-9.36 -3.3,-19.75 -7.34,-28.83 a 32.59,32.59 0 0 1 -1.69,-4 c -0.08,-0.28 -0.16,-0.57 -0.22,-0.86 a 13.14,13.14 0 0 1 -0.24,-1.75 2.5,2.5 0 0 0 -1.14,0.47 2.1,2.1 0 0 0 -0.32,0.34 5.93,5.93 0 0 0 -0.84,3.17 120,120 0 0 0 3.6,37.17 38.86,38.86 0 0 1 1.73,9.33 24.93,24.93 0 0 1 -2.4,9.89 c -6.27,14.46 -18.87,25.05 -31.4,34.62 a 13.93,13.93 0 0 0 3.72,-10.33 4.08,4.08 0 0 1 -3.17,2.84 12.22,12.22 0 0 1 -4.47,-0.07 c 1.92,-0.63 2.67,-2.89 3.15,-4.85 q 1.47,-6 2.73,-12.11 a 76.26,76.26 0 0 0 1.76,-11.82 c 0.15,-3.38 -0.11,-6.77 -0.25,-10.16 a 205.65,205.65 0 0 1 1,-27.85 c 0.74,-8 2.08,-16.65 7.95,-22.11 a 34.54,34.54 0 0 1 8.4,-5.24 c 0,-1 7.33,-3 8.3,-3.14 a 7.88,7.88 0 0 1 1.22,-0.14 2.51,2.51 0 0 1 2.61,1.37 c 0.36,-0.65 0.76,-1.29 1.18,-1.9 a 22.14,22.14 0 0 1 1.9,-2.39 c 3.81,-4.2 8.75,-7.16 13.16,-10.72 a 33.84,33.84 0 0 1 5.24,-3.86 18.86,18.86 0 0 1 7.85,-2 31.85,31.85 0 0 1 13.25,2.08 c 6.08,2.34 11.39,6.54 17.68,8.24 a 42.07,42.07 0 0 1 4.59,1.27 11.12,11.12 0 0 1 5.8,15.42 z"
       fill="#444053"
       id="path375" />
    <g
       opacity="0.1"
       id="g383">
      <path
         d="m 697.57,501.65 a 13.82,13.82 0 0 0 0.91,-5.9 4.1,4.1 0 0 1 -3.18,2.84 6.49,6.49 0 0 1 -1.16,0.17 c -0.5,1.6 -1.29,3.14 -2.82,3.64 a 12.23,12.23 0 0 0 4.47,0.08 5,5 0 0 0 1.78,-0.83 z"
         transform="translate(-17.96,-172.03)"
         id="path377" />
      <path
         d="m 799.56,404.11 a 11.18,11.18 0 0 1 -1.2,4.54 5.15,5.15 0 0 1 -1.68,2 c -2.27,1.48 -5.55,-0.14 -7.93,1.17 -1.9,1.05 -2.45,3.55 -4,5.11 -1.79,1.85 -4.59,2.14 -7.14,2.45 -2.55,0.31 -5.4,1 -6.75,3.14 -1,1.63 -0.91,3.68 -1.27,5.56 a 1.4,1.4 0 0 1 -1.61,1.33 c -5,0.35 -8.64,-1.38 -13.32,-2.59 -2.2,-0.56 -4.76,-0.49 -6.44,1 -1.52,1.38 -1.94,3.61 -1.9,5.67 a 42.18,42.18 0 0 1 0.18,6.15 9.94,9.94 0 0 1 -9,8.42 2.49,2.49 0 0 1 -1.85,-0.47 2.69,2.69 0 0 1 -0.61,-1.11 c -3.33,-9.36 -3.31,-19.75 -7.35,-28.82 a 35,35 0 0 1 -1.68,-4 11.74,11.74 0 0 1 -0.47,-2.61 2.2,2.2 0 0 0 -1.46,0.81 6.14,6.14 0 0 0 -0.84,3.17 120.69,120.69 0 0 0 1,24 121,121 0 0 1 -0.49,-20.14 5.93,5.93 0 0 1 0.84,-3.17 2.1,2.1 0 0 1 1.46,-0.81 11.82,11.82 0 0 0 0.46,2.61 34.22,34.22 0 0 0 1.69,4 c 4,9.08 4,19.46 7.34,28.82 a 2.76,2.76 0 0 0 0.62,1.11 2.42,2.42 0 0 0 1.84,0.55 10,10 0 0 0 9,-8.41 43.82,43.82 0 0 0 -0.19,-6.16 c 0,-2.06 0.39,-4.29 1.91,-5.67 1.68,-1.52 4.24,-1.58 6.43,-1 4.68,1.2 8.3,2.93 13.32,2.58 a 1.83,1.83 0 0 0 1.22,-0.4 1.73,1.73 0 0 0 0.39,-0.93 c 0.37,-1.88 0.26,-3.93 1.27,-5.55 1.36,-2.19 4.2,-2.83 6.75,-3.15 2.55,-0.32 5.36,-0.59 7.15,-2.44 1.51,-1.57 2.05,-4.06 4,-5.12 2.37,-1.31 5.65,0.32 7.93,-1.16 a 5.08,5.08 0 0 0 1.67,-2.05 11.34,11.34 0 0 0 0.71,-8.43 z"
         transform="translate(-17.96,-172.03)"
         id="path379" />
      <path
         d="m 728.6,461.6 a 25,25 0 0 1 -2.39,9.89 c -5.61,12.93 -16.29,22.77 -27.44,31.54 a 14,14 0 0 1 -3.48,7 c 12.52,-9.56 25.14,-20.15 31.4,-34.61 a 24.93,24.93 0 0 0 2.4,-9.89 21.9,21.9 0 0 0 -0.51,-4.35 c 0.01,0.1 0.02,0.26 0.02,0.42 z"
         transform="translate(-17.96,-172.03)"
         id="path381" />
    </g>
    <path
       d="m 711.89,231.97 c -0.9,4.14 -2.14,9.52 -3.07,12.29 a 15,15 0 0 1 -0.24,-1.75 2.47,2.47 0 0 0 -1.13,0.47 c 0,-2.91 0.35,-7.24 0.65,-10.48 a 2.52,2.52 0 0 1 2.62,1.37 c 0.32,-0.64 0.75,-1.28 1.17,-1.9 z"
       opacity="0.1"
       id="path385" />
    <path
       d="m 711.41,231.97 c -0.9,4.14 -2.14,9.52 -3.07,12.29 a 13.14,13.14 0 0 1 -0.24,-1.75 2.5,2.5 0 0 0 -1.14,0.47 c 0,-2.91 0.35,-7.24 0.66,-10.48 a 2.51,2.51 0 0 1 2.61,1.37 c 0.36,-0.64 0.81,-1.28 1.18,-1.9 z"
       fill="#67647e"
       id="path387" />
    <rect
       style="fill:#000000;fill-opacity:1;stroke-width:1.29016"
       id="rect988"
       width="14.56115"
       height="530.68512"
       x="383.55875"
       y="122.48663"
       transform="matrix(0.97692736,-0.21357183,0.36083493,0.9326297,0,0)" />
  </g>
  <metadata
     id="metadata3146">
    <rdf:RDF>
      <cc:Work
         rdf:about="">
        <dc:title>design tools</dc:title>
      </cc:Work>
    </rdf:RDF>
  </metadata>
</svg>
