<?xml version="1.0" encoding="UTF-8" standalone="no"?>
<svg
   data-name="Layer 1"
   width="1200.953"
   height="537"
   viewBox="0 0 1200.953 537"
   version="1.1"
   id="svg78"
   sodipodi:docname="Wishlist.svg"
   inkscape:version="1.2.1 (9c6d41e410, 2022-07-14)"
   xmlns:inkscape="http://www.inkscape.org/namespaces/inkscape"
   xmlns:sodipodi="http://sodipodi.sourceforge.net/DTD/sodipodi-0.dtd"
   xmlns="http://www.w3.org/2000/svg"
   xmlns:svg="http://www.w3.org/2000/svg">
  <defs
     id="defs82" />
  <sodipodi:namedview
     id="namedview80"
     pagecolor="#ffffff"
     bordercolor="#000000"
     borderopacity="0.25"
     inkscape:showpageshadow="2"
     inkscape:pageopacity="0.0"
     inkscape:pagecheckerboard="0"
     inkscape:deskcolor="#d1d1d1"
     showgrid="false"
     inkscape:zoom="0.75440855"
     inkscape:cx="628.96954"
     inkscape:cy="217.38884"
     inkscape:window-width="1920"
     inkscape:window-height="1017"
     inkscape:window-x="-8"
     inkscape:window-y="-8"
     inkscape:window-maximized="1"
     inkscape:current-layer="svg78" />
  <path
     d="m 387.88174,303.67779 h -99.34558 a 5.5969332,5.5969332 0 0 1 0,-11.19386 h 99.34558 a 5.5969332,5.5969332 0 0 1 0,11.19386 z"
     fill="#f2f2f2"
     id="path4349-9-8"
     style="stroke-width:0.699616;opacity:0.78461538" />
  <path
     d="M 445.25034,322.56743 H 288.53616 a 5.5969332,5.5969332 0 0 1 0,-11.19386 h 156.71418 a 5.5969332,5.5969332 0 0 1 0,11.19386 z"
     fill="#f2f2f2"
     id="path4351-0-9"
     style="stroke-width:0.699616;opacity:0.78461538" />
  <path
     d="m 251.31053,323.61686 h -30.08352 a 6.653921,6.653921 0 0 1 -6.64636,-6.64636 v -18.88964 a 6.6539141,6.6539141 0 0 1 6.64636,-6.64636 h 30.08352 a 6.6539141,6.6539141 0 0 1 6.64636,6.64636 v 18.88964 a 6.653921,6.653921 0 0 1 -6.64636,6.64636 z"
     fill="#f2f2f2"
     id="path4353-3-5"
     style="stroke-width:0.699616;opacity:0.78461538" />
  <path
     d="M 842.09478,428.22141 H 536.36227 A 11.906888,11.906888 0 0 1 524.4688,416.32792 V 74.215402 a 11.906895,11.906895 0 0 1 11.89347,-11.893475 h 305.73251 a 11.906895,11.906895 0 0 1 11.89348,11.893475 V 416.32792 a 11.906888,11.906888 0 0 1 -11.89348,11.89349 z M 536.36227,63.721157 A 10.506143,10.506143 0 0 0 525.86803,74.215402 V 416.32792 a 10.506143,10.506143 0 0 0 10.49424,10.49426 h 305.73251 a 10.506143,10.506143 0 0 0 10.49425,-10.49426 V 74.215402 A 10.506143,10.506143 0 0 0 842.09478,63.721157 Z"
     fill="#3f3d56"
     id="path4325"
     style="stroke-width:0.699616" />
  <rect
     x="525.1684"
     y="91.41922"
     width="328.12021"
     height="1.3992333"
     fill="#3f3d56"
     id="rect4327"
     style="stroke-width:0.699616" />
  <circle
     cx="541.25958"
     cy="77.713478"
     r="5.5969334"
     fill="#327e62"
     id="circle4329"
     style="stroke-width:0.699616" />
  <circle
     cx="558.75006"
     cy="77.713478"
     r="5.5969334"
     fill="#327e62"
     id="circle4331"
     style="stroke-width:0.699616" />
  <circle
     cx="576.24042"
     cy="77.713478"
     r="5.5969334"
     fill="#327e62"
     id="circle4333"
     style="stroke-width:0.699616" />
  <path
     d="M 798.36874,142.77784 H 580.08831 a 9.0950165,9.0950165 0 0 1 0,-18.19003 h 218.28043 a 9.0950165,9.0950165 0 0 1 0,18.19003 z m -218.28043,-16.7908 a 7.695785,7.695785 0 0 0 0,15.39157 h 218.28043 a 7.695785,7.695785 0 0 0 0,-15.39157 z"
     fill="#3f3d56"
     id="path4335"
     style="stroke-width:0.699616" />
  <path
     d="m 744.39629,214.55191 h -99.34555 a 5.596935,5.596935 0 0 1 0,-11.19387 h 99.34555 a 5.596935,5.596935 0 0 1 0,11.19387 z"
     fill="#cccccc"
     id="path4337"
     style="stroke-width:0.699616" />
  <path
     d="M 801.76489,233.44156 H 645.05074 a 5.596935,5.596935 0 0 1 0,-11.19387 h 156.71415 a 5.596935,5.596935 0 0 1 0,11.19387 z"
     fill="#cccccc"
     id="path4339"
     style="stroke-width:0.699616" />
  <path
     d="m 607.82511,234.49098 h -30.08352 a 6.653921,6.653921 0 0 1 -6.64636,-6.64636 v -18.88965 a 6.6539141,6.6539141 0 0 1 6.64636,-6.64636 h 30.08352 a 6.6539141,6.6539141 0 0 1 6.64636,6.64636 v 18.88965 a 6.653921,6.653921 0 0 1 -6.64636,6.64636 z m -30.08352,-30.78314 a 5.2529667,5.2529667 0 0 0 -5.24712,5.24713 v 18.88965 a 5.2529737,5.2529737 0 0 0 5.24712,5.24712 h 30.08352 a 5.2529737,5.2529737 0 0 0 5.24713,-5.24712 v -18.88965 a 5.2529667,5.2529667 0 0 0 -5.24713,-5.24713 z"
     fill="#cccccc"
     id="path4341"
     style="stroke-width:0.699616" />
  <path
     d="m 744.39629,281.01548 h -99.34555 a 5.5969332,5.5969332 0 0 1 0,-11.19386 h 99.34555 a 5.5969332,5.5969332 0 0 1 0,11.19386 z"
     fill="#cccccc"
     id="path4343"
     style="stroke-width:0.699616" />
  <path
     d="M 801.76489,299.90514 H 645.05074 a 5.596935,5.596935 0 1 1 0,-11.19387 h 156.71415 a 5.596935,5.596935 0 0 1 0,11.19387 z"
     fill="#cccccc"
     id="path4345"
     style="stroke-width:0.699616" />
  <path
     d="m 607.82511,300.95456 h -30.08352 a 6.653921,6.653921 0 0 1 -6.64636,-6.64636 v -18.88965 a 6.6539141,6.6539141 0 0 1 6.64636,-6.64636 h 30.08352 a 6.6539141,6.6539141 0 0 1 6.64636,6.64636 v 18.88965 a 6.653921,6.653921 0 0 1 -6.64636,6.64636 z m -30.08352,-30.78313 a 5.2529667,5.2529667 0 0 0 -5.24712,5.24712 v 18.88965 a 5.2529737,5.2529737 0 0 0 5.24712,5.24713 h 30.08352 a 5.2529737,5.2529737 0 0 0 5.24713,-5.24713 v -18.88965 a 5.2529667,5.2529667 0 0 0 -5.24713,-5.24712 z"
     fill="#cccccc"
     id="path4347"
     style="stroke-width:0.699616" />
  <path
     d="m 744.39629,347.47907 h -99.34555 a 5.5969332,5.5969332 0 0 1 0,-11.19386 h 99.34555 a 5.5969332,5.5969332 0 0 1 0,11.19386 z"
     fill="#f2f2f2"
     id="path4349"
     style="stroke-width:0.699616" />
  <path
     d="M 801.76489,366.36871 H 645.05074 a 5.5969332,5.5969332 0 0 1 0,-11.19386 h 156.71415 a 5.5969332,5.5969332 0 0 1 0,11.19386 z"
     fill="#f2f2f2"
     id="path4351"
     style="stroke-width:0.699616" />
  <path
     d="m 607.82511,367.41814 h -30.08352 a 6.653921,6.653921 0 0 1 -6.64636,-6.64636 v -18.88964 a 6.6539141,6.6539141 0 0 1 6.64636,-6.64636 h 30.08352 a 6.6539141,6.6539141 0 0 1 6.64636,6.64636 v 18.88964 a 6.653921,6.653921 0 0 1 -6.64636,6.64636 z"
     fill="#f2f2f2"
     id="path4353"
     style="stroke-width:0.699616" />
  <path
     d="m 1021.4877,461.4292 h -99.34558 a 5.5969332,5.5969332 0 0 1 0,-11.19386 h 99.34558 a 5.5969332,5.5969332 0 0 1 0,11.19386 z"
     fill="#f2f2f2"
     id="path4349-9"
     style="stroke-width:0.699616" />
  <path
     d="M 1078.8563,480.31884 H 922.14212 a 5.5969332,5.5969332 0 0 1 0,-11.19386 h 156.71418 a 5.5969332,5.5969332 0 0 1 0,11.19386 z"
     fill="#f2f2f2"
     id="path4351-0"
     style="stroke-width:0.699616" />
  <path
     d="m 884.91649,481.36827 h -30.08352 a 6.653921,6.653921 0 0 1 -6.64636,-6.64636 v -18.88964 a 6.6539141,6.6539141 0 0 1 6.64636,-6.64636 h 30.08352 a 6.6539141,6.6539141 0 0 1 6.64636,6.64636 v 18.88964 a 6.653921,6.653921 0 0 1 -6.64636,6.64636 z"
     fill="#f2f2f2"
     id="path4353-3"
     style="stroke-width:0.699616" />
  <path
     d="m 592.78336,228.71099 -1.61997,-1.46136 c -5.75267,-5.28163 -9.55054,-8.70967 -9.55054,-12.97998 a 6.0749603,6.0749603 0 0 1 6.14376,-6.18106 6.6081522,6.6081522 0 0 1 5.02675,2.36012 6.6078793,6.6078793 0 0 1 5.02667,-2.36012 6.0749672,6.0749672 0 0 1 6.14375,6.18106 c 0,4.27034 -3.79787,7.69838 -9.55054,12.97998 z"
     fill="#327e62"
     id="path4355"
     style="stroke-width:0.699616" />
  <path
     d="m 592.78336,295.17456 -1.61997,-1.46134 c -5.75267,-5.28165 -9.55054,-8.70968 -9.55054,-12.97999 a 6.0749603,6.0749603 0 0 1 6.14376,-6.18107 6.6081522,6.6081522 0 0 1 5.02675,2.36014 6.6078793,6.6078793 0 0 1 5.02667,-2.36014 6.0749672,6.0749672 0 0 1 6.14375,6.18107 c 0,4.27034 -3.79787,7.69838 -9.55054,12.97999 z"
     fill="#327e62"
     id="path4357"
     style="stroke-width:0.699616" />
  <path
     d="m 465.69001,283.99372 h -30.08352 a 6.653921,6.653921 0 0 1 -6.64636,-6.64636 v -18.88965 a 6.6539141,6.6539141 0 0 1 6.64636,-6.64636 h 30.08352 a 6.6539141,6.6539141 0 0 1 6.64636,6.64636 v 18.88965 a 6.653921,6.653921 0 0 1 -6.64636,6.64636 z m -30.08352,-30.78314 a 5.2529667,5.2529667 0 0 0 -5.24711,5.24713 v 18.88965 a 5.2529737,5.2529737 0 0 0 5.24711,5.24711 h 30.08352 a 5.2529737,5.2529737 0 0 0 5.24713,-5.24711 v -18.88965 a 5.2529667,5.2529667 0 0 0 -5.24713,-5.24713 z"
     fill="#3f3d56"
     id="path4359"
     style="stroke-width:0.699616" />
  <path
     d="m 450.64826,278.21372 -1.61997,-1.46135 c -5.75267,-5.28164 -9.55053,-8.70967 -9.55053,-12.97998 a 6.0749603,6.0749603 0 0 1 6.14375,-6.18107 6.6081312,6.6081312 0 0 1 5.02675,2.36014 6.6078793,6.6078793 0 0 1 5.02673,-2.36014 6.0749743,6.0749743 0 0 1 6.14377,6.18107 c 0,4.27033 -3.79795,7.69838 -9.55055,12.97998 z"
     fill="#327e62"
     id="path4361"
     style="stroke-width:0.699616" />
  <polygon
     points="116.76,469.207 126.965,512.106 138.087,509.46 133.175,465.302 "
     fill="#ffb8b8"
     id="polygon4363"
     transform="matrix(0.69961666,0,0,0.69961666,344.42493,62.321927)" />
  <path
     d="m 457.75755,422.4043 -24.45469,5.81711 -2.24752,-9.4484 15.00629,-3.56958 a 9.7120294,9.7120294 0 0 1 11.69592,7.2008 v 0 z"
     fill="#2f2e41"
     id="path4365"
     style="stroke-width:0.699616" />
  <path
     d="m 425.61401,400.70705 -16.89941,-57.91856 21.11796,-5.23825 12.38881,61.33979 a 3.148142,3.148142 0 0 1 -2.99233,3.77035 l -10.49915,0.31189 c -0.0314,7e-4 -0.063,0.001 -0.0944,0.001 a 3.1486737,3.1486737 0 0 1 -3.02143,-2.26658 z"
     fill="#2f2e41"
     id="path4367"
     style="stroke-width:0.699616" />
  <polygon
     points="58.086,468.289 58.09,512.384 69.522,512.383 74.959,468.287 "
     fill="#ffb8b8"
     id="polygon4369"
     transform="matrix(0.69961666,0,0,0.69961666,344.42493,62.321927)" />
  <path
     d="m 408.48959,428.21917 h -25.13704 l -7.1e-4,-9.712 h 15.42503 a 9.7120294,9.7120294 0 0 1 9.7129,9.71116 v 0 z"
     fill="#2f2e41"
     id="path4371"
     style="stroke-width:0.699616" />
  <path
     d="m 383.66129,408.80764 a 3.0891433,3.0891433 0 0 1 -0.94062,-2.18938 l -7.28688,-57.77783 a 3.1527944,3.1527944 0 0 1 3.1254,-3.16399 l 16.26489,-0.11789 h 0.0232 a 3.1567053,3.1567053 0 0 1 3.14757,3.10011 l 0.86463,56.91696 a 3.1461761,3.1461761 0 0 1 -3.07535,3.19439 l -9.87354,0.93841 c -0.0152,3.3e-4 -0.0304,3.3e-4 -0.0456,3.3e-4 a 3.1255724,3.1255724 0 0 1 -2.20372,-0.90113 z"
     fill="#2f2e41"
     id="path4373"
     style="stroke-width:0.699616" />
  <circle
     cx="387.14676"
     cy="200.3898"
     r="17.183304"
     fill="#ffb8b8"
     id="circle4375"
     style="stroke-width:0.699616" />
  <path
     d="m 364.50928,345.82234 c -11.18016,-8.73565 -11.06183,-18.92688 -7.24692,-32.53901 1.0747,-3.83461 2.23463,-7.72106 3.46255,-11.83575 5.70537,-19.11683 12.17189,-40.78479 9.71691,-58.67557 l 0.34657,-0.0474 -0.34657,0.0474 c -0.67245,-4.90005 1.04158,-10.05426 4.70226,-14.1406 3.66086,-4.08701 8.58825,-6.35155 13.54141,-6.22379 4.94446,0.13186 9.75245,2.65944 13.19075,6.93503 3.42156,4.25475 5.05462,19.21554 5.5387,21.35982 2.22234,9.84144 3.56367,15.7817 4.52564,25.25794 1.13772,11.2031 14.76371,44.6993 19.10567,50.31638 a 13.292486,13.292486 0 0 1 2.57236,10.58717 12.45673,12.45673 0 0 1 -5.91548,8.49003 71.114864,71.114864 0 0 1 -22.8817,9.00483 56.091345,56.091345 0 0 1 -10.6531,1.02516 c -11.09375,0 -21.6939,-3.33821 -29.65905,-9.56164 z"
     fill="#327e62"
     id="path4377"
     style="stroke-width:0.699616" />
  <path
     d="m 435.96631,281.0849 a 6.5602634,6.5602634 0 0 0 -9.82856,-2.1427 l -13.02075,-7.42977 -6.44494,6.81147 18.53519,10.23399 a 6.5958388,6.5958388 0 0 0 10.75906,-7.473 z"
     fill="#ffb8b8"
     id="path4379"
     style="stroke-width:0.699616" />
  <path
     d="m 416.11712,286.12125 -23.33724,-7.33162 a 16.064234,16.064234 0 0 1 -11.20035,-14.5717 l -1.00417,-22.67538 a 9.4948403,9.4948403 0 1 1 18.97592,-0.12776 l -0.64188,20.86246 24.83757,10.12939 a 3.1484568,3.1484568 0 0 1 1.38381,4.72959 l -5.49699,7.79588 a 3.1401104,3.1401104 0 0 1 -3.51669,1.18914 z"
     fill="#2f2e41"
     id="path4381"
     style="stroke-width:0.699616" />
  <path
     d="m 359.45415,221.77224 c 0.78518,-4.70912 0.75633,-9.59001 0.7283,-14.31038 -0.007,-1.28137 -0.0152,-2.56241 -0.007,-3.84106 0.0365,-5.94229 0.40531,-12.24056 2.83467,-18.03869 2.64406,-6.31022 7.54035,-10.86695 13.09766,-12.18898 6.26546,-1.49215 13.064,1.80641 15.11077,7.23768 a 10.499147,10.499147 0 1 1 6.40056,19.56775 l -0.26253,0.0232 -2.04743,-5.32092 c -0.0112,0.0933 -0.0227,0.18755 -0.034,0.28252 -0.13033,1.1034 -0.2651,2.24404 -1.17599,2.903 v 0 c -1.13723,0.82259 -2.55354,3.52985 -2.13967,6.27263 a 23.648554,23.648554 0 0 0 1.14882,4.11469 22.581386,22.581386 0 0 1 1.21886,4.53316 7.7411742,7.7411742 0 0 1 -1.44978,5.60651 4.3281225,4.3281225 0 0 1 -2.96534,1.70154 l -23.07882,2.3865 -1.03183,-7.70877 -6.56472,8.08522 z"
     fill="#2f2e41"
     id="path4383"
     style="stroke-width:0.699616" />
  <path
     d="M 479.45098,428.6346 H 345.12455 a 0.69961666,0.69961666 0 0 1 0,-1.39923 h 134.32643 a 0.69961666,0.69961666 0 0 1 0,1.39923 z"
     fill="#cccccc"
     id="path4385"
     style="stroke-width:0.699616" />
  <path
     d="m 348.54244,105.18867 h -99.34547 a 5.596935,5.596935 0 0 1 0,-11.193874 h 99.34547 a 5.596935,5.596935 0 0 1 0,11.193874 z"
     fill="#cccccc"
     id="path4337-9"
     style="stroke-width:0.699616;opacity:0.53846154" />
  <path
     d="M 405.91104,124.07832 H 249.19697 a 5.596935,5.596935 0 0 1 0,-11.19387 h 156.71407 a 5.596935,5.596935 0 0 1 0,11.19387 z"
     fill="#cccccc"
     id="path4339-4"
     style="stroke-width:0.699616;opacity:0.53846154" />
  <path
     d="m 211.97133,125.12774 h -30.08352 a 6.653921,6.653921 0 0 1 -6.64636,-6.64636 V 99.591726 a 6.6539141,6.6539141 0 0 1 6.64636,-6.64636 h 30.08352 a 6.6539141,6.6539141 0 0 1 6.64636,6.64636 v 18.889654 a 6.653921,6.653921 0 0 1 -6.64636,6.64636 z M 181.88781,94.344596 a 5.2529667,5.2529667 0 0 0 -5.24712,5.24713 v 18.889654 a 5.2529737,5.2529737 0 0 0 5.24712,5.24712 h 30.08352 a 5.2529737,5.2529737 0 0 0 5.24713,-5.24712 V 99.591726 a 5.2529667,5.2529667 0 0 0 -5.24713,-5.24713 z"
     fill="#cccccc"
     id="path4341-5"
     style="stroke-width:0.699616;opacity:0.53846154" />
  <path
     d="m 196.92958,119.34775 -1.61997,-1.46136 c -5.75267,-5.28163 -9.55054,-8.70967 -9.55054,-12.97998 a 6.0749603,6.0749603 0 0 1 6.14376,-6.181064 6.6081522,6.6081522 0 0 1 5.02675,2.360124 6.6078793,6.6078793 0 0 1 5.02667,-2.360124 6.0749672,6.0749672 0 0 1 6.14375,6.181064 c 0,4.27034 -3.79787,7.69838 -9.55054,12.97998 z"
     fill="#327e62"
     id="path4355-6"
     style="stroke-width:0.699616;opacity:0.53846154" />
  <path
     d="m 1064.6393,225.79051 h -99.34544 a 5.59694,5.59694 0 0 1 0,-11.19388 h 99.34544 a 5.59694,5.59694 0 0 1 0,11.19388 z"
     fill="#cccccc"
     id="path4337-9-7"
     style="opacity:0.75;stroke-width:0.699616" />
  <path
     d="M 1122.0079,244.68016 H 965.29386 a 5.596935,5.596935 0 0 1 0,-11.19387 h 156.71404 a 5.596935,5.596935 0 0 1 0,11.19387 z"
     fill="#cccccc"
     id="path4339-4-6"
     style="opacity:0.75;stroke-width:0.699616" />
  <path
     d="M 928.06822,245.72958 H 897.9847 a 6.653921,6.653921 0 0 1 -6.64636,-6.64636 v -18.88966 a 6.6539141,6.6539141 0 0 1 6.64636,-6.64636 h 30.08352 a 6.6539141,6.6539141 0 0 1 6.64636,6.64636 v 18.88966 a 6.653921,6.653921 0 0 1 -6.64636,6.64636 z M 897.9847,214.94643 a 5.2529667,5.2529667 0 0 0 -5.24712,5.24713 v 18.88966 a 5.2529737,5.2529737 0 0 0 5.24712,5.24712 h 30.08352 a 5.2529737,5.2529737 0 0 0 5.24713,-5.24712 v -18.88966 a 5.2529667,5.2529667 0 0 0 -5.24713,-5.24713 z"
     fill="#cccccc"
     id="path4341-5-2"
     style="opacity:0.75;stroke-width:0.699616" />
  <path
     d="m 913.02647,239.94959 -1.61997,-1.46136 c -5.75267,-5.28163 -9.55054,-8.70967 -9.55054,-12.97998 a 6.0749603,6.0749603 0 0 1 6.14376,-6.18107 6.6081522,6.6081522 0 0 1 5.02675,2.36013 6.6078793,6.6078793 0 0 1 5.02667,-2.36013 6.0749672,6.0749672 0 0 1 6.14375,6.18107 c 0,4.27034 -3.79787,7.69838 -9.55054,12.97998 z"
     fill="#327e62"
     id="path4355-6-7"
     style="opacity:0.75;stroke-width:0.699616" />
  <path
     d="m 663.59136,453.46401 h -99.34544 a 5.59694,5.59694 0 0 1 0,-11.19388 h 99.34544 a 5.59694,5.59694 0 0 1 0,11.19388 z"
     fill="#cccccc"
     id="path4337-9-7-2"
     style="opacity:0.77692308;stroke-width:0.699616" />
  <path
     d="M 720.95996,472.35366 H 564.24592 a 5.596935,5.596935 0 0 1 0,-11.19387 h 156.71404 a 5.596935,5.596935 0 0 1 0,11.19387 z"
     fill="#cccccc"
     id="path4339-4-6-5"
     style="opacity:0.77692308;stroke-width:0.699616" />
  <path
     d="m 527.02028,473.40308 h -30.08352 a 6.653921,6.653921 0 0 1 -6.64636,-6.64636 v -18.88966 a 6.6539141,6.6539141 0 0 1 6.64636,-6.64636 h 30.08352 a 6.6539141,6.6539141 0 0 1 6.64636,6.64636 v 18.88966 a 6.653921,6.653921 0 0 1 -6.64636,6.64636 z m -30.08352,-30.78315 a 5.2529667,5.2529667 0 0 0 -5.24712,5.24713 v 18.88966 a 5.2529737,5.2529737 0 0 0 5.24712,5.24712 h 30.08352 a 5.2529737,5.2529737 0 0 0 5.24713,-5.24712 v -18.88966 a 5.2529667,5.2529667 0 0 0 -5.24713,-5.24713 z"
     fill="#cccccc"
     id="path4341-5-2-6"
     style="opacity:0.77692308;stroke-width:0.699616" />
  <path
     d="m 511.97853,467.62309 -1.61997,-1.46136 c -5.75267,-5.28163 -9.55054,-8.70967 -9.55054,-12.97998 a 6.0749603,6.0749603 0 0 1 6.14376,-6.18107 6.6081522,6.6081522 0 0 1 5.02675,2.36013 6.6078793,6.6078793 0 0 1 5.02667,-2.36013 6.0749672,6.0749672 0 0 1 6.14375,6.18107 c 0,4.27034 -3.79787,7.69838 -9.55054,12.97998 z"
     fill="#327e62"
     id="path4355-6-7-9"
     style="opacity:0.77692308;stroke-width:0.699616" />
</svg>
