<?xml version="1.0" encoding="UTF-8" standalone="no"?>
<svg
   data-name="Layer 1"
   width="800"
   height="800"
   viewBox="0 0 800.00001 800"
   version="1.1"
   id="svg6753"
   sodipodi:docname="WishlistMobile.svg"
   inkscape:version="1.2.1 (9c6d41e410, 2022-07-14)"
   xmlns:inkscape="http://www.inkscape.org/namespaces/inkscape"
   xmlns:sodipodi="http://sodipodi.sourceforge.net/DTD/sodipodi-0.dtd"
   xmlns="http://www.w3.org/2000/svg"
   xmlns:svg="http://www.w3.org/2000/svg">
  <defs
     id="defs6757" />
  <sodipodi:namedview
     id="namedview6755"
     pagecolor="#ffffff"
     bordercolor="#000000"
     borderopacity="0.25"
     inkscape:showpageshadow="2"
     inkscape:pageopacity="0.0"
     inkscape:pagecheckerboard="0"
     inkscape:deskcolor="#d1d1d1"
     showgrid="false"
     inkscape:zoom="0.9914615"
     inkscape:cx="319.22571"
     inkscape:cy="413.53093"
     inkscape:window-width="1920"
     inkscape:window-height="1017"
     inkscape:window-x="-8"
     inkscape:window-y="-8"
     inkscape:window-maximized="1"
     inkscape:current-layer="svg6753" />
  <rect
     id="b176a470-c9a0-4b19-a249-9749cef70ca2"
     data-name="Rectangle 75"
     y="32.15836"
     width="782.50085"
     height="322.43356"
     fill="#cbcbcb"
     x="6.1426797"
     style="stroke-width:1.80159" />
  <path
     d="M 22.511023,338.53025 H 772.27528 V 48.219943 H 22.511023 Z"
     fill="#ffffff"
     id="path6051"
     style="stroke-width:1.80159" />
  <path
     d="m 691.59637,162.85565 v 92.81649 a 4.6236911,4.6236911 0 0 1 -4.61368,4.61368 h -99.87277 a 4.6238519,4.6238519 0 0 1 -4.61368,-4.61368 v -92.81649 a 4.6168539,4.6168539 0 0 1 4.61368,-4.61368 h 99.87277 a 4.6166934,4.6166934 0 0 1 4.61368,4.61368 z"
     fill="#327e62"
     id="path6053"
     style="stroke-width:1.33804" />
  <path
     d="m 644.10184,260.75256 h -14.1124 a 4.5605359,4.5605359 0 0 1 -4.61368,-4.49457 v -96.28087 a 4.5605628,4.5605628 0 0 1 4.61368,-4.49456 h 14.1124 a 4.5605628,4.5605628 0 0 1 4.61369,4.49456 v 96.28087 a 4.5605493,4.5605493 0 0 1 -4.61369,4.49457 z"
     fill="#3f3d56"
     id="path6055"
     style="fill:#ececec;stroke-width:1.33804" />
  <path
     d="m 634.13989,129.18924 c 7.2531,6.2779 4.96291,20.80647 4.96291,20.80647 0,0 -14.05005,4.35012 -21.30314,-1.92779 -7.25322,-6.27792 -4.96291,-20.80647 -4.96291,-20.80647 0,0 14.04991,-4.3501 21.30314,1.92779 z"
     fill="#3f3d56"
     id="path6057"
     style="fill:#cccccc;stroke-width:1.33804" />
  <path
     d="m 658.23136,146.86478 c -6.25518,7.27273 -20.79093,5.02783 -20.79093,5.02783 0,0 -4.39384,-14.03636 1.8612,-21.30907 6.25519,-7.27271 20.79095,-5.02784 20.79095,-5.02784 0,0 4.39397,14.03638 -1.86122,21.30908 z"
     fill="#3f3d56"
     id="path6059"
     style="fill:#b3b3b3;stroke-width:1.33804" />
  <path
     d="m 691.59637,162.85565 v 15.62681 L 582.49624,178.0211 v -15.16545 a 4.6168539,4.6168539 0 0 1 4.61368,-4.61368 h 99.87277 a 4.6166934,4.6166934 0 0 1 4.61368,4.61368 z"
     opacity="0.2"
     id="path6061"
     style="stroke-width:1.33804" />
  <path
     d="m 703.34406,172.35609 a 4.6076215,4.6076215 0 0 1 -3.68668,1.81738 l -121.58307,-0.50998 a 4.6136827,4.6136827 0 0 1 -4.59442,-4.63291 v 0 l 0.0575,-13.56971 a 4.6128398,4.6128398 0 0 1 4.63175,-4.59384 h 10e-4 l 121.5828,0.50966 a 4.6136961,4.6136961 0 0 1 4.59441,4.63293 v 0 l -0.0575,13.56968 a 4.5884876,4.5884876 0 0 1 -0.94612,2.77679 z"
     fill="#327e62"
     id="path6063"
     style="stroke-width:1.33804" />
  <rect
     x="-171.89986"
     y="626.26379"
     width="24.425383"
     height="23.339823"
     transform="rotate(-89.77043)"
     fill="#3f3d56"
     id="rect6065"
     style="fill:#e6e6e6;stroke-width:1.33804" />
  <rect
     id="b0bfb71d-a32e-4f0c-b04f-06b3baf1791c"
     data-name="Rectangle 81"
     x="297.90363"
     y="156.89801"
     width="134.96396"
     height="10.775207"
     fill="#e5e5e5"
     style="stroke-width:1.33804" />
  <rect
     id="a096be4f-2cf6-461f-ae56-f8547c16e35b"
     data-name="Rectangle 82"
     x="297.90363"
     y="196.20145"
     width="208.41429"
     height="10.775207"
     fill="#327e62"
     style="stroke-width:1.33804" />
  <rect
     id="be15e58f-5799-4307-babb-7d5595f0559e"
     data-name="Rectangle 83"
     x="297.90363"
     y="233.22894"
     width="169.85249"
     height="10.775207"
     fill="#e5e5e5"
     style="stroke-width:1.33804" />
  <path
     d="M 210.95771,260.18946 H 87.190388 A 27.375055,27.375055 0 0 1 59.846439,232.84551 V 155.13112 A 27.375025,27.375025 0 0 1 87.190388,127.78717 H 210.95771 a 27.375025,27.375025 0 0 1 27.34396,27.34395 v 77.71439 a 27.375055,27.375055 0 0 1 -27.34396,27.34395 z M 87.190388,133.54377 a 21.611355,21.611355 0 0 0 -21.587306,21.58735 v 77.71439 a 21.611384,21.611384 0 0 0 21.587306,21.58731 H 210.95771 a 21.611384,21.611384 0 0 0 21.58734,-21.58731 v -77.71439 a 21.611355,21.611355 0 0 0 -21.58734,-21.58735 z"
     fill="#cccccc"
     id="path4341-5-2"
     style="stroke-width:2.8783" />
  <path
     d="m 149.0741,236.40987 -6.66475,-6.01222 c -23.6672,-21.72926 -39.29211,-35.83266 -39.29211,-53.40125 a 24.993138,24.993138 0 0 1 25.27619,-25.42968 27.186755,27.186755 0 0 1 20.68067,9.70988 27.185633,27.185633 0 0 1 20.68034,-9.70988 24.993167,24.993167 0 0 1 25.27615,25.42968 c 0,17.56872 -15.6249,31.6721 -39.2921,53.40125 z"
     fill="#327e62"
     id="path4355-6-7"
     style="stroke-width:2.8783" />
  <rect
     id="b176a470-c9a0-4b19-a249-9749cef70ca2-5"
     data-name="Rectangle 75"
     y="375.36484"
     width="782.50085"
     height="322.43356"
     fill="#cbcbcb"
     x="6.1427073"
     style="stroke-width:1.80159" />
  <path
     d="M 22.511051,681.73671 H 772.27527 V 391.4264 H 22.511051 Z"
     fill="#ffffff"
     id="path6051-4"
     style="stroke-width:1.80159" />
  <path
     d="m 691.5964,506.06211 v 92.81649 a 4.6236911,4.6236911 0 0 1 -4.61368,4.61368 h -99.87277 a 4.6238519,4.6238519 0 0 1 -4.61368,-4.61368 v -92.81649 a 4.6168539,4.6168539 0 0 1 4.61368,-4.61368 h 99.87277 a 4.6166934,4.6166934 0 0 1 4.61368,4.61368 z"
     fill="#327e62"
     id="path6053-5"
     style="stroke-width:1.33804;fill:#169a68;fill-opacity:1" />
  <path
     d="m 644.10187,603.95902 h -14.1124 a 4.5605359,4.5605359 0 0 1 -4.61368,-4.49457 v -96.28087 a 4.5605628,4.5605628 0 0 1 4.61368,-4.49456 h 14.1124 a 4.5605628,4.5605628 0 0 1 4.61369,4.49456 v 96.28087 a 4.5605493,4.5605493 0 0 1 -4.61369,4.49457 z"
     fill="#3f3d56"
     id="path6055-8"
     style="fill:#ececec;stroke-width:1.33804" />
  <path
     d="m 634.13992,472.3957 c 7.2531,6.2779 4.96291,20.80647 4.96291,20.80647 0,0 -14.05005,4.35012 -21.30314,-1.92779 -7.25322,-6.27792 -4.96291,-20.80647 -4.96291,-20.80647 0,0 14.04991,-4.3501 21.30314,1.92779 z"
     fill="#3f3d56"
     id="path6057-1"
     style="fill:#cccccc;stroke-width:1.33804" />
  <path
     d="m 658.23139,490.07124 c -6.25518,7.27273 -20.79093,5.02783 -20.79093,5.02783 0,0 -4.39384,-14.03636 1.8612,-21.30907 6.25519,-7.27271 20.79095,-5.02784 20.79095,-5.02784 0,0 4.39397,14.03638 -1.86122,21.30908 z"
     fill="#3f3d56"
     id="path6059-8"
     style="fill:#b3b3b3;stroke-width:1.33804" />
  <path
     d="m 691.5964,506.06211 v 15.62681 l -109.10013,-0.46136 v -15.16545 a 4.6168539,4.6168539 0 0 1 4.61368,-4.61368 h 99.87277 a 4.6166934,4.6166934 0 0 1 4.61368,4.61368 z"
     opacity="0.2"
     id="path6061-3"
     style="stroke-width:1.33804" />
  <path
     d="m 703.34409,515.56255 a 4.6076215,4.6076215 0 0 1 -3.68668,1.81738 l -121.58307,-0.50998 a 4.6136827,4.6136827 0 0 1 -4.59442,-4.63291 v 0 l 0.0575,-13.56971 a 4.6128398,4.6128398 0 0 1 4.63175,-4.59384 h 10e-4 l 121.5828,0.50966 a 4.6136961,4.6136961 0 0 1 4.59441,4.63293 v 0 l -0.0575,13.56968 a 4.5884876,4.5884876 0 0 1 -0.94612,2.77679 z"
     fill="#327e62"
     id="path6063-1"
     style="stroke-width:1.33804;fill:#169a68;fill-opacity:1" />
  <rect
     x="-515.10358"
     y="627.63898"
     width="24.425383"
     height="23.339823"
     transform="rotate(-89.77043)"
     fill="#3f3d56"
     id="rect6065-5"
     style="fill:#e6e6e6;stroke-width:1.33804" />
  <rect
     id="b0bfb71d-a32e-4f0c-b04f-06b3baf1791c-6"
     data-name="Rectangle 81"
     x="297.90363"
     y="500.10446"
     width="134.96396"
     height="10.775207"
     fill="#e5e5e5"
     style="stroke-width:1.33804" />
  <rect
     id="a096be4f-2cf6-461f-ae56-f8547c16e35b-8"
     data-name="Rectangle 82"
     x="297.90363"
     y="539.4079"
     width="208.41429"
     height="10.775207"
     fill="#327e62"
     style="stroke-width:1.33804;fill:#e5e5e5;fill-opacity:1" />
  <rect
     id="be15e58f-5799-4307-babb-7d5595f0559e-8"
     data-name="Rectangle 83"
     x="297.90363"
     y="576.43542"
     width="169.85249"
     height="10.775207"
     fill="#e5e5e5"
     style="stroke-width:1.33804;fill:#327e62;fill-opacity:1" />
  <path
     d="M 210.95774,603.39592 H 87.190421 a 27.375055,27.375055 0 0 1 -27.34395,-27.34395 v -77.71439 a 27.375025,27.375025 0 0 1 27.34395,-27.34395 H 210.95774 a 27.375025,27.375025 0 0 1 27.34396,27.34395 v 77.71439 a 27.375055,27.375055 0 0 1 -27.34396,27.34395 z M 87.190421,476.75023 a 21.611355,21.611355 0 0 0 -21.58731,21.58735 v 77.71439 a 21.611384,21.611384 0 0 0 21.58731,21.58731 H 210.95774 a 21.611384,21.611384 0 0 0 21.58734,-21.58731 v -77.71439 a 21.611355,21.611355 0 0 0 -21.58734,-21.58735 z"
     fill="#cccccc"
     id="path4341-5-2-4"
     style="stroke-width:2.8783" />
  <path
     d="m 149.07413,579.61633 -6.66475,-6.01222 c -23.6672,-21.72926 -39.29211,-35.83266 -39.29211,-53.40125 a 24.993138,24.993138 0 0 1 25.27619,-25.42968 27.186755,27.186755 0 0 1 20.68067,9.70988 27.185633,27.185633 0 0 1 20.68034,-9.70988 24.993167,24.993167 0 0 1 25.27615,25.42968 c 0,17.56872 -15.6249,31.6721 -39.2921,53.40125 z"
     fill="#327e62"
     id="path4355-6-7-7"
     style="stroke-width:2.8783" />
</svg>
